<svg width="5242" height="5499" viewBox="0 0 5242 5499" fill="none" xmlns="http://www.w3.org/2000/svg">
<path d="M0 200C0 89.5432 89.5431 0 200 0H5042C5152.46 0 5242 89.543 5242 200V5299C5242 5409.46 5152.46 5499 5042 5499H200C89.5429 5499 0 5409.46 0 5299V200Z" fill="#230E0E"/>
<path d="M1454.75 4056C1410.42 4056 1371.92 4040.83 1339.25 4010.5C1306.58 3977.83 1290.25 3938.17 1290.25 3891.5V1487C1290.25 1438 1305.42 1398.33 1335.75 1368C1368.42 1337.67 1408.08 1322.5 1454.75 1322.5H3061.25C3110.25 1322.5 3148.75 1337.67 3176.75 1368C3207.08 1396 3222.25 1433.33 3222.25 1480C3222.25 1522 3207.08 1558.17 3176.75 1588.5C3148.75 1616.5 3110.25 1630.5 3061.25 1630.5H1619.25V2526.5H2658.75C2707.75 2526.5 2747.42 2541.67 2777.75 2572C2808.08 2600 2823.25 2636.17 2823.25 2680.5C2823.25 2724.83 2808.08 2762.17 2777.75 2792.5C2747.42 2820.5 2707.75 2834.5 2658.75 2834.5H1619.25V3891.5C1619.25 3938.17 1602.92 3977.83 1570.25 4010.5C1539.92 4040.83 1501.42 4056 1454.75 4056Z" fill="#757070"/>
<path d="M602.668 3975C551.335 3975 508.168 3957.5 473.168 3922.5C438.168 3887.5 420.668 3844.33 420.668 3793V1423.5C420.668 1369.83 438.168 1326.67 473.168 1294C508.168 1259 551.335 1241.5 602.668 1241.5H1302.67C1477.67 1241.5 1632.83 1280 1768.17 1357C1903.5 1434 2008.5 1541.33 2083.17 1679C2160.17 1814.33 2198.67 1970.67 2198.67 2148C2198.67 2318.33 2160.17 2470 2083.17 2603C2008.5 2736 1903.5 2839.83 1768.17 2914.5C1632.83 2989.17 1477.67 3026.5 1302.67 3026.5H784.668V3793C784.668 3844.33 767.168 3887.5 732.168 3922.5C699.501 3957.5 656.335 3975 602.668 3975ZM784.668 2690.5H1302.67C1410 2690.5 1504.5 2667.17 1586.17 2620.5C1667.83 2573.83 1732 2509.67 1778.67 2428C1825.33 2346.33 1848.67 2253 1848.67 2148C1848.67 2036 1825.33 1938 1778.67 1854C1732 1767.67 1667.83 1700 1586.17 1651C1504.5 1602 1410 1577.5 1302.67 1577.5H784.668V2690.5Z" fill="#FDF8F8"/>
<path d="M2855.03 3975C2789.7 3975 2739.53 3947 2704.53 3891C2669.53 3835 2666.03 3775.5 2694.03 3712.5L3677.53 1364C3712.53 1282.33 3769.7 1241.5 3849.03 1241.5C3933.03 1241.5 3990.2 1282.33 4020.53 1364L5007.53 3719.5C5033.2 3784.83 5028.53 3844.33 4993.53 3898C4960.86 3949.33 4910.7 3975 4843.03 3975C4808.03 3975 4774.2 3965.67 4741.53 3947C4711.2 3926 4689.03 3898 4675.03 3863L3807.03 1707H3905.03L3023.03 3863C3006.7 3900.33 2982.2 3928.33 2949.53 3947C2919.2 3965.67 2887.7 3975 2855.03 3975ZM3040.53 3373L3180.53 3072H4552.53L4692.53 3373H3040.53Z" fill="#757070"/>
</svg>
