<svg width="1024" height="1024" viewBox="0 0 1024 1024" fill="none" xmlns="http://www.w3.org/2000/svg">
<g clip-path="url(#clip0_159_805)">
<path d="M0 512C0 229.229 229.229 0 512 0C794.771 0 1024 229.229 1024 512C1024 794.771 794.771 1024 512 1024C229.229 1024 0 794.771 0 512Z" fill="#0F0F0F"/>
<path d="M344.088 695.051C336.737 695.051 330.354 692.535 324.938 687.506C319.521 682.09 316.812 675.513 316.812 667.777V269.106C316.812 260.983 319.328 254.406 324.357 249.377C329.773 244.348 336.35 241.832 344.088 241.832H610.448C618.571 241.832 624.955 244.348 629.597 249.377C634.628 254.019 637.141 260.209 637.141 267.947C637.141 274.909 634.628 280.905 629.597 285.934C624.955 290.578 618.571 292.899 610.448 292.899H371.362V441.458H543.712C551.837 441.458 558.414 443.971 563.443 449C568.472 453.644 570.988 459.641 570.988 466.99C570.988 474.341 568.472 480.531 563.443 485.56C558.414 490.202 551.837 492.524 543.712 492.524H371.362V667.777C371.362 675.513 368.653 682.09 363.237 687.506C358.208 692.535 351.824 695.051 344.088 695.051Z" fill="#757070"/>
<path d="M173.459 695.244C164.945 695.244 157.786 692.342 151.981 686.537C146.176 680.732 143.273 673.572 143.273 665.058V272.06C143.273 263.159 146.176 256 151.981 250.582C157.786 244.777 164.945 241.875 173.459 241.875H289.559C318.584 241.875 344.32 248.26 366.766 261.031C389.211 273.802 406.626 291.604 419.01 314.437C431.781 336.883 438.167 362.812 438.167 392.224C438.167 420.475 431.781 445.63 419.01 467.689C406.626 489.748 389.211 506.969 366.766 519.353C344.32 531.737 318.584 537.929 289.559 537.929H203.645V665.058C203.645 673.572 200.743 680.732 194.938 686.537C189.52 692.342 182.36 695.244 173.459 695.244ZM203.645 482.201H289.559C307.361 482.201 323.035 478.331 336.58 470.591C350.125 462.851 360.767 452.209 368.507 438.664C376.247 425.119 380.117 409.639 380.117 392.224C380.117 373.648 376.247 357.394 368.507 343.462C360.767 329.143 350.125 317.92 336.58 309.793C323.035 301.666 307.361 297.602 289.559 297.602H203.645V482.201Z" fill="#FDF8F8"/>
<path d="M578.627 695.244C567.791 695.244 559.471 690.6 553.666 681.312C547.861 672.024 547.28 662.156 551.924 651.707L715.044 262.192C720.849 248.647 730.331 241.875 743.489 241.875C757.421 241.875 766.902 248.647 771.933 262.192L935.634 652.868C939.891 663.704 939.117 673.572 933.312 682.473C927.894 690.987 919.573 695.244 908.35 695.244C902.545 695.244 896.934 693.696 891.516 690.6C886.485 687.117 882.808 682.473 880.486 676.668L736.523 319.081H752.777L606.491 676.668C603.782 682.86 599.719 687.504 594.301 690.6C589.27 693.696 584.045 695.244 578.627 695.244ZM609.394 595.398L632.613 545.475H860.169L883.389 595.398H609.394Z" fill="#757070"/>
</g>
<defs>
<clipPath id="clip0_159_805">
<rect width="1024" height="1024" fill="white"/>
</clipPath>
</defs>
</svg>
