<svg width="25581" height="6342" viewBox="0 0 25581 6342" fill="none" xmlns="http://www.w3.org/2000/svg">
<path d="M7358.58 3355C7314.58 3355 7277.58 3340 7247.58 3310C7217.58 3280 7202.58 3243 7202.58 3199V1168C7202.58 1122 7217.58 1085 7247.58 1057C7277.58 1027 7314.58 1012 7358.58 1012H7958.58C8108.58 1012 8241.58 1045 8357.58 1111C8473.58 1177 8563.58 1269 8627.58 1387C8693.58 1503 8726.58 1637 8726.58 1789C8726.58 1935 8693.58 2065 8627.58 2179C8563.58 2293 8473.58 2382 8357.58 2446C8241.58 2510 8108.58 2542 7958.58 2542H7514.58V3199C7514.58 3243 7499.58 3280 7469.58 3310C7441.58 3340 7404.58 3355 7358.58 3355ZM7514.58 2254H7958.58C8050.58 2254 8131.58 2234 8201.58 2194C8271.58 2154 8326.58 2099 8366.58 2029C8406.58 1959 8426.58 1879 8426.58 1789C8426.58 1693 8406.58 1609 8366.58 1537C8326.58 1463 8271.58 1405 8201.58 1363C8131.58 1321 8050.58 1300 7958.58 1300H7514.58V2254ZM9338.72 2329C9338.72 2209 9367.72 2102 9425.72 2008C9485.72 1912 9565.72 1836 9665.72 1780C9765.72 1724 9875.72 1696 9995.72 1696C10115.7 1696 10204.7 1716 10262.7 1756C10322.7 1794 10345.7 1840 10331.7 1894C10325.7 1922 10313.7 1944 10295.7 1960C10279.7 1974 10260.7 1983 10238.7 1987C10216.7 1991 10192.7 1990 10166.7 1984C10038.7 1958 9923.72 1956 9821.72 1978C9719.72 2000 9638.72 2041 9578.72 2101C9520.72 2161 9491.72 2237 9491.72 2329H9338.72ZM9341.72 3355C9293.72 3355 9256.72 3343 9230.72 3319C9204.72 3293 9191.72 3255 9191.72 3205V1864C9191.72 1816 9204.72 1779 9230.72 1753C9256.72 1727 9293.72 1714 9341.72 1714C9391.72 1714 9428.72 1727 9452.72 1753C9478.72 1777 9491.72 1814 9491.72 1864V3205C9491.72 3253 9478.72 3290 9452.72 3316C9428.72 3342 9391.72 3355 9341.72 3355ZM11424.6 3367C11262.6 3367 11119.6 3332 10995.6 3262C10871.6 3190 10773.6 3092 10701.6 2968C10631.6 2842 10596.6 2698 10596.6 2536C10596.6 2372 10631.6 2228 10701.6 2104C10773.6 1978 10871.6 1880 10995.6 1810C11119.6 1738 11262.6 1702 11424.6 1702C11584.6 1702 11726.6 1738 11850.6 1810C11974.6 1880 12071.6 1978 12141.6 2104C12213.6 2228 12249.6 2372 12249.6 2536C12249.6 2698 12214.6 2842 12144.6 2968C12074.6 3092 11977.6 3190 11853.6 3262C11729.6 3332 11586.6 3367 11424.6 3367ZM11424.6 3097C11528.6 3097 11620.6 3073 11700.6 3025C11780.6 2977 11842.6 2911 11886.6 2827C11932.6 2743 11955.6 2646 11955.6 2536C11955.6 2426 11932.6 2329 11886.6 2245C11842.6 2159 11780.6 2092 11700.6 2044C11620.6 1996 11528.6 1972 11424.6 1972C11320.6 1972 11228.6 1996 11148.6 2044C11068.6 2092 11005.6 2159 10959.6 2245C10913.6 2329 10890.6 2426 10890.6 2536C10890.6 2646 10913.6 2743 10959.6 2827C11005.6 2911 11068.6 2977 11148.6 3025C11228.6 3073 11320.6 3097 11424.6 3097Z" fill="#ACA8A8"/>
<path d="M13041 3355C13007 3355 12976 3343 12948 3319C12922 3293 12909 3259 12909 3217V1720C12909 1578 12936 1454 12990 1348C13044 1242 13120 1160 13218 1102C13318 1042 13435 1012 13569 1012C13609 1012 13642 1024 13668 1048C13694 1072 13707 1102 13707 1138C13707 1172 13694 1202 13668 1228C13642 1252 13609 1264 13569 1264C13489 1264 13420 1282 13362 1318C13306 1354 13262 1405 13230 1471C13200 1535 13185 1611 13185 1699V3217C13185 3259 13172 3293 13146 3319C13122 3343 13087 3355 13041 3355ZM12756 2011C12718 2011 12687 2000 12663 1978C12641 1956 12630 1928 12630 1894C12630 1858 12641 1829 12663 1807C12687 1785 12718 1774 12756 1774H13512C13550 1774 13581 1785 13605 1807C13629 1829 13641 1858 13641 1894C13641 1928 13629 1956 13605 1978C13581 2000 13550 2011 13512 2011H12756Z" fill="white"/>
<path d="M14433.6 3355C14391.6 3355 14357.6 3342 14331.6 3316C14305.6 3290 14292.6 3257 14292.6 3217V1852C14292.6 1810 14305.6 1777 14331.6 1753C14357.6 1727 14391.6 1714 14433.6 1714C14473.6 1714 14506.6 1727 14532.6 1753C14558.6 1777 14571.6 1810 14571.6 1852V3217C14571.6 3257 14558.6 3290 14532.6 3316C14506.6 3342 14473.6 3355 14433.6 3355ZM14430.6 1429C14380.6 1429 14337.6 1411 14301.6 1375C14265.6 1339 14247.6 1295 14247.6 1243C14247.6 1191 14265.6 1148 14301.6 1114C14339.6 1078 14383.6 1060 14433.6 1060C14481.6 1060 14523.6 1078 14559.6 1114C14597.6 1148 14616.6 1191 14616.6 1243C14616.6 1295 14598.6 1339 14562.6 1375C14526.6 1411 14482.6 1429 14430.6 1429ZM16842.2 3358C16802.2 3358 16768.2 3345 16740.2 3319C16714.2 3291 16701.2 3258 16701.2 3220V2464C16701.2 2346 16679.2 2250 16635.2 2176C16591.2 2100 16532.2 2044 16458.2 2008C16384.2 1970 16299.2 1951 16203.2 1951C16113.2 1951 16032.2 1969 15960.2 2005C15888.2 2041 15830.2 2089 15786.2 2149C15744.2 2209 15723.2 2278 15723.2 2356H15543.2C15545.2 2230 15577.2 2118 15639.2 2020C15701.2 1920 15785.2 1842 15891.2 1786C15997.2 1728 16116.2 1699 16248.2 1699C16388.2 1699 16513.2 1729 16623.2 1789C16733.2 1847 16820.2 1933 16884.2 2047C16948.2 2161 16980.2 2300 16980.2 2464V3220C16980.2 3258 16966.2 3291 16938.2 3319C16912.2 3345 16880.2 3358 16842.2 3358ZM15585.2 3358C15545.2 3358 15512.2 3345 15486.2 3319C15460.2 3293 15447.2 3260 15447.2 3220V1852C15447.2 1810 15460.2 1777 15486.2 1753C15512.2 1727 15545.2 1714 15585.2 1714C15627.2 1714 15660.2 1727 15684.2 1753C15710.2 1777 15723.2 1810 15723.2 1852V3220C15723.2 3260 15710.2 3293 15684.2 3319C15660.2 3345 15627.2 3358 15585.2 3358ZM18548.3 3367C18382.3 3367 18235.3 3332 18107.3 3262C17981.3 3190 17882.3 3092 17810.3 2968C17738.3 2842 17702.3 2698 17702.3 2536C17702.3 2372 17736.3 2228 17804.3 2104C17872.3 1978 17966.3 1880 18086.3 1810C18206.3 1738 18345.3 1702 18503.3 1702C18657.3 1702 18790.3 1737 18902.3 1807C19014.3 1875 19100.3 1970 19160.3 2092C19220.3 2212 19250.3 2351 19250.3 2509C19250.3 2543 19238.3 2572 19214.3 2596C19192.3 2618 19162.3 2629 19124.3 2629H17891.2V2407H19127.3L19004.3 2494C19002.3 2388 18981.3 2293 18941.3 2209C18901.3 2125 18844.3 2059 18770.3 2011C18696.3 1963 18607.3 1939 18503.3 1939C18389.3 1939 18290.3 1965 18206.3 2017C18124.3 2069 18061.3 2140 18017.3 2230C17973.3 2320 17951.3 2422 17951.3 2536C17951.3 2650 17976.3 2752 18026.3 2842C18078.3 2930 18148.3 3000 18236.3 3052C18326.3 3104 18430.3 3130 18548.3 3130C18612.3 3130 18678.3 3118 18746.3 3094C18816.3 3070 18871.3 3042 18911.3 3010C18939.3 2988 18969.3 2977 19001.3 2977C19033.3 2975 19061.3 2984 19085.3 3004C19115.3 3032 19131.3 3063 19133.3 3097C19135.3 3129 19121.3 3157 19091.3 3181C19023.3 3235 18938.3 3280 18836.3 3316C18736.3 3350 18640.3 3367 18548.3 3367ZM20581.1 3367C20431.1 3367 20297.1 3331 20179.1 3259C20061.1 3187 19968.1 3088 19900.1 2962C19832.1 2836 19798.1 2694 19798.1 2536C19798.1 2376 19834.1 2234 19906.1 2110C19980.1 1984 20079.1 1885 20203.1 1813C20329.1 1739 20470.1 1702 20626.1 1702C20784.1 1702 20925.1 1739 21049.1 1813C21173.1 1885 21271.1 1984 21343.1 2110C21417.1 2236 21455.1 2378 21457.1 2536L21349.1 2563C21349.1 2715 21315.1 2852 21247.1 2974C21179.1 3096 21087.1 3192 20971.1 3262C20857.1 3332 20727.1 3367 20581.1 3367ZM20626.1 3121C20734.1 3121 20830.1 3096 20914.1 3046C20998.1 2994 21064.1 2924 21112.1 2836C21162.1 2746 21187.1 2646 21187.1 2536C21187.1 2424 21162.1 2324 21112.1 2236C21064.1 2146 20998.1 2076 20914.1 2026C20830.1 1974 20734.1 1948 20626.1 1948C20522.1 1948 20427.1 1974 20341.1 2026C20255.1 2076 20187.1 2146 20137.1 2236C20089.1 2324 20065.1 2424 20065.1 2536C20065.1 2646 20089.1 2746 20137.1 2836C20187.1 2924 20255.1 2994 20341.1 3046C20427.1 3096 20522.1 3121 20626.1 3121ZM21316.1 3358C21276.1 3358 21243.1 3345 21217.1 3319C21191.1 3293 21178.1 3260 21178.1 3220V2740L21235.1 2452L21457.1 2536V3220C21457.1 3260 21443.1 3293 21415.1 3319C21389.1 3345 21356.1 3358 21316.1 3358ZM22335.5 2335C22339.5 2213 22370.5 2104 22428.5 2008C22488.5 1912 22567.5 1836 22665.5 1780C22763.5 1724 22871.5 1696 22989.5 1696C23099.5 1696 23181.5 1713 23235.5 1747C23291.5 1781 23312.5 1824 23298.5 1876C23292.5 1906 23280.5 1928 23262.5 1942C23244.5 1954 23223.5 1961 23199.5 1963C23175.5 1963 23149.5 1961 23121.5 1957C22999.5 1937 22890.5 1940 22794.5 1966C22698.5 1992 22622.5 2037 22566.5 2101C22510.5 2165 22482.5 2243 22482.5 2335H22335.5ZM22344.5 3355C22302.5 3355 22269.5 3344 22245.5 3322C22221.5 3298 22209.5 3264 22209.5 3220V1849C22209.5 1807 22221.5 1774 22245.5 1750C22269.5 1726 22302.5 1714 22344.5 1714C22390.5 1714 22424.5 1726 22446.5 1750C22470.5 1772 22482.5 1805 22482.5 1849V3220C22482.5 3262 22470.5 3295 22446.5 3319C22424.5 3343 22390.5 3355 22344.5 3355ZM24548.3 3355C24446.3 3355 24354.3 3330 24272.3 3280C24190.3 3228 24126.3 3159 24080.3 3073C24034.3 2985 24011.3 2885 24011.3 2773V1330C24011.3 1290 24023.3 1257 24047.3 1231C24073.3 1205 24106.3 1192 24146.3 1192C24186.3 1192 24219.3 1205 24245.3 1231C24271.3 1257 24284.3 1290 24284.3 1330V2773C24284.3 2863 24309.3 2937 24359.3 2995C24409.3 3053 24472.3 3082 24548.3 3082H24641.3C24675.3 3082 24703.3 3095 24725.3 3121C24749.3 3147 24761.3 3180 24761.3 3220C24761.3 3260 24746.3 3293 24716.3 3319C24688.3 3343 24651.3 3355 24605.3 3355H24548.3ZM23849.3 2011C23813.3 2011 23783.3 2000 23759.3 1978C23735.3 1956 23723.3 1928 23723.3 1894C23723.3 1858 23735.3 1829 23759.3 1807C23783.3 1785 23813.3 1774 23849.3 1774H24572.3C24608.3 1774 24638.3 1785 24662.3 1807C24686.3 1829 24698.3 1858 24698.3 1894C24698.3 1928 24686.3 1956 24662.3 1978C24638.3 2000 24608.3 2011 24572.3 2011H23849.3Z" fill="#FFFCFC"/>
<path d="M17073.5 5698C17053.1 5698 17036.3 5693.8 17023.1 5685.4C17009.9 5675.8 17003.3 5662 17003.3 5644V4346.2C17003.3 4329.4 17008.1 4316.2 17017.7 4306.6C17028.5 4297 17041.7 4292.2 17057.3 4292.2H17498.3C17565.5 4292.2 17626.7 4307.2 17681.9 4337.2C17737.1 4366 17781.5 4406.2 17815.1 4457.8C17848.7 4508.2 17865.5 4566.4 17865.5 4632.4C17865.5 4702 17846.9 4763.2 17809.7 4816C17773.7 4867.6 17726.3 4906.6 17667.5 4933C17749.1 4955.8 17814.5 4997.8 17863.7 5059C17914.1 5120.2 17939.3 5197 17939.3 5289.4C17939.3 5368.6 17921.3 5439.4 17885.3 5501.8C17850.5 5563 17801.9 5611 17739.5 5645.8C17677.1 5680.6 17605.7 5698 17525.3 5698H17073.5ZM17111.3 5590H17525.3C17585.3 5590 17638.1 5577.4 17683.7 5552.2C17729.3 5525.8 17765.3 5490.4 17791.7 5446C17818.1 5400.4 17831.3 5348.2 17831.3 5289.4C17831.3 5231.8 17818.1 5180.8 17791.7 5136.4C17765.3 5092 17729.3 5057.2 17683.7 5032C17638.1 5006.8 17585.3 4994.2 17525.3 4994.2H17111.3V5590ZM17111.3 4886.2H17498.3C17573.9 4886.2 17635.7 4863.4 17683.7 4817.8C17732.9 4771 17757.5 4709.2 17757.5 4632.4C17757.5 4558 17732.9 4501 17683.7 4461.4C17635.7 4420.6 17573.9 4400.2 17498.3 4400.2H17111.3V4886.2ZM18829.9 5708.8C18733.9 5708.8 18647.5 5687.2 18570.7 5644C18495.1 5599.6 18435.1 5539.6 18390.7 5464C18347.5 5387.2 18325.9 5301.4 18325.9 5206.6C18325.9 5110.6 18347.5 5024.8 18390.7 4949.2C18435.1 4872.4 18495.1 4812.4 18570.7 4769.2C18647.5 4724.8 18733.9 4702.6 18829.9 4702.6C18925.9 4702.6 19011.7 4724.8 19087.3 4769.2C19162.9 4812.4 19222.3 4872.4 19265.5 4949.2C19309.9 5024.8 19332.1 5110.6 19332.1 5206.6L19287.1 5278.6C19287.1 5360.2 19266.7 5433.4 19225.9 5498.2C19186.3 5563 19132.3 5614.6 19063.9 5653C18995.5 5690.2 18917.5 5708.8 18829.9 5708.8ZM18829.9 5608C18905.5 5608 18972.7 5590.6 19031.5 5555.8C19091.5 5519.8 19138.3 5471.8 19171.9 5411.8C19206.7 5350.6 19224.1 5282.2 19224.1 5206.6C19224.1 5129.8 19206.7 5061.4 19171.9 5001.4C19138.3 4940.2 19091.5 4892.2 19031.5 4857.4C18972.7 4821.4 18905.5 4803.4 18829.9 4803.4C18755.5 4803.4 18688.3 4821.4 18628.3 4857.4C18568.3 4892.2 18520.9 4940.2 18486.1 5001.4C18451.3 5061.4 18433.9 5129.8 18433.9 5206.6C18433.9 5282.2 18451.3 5350.6 18486.1 5411.8C18520.9 5471.8 18568.3 5519.8 18628.3 5555.8C18688.3 5590.6 18755.5 5608 18829.9 5608ZM19278.1 5698C19262.5 5698 19249.3 5693.2 19238.5 5683.6C19228.9 5672.8 19224.1 5659.6 19224.1 5644V5314.6L19258.3 5206.6H19332.1V5644C19332.1 5659.6 19327.3 5672.8 19317.7 5683.6C19308.1 5693.2 19294.9 5698 19278.1 5698ZM20116.4 5708.8C20054 5708.8 19988.6 5697.4 19920.2 5674.6C19851.8 5651.8 19794.8 5613.4 19749.2 5559.4C19739.6 5547.4 19735.4 5534.8 19736.6 5521.6C19739 5507.2 19746.8 5495.2 19760 5485.6C19772 5477.2 19784.6 5474.2 19797.8 5476.6C19812.2 5479 19823.6 5485.6 19832 5496.4C19866.8 5537.2 19908.8 5566 19958 5582.8C20008.4 5598.4 20063 5606.2 20121.8 5606.2C20222.6 5606.2 20294 5588.2 20336 5552.2C20378 5516.2 20399 5474.2 20399 5426.2C20399 5379.4 20376.2 5341 20330.6 5311C20286.2 5279.8 20217.2 5257.6 20123.6 5244.4C20003.6 5227.6 19914.8 5195.2 19857.2 5147.2C19799.6 5099.2 19770.8 5043.4 19770.8 4979.8C19770.8 4919.8 19785.8 4869.4 19815.8 4828.6C19845.8 4786.6 19886.6 4755.4 19938.2 4735C19991 4713.4 20051 4702.6 20118.2 4702.6C20199.8 4702.6 20268.8 4717.6 20325.2 4747.6C20381.6 4776.4 20427.2 4815.4 20462 4864.6C20471.6 4876.6 20474.6 4889.8 20471 4904.2C20468.6 4917.4 20459.6 4928.2 20444 4936.6C20432 4942.6 20419.4 4944.4 20406.2 4942C20393 4939.6 20381.6 4932.4 20372 4920.4C20342 4882 20305.4 4853.2 20262.2 4834C20220.2 4813.6 20171 4803.4 20114.6 4803.4C20039 4803.4 19980.2 4819.6 19938.2 4852C19896.2 4884.4 19875.2 4923.4 19875.2 4969C19875.2 5000.2 19883.6 5027.8 19900.4 5051.8C19918.4 5074.6 19947.2 5094.4 19986.8 5111.2C20026.4 5126.8 20079.2 5139.4 20145.2 5149C20235.2 5161 20306 5181.4 20357.6 5210.2C20410.4 5239 20447.6 5272.6 20469.2 5311C20492 5348.2 20503.4 5388.4 20503.4 5431.6C20503.4 5488 20485.4 5537.2 20449.4 5579.2C20413.4 5621.2 20366 5653.6 20307.2 5676.4C20248.4 5698 20184.8 5708.8 20116.4 5708.8ZM21362.3 5707C21267.5 5707 21182.9 5686 21108.5 5644C21035.3 5600.8 20977.7 5541.4 20935.7 5465.8C20893.7 5390.2 20872.7 5303.8 20872.7 5206.6C20872.7 5108.2 20892.5 5021.8 20932.1 4947.4C20971.7 4871.8 21026.3 4812.4 21095.9 4769.2C21165.5 4726 21245.3 4704.4 21335.3 4704.4C21424.1 4704.4 21502.7 4725.4 21571.1 4767.4C21639.5 4808.2 21692.9 4865.2 21731.3 4938.4C21769.7 5010.4 21788.9 5093.8 21788.9 5188.6C21788.9 5204.2 21784.1 5216.8 21774.5 5226.4C21764.9 5234.8 21752.3 5239 21736.7 5239H20944.7V5145.4H21765.5L21686.3 5204.8C21688.7 5126.8 21675.5 5057.8 21646.7 4997.8C21617.9 4937.8 21576.5 4891 21522.5 4857.4C21469.7 4822.6 21407.3 4805.2 21335.3 4805.2C21266.9 4805.2 21205.7 4822.6 21151.7 4857.4C21098.9 4891 21056.9 4937.8 21025.7 4997.8C20995.7 5057.8 20980.7 5127.4 20980.7 5206.6C20980.7 5284.6 20996.9 5353.6 21029.3 5413.6C21061.7 5473.6 21106.7 5521 21164.3 5555.8C21221.9 5589.4 21287.9 5606.2 21362.3 5606.2C21409.1 5606.2 21455.9 5598.4 21502.7 5582.8C21550.7 5566 21588.5 5544.4 21616.1 5518C21625.7 5508.4 21637.1 5503.6 21650.3 5503.6C21664.7 5502.4 21676.7 5506 21686.3 5514.4C21699.5 5525.2 21706.1 5537.2 21706.1 5550.4C21707.3 5563.6 21701.9 5575.6 21689.9 5586.4C21651.5 5621.2 21601.1 5650 21538.7 5672.8C21477.5 5695.6 21418.7 5707 21362.3 5707ZM22401.5 5698C22355.9 5698 22315.1 5685.4 22279.1 5660.2C22244.3 5635 22216.7 5600.2 22196.3 5555.8C22177.1 5511.4 22167.5 5459.8 22167.5 5401V4346.2C22167.5 4329.4 22172.3 4316.2 22181.9 4306.6C22192.7 4297 22205.9 4292.2 22221.5 4292.2C22238.3 4292.2 22251.5 4297 22261.1 4306.6C22270.7 4316.2 22275.5 4329.4 22275.5 4346.2V5401C22275.5 5456.2 22286.9 5501.8 22309.7 5537.8C22333.7 5572.6 22364.3 5590 22401.5 5590H22446.5C22459.7 5590 22470.5 5594.8 22478.9 5604.4C22487.3 5614 22491.5 5627.2 22491.5 5644C22491.5 5659.6 22486.7 5672.8 22477.1 5683.6C22467.5 5693.2 22454.3 5698 22437.5 5698H22401.5Z" fill="#E8E7E7"/>
<path d="M9577.55 5700.8C9515.15 5700.8 9449.75 5689.4 9381.35 5666.6C9312.95 5643.8 9255.95 5605.4 9210.35 5551.4C9200.75 5539.4 9196.55 5526.8 9197.75 5513.6C9200.15 5499.2 9207.95 5487.2 9221.15 5477.6C9233.15 5469.2 9245.75 5466.2 9258.95 5468.6C9273.35 5471 9284.75 5477.6 9293.15 5488.4C9327.95 5529.2 9369.95 5558 9419.15 5574.8C9469.55 5590.4 9524.15 5598.2 9582.95 5598.2C9683.75 5598.2 9755.15 5580.2 9797.15 5544.2C9839.15 5508.2 9860.15 5466.2 9860.15 5418.2C9860.15 5371.4 9837.35 5333 9791.75 5303C9747.35 5271.8 9678.35 5249.6 9584.75 5236.4C9464.75 5219.6 9375.95 5187.2 9318.35 5139.2C9260.75 5091.2 9231.95 5035.4 9231.95 4971.8C9231.95 4911.8 9246.95 4861.4 9276.95 4820.6C9306.95 4778.6 9347.75 4747.4 9399.35 4727C9452.15 4705.4 9512.15 4694.6 9579.35 4694.6C9660.95 4694.6 9729.95 4709.6 9786.35 4739.6C9842.75 4768.4 9888.35 4807.4 9923.15 4856.6C9932.75 4868.6 9935.75 4881.8 9932.15 4896.2C9929.75 4909.4 9920.75 4920.2 9905.15 4928.6C9893.15 4934.6 9880.55 4936.4 9867.35 4934C9854.15 4931.6 9842.75 4924.4 9833.15 4912.4C9803.15 4874 9766.55 4845.2 9723.35 4826C9681.35 4805.6 9632.15 4795.4 9575.75 4795.4C9500.15 4795.4 9441.35 4811.6 9399.35 4844C9357.35 4876.4 9336.35 4915.4 9336.35 4961C9336.35 4992.2 9344.75 5019.8 9361.55 5043.8C9379.55 5066.6 9408.35 5086.4 9447.95 5103.2C9487.55 5118.8 9540.35 5131.4 9606.35 5141C9696.35 5153 9767.15 5173.4 9818.75 5202.2C9871.55 5231 9908.75 5264.6 9930.35 5303C9953.15 5340.2 9964.55 5380.4 9964.55 5423.6C9964.55 5480 9946.55 5529.2 9910.55 5571.2C9874.55 5613.2 9827.15 5645.6 9768.35 5668.4C9709.55 5690 9645.95 5700.8 9577.55 5700.8ZM10791 5690C10725 5688.8 10666.2 5673.8 10614.6 5645C10563 5615 10522.8 5574.2 10494 5522.6C10465.2 5469.8 10450.8 5410.4 10450.8 5344.4V4448C10450.8 4431.2 10455.6 4418 10465.2 4408.4C10476 4397.6 10489.2 4392.2 10504.8 4392.2C10521.6 4392.2 10534.8 4397.6 10544.4 4408.4C10555.2 4418 10560.6 4431.2 10560.6 4448V5344.4C10560.6 5414 10582.2 5471 10625.4 5515.4C10668.6 5558.6 10724.4 5580.2 10792.8 5580.2H10832.4C10849.2 5580.2 10862.4 5585.6 10872 5596.4C10882.8 5606 10888.2 5619.2 10888.2 5636C10888.2 5651.6 10882.8 5664.8 10872 5675.6C10862.4 5685.2 10849.2 5690 10832.4 5690H10791ZM10310.4 4838.6C10296 4838.6 10284 4834.4 10274.4 4826C10266 4816.4 10261.8 4804.4 10261.8 4790C10261.8 4775.6 10266 4764.2 10274.4 4755.8C10284 4746.2 10296 4741.4 10310.4 4741.4H10798.2C10812.6 4741.4 10824 4746.2 10832.4 4755.8C10842 4764.2 10846.8 4775.6 10846.8 4790C10846.8 4804.4 10842 4816.4 10832.4 4826C10824 4834.4 10812.6 4838.6 10798.2 4838.6H10310.4ZM11731.2 5702.6C11644.8 5702.6 11567.4 5685.2 11499 5650.4C11430.6 5614.4 11376 5562.2 11335.2 5493.8C11295.6 5425.4 11275.8 5342 11275.8 5243.6V4759.4C11275.8 4743.8 11280.6 4731.2 11290.2 4721.6C11301 4710.8 11314.2 4705.4 11329.8 4705.4C11345.4 4705.4 11358 4710.8 11367.6 4721.6C11378.4 4731.2 11383.8 4743.8 11383.8 4759.4V5243.6C11383.8 5321.6 11398.8 5387 11428.8 5439.8C11460 5491.4 11501.4 5530.4 11553 5556.8C11605.8 5582 11665.2 5594.6 11731.2 5594.6C11796 5594.6 11854.2 5582 11905.8 5556.8C11957.4 5531.6 11998.2 5498 12028.2 5456C12058.2 5412.8 12073.2 5364.2 12073.2 5310.2H12163.2C12158.4 5384.6 12136.2 5451.8 12096.6 5511.8C12057 5570.6 12005.4 5617.4 11941.8 5652.2C11879.4 5685.8 11809.2 5702.6 11731.2 5702.6ZM12127.2 5690C12111.6 5690 12098.4 5685.2 12087.6 5675.6C12078 5664.8 12073.2 5651.6 12073.2 5636V4759.4C12073.2 4742.6 12078 4729.4 12087.6 4719.8C12098.4 4710.2 12111.6 4705.4 12127.2 4705.4C12144 4705.4 12157.2 4710.2 12166.8 4719.8C12176.4 4729.4 12181.2 4742.6 12181.2 4759.4V5636C12181.2 5651.6 12176.4 5664.8 12166.8 5675.6C12157.2 5685.2 12144 5690 12127.2 5690ZM13134.9 5700.8C13038.9 5700.8 12952.5 5679.2 12875.7 5636C12800.1 5591.6 12740.1 5531.6 12695.7 5456C12652.5 5379.2 12630.9 5292.8 12630.9 5196.8C12630.9 5100.8 12652.5 5015 12695.7 4939.4C12740.1 4863.8 12800.1 4804.4 12875.7 4761.2C12952.5 4716.8 13038.9 4694.6 13134.9 4694.6C13221.3 4694.6 13298.7 4713.2 13367.1 4750.4C13436.7 4787.6 13490.7 4837.4 13529.1 4899.8V4338.2C13529.1 4321.4 13533.9 4308.2 13543.5 4298.6C13554.3 4289 13567.5 4284.2 13583.1 4284.2C13599.9 4284.2 13613.1 4289 13622.7 4298.6C13632.3 4308.2 13637.1 4321.4 13637.1 4338.2V5207.6C13635.9 5301.2 13613.1 5385.2 13568.7 5459.6C13524.3 5534 13464.3 5592.8 13388.7 5636C13314.3 5679.2 13229.7 5700.8 13134.9 5700.8ZM13134.9 5600C13210.5 5600 13277.7 5582.6 13336.5 5547.8C13396.5 5511.8 13443.3 5463.8 13476.9 5403.8C13511.7 5342.6 13529.1 5273.6 13529.1 5196.8C13529.1 5120 13511.7 5051.6 13476.9 4991.6C13443.3 4931.6 13396.5 4884.2 13336.5 4849.4C13277.7 4813.4 13210.5 4795.4 13134.9 4795.4C13060.5 4795.4 12993.3 4813.4 12933.3 4849.4C12873.3 4884.2 12825.9 4931.6 12791.1 4991.6C12756.3 5051.6 12738.9 5120 12738.9 5196.8C12738.9 5273.6 12756.3 5342.6 12791.1 5403.8C12825.9 5463.8 12873.3 5511.8 12933.3 5547.8C12993.3 5582.6 13060.5 5600 13134.9 5600ZM14231.1 5690C14215.5 5690 14202.3 5685.2 14191.5 5675.6C14181.9 5664.8 14177.1 5651.6 14177.1 5636V4759.4C14177.1 4742.6 14181.9 4729.4 14191.5 4719.8C14202.3 4710.2 14215.5 4705.4 14231.1 4705.4C14247.9 4705.4 14261.1 4710.2 14270.7 4719.8C14280.3 4729.4 14285.1 4742.6 14285.1 4759.4V5636C14285.1 5651.6 14280.3 5664.8 14270.7 5675.6C14261.1 5685.2 14247.9 5690 14231.1 5690ZM14229.3 4498.4C14206.5 4498.4 14186.7 4490.6 14169.9 4475C14154.3 4458.2 14146.5 4437.8 14146.5 4413.8C14146.5 4386.2 14154.9 4365.8 14171.7 4352.6C14189.7 4338.2 14209.5 4331 14231.1 4331C14251.5 4331 14270.1 4338.2 14286.9 4352.6C14304.9 4365.8 14313.9 4386.2 14313.9 4413.8C14313.9 4437.8 14305.5 4458.2 14288.7 4475C14273.1 4490.6 14253.3 4498.4 14229.3 4498.4ZM15275.6 5700.8C15179.6 5700.8 15093.2 5679.2 15016.4 5636C14940.8 5591.6 14880.8 5531.6 14836.4 5456C14793.2 5379.2 14771.6 5293.4 14771.6 5198.6C14771.6 5102.6 14793.2 5016.8 14836.4 4941.2C14880.8 4864.4 14940.8 4804.4 15016.4 4761.2C15093.2 4716.8 15179.6 4694.6 15275.6 4694.6C15371.6 4694.6 15457.4 4716.8 15533 4761.2C15608.6 4804.4 15668 4864.4 15711.2 4941.2C15755.6 5016.8 15777.8 5102.6 15777.8 5198.6C15777.8 5293.4 15755.6 5379.2 15711.2 5456C15668 5531.6 15608.6 5591.6 15533 5636C15457.4 5679.2 15371.6 5700.8 15275.6 5700.8ZM15275.6 5600C15351.2 5600 15418.4 5582.6 15477.2 5547.8C15537.2 5511.8 15584 5463.8 15617.6 5403.8C15652.4 5342.6 15669.8 5273.6 15669.8 5196.8C15669.8 5121.2 15652.4 5053.4 15617.6 4993.4C15584 4932.2 15537.2 4884.2 15477.2 4849.4C15418.4 4813.4 15351.2 4795.4 15275.6 4795.4C15201.2 4795.4 15134 4813.4 15074 4849.4C15014 4884.2 14966.6 4932.2 14931.8 4993.4C14897 5053.4 14879.6 5121.8 14879.6 5198.6C14879.6 5274.2 14897 5342.6 14931.8 5403.8C14966.6 5463.8 15014 5511.8 15074 5547.8C15134 5582.6 15201.2 5600 15275.6 5600Z" fill="#E8E7E7"/>
<circle cx="2984.5" cy="2984.5" r="2984.5" fill="#121212"/>
<path d="M2107.12 5248C2026.45 5248 1958.62 5220.5 1903.62 5165.5C1848.62 5110.5 1821.12 5042.67 1821.12 4962V1238.5C1821.12 1154.17 1848.62 1086.33 1903.62 1035C1958.62 980 2026.45 952.5 2107.12 952.5H3207.12C3482.12 952.5 3725.95 1013 3938.62 1134C4151.29 1255 4316.29 1423.67 4433.62 1640C4554.62 1852.67 4615.12 2098.33 4615.12 2377C4615.12 2644.67 4554.62 2883 4433.62 3092C4316.29 3301 4151.29 3464.17 3938.62 3581.5C3725.95 3698.83 3482.12 3757.5 3207.12 3757.5H2393.12V4962C2393.12 5042.67 2365.62 5110.5 2310.62 5165.5C2259.29 5220.5 2191.45 5248 2107.12 5248ZM2393.12 3229.5H3207.12C3375.79 3229.5 3524.29 3192.83 3652.62 3119.5C3780.95 3046.17 3881.79 2945.33 3955.12 2817C4028.45 2688.67 4065.12 2542 4065.12 2377C4065.12 2201 4028.45 2047 3955.12 1915C3881.79 1779.33 3780.95 1673 3652.62 1596C3524.29 1519 3375.79 1480.5 3207.12 1480.5H2393.12V3229.5Z" fill="#ACACAC"/>
</svg>
