<svg width="7010" height="7107" viewBox="0 0 7010 7107" fill="none" xmlns="http://www.w3.org/2000/svg">
<rect width="7010" height="7107" rx="200" fill="#2A0F0F"/>
<path d="M3966.38 1802C3989.71 1838.67 4009.71 1888.67 4026.38 1952C4046.38 2012 4056.38 2075.33 4056.38 2142C4056.38 2272 4028.04 2365.33 3971.38 2422C3918.04 2475.33 3844.71 2502 3751.38 2502H2701.38V3067H3796.38C3823.04 3103.67 3844.71 3152 3861.38 3212C3881.38 3272 3891.38 3335.33 3891.38 3402C3891.38 3528.67 3863.04 3620.33 3806.38 3677C3753.04 3730.33 3679.71 3757 3586.38 3757H2711.38V4812C2674.71 4822 2616.38 4832 2536.38 4842C2459.71 4852 2383.04 4857 2306.38 4857C2229.71 4857 2161.38 4850.33 2101.38 4837C2044.71 4827 1996.38 4807 1956.38 4777C1916.38 4747 1886.38 4705.33 1866.38 4652C1846.38 4598.67 1836.38 4528.67 1836.38 4442V2267C1836.38 2123.67 1878.04 2010.33 1961.38 1927C2044.71 1843.67 2158.04 1802 2301.38 1802H3966.38Z" fill="#928A8A"/>
<path d="M1518.36 3207C1658.36 3207 1765.03 3175.33 1838.36 3112C1915.03 3045.33 1953.36 2945.33 1953.36 2812C1953.36 2685.33 1913.36 2588.67 1833.36 2522C1756.7 2452 1643.36 2417 1493.36 2417C1440.03 2417 1395.03 2418.67 1358.36 2422C1325.03 2422 1290.03 2425.33 1253.36 2432V3207H1518.36ZM1258.36 4812C1221.7 4822 1163.36 4832 1083.36 4842C1006.7 4852 930.03 4857 853.363 4857C776.697 4857 708.363 4850.33 648.363 4837C591.697 4827 543.363 4807 503.363 4777C463.363 4747 433.363 4705.33 413.363 4652C393.363 4598.67 383.363 4528.67 383.363 4442V2087C383.363 2017 401.697 1963.67 438.363 1927C478.363 1887 531.697 1855.33 598.363 1832C711.697 1792 840.03 1763.67 983.363 1747C1130.03 1727 1276.7 1717 1423.36 1717C1883.36 1717 2235.03 1815.33 2478.36 2012C2721.7 2208.67 2843.36 2475.33 2843.36 2812C2843.36 2975.33 2816.7 3123.67 2763.36 3257C2713.36 3387 2636.7 3500.33 2533.36 3597C2433.36 3690.33 2305.03 3763.67 2148.36 3817C1995.03 3867 1816.7 3892 1613.36 3892H1258.36V4812Z" fill="#FDF8F8"/>
<path d="M4663.62 1892C4720.28 1858.67 4805.28 1827 4918.62 1797C5035.28 1767 5151.95 1752 5268.62 1752C5435.28 1752 5581.95 1777 5708.62 1827C5838.62 1873.67 5921.95 1948.67 5958.62 2052C6018.62 2225.33 6083.62 2427 6153.62 2657C6223.62 2887 6293.62 3125.33 6363.62 3372C6433.62 3615.33 6501.95 3857 6568.62 4097C6635.28 4333.67 6693.62 4543.67 6743.62 4727C6703.62 4773.67 6643.62 4810.33 6563.62 4837C6483.62 4867 6388.62 4882 6278.62 4882C6198.62 4882 6130.28 4875.33 6073.62 4862C6020.28 4848.67 5975.28 4828.67 5938.62 4802C5905.28 4775.33 5876.95 4740.33 5853.62 4697C5833.62 4653.67 5815.28 4603.67 5798.62 4547L5708.62 4202H4803.62C4776.95 4302 4750.28 4405.33 4723.62 4512C4696.95 4618.67 4670.28 4722 4643.62 4822C4596.95 4838.67 4546.95 4852 4493.62 4862C4443.62 4875.33 4381.95 4882 4308.62 4882C4138.62 4882 4011.95 4853.67 3928.62 4797C3848.62 4737 3808.62 4655.33 3808.62 4552C3808.62 4505.33 3815.28 4458.67 3828.62 4412C3841.95 4365.33 3856.95 4310.33 3873.62 4247C3896.95 4157 3928.62 4045.33 3968.62 3912C4011.95 3778.67 4058.62 3635.33 4108.62 3482C4158.62 3325.33 4211.95 3165.33 4268.62 3002C4325.28 2838.67 4378.62 2685.33 4428.62 2542C4478.62 2395.33 4523.62 2265.33 4563.62 2152C4606.95 2038.67 4640.28 1952 4663.62 1892ZM5263.62 2537C5216.95 2677 5163.62 2833.67 5103.62 3007C5046.95 3177 4995.28 3350.33 4948.62 3527H5568.62C5521.95 3347 5473.62 3172 5423.62 3002C5376.95 2828.67 5333.62 2673.67 5293.62 2537H5263.62Z" fill="#928A8A"/>
</svg>
