<svg width="25325" height="5630" viewBox="0 0 25325 5630" fill="none" xmlns="http://www.w3.org/2000/svg">
<path d="M6949.46 3345C6905.46 3345 6868.46 3330 6838.46 3300C6810.46 3272 6796.46 3236 6796.46 3192V1824C6798.46 1666 6835.46 1524 6907.46 1398C6979.46 1272 7077.46 1173 7201.46 1101C7325.46 1027 7465.46 990 7621.46 990C7779.46 990 7920.46 1027 8044.46 1101C8168.46 1173 8266.46 1272 8338.46 1398C8412.46 1524 8449.46 1666 8449.46 1824C8449.46 1982 8415.46 2124 8347.46 2250C8281.46 2374 8190.46 2473 8074.46 2547C7958.46 2619 7827.46 2655 7681.46 2655C7563.46 2655 7454.46 2631 7354.46 2583C7256.46 2533 7172.46 2466 7102.46 2382V3192C7102.46 3236 7088.46 3272 7060.46 3300C7032.46 3330 6995.46 3345 6949.46 3345ZM7621.46 2385C7723.46 2385 7814.46 2361 7894.46 2313C7974.46 2263 8037.46 2196 8083.46 2112C8131.46 2026 8155.46 1930 8155.46 1824C8155.46 1716 8131.46 1620 8083.46 1536C8037.46 1450 7974.46 1383 7894.46 1335C7814.46 1285 7723.46 1260 7621.46 1260C7521.46 1260 7430.46 1285 7348.46 1335C7268.46 1383 7205.46 1450 7159.46 1536C7113.46 1620 7090.46 1716 7090.46 1824C7090.46 1930 7113.46 2026 7159.46 2112C7205.46 2196 7268.46 2263 7348.46 2313C7430.46 2361 7521.46 2385 7621.46 2385ZM9202.84 1617C9202.84 1497 9231.84 1390 9289.84 1296C9349.84 1200 9429.84 1124 9529.84 1068C9629.84 1012 9739.84 984 9859.84 984C9979.84 984 10068.8 1004 10126.8 1044C10186.8 1082 10209.8 1128 10195.8 1182C10189.8 1210 10177.8 1232 10159.8 1248C10143.8 1262 10124.8 1271 10102.8 1275C10080.8 1279 10056.8 1278 10030.8 1272C9902.84 1246 9787.84 1244 9685.84 1266C9583.84 1288 9502.84 1329 9442.84 1389C9384.84 1449 9355.84 1525 9355.84 1617H9202.84ZM9205.84 2643C9157.84 2643 9120.84 2631 9094.84 2607C9068.84 2581 9055.84 2543 9055.84 2493V1152C9055.84 1104 9068.84 1067 9094.84 1041C9120.84 1015 9157.84 1002 9205.84 1002C9255.84 1002 9292.84 1015 9316.84 1041C9342.84 1065 9355.84 1102 9355.84 1152V2493C9355.84 2541 9342.84 2578 9316.84 2604C9292.84 2630 9255.84 2643 9205.84 2643ZM11288.7 2655C11126.7 2655 10983.7 2620 10859.7 2550C10735.7 2478 10637.7 2380 10565.7 2256C10495.7 2130 10460.7 1986 10460.7 1824C10460.7 1660 10495.7 1516 10565.7 1392C10637.7 1266 10735.7 1168 10859.7 1098C10983.7 1026 11126.7 990 11288.7 990C11448.7 990 11590.7 1026 11714.7 1098C11838.7 1168 11935.7 1266 12005.7 1392C12077.7 1516 12113.7 1660 12113.7 1824C12113.7 1986 12078.7 2130 12008.7 2256C11938.7 2380 11841.7 2478 11717.7 2550C11593.7 2620 11450.7 2655 11288.7 2655ZM11288.7 2385C11392.7 2385 11484.7 2361 11564.7 2313C11644.7 2265 11706.7 2199 11750.7 2115C11796.7 2031 11819.7 1934 11819.7 1824C11819.7 1714 11796.7 1617 11750.7 1533C11706.7 1447 11644.7 1380 11564.7 1332C11484.7 1284 11392.7 1260 11288.7 1260C11184.7 1260 11092.7 1284 11012.7 1332C10932.7 1380 10869.7 1447 10823.7 1533C10777.7 1617 10754.7 1714 10754.7 1824C10754.7 1934 10777.7 2031 10823.7 2115C10869.7 2199 10932.7 2265 11012.7 2313C11092.7 2361 11184.7 2385 11288.7 2385Z" fill="#ACA8A8"/>
<path d="M12905.1 2643C12871.1 2643 12840.1 2631 12812.1 2607C12786.1 2581 12773.1 2547 12773.1 2505V1008C12773.1 866 12800.1 742 12854.1 636C12908.1 530 12984.1 448 13082.1 390C13182.1 330 13299.1 300 13433.1 300C13473.1 300 13506.1 312 13532.1 336C13558.1 360 13571.1 390 13571.1 426C13571.1 460 13558.1 490 13532.1 516C13506.1 540 13473.1 552 13433.1 552C13353.1 552 13284.1 570 13226.1 606C13170.1 642 13126.1 693 13094.1 759C13064.1 823 13049.1 899 13049.1 987V2505C13049.1 2547 13036.1 2581 13010.1 2607C12986.1 2631 12951.1 2643 12905.1 2643ZM12620.1 1299C12582.1 1299 12551.1 1288 12527.1 1266C12505.1 1244 12494.1 1216 12494.1 1182C12494.1 1146 12505.1 1117 12527.1 1095C12551.1 1073 12582.1 1062 12620.1 1062H13376.1C13414.1 1062 13445.1 1073 13469.1 1095C13493.1 1117 13505.1 1146 13505.1 1182C13505.1 1216 13493.1 1244 13469.1 1266C13445.1 1288 13414.1 1299 13376.1 1299H12620.1Z" fill="white"/>
<path d="M14297.7 2643C14255.7 2643 14221.7 2630 14195.7 2604C14169.7 2578 14156.7 2545 14156.7 2505V1140C14156.7 1098 14169.7 1065 14195.7 1041C14221.7 1015 14255.7 1002 14297.7 1002C14337.7 1002 14370.7 1015 14396.7 1041C14422.7 1065 14435.7 1098 14435.7 1140V2505C14435.7 2545 14422.7 2578 14396.7 2604C14370.7 2630 14337.7 2643 14297.7 2643ZM14294.7 717C14244.7 717 14201.7 699 14165.7 663C14129.7 627 14111.7 583 14111.7 531C14111.7 479 14129.7 436 14165.7 402C14203.7 366 14247.7 348 14297.7 348C14345.7 348 14387.7 366 14423.7 402C14461.7 436 14480.7 479 14480.7 531C14480.7 583 14462.7 627 14426.7 663C14390.7 699 14346.7 717 14294.7 717ZM16706.3 2646C16666.3 2646 16632.3 2633 16604.3 2607C16578.3 2579 16565.3 2546 16565.3 2508V1752C16565.3 1634 16543.3 1538 16499.3 1464C16455.3 1388 16396.3 1332 16322.3 1296C16248.3 1258 16163.3 1239 16067.3 1239C15977.3 1239 15896.3 1257 15824.3 1293C15752.3 1329 15694.3 1377 15650.3 1437C15608.3 1497 15587.3 1566 15587.3 1644H15407.3C15409.3 1518 15441.3 1406 15503.3 1308C15565.3 1208 15649.3 1130 15755.3 1074C15861.3 1016 15980.3 987 16112.3 987C16252.3 987 16377.3 1017 16487.3 1077C16597.3 1135 16684.3 1221 16748.3 1335C16812.3 1449 16844.3 1588 16844.3 1752V2508C16844.3 2546 16830.3 2579 16802.3 2607C16776.3 2633 16744.3 2646 16706.3 2646ZM15449.3 2646C15409.3 2646 15376.3 2633 15350.3 2607C15324.3 2581 15311.3 2548 15311.3 2508V1140C15311.3 1098 15324.3 1065 15350.3 1041C15376.3 1015 15409.3 1002 15449.3 1002C15491.3 1002 15524.3 1015 15548.3 1041C15574.3 1065 15587.3 1098 15587.3 1140V2508C15587.3 2548 15574.3 2581 15548.3 2607C15524.3 2633 15491.3 2646 15449.3 2646ZM18412.4 2655C18246.4 2655 18099.4 2620 17971.4 2550C17845.4 2478 17746.4 2380 17674.4 2256C17602.4 2130 17566.4 1986 17566.4 1824C17566.4 1660 17600.4 1516 17668.4 1392C17736.4 1266 17830.4 1168 17950.4 1098C18070.4 1026 18209.4 990 18367.4 990C18521.4 990 18654.4 1025 18766.4 1095C18878.4 1163 18964.4 1258 19024.4 1380C19084.4 1500 19114.4 1639 19114.4 1797C19114.4 1831 19102.4 1860 19078.4 1884C19056.4 1906 19026.4 1917 18988.4 1917H17755.4V1695H18991.4L18868.4 1782C18866.4 1676 18845.4 1581 18805.4 1497C18765.4 1413 18708.4 1347 18634.4 1299C18560.4 1251 18471.4 1227 18367.4 1227C18253.4 1227 18154.4 1253 18070.4 1305C17988.4 1357 17925.4 1428 17881.4 1518C17837.4 1608 17815.4 1710 17815.4 1824C17815.4 1938 17840.4 2040 17890.4 2130C17942.4 2218 18012.4 2288 18100.4 2340C18190.4 2392 18294.4 2418 18412.4 2418C18476.4 2418 18542.4 2406 18610.4 2382C18680.4 2358 18735.4 2330 18775.4 2298C18803.4 2276 18833.4 2265 18865.4 2265C18897.4 2263 18925.4 2272 18949.4 2292C18979.4 2320 18995.4 2351 18997.4 2385C18999.4 2417 18985.4 2445 18955.4 2469C18887.4 2523 18802.4 2568 18700.4 2604C18600.4 2638 18504.4 2655 18412.4 2655ZM20445.3 2655C20295.3 2655 20161.3 2619 20043.3 2547C19925.3 2475 19832.3 2376 19764.3 2250C19696.3 2124 19662.3 1982 19662.3 1824C19662.3 1664 19698.3 1522 19770.3 1398C19844.3 1272 19943.3 1173 20067.3 1101C20193.3 1027 20334.3 990 20490.3 990C20648.3 990 20789.3 1027 20913.3 1101C21037.3 1173 21135.3 1272 21207.3 1398C21281.3 1524 21319.3 1666 21321.3 1824L21213.3 1851C21213.3 2003 21179.3 2140 21111.3 2262C21043.3 2384 20951.3 2480 20835.3 2550C20721.3 2620 20591.3 2655 20445.3 2655ZM20490.3 2409C20598.3 2409 20694.3 2384 20778.3 2334C20862.3 2282 20928.3 2212 20976.3 2124C21026.3 2034 21051.3 1934 21051.3 1824C21051.3 1712 21026.3 1612 20976.3 1524C20928.3 1434 20862.3 1364 20778.3 1314C20694.3 1262 20598.3 1236 20490.3 1236C20386.3 1236 20291.3 1262 20205.3 1314C20119.3 1364 20051.3 1434 20001.3 1524C19953.3 1612 19929.3 1712 19929.3 1824C19929.3 1934 19953.3 2034 20001.3 2124C20051.3 2212 20119.3 2282 20205.3 2334C20291.3 2384 20386.3 2409 20490.3 2409ZM21180.3 2646C21140.3 2646 21107.3 2633 21081.3 2607C21055.3 2581 21042.3 2548 21042.3 2508V2028L21099.3 1740L21321.3 1824V2508C21321.3 2548 21307.3 2581 21279.3 2607C21253.3 2633 21220.3 2646 21180.3 2646ZM22199.6 1623C22203.6 1501 22234.6 1392 22292.6 1296C22352.6 1200 22431.6 1124 22529.6 1068C22627.6 1012 22735.6 984 22853.6 984C22963.6 984 23045.6 1001 23099.6 1035C23155.6 1069 23176.6 1112 23162.6 1164C23156.6 1194 23144.6 1216 23126.6 1230C23108.6 1242 23087.6 1249 23063.6 1251C23039.6 1251 23013.6 1249 22985.6 1245C22863.6 1225 22754.6 1228 22658.6 1254C22562.6 1280 22486.6 1325 22430.6 1389C22374.6 1453 22346.6 1531 22346.6 1623H22199.6ZM22208.6 2643C22166.6 2643 22133.6 2632 22109.6 2610C22085.6 2586 22073.6 2552 22073.6 2508V1137C22073.6 1095 22085.6 1062 22109.6 1038C22133.6 1014 22166.6 1002 22208.6 1002C22254.6 1002 22288.6 1014 22310.6 1038C22334.6 1060 22346.6 1093 22346.6 1137V2508C22346.6 2550 22334.6 2583 22310.6 2607C22288.6 2631 22254.6 2643 22208.6 2643ZM24412.4 2643C24310.4 2643 24218.4 2618 24136.4 2568C24054.4 2516 23990.4 2447 23944.4 2361C23898.4 2273 23875.4 2173 23875.4 2061V618C23875.4 578 23887.4 545 23911.4 519C23937.4 493 23970.4 480 24010.4 480C24050.4 480 24083.4 493 24109.4 519C24135.4 545 24148.4 578 24148.4 618V2061C24148.4 2151 24173.4 2225 24223.4 2283C24273.4 2341 24336.4 2370 24412.4 2370H24505.4C24539.4 2370 24567.4 2383 24589.4 2409C24613.4 2435 24625.4 2468 24625.4 2508C24625.4 2548 24610.4 2581 24580.4 2607C24552.4 2631 24515.4 2643 24469.4 2643H24412.4ZM23713.4 1299C23677.4 1299 23647.4 1288 23623.4 1266C23599.4 1244 23587.4 1216 23587.4 1182C23587.4 1146 23599.4 1117 23623.4 1095C23647.4 1073 23677.4 1062 23713.4 1062H24436.4C24472.4 1062 24502.4 1073 24526.4 1095C24550.4 1117 24562.4 1146 24562.4 1182C24562.4 1216 24550.4 1244 24526.4 1266C24502.4 1288 24472.4 1299 24436.4 1299H23713.4Z" fill="#FFFCFC"/>
<path d="M16817.5 4986C16797.1 4986 16780.3 4981.8 16767.1 4973.4C16753.9 4963.8 16747.3 4950 16747.3 4932V3634.2C16747.3 3617.4 16752.1 3604.2 16761.7 3594.6C16772.5 3585 16785.7 3580.2 16801.3 3580.2H17242.3C17309.5 3580.2 17370.7 3595.2 17425.9 3625.2C17481.1 3654 17525.5 3694.2 17559.1 3745.8C17592.7 3796.2 17609.5 3854.4 17609.5 3920.4C17609.5 3990 17590.9 4051.2 17553.7 4104C17517.7 4155.6 17470.3 4194.6 17411.5 4221C17493.1 4243.8 17558.5 4285.8 17607.7 4347C17658.1 4408.2 17683.3 4485 17683.3 4577.4C17683.3 4656.6 17665.3 4727.4 17629.3 4789.8C17594.5 4851 17545.9 4899 17483.5 4933.8C17421.1 4968.6 17349.7 4986 17269.3 4986H16817.5ZM16855.3 4878H17269.3C17329.3 4878 17382.1 4865.4 17427.7 4840.2C17473.3 4813.8 17509.3 4778.4 17535.7 4734C17562.1 4688.4 17575.3 4636.2 17575.3 4577.4C17575.3 4519.8 17562.1 4468.8 17535.7 4424.4C17509.3 4380 17473.3 4345.2 17427.7 4320C17382.1 4294.8 17329.3 4282.2 17269.3 4282.2H16855.3V4878ZM16855.3 4174.2H17242.3C17317.9 4174.2 17379.7 4151.4 17427.7 4105.8C17476.9 4059 17501.5 3997.2 17501.5 3920.4C17501.5 3846 17476.9 3789 17427.7 3749.4C17379.7 3708.6 17317.9 3688.2 17242.3 3688.2H16855.3V4174.2ZM18573.9 4996.8C18477.9 4996.8 18391.5 4975.2 18314.7 4932C18239.1 4887.6 18179.1 4827.6 18134.7 4752C18091.5 4675.2 18069.9 4589.4 18069.9 4494.6C18069.9 4398.6 18091.5 4312.8 18134.7 4237.2C18179.1 4160.4 18239.1 4100.4 18314.7 4057.2C18391.5 4012.8 18477.9 3990.6 18573.9 3990.6C18669.9 3990.6 18755.7 4012.8 18831.3 4057.2C18906.9 4100.4 18966.3 4160.4 19009.5 4237.2C19053.9 4312.8 19076.1 4398.6 19076.1 4494.6L19031.1 4566.6C19031.1 4648.2 19010.7 4721.4 18969.9 4786.2C18930.3 4851 18876.3 4902.6 18807.9 4941C18739.5 4978.2 18661.5 4996.8 18573.9 4996.8ZM18573.9 4896C18649.5 4896 18716.7 4878.6 18775.5 4843.8C18835.5 4807.8 18882.3 4759.8 18915.9 4699.8C18950.7 4638.6 18968.1 4570.2 18968.1 4494.6C18968.1 4417.8 18950.7 4349.4 18915.9 4289.4C18882.3 4228.2 18835.5 4180.2 18775.5 4145.4C18716.7 4109.4 18649.5 4091.4 18573.9 4091.4C18499.5 4091.4 18432.3 4109.4 18372.3 4145.4C18312.3 4180.2 18264.9 4228.2 18230.1 4289.4C18195.3 4349.4 18177.9 4417.8 18177.9 4494.6C18177.9 4570.2 18195.3 4638.6 18230.1 4699.8C18264.9 4759.8 18312.3 4807.8 18372.3 4843.8C18432.3 4878.6 18499.5 4896 18573.9 4896ZM19022.1 4986C19006.5 4986 18993.3 4981.2 18982.5 4971.6C18972.9 4960.8 18968.1 4947.6 18968.1 4932V4602.6L19002.3 4494.6H19076.1V4932C19076.1 4947.6 19071.3 4960.8 19061.7 4971.6C19052.1 4981.2 19038.9 4986 19022.1 4986ZM19860.4 4996.8C19798 4996.8 19732.6 4985.4 19664.2 4962.6C19595.8 4939.8 19538.8 4901.4 19493.2 4847.4C19483.6 4835.4 19479.4 4822.8 19480.6 4809.6C19483 4795.2 19490.8 4783.2 19504 4773.6C19516 4765.2 19528.6 4762.2 19541.8 4764.6C19556.2 4767 19567.6 4773.6 19576 4784.4C19610.8 4825.2 19652.8 4854 19702 4870.8C19752.4 4886.4 19807 4894.2 19865.8 4894.2C19966.6 4894.2 20038 4876.2 20080 4840.2C20122 4804.2 20143 4762.2 20143 4714.2C20143 4667.4 20120.2 4629 20074.6 4599C20030.2 4567.8 19961.2 4545.6 19867.6 4532.4C19747.6 4515.6 19658.8 4483.2 19601.2 4435.2C19543.6 4387.2 19514.8 4331.4 19514.8 4267.8C19514.8 4207.8 19529.8 4157.4 19559.8 4116.6C19589.8 4074.6 19630.6 4043.4 19682.2 4023C19735 4001.4 19795 3990.6 19862.2 3990.6C19943.8 3990.6 20012.8 4005.6 20069.2 4035.6C20125.6 4064.4 20171.2 4103.4 20206 4152.6C20215.6 4164.6 20218.6 4177.8 20215 4192.2C20212.6 4205.4 20203.6 4216.2 20188 4224.6C20176 4230.6 20163.4 4232.4 20150.2 4230C20137 4227.6 20125.6 4220.4 20116 4208.4C20086 4170 20049.4 4141.2 20006.2 4122C19964.2 4101.6 19915 4091.4 19858.6 4091.4C19783 4091.4 19724.2 4107.6 19682.2 4140C19640.2 4172.4 19619.2 4211.4 19619.2 4257C19619.2 4288.2 19627.6 4315.8 19644.4 4339.8C19662.4 4362.6 19691.2 4382.4 19730.8 4399.2C19770.4 4414.8 19823.2 4427.4 19889.2 4437C19979.2 4449 20050 4469.4 20101.6 4498.2C20154.4 4527 20191.6 4560.6 20213.2 4599C20236 4636.2 20247.4 4676.4 20247.4 4719.6C20247.4 4776 20229.4 4825.2 20193.4 4867.2C20157.4 4909.2 20110 4941.6 20051.2 4964.4C19992.4 4986 19928.8 4996.8 19860.4 4996.8ZM21106.3 4995C21011.5 4995 20926.9 4974 20852.5 4932C20779.3 4888.8 20721.7 4829.4 20679.7 4753.8C20637.7 4678.2 20616.7 4591.8 20616.7 4494.6C20616.7 4396.2 20636.5 4309.8 20676.1 4235.4C20715.7 4159.8 20770.3 4100.4 20839.9 4057.2C20909.5 4014 20989.3 3992.4 21079.3 3992.4C21168.1 3992.4 21246.7 4013.4 21315.1 4055.4C21383.5 4096.2 21436.9 4153.2 21475.3 4226.4C21513.7 4298.4 21532.9 4381.8 21532.9 4476.6C21532.9 4492.2 21528.1 4504.8 21518.5 4514.4C21508.9 4522.8 21496.3 4527 21480.7 4527H20688.7V4433.4H21509.5L21430.3 4492.8C21432.7 4414.8 21419.5 4345.8 21390.7 4285.8C21361.9 4225.8 21320.5 4179 21266.5 4145.4C21213.7 4110.6 21151.3 4093.2 21079.3 4093.2C21010.9 4093.2 20949.7 4110.6 20895.7 4145.4C20842.9 4179 20800.9 4225.8 20769.7 4285.8C20739.7 4345.8 20724.7 4415.4 20724.7 4494.6C20724.7 4572.6 20740.9 4641.6 20773.3 4701.6C20805.7 4761.6 20850.7 4809 20908.3 4843.8C20965.9 4877.4 21031.9 4894.2 21106.3 4894.2C21153.1 4894.2 21199.9 4886.4 21246.7 4870.8C21294.7 4854 21332.5 4832.4 21360.1 4806C21369.7 4796.4 21381.1 4791.6 21394.3 4791.6C21408.7 4790.4 21420.7 4794 21430.3 4802.4C21443.5 4813.2 21450.1 4825.2 21450.1 4838.4C21451.3 4851.6 21445.9 4863.6 21433.9 4874.4C21395.5 4909.2 21345.1 4938 21282.7 4960.8C21221.5 4983.6 21162.7 4995 21106.3 4995ZM22145.5 4986C22099.9 4986 22059.1 4973.4 22023.1 4948.2C21988.3 4923 21960.7 4888.2 21940.3 4843.8C21921.1 4799.4 21911.5 4747.8 21911.5 4689V3634.2C21911.5 3617.4 21916.3 3604.2 21925.9 3594.6C21936.7 3585 21949.9 3580.2 21965.5 3580.2C21982.3 3580.2 21995.5 3585 22005.1 3594.6C22014.7 3604.2 22019.5 3617.4 22019.5 3634.2V4689C22019.5 4744.2 22030.9 4789.8 22053.7 4825.8C22077.7 4860.6 22108.3 4878 22145.5 4878H22190.5C22203.7 4878 22214.5 4882.8 22222.9 4892.4C22231.3 4902 22235.5 4915.2 22235.5 4932C22235.5 4947.6 22230.7 4960.8 22221.1 4971.6C22211.5 4981.2 22198.3 4986 22181.5 4986H22145.5Z" fill="#E8E7E7"/>
<path d="M9321.55 4988.8C9259.15 4988.8 9193.75 4977.4 9125.35 4954.6C9056.95 4931.8 8999.95 4893.4 8954.35 4839.4C8944.75 4827.4 8940.55 4814.8 8941.75 4801.6C8944.15 4787.2 8951.95 4775.2 8965.15 4765.6C8977.15 4757.2 8989.75 4754.2 9002.95 4756.6C9017.35 4759 9028.75 4765.6 9037.15 4776.4C9071.95 4817.2 9113.95 4846 9163.15 4862.8C9213.55 4878.4 9268.15 4886.2 9326.95 4886.2C9427.75 4886.2 9499.15 4868.2 9541.15 4832.2C9583.15 4796.2 9604.15 4754.2 9604.15 4706.2C9604.15 4659.4 9581.35 4621 9535.75 4591C9491.35 4559.8 9422.35 4537.6 9328.75 4524.4C9208.75 4507.6 9119.95 4475.2 9062.35 4427.2C9004.75 4379.2 8975.95 4323.4 8975.95 4259.8C8975.95 4199.8 8990.95 4149.4 9020.95 4108.6C9050.95 4066.6 9091.75 4035.4 9143.35 4015C9196.15 3993.4 9256.15 3982.6 9323.35 3982.6C9404.95 3982.6 9473.95 3997.6 9530.35 4027.6C9586.75 4056.4 9632.35 4095.4 9667.15 4144.6C9676.75 4156.6 9679.75 4169.8 9676.15 4184.2C9673.75 4197.4 9664.75 4208.2 9649.15 4216.6C9637.15 4222.6 9624.55 4224.4 9611.35 4222C9598.15 4219.6 9586.75 4212.4 9577.15 4200.4C9547.15 4162 9510.55 4133.2 9467.35 4114C9425.35 4093.6 9376.15 4083.4 9319.75 4083.4C9244.15 4083.4 9185.35 4099.6 9143.35 4132C9101.35 4164.4 9080.35 4203.4 9080.35 4249C9080.35 4280.2 9088.75 4307.8 9105.55 4331.8C9123.55 4354.6 9152.35 4374.4 9191.95 4391.2C9231.55 4406.8 9284.35 4419.4 9350.35 4429C9440.35 4441 9511.15 4461.4 9562.75 4490.2C9615.55 4519 9652.75 4552.6 9674.35 4591C9697.15 4628.2 9708.55 4668.4 9708.55 4711.6C9708.55 4768 9690.55 4817.2 9654.55 4859.2C9618.55 4901.2 9571.15 4933.6 9512.35 4956.4C9453.55 4978 9389.95 4988.8 9321.55 4988.8ZM10535 4978C10469 4976.8 10410.2 4961.8 10358.6 4933C10307 4903 10266.8 4862.2 10238 4810.6C10209.2 4757.8 10194.8 4698.4 10194.8 4632.4V3736C10194.8 3719.2 10199.6 3706 10209.2 3696.4C10220 3685.6 10233.2 3680.2 10248.8 3680.2C10265.6 3680.2 10278.8 3685.6 10288.4 3696.4C10299.2 3706 10304.6 3719.2 10304.6 3736V4632.4C10304.6 4702 10326.2 4759 10369.4 4803.4C10412.6 4846.6 10468.4 4868.2 10536.8 4868.2H10576.4C10593.2 4868.2 10606.4 4873.6 10616 4884.4C10626.8 4894 10632.2 4907.2 10632.2 4924C10632.2 4939.6 10626.8 4952.8 10616 4963.6C10606.4 4973.2 10593.2 4978 10576.4 4978H10535ZM10054.4 4126.6C10040 4126.6 10028 4122.4 10018.4 4114C10010 4104.4 10005.8 4092.4 10005.8 4078C10005.8 4063.6 10010 4052.2 10018.4 4043.8C10028 4034.2 10040 4029.4 10054.4 4029.4H10542.2C10556.6 4029.4 10568 4034.2 10576.4 4043.8C10586 4052.2 10590.8 4063.6 10590.8 4078C10590.8 4092.4 10586 4104.4 10576.4 4114C10568 4122.4 10556.6 4126.6 10542.2 4126.6H10054.4ZM11475.2 4990.6C11388.8 4990.6 11311.4 4973.2 11243 4938.4C11174.6 4902.4 11120 4850.2 11079.2 4781.8C11039.6 4713.4 11019.8 4630 11019.8 4531.6V4047.4C11019.8 4031.8 11024.6 4019.2 11034.2 4009.6C11045 3998.8 11058.2 3993.4 11073.8 3993.4C11089.4 3993.4 11102 3998.8 11111.6 4009.6C11122.4 4019.2 11127.8 4031.8 11127.8 4047.4V4531.6C11127.8 4609.6 11142.8 4675 11172.8 4727.8C11204 4779.4 11245.4 4818.4 11297 4844.8C11349.8 4870 11409.2 4882.6 11475.2 4882.6C11540 4882.6 11598.2 4870 11649.8 4844.8C11701.4 4819.6 11742.2 4786 11772.2 4744C11802.2 4700.8 11817.2 4652.2 11817.2 4598.2H11907.2C11902.4 4672.6 11880.2 4739.8 11840.6 4799.8C11801 4858.6 11749.4 4905.4 11685.8 4940.2C11623.4 4973.8 11553.2 4990.6 11475.2 4990.6ZM11871.2 4978C11855.6 4978 11842.4 4973.2 11831.6 4963.6C11822 4952.8 11817.2 4939.6 11817.2 4924V4047.4C11817.2 4030.6 11822 4017.4 11831.6 4007.8C11842.4 3998.2 11855.6 3993.4 11871.2 3993.4C11888 3993.4 11901.2 3998.2 11910.8 4007.8C11920.4 4017.4 11925.2 4030.6 11925.2 4047.4V4924C11925.2 4939.6 11920.4 4952.8 11910.8 4963.6C11901.2 4973.2 11888 4978 11871.2 4978ZM12878.9 4988.8C12782.9 4988.8 12696.5 4967.2 12619.7 4924C12544.1 4879.6 12484.1 4819.6 12439.7 4744C12396.5 4667.2 12374.9 4580.8 12374.9 4484.8C12374.9 4388.8 12396.5 4303 12439.7 4227.4C12484.1 4151.8 12544.1 4092.4 12619.7 4049.2C12696.5 4004.8 12782.9 3982.6 12878.9 3982.6C12965.3 3982.6 13042.7 4001.2 13111.1 4038.4C13180.7 4075.6 13234.7 4125.4 13273.1 4187.8V3626.2C13273.1 3609.4 13277.9 3596.2 13287.5 3586.6C13298.3 3577 13311.5 3572.2 13327.1 3572.2C13343.9 3572.2 13357.1 3577 13366.7 3586.6C13376.3 3596.2 13381.1 3609.4 13381.1 3626.2V4495.6C13379.9 4589.2 13357.1 4673.2 13312.7 4747.6C13268.3 4822 13208.3 4880.8 13132.7 4924C13058.3 4967.2 12973.7 4988.8 12878.9 4988.8ZM12878.9 4888C12954.5 4888 13021.7 4870.6 13080.5 4835.8C13140.5 4799.8 13187.3 4751.8 13220.9 4691.8C13255.7 4630.6 13273.1 4561.6 13273.1 4484.8C13273.1 4408 13255.7 4339.6 13220.9 4279.6C13187.3 4219.6 13140.5 4172.2 13080.5 4137.4C13021.7 4101.4 12954.5 4083.4 12878.9 4083.4C12804.5 4083.4 12737.3 4101.4 12677.3 4137.4C12617.3 4172.2 12569.9 4219.6 12535.1 4279.6C12500.3 4339.6 12482.9 4408 12482.9 4484.8C12482.9 4561.6 12500.3 4630.6 12535.1 4691.8C12569.9 4751.8 12617.3 4799.8 12677.3 4835.8C12737.3 4870.6 12804.5 4888 12878.9 4888ZM13975.1 4978C13959.5 4978 13946.3 4973.2 13935.5 4963.6C13925.9 4952.8 13921.1 4939.6 13921.1 4924V4047.4C13921.1 4030.6 13925.9 4017.4 13935.5 4007.8C13946.3 3998.2 13959.5 3993.4 13975.1 3993.4C13991.9 3993.4 14005.1 3998.2 14014.7 4007.8C14024.3 4017.4 14029.1 4030.6 14029.1 4047.4V4924C14029.1 4939.6 14024.3 4952.8 14014.7 4963.6C14005.1 4973.2 13991.9 4978 13975.1 4978ZM13973.3 3786.4C13950.5 3786.4 13930.7 3778.6 13913.9 3763C13898.3 3746.2 13890.5 3725.8 13890.5 3701.8C13890.5 3674.2 13898.9 3653.8 13915.7 3640.6C13933.7 3626.2 13953.5 3619 13975.1 3619C13995.5 3619 14014.1 3626.2 14030.9 3640.6C14048.9 3653.8 14057.9 3674.2 14057.9 3701.8C14057.9 3725.8 14049.5 3746.2 14032.7 3763C14017.1 3778.6 13997.3 3786.4 13973.3 3786.4ZM15019.6 4988.8C14923.6 4988.8 14837.2 4967.2 14760.4 4924C14684.8 4879.6 14624.8 4819.6 14580.4 4744C14537.2 4667.2 14515.6 4581.4 14515.6 4486.6C14515.6 4390.6 14537.2 4304.8 14580.4 4229.2C14624.8 4152.4 14684.8 4092.4 14760.4 4049.2C14837.2 4004.8 14923.6 3982.6 15019.6 3982.6C15115.6 3982.6 15201.4 4004.8 15277 4049.2C15352.6 4092.4 15412 4152.4 15455.2 4229.2C15499.6 4304.8 15521.8 4390.6 15521.8 4486.6C15521.8 4581.4 15499.6 4667.2 15455.2 4744C15412 4819.6 15352.6 4879.6 15277 4924C15201.4 4967.2 15115.6 4988.8 15019.6 4988.8ZM15019.6 4888C15095.2 4888 15162.4 4870.6 15221.2 4835.8C15281.2 4799.8 15328 4751.8 15361.6 4691.8C15396.4 4630.6 15413.8 4561.6 15413.8 4484.8C15413.8 4409.2 15396.4 4341.4 15361.6 4281.4C15328 4220.2 15281.2 4172.2 15221.2 4137.4C15162.4 4101.4 15095.2 4083.4 15019.6 4083.4C14945.2 4083.4 14878 4101.4 14818 4137.4C14758 4172.2 14710.6 4220.2 14675.8 4281.4C14641 4341.4 14623.6 4409.8 14623.6 4486.6C14623.6 4562.2 14641 4630.6 14675.8 4691.8C14710.6 4751.8 14758 4799.8 14818 4835.8C14878 4870.6 14945.2 4888 15019.6 4888Z" fill="#E8E7E7"/>
<path d="M2646 10.5C4107.07 10.5 5291.5 1194.93 5291.5 2656C5291.5 4117.07 4107.07 5301.5 2646 5301.5C1184.93 5301.5 0.5 4117.07 0.5 2656C0.5 1194.93 1184.93 10.5 2646 10.5Z" fill="#0F0F0F" stroke="black"/>
<path d="M1778.23 3602C1740.24 3602 1707.25 3589 1679.26 3563.01C1651.27 3535.02 1637.28 3501.03 1637.28 3461.05V1400.73C1637.28 1358.75 1650.27 1324.76 1676.26 1298.77C1704.25 1272.78 1738.24 1259.78 1778.23 1259.78H3154.77C3196.76 1259.78 3229.74 1272.78 3253.74 1298.77C3279.73 1322.76 3292.72 1354.75 3292.72 1394.74C3292.72 1430.72 3279.73 1461.71 3253.74 1487.7C3229.74 1511.7 3196.76 1523.69 3154.77 1523.69H1919.18V2291.44H2809.88C2851.87 2291.44 2885.86 2304.43 2911.85 2330.42C2937.84 2354.42 2950.84 2385.41 2950.84 2423.39C2950.84 2461.38 2937.84 2493.37 2911.85 2519.36C2885.86 2543.35 2851.87 2555.35 2809.88 2555.35H1919.18V3461.05C1919.18 3501.03 1905.19 3535.02 1877.2 3563.01C1851.2 3589 1818.22 3602 1778.23 3602Z" fill="#757070"/>
<path d="M896.43 3603C852.43 3603 815.43 3588 785.43 3558C755.43 3528 740.43 3491 740.43 3447V1416C740.43 1370 755.43 1333 785.43 1305C815.43 1275 852.43 1260 896.43 1260H1496.43C1646.43 1260 1779.43 1293 1895.43 1359C2011.43 1425 2101.43 1517 2165.43 1635C2231.43 1751 2264.43 1885 2264.43 2037C2264.43 2183 2231.43 2313 2165.43 2427C2101.43 2541 2011.43 2630 1895.43 2694C1779.43 2758 1646.43 2790 1496.43 2790H1052.43V3447C1052.43 3491 1037.43 3528 1007.43 3558C979.43 3588 942.43 3603 896.43 3603ZM1052.43 2502H1496.43C1588.43 2502 1669.43 2482 1739.43 2442C1809.43 2402 1864.43 2347 1904.43 2277C1944.43 2207 1964.43 2127 1964.43 2037C1964.43 1941 1944.43 1857 1904.43 1785C1864.43 1711 1809.43 1653 1739.43 1611C1669.43 1569 1588.43 1548 1496.43 1548H1052.43V2502Z" fill="#FDF8F8"/>
<path d="M2990.31 3603C2934.31 3603 2891.31 3579 2861.31 3531C2831.31 3483 2828.31 3432 2852.31 3378L3695.31 1365C3725.31 1295 3774.31 1260 3842.31 1260C3914.31 1260 3963.31 1295 3989.31 1365L4835.31 3384C4857.31 3440 4853.31 3491 4823.31 3537C4795.31 3581 4752.31 3603 4694.31 3603C4664.31 3603 4635.31 3595 4607.31 3579C4581.31 3561 4562.31 3537 4550.31 3507L3806.31 1659H3890.31L3134.31 3507C3120.31 3539 3099.31 3563 3071.31 3579C3045.31 3595 3018.31 3603 2990.31 3603ZM3149.31 3087L3269.31 2829H4445.31L4565.31 3087H3149.31Z" fill="#757070"/>
</svg>
