<svg width="44468" height="5292" viewBox="0 0 44468 5292" fill="none" xmlns="http://www.w3.org/2000/svg">
<path d="M6267.56 4295C6231.56 4295 6202.56 4284 6180.56 4262C6160.56 4242 6150.56 4214 6150.56 4178V2762C6152.56 2606 6189.56 2466 6261.56 2342C6335.56 2216 6434.56 2117 6558.56 2045C6684.56 1973 6825.56 1937 6981.56 1937C7141.56 1937 7284.56 1974 7410.56 2048C7536.56 2120 7635.56 2219 7707.56 2345C7781.56 2471 7818.56 2614 7818.56 2774C7818.56 2932 7782.56 3074 7710.56 3200C7640.56 3326 7544.56 3426 7422.56 3500C7300.56 3572 7162.56 3608 7008.56 3608C6874.56 3608 6752.56 3580 6642.56 3524C6534.56 3466 6447.56 3390 6381.56 3296V4178C6381.56 4214 6370.56 4242 6348.56 4262C6328.56 4284 6301.56 4295 6267.56 4295ZM6981.56 3398C7097.56 3398 7201.56 3371 7293.56 3317C7385.56 3263 7457.56 3189 7509.56 3095C7563.56 2999 7590.56 2892 7590.56 2774C7590.56 2654 7563.56 2547 7509.56 2453C7457.56 2359 7385.56 2285 7293.56 2231C7201.56 2175 7097.56 2147 6981.56 2147C6867.56 2147 6764.56 2175 6672.56 2231C6580.56 2285 6508.56 2359 6456.56 2453C6404.56 2547 6378.56 2654 6378.56 2774C6378.56 2892 6404.56 2999 6456.56 3095C6508.56 3189 6580.56 3263 6672.56 3317C6764.56 3371 6867.56 3398 6981.56 3398ZM8517.66 2582C8523.66 2458 8555.66 2347 8613.66 2249C8673.66 2151 8750.66 2074 8844.66 2018C8940.66 1962 9046.66 1934 9162.66 1934C9254.66 1934 9325.66 1947 9375.66 1973C9425.66 1999 9444.66 2037 9432.66 2087C9424.66 2117 9410.66 2137 9390.66 2147C9372.66 2157 9349.66 2161 9321.66 2159C9295.66 2157 9265.66 2155 9231.66 2153C9119.66 2143 9019.66 2155 8931.66 2189C8845.66 2221 8776.66 2271 8724.66 2339C8674.66 2407 8649.66 2488 8649.66 2582H8517.66ZM8535.66 3593C8499.66 3593 8471.66 3583 8451.66 3563C8431.66 3543 8421.66 3515 8421.66 3479V2066C8421.66 2030 8431.66 2002 8451.66 1982C8471.66 1962 8499.66 1952 8535.66 1952C8571.66 1952 8599.66 1962 8619.66 1982C8639.66 2002 8649.66 2030 8649.66 2066V3479C8649.66 3515 8639.66 3543 8619.66 3563C8599.66 3583 8571.66 3593 8535.66 3593ZM10572.6 3608C10412.6 3608 10269.6 3572 10143.6 3500C10017.6 3428 9918.56 3329 9846.56 3203C9774.56 3077 9738.56 2934 9738.56 2774C9738.56 2612 9774.56 2468 9846.56 2342C9918.56 2216 10017.6 2117 10143.6 2045C10269.6 1973 10412.6 1937 10572.6 1937C10732.6 1937 10874.6 1973 10998.6 2045C11124.6 2117 11223.6 2216 11295.6 2342C11367.6 2468 11404.6 2612 11406.6 2774C11406.6 2934 11369.6 3077 11295.6 3203C11223.6 3329 11124.6 3428 10998.6 3500C10874.6 3572 10732.6 3608 10572.6 3608ZM10572.6 3398C10688.6 3398 10792.6 3371 10884.6 3317C10976.6 3263 11048.6 3189 11100.6 3095C11152.6 3001 11178.6 2894 11178.6 2774C11178.6 2654 11152.6 2547 11100.6 2453C11048.6 2357 10976.6 2282 10884.6 2228C10792.6 2174 10688.6 2147 10572.6 2147C10456.6 2147 10352.6 2174 10260.6 2228C10168.6 2282 10095.6 2357 10041.6 2453C9989.56 2547 9963.56 2654 9963.56 2774C9963.56 2894 9989.56 3001 10041.6 3095C10095.6 3189 10168.6 3263 10260.6 3317C10352.6 3371 10456.6 3398 10572.6 3398Z" fill="#757070"/>
<path d="M12209.8 3593C12179.8 3593 12153.8 3583 12131.8 3563C12109.8 3541 12098.8 3512 12098.8 3476V1955C12098.8 1815 12122.8 1692 12170.8 1586C12218.8 1480 12289.8 1398 12383.8 1340C12477.8 1280 12592.8 1250 12728.8 1250C12762.8 1250 12790.8 1260 12812.8 1280C12834.8 1300 12845.8 1325 12845.8 1355C12845.8 1385 12834.8 1410 12812.8 1430C12790.8 1450 12762.8 1460 12728.8 1460C12638.8 1460 12563.8 1481 12503.8 1523C12445.8 1563 12401.8 1620 12371.8 1694C12343.8 1766 12329.8 1849 12329.8 1943V3476C12329.8 3512 12318.8 3541 12296.8 3563C12276.8 3583 12247.8 3593 12209.8 3593ZM11906.8 2213C11874.8 2213 11848.8 2204 11828.8 2186C11810.8 2166 11801.8 2142 11801.8 2114C11801.8 2084 11810.8 2060 11828.8 2042C11848.8 2022 11874.8 2012 11906.8 2012H12689.8C12721.8 2012 12746.8 2022 12764.8 2042C12784.8 2060 12794.8 2084 12794.8 2114C12794.8 2142 12784.8 2166 12764.8 2186C12746.8 2204 12721.8 2213 12689.8 2213H11906.8Z" fill="#EAE7E5"/>
<path d="M13419.5 3593C13383.5 3593 13354.5 3583 13332.5 3563C13312.5 3541 13302.5 3512 13302.5 3476V2069C13302.5 2033 13312.5 2005 13332.5 1985C13354.5 1963 13383.5 1952 13419.5 1952C13453.5 1952 13480.5 1963 13500.5 1985C13522.5 2005 13533.5 2033 13533.5 2069V3476C13533.5 3512 13522.5 3541 13500.5 3563C13480.5 3583 13453.5 3593 13419.5 3593ZM13416.5 1640C13372.5 1640 13334.5 1624 13302.5 1592C13270.5 1560 13254.5 1521 13254.5 1475C13254.5 1425 13270.5 1386 13302.5 1358C13336.5 1328 13375.5 1313 13419.5 1313C13461.5 1313 13498.5 1328 13530.5 1358C13564.5 1386 13581.5 1425 13581.5 1475C13581.5 1521 13565.5 1560 13533.5 1592C13501.5 1624 13462.5 1640 13416.5 1640ZM15678.7 3593C15644.7 3593 15616.7 3582 15594.7 3560C15572.7 3538 15561.7 3511 15561.7 3479V2699C15561.7 2575 15537.7 2473 15489.7 2393C15443.7 2313 15379.7 2253 15297.7 2213C15217.7 2173 15126.7 2153 15024.7 2153C14926.7 2153 14837.7 2172 14757.7 2210C14679.7 2248 14617.7 2300 14571.7 2366C14525.7 2432 14502.7 2507 14502.7 2591H14337.7C14341.7 2465 14375.7 2353 14439.7 2255C14503.7 2155 14588.7 2077 14694.7 2021C14800.7 1963 14918.7 1934 15048.7 1934C15190.7 1934 15317.7 1964 15429.7 2024C15541.7 2082 15629.7 2168 15693.7 2282C15759.7 2396 15792.7 2535 15792.7 2699V3479C15792.7 3511 15781.7 3538 15759.7 3560C15737.7 3582 15710.7 3593 15678.7 3593ZM14388.7 3593C14352.7 3593 14323.7 3583 14301.7 3563C14281.7 3541 14271.7 3513 14271.7 3479V2069C14271.7 2033 14281.7 2005 14301.7 1985C14323.7 1963 14352.7 1952 14388.7 1952C14422.7 1952 14449.7 1963 14469.7 1985C14491.7 2005 14502.7 2033 14502.7 2069V3479C14502.7 3513 14491.7 3541 14469.7 3563C14449.7 3583 14422.7 3593 14388.7 3593ZM17195.9 3608C17033.9 3608 16889.9 3573 16763.9 3503C16639.9 3431 16541.9 3332 16469.9 3206C16399.9 3080 16364.9 2936 16364.9 2774C16364.9 2610 16397.9 2466 16463.9 2342C16531.9 2216 16624.9 2117 16742.9 2045C16860.9 1973 16996.9 1937 17150.9 1937C17302.9 1937 17434.9 1972 17546.9 2042C17660.9 2110 17748.9 2205 17810.9 2327C17872.9 2449 17903.9 2588 17903.9 2744C17903.9 2776 17893.9 2802 17873.9 2822C17853.9 2840 17827.9 2849 17795.9 2849H16520.9V2657H17819.9L17690.9 2750C17692.9 2634 17671.9 2530 17627.9 2438C17583.9 2346 17520.9 2274 17438.9 2222C17358.9 2170 17262.9 2144 17150.9 2144C17036.9 2144 16936.9 2171 16850.9 2225C16764.9 2279 16697.9 2354 16649.9 2450C16603.9 2544 16580.9 2652 16580.9 2774C16580.9 2896 16606.9 3004 16658.9 3098C16712.9 3192 16785.9 3266 16877.9 3320C16969.9 3374 17075.9 3401 17195.9 3401C17267.9 3401 17339.9 3389 17411.9 3365C17485.9 3339 17544.9 3307 17588.9 3269C17610.9 3251 17635.9 3242 17663.9 3242C17691.9 3240 17715.9 3247 17735.9 3263C17761.9 3287 17774.9 3313 17774.9 3341C17776.9 3369 17765.9 3393 17741.9 3413C17675.9 3469 17591.9 3516 17489.9 3554C17387.9 3590 17289.9 3608 17195.9 3608ZM19109.1 3608C18955.1 3608 18817.1 3572 18695.1 3500C18573.1 3426 18476.1 3326 18404.1 3200C18334.1 3074 18299.1 2932 18299.1 2774C18299.1 2614 18335.1 2471 18407.1 2345C18481.1 2219 18581.1 2120 18707.1 2048C18833.1 1974 18975.1 1937 19133.1 1937C19291.1 1937 19432.1 1974 19556.1 2048C19682.1 2120 19781.1 2219 19853.1 2345C19927.1 2471 19965.1 2614 19967.1 2774L19874.1 2846C19874.1 2990 19840.1 3120 19772.1 3236C19706.1 3350 19615.1 3441 19499.1 3509C19385.1 3575 19255.1 3608 19109.1 3608ZM19133.1 3398C19249.1 3398 19352.1 3371 19442.1 3317C19534.1 3263 19606.1 3189 19658.1 3095C19712.1 2999 19739.1 2892 19739.1 2774C19739.1 2654 19712.1 2547 19658.1 2453C19606.1 2359 19534.1 2285 19442.1 2231C19352.1 2175 19249.1 2147 19133.1 2147C19019.1 2147 18916.1 2175 18824.1 2231C18732.1 2285 18659.1 2359 18605.1 2453C18551.1 2547 18524.1 2654 18524.1 2774C18524.1 2892 18551.1 2999 18605.1 3095C18659.1 3189 18732.1 3263 18824.1 3317C18916.1 3371 19019.1 3398 19133.1 3398ZM19850.1 3593C19816.1 3593 19788.1 3583 19766.1 3563C19744.1 3541 19733.1 3513 19733.1 3479V2966L19790.1 2729L19967.1 2774V3479C19967.1 3513 19956.1 3541 19934.1 3563C19912.1 3583 19884.1 3593 19850.1 3593ZM20662.4 2582C20668.4 2458 20700.4 2347 20758.4 2249C20818.4 2151 20895.4 2074 20989.4 2018C21085.4 1962 21191.4 1934 21307.4 1934C21399.4 1934 21470.4 1947 21520.4 1973C21570.4 1999 21589.4 2037 21577.4 2087C21569.4 2117 21555.4 2137 21535.4 2147C21517.4 2157 21494.4 2161 21466.4 2159C21440.4 2157 21410.4 2155 21376.4 2153C21264.4 2143 21164.4 2155 21076.4 2189C20990.4 2221 20921.4 2271 20869.4 2339C20819.4 2407 20794.4 2488 20794.4 2582H20662.4ZM20680.4 3593C20644.4 3593 20616.4 3583 20596.4 3563C20576.4 3543 20566.4 3515 20566.4 3479V2066C20566.4 2030 20576.4 2002 20596.4 1982C20616.4 1962 20644.4 1952 20680.4 1952C20716.4 1952 20744.4 1962 20764.4 1982C20784.4 2002 20794.4 2030 20794.4 2066V3479C20794.4 3515 20784.4 3543 20764.4 3563C20744.4 3583 20716.4 3593 20680.4 3593ZM22732.4 3593C22626.4 3593 22531.4 3568 22447.4 3518C22365.4 3468 22300.4 3400 22252.4 3314C22204.4 3226 22180.4 3126 22180.4 3014V1547C22180.4 1513 22190.4 1485 22210.4 1463C22232.4 1441 22260.4 1430 22294.4 1430C22328.4 1430 22356.4 1441 22378.4 1463C22400.4 1485 22411.4 1513 22411.4 1547V3014C22411.4 3116 22441.4 3200 22501.4 3266C22561.4 3330 22638.4 3362 22732.4 3362H22813.4C22845.4 3362 22871.4 3373 22891.4 3395C22911.4 3417 22921.4 3445 22921.4 3479C22921.4 3513 22909.4 3541 22885.4 3563C22861.4 3583 22831.4 3593 22795.4 3593H22732.4ZM21985.4 2213C21955.4 2213 21930.4 2204 21910.4 2186C21890.4 2166 21880.4 2142 21880.4 2114C21880.4 2084 21890.4 2060 21910.4 2042C21930.4 2022 21955.4 2012 21985.4 2012H22750.4C22780.4 2012 22805.4 2022 22825.4 2042C22845.4 2060 22855.4 2084 22855.4 2114C22855.4 2142 22845.4 2166 22825.4 2186C22805.4 2204 22780.4 2213 22750.4 2213H21985.4Z" fill="white"/>
<path d="M36198.5 3674C36042.5 3674 35901.5 3638 35775.5 3566C35651.5 3494 35552.5 3396 35478.5 3272C35406.5 3146 35369.5 3005 35367.5 2849V1433C35367.5 1397 35377.5 1369 35397.5 1349C35419.5 1327 35448.5 1316 35484.5 1316C35518.5 1316 35545.5 1327 35565.5 1349C35587.5 1369 35598.5 1397 35598.5 1433V2315C35664.5 2221 35751.5 2146 35859.5 2090C35969.5 2032 36091.5 2003 36225.5 2003C36379.5 2003 36517.5 2040 36639.5 2114C36761.5 2186 36857.5 2285 36927.5 2411C36999.5 2537 37035.5 2679 37035.5 2837C37035.5 2997 36998.5 3140 36924.5 3266C36852.5 3392 36753.5 3492 36627.5 3566C36501.5 3638 36358.5 3674 36198.5 3674ZM36198.5 3464C36314.5 3464 36418.5 3437 36510.5 3383C36602.5 3327 36674.5 3252 36726.5 3158C36780.5 3064 36807.5 2957 36807.5 2837C36807.5 2719 36780.5 2613 36726.5 2519C36674.5 2423 36602.5 2348 36510.5 2294C36418.5 2240 36314.5 2213 36198.5 2213C36084.5 2213 35981.5 2240 35889.5 2294C35797.5 2348 35725.5 2423 35673.5 2519C35621.5 2613 35595.5 2719 35595.5 2837C35595.5 2957 35621.5 3064 35673.5 3158C35725.5 3252 35797.5 3327 35889.5 3383C35981.5 3437 36084.5 3464 36198.5 3464Z" fill="#757070"/>
<path d="M38361.6 3674C38207.6 3674 38069.6 3638 37947.6 3566C37825.6 3492 37728.6 3392 37656.6 3266C37586.6 3140 37551.6 2998 37551.6 2840C37551.6 2680 37587.6 2537 37659.6 2411C37733.6 2285 37833.6 2186 37959.6 2114C38085.6 2040 38227.6 2003 38385.6 2003C38543.6 2003 38684.6 2040 38808.6 2114C38934.6 2186 39033.6 2285 39105.6 2411C39179.6 2537 39217.6 2680 39219.6 2840L39126.6 2912C39126.6 3056 39092.6 3186 39024.6 3302C38958.6 3416 38867.6 3507 38751.6 3575C38637.6 3641 38507.6 3674 38361.6 3674ZM38385.6 3464C38501.6 3464 38604.6 3437 38694.6 3383C38786.6 3329 38858.6 3255 38910.6 3161C38964.6 3065 38991.6 2958 38991.6 2840C38991.6 2720 38964.6 2613 38910.6 2519C38858.6 2425 38786.6 2351 38694.6 2297C38604.6 2241 38501.6 2213 38385.6 2213C38271.6 2213 38168.6 2241 38076.6 2297C37984.6 2351 37911.6 2425 37857.6 2519C37803.6 2613 37776.6 2720 37776.6 2840C37776.6 2958 37803.6 3065 37857.6 3161C37911.6 3255 37984.6 3329 38076.6 3383C38168.6 3437 38271.6 3464 38385.6 3464ZM39102.6 3659C39068.6 3659 39040.6 3649 39018.6 3629C38996.6 3607 38985.6 3579 38985.6 3545V3032L39042.6 2795L39219.6 2840V3545C39219.6 3579 39208.6 3607 39186.6 3629C39164.6 3649 39136.6 3659 39102.6 3659ZM40391.9 3674C40273.9 3674 40156.9 3654 40040.9 3614C39924.9 3574 39830.9 3514 39758.9 3434C39736.9 3410 39727.9 3383 39731.9 3353C39735.9 3323 39750.9 3297 39776.9 3275C39804.9 3255 39833.9 3247 39863.9 3251C39893.9 3255 39918.9 3268 39938.9 3290C39986.9 3346 40049.9 3389 40127.9 3419C40207.9 3449 40295.9 3464 40391.9 3464C40539.9 3464 40646.9 3439 40712.9 3389C40778.9 3337 40812.9 3275 40814.9 3203C40814.9 3131 40780.9 3072 40712.9 3026C40644.9 2978 40532.9 2941 40376.9 2915C40174.9 2883 40026.9 2827 39932.9 2747C39838.9 2667 39791.9 2572 39791.9 2462C39791.9 2360 39818.9 2275 39872.9 2207C39926.9 2139 39998.9 2088 40088.9 2054C40178.9 2020 40277.9 2003 40385.9 2003C40519.9 2003 40634.9 2026 40730.9 2072C40828.9 2118 40907.9 2180 40967.9 2258C40987.9 2284 40995.9 2311 40991.9 2339C40987.9 2367 40971.9 2390 40943.9 2408C40919.9 2422 40891.9 2427 40859.9 2423C40829.9 2417 40803.9 2402 40781.9 2378C40731.9 2320 40673.9 2278 40607.9 2252C40541.9 2224 40465.9 2210 40379.9 2210C40269.9 2210 40181.9 2233 40115.9 2279C40049.9 2323 40016.9 2379 40016.9 2447C40016.9 2493 40028.9 2533 40052.9 2567C40078.9 2601 40121.9 2631 40181.9 2657C40243.9 2683 40329.9 2705 40439.9 2723C40589.9 2747 40707.9 2783 40793.9 2831C40881.9 2877 40943.9 2932 40979.9 2996C41017.9 3058 41036.9 3126 41036.9 3200C41036.9 3294 41008.9 3377 40952.9 3449C40898.9 3519 40822.9 3574 40724.9 3614C40628.9 3654 40517.9 3674 40391.9 3674ZM42330.1 3674C42168.1 3674 42024.1 3639 41898.1 3569C41774.1 3497 41676.1 3398 41604.1 3272C41534.1 3146 41499.1 3002 41499.1 2840C41499.1 2676 41532.1 2532 41598.1 2408C41666.1 2282 41759.1 2183 41877.1 2111C41995.1 2039 42131.1 2003 42285.1 2003C42437.1 2003 42569.1 2038 42681.1 2108C42795.1 2176 42883.1 2271 42945.1 2393C43007.1 2515 43038.1 2654 43038.1 2810C43038.1 2842 43028.1 2868 43008.1 2888C42988.1 2906 42962.1 2915 42930.1 2915H41655.1V2723H42954.1L42825.1 2816C42827.1 2700 42806.1 2596 42762.1 2504C42718.1 2412 42655.1 2340 42573.1 2288C42493.1 2236 42397.1 2210 42285.1 2210C42171.1 2210 42071.1 2237 41985.1 2291C41899.1 2345 41832.1 2420 41784.1 2516C41738.1 2610 41715.1 2718 41715.1 2840C41715.1 2962 41741.1 3070 41793.1 3164C41847.1 3258 41920.1 3332 42012.1 3386C42104.1 3440 42210.1 3467 42330.1 3467C42402.1 3467 42474.1 3455 42546.1 3431C42620.1 3405 42679.1 3373 42723.1 3335C42745.1 3317 42770.1 3308 42798.1 3308C42826.1 3306 42850.1 3313 42870.1 3329C42896.1 3353 42909.1 3379 42909.1 3407C42911.1 3435 42900.1 3459 42876.1 3479C42810.1 3535 42726.1 3582 42624.1 3620C42522.1 3656 42424.1 3674 42330.1 3674ZM43932.8 3659C43852.8 3659 43780.8 3637 43716.8 3593C43654.8 3549 43605.8 3488 43569.8 3410C43535.8 3332 43518.8 3242 43518.8 3140V1430C43518.8 1396 43528.8 1369 43548.8 1349C43570.8 1327 43598.8 1316 43632.8 1316C43666.8 1316 43693.8 1327 43713.8 1349C43735.8 1369 43746.8 1396 43746.8 1430V3140C43746.8 3226 43763.8 3296 43797.8 3350C43833.8 3404 43878.8 3431 43932.8 3431H44007.8C44037.8 3431 44061.8 3442 44079.8 3464C44097.8 3484 44106.8 3511 44106.8 3545C44106.8 3579 44093.8 3607 44067.8 3629C44043.8 3649 44011.8 3659 43971.8 3659H43932.8Z" fill="#EAE7E5"/>
<path d="M24587.5 3674C24469.5 3674 24352.5 3654 24236.5 3614C24120.5 3574 24026.5 3514 23954.5 3434C23932.5 3410 23923.5 3383 23927.5 3353C23931.5 3323 23946.5 3297 23972.5 3275C24000.5 3255 24029.5 3247 24059.5 3251C24089.5 3255 24114.5 3268 24134.5 3290C24182.5 3346 24245.5 3389 24323.5 3419C24403.5 3449 24491.5 3464 24587.5 3464C24735.5 3464 24842.5 3439 24908.5 3389C24974.5 3337 25008.5 3275 25010.5 3203C25010.5 3131 24976.5 3072 24908.5 3026C24840.5 2978 24728.5 2941 24572.5 2915C24370.5 2883 24222.5 2827 24128.5 2747C24034.5 2667 23987.5 2572 23987.5 2462C23987.5 2360 24014.5 2275 24068.5 2207C24122.5 2139 24194.5 2088 24284.5 2054C24374.5 2020 24473.5 2003 24581.5 2003C24715.5 2003 24830.5 2026 24926.5 2072C25024.5 2118 25103.5 2180 25163.5 2258C25183.5 2284 25191.5 2311 25187.5 2339C25183.5 2367 25167.5 2390 25139.5 2408C25115.5 2422 25087.5 2427 25055.5 2423C25025.5 2417 24999.5 2402 24977.5 2378C24927.5 2320 24869.5 2278 24803.5 2252C24737.5 2224 24661.5 2210 24575.5 2210C24465.5 2210 24377.5 2233 24311.5 2279C24245.5 2323 24212.5 2379 24212.5 2447C24212.5 2493 24224.5 2533 24248.5 2567C24274.5 2601 24317.5 2631 24377.5 2657C24439.5 2683 24525.5 2705 24635.5 2723C24785.5 2747 24903.5 2783 24989.5 2831C25077.5 2877 25139.5 2932 25175.5 2996C25213.5 3058 25232.5 3126 25232.5 3200C25232.5 3294 25204.5 3377 25148.5 3449C25094.5 3519 25018.5 3574 24920.5 3614C24824.5 3654 24713.5 3674 24587.5 3674ZM26423.7 3659C26317.7 3659 26222.7 3634 26138.7 3584C26056.7 3534 25991.7 3466 25943.7 3380C25895.7 3292 25871.7 3192 25871.7 3080V1613C25871.7 1579 25881.7 1551 25901.7 1529C25923.7 1507 25951.7 1496 25985.7 1496C26019.7 1496 26047.7 1507 26069.7 1529C26091.7 1551 26102.7 1579 26102.7 1613V3080C26102.7 3182 26132.7 3266 26192.7 3332C26252.7 3396 26329.7 3428 26423.7 3428H26504.7C26536.7 3428 26562.7 3439 26582.7 3461C26602.7 3483 26612.7 3511 26612.7 3545C26612.7 3579 26600.7 3607 26576.7 3629C26552.7 3649 26522.7 3659 26486.7 3659H26423.7ZM25676.7 2279C25646.7 2279 25621.7 2270 25601.7 2252C25581.7 2232 25571.7 2208 25571.7 2180C25571.7 2150 25581.7 2126 25601.7 2108C25621.7 2088 25646.7 2078 25676.7 2078H26441.7C26471.7 2078 26496.7 2088 26516.7 2108C26536.7 2126 26546.7 2150 26546.7 2180C26546.7 2208 26536.7 2232 26516.7 2252C26496.7 2270 26471.7 2279 26441.7 2279H25676.7ZM27852.7 3677C27710.7 3677 27583.7 3648 27471.7 3590C27359.7 3530 27270.7 3443 27204.7 3329C27140.7 3215 27108.7 3076 27108.7 2912V2132C27108.7 2100 27119.7 2073 27141.7 2051C27163.7 2029 27190.7 2018 27222.7 2018C27256.7 2018 27284.7 2029 27306.7 2051C27328.7 2073 27339.7 2100 27339.7 2132V2912C27339.7 3036 27362.7 3138 27408.7 3218C27456.7 3298 27520.7 3358 27600.7 3398C27682.7 3438 27774.7 3458 27876.7 3458C27974.7 3458 28062.7 3439 28140.7 3401C28220.7 3363 28283.7 3311 28329.7 3245C28375.7 3179 28398.7 3104 28398.7 3020H28563.7C28557.7 3146 28522.7 3259 28458.7 3359C28396.7 3457 28312.7 3535 28206.7 3593C28100.7 3649 27982.7 3677 27852.7 3677ZM28512.7 3659C28478.7 3659 28450.7 3649 28428.7 3629C28408.7 3607 28398.7 3578 28398.7 3542V2132C28398.7 2098 28408.7 2071 28428.7 2051C28450.7 2029 28478.7 2018 28512.7 2018C28546.7 2018 28574.7 2029 28596.7 2051C28618.7 2071 28629.7 2098 28629.7 2132V3542C28629.7 3578 28618.7 3607 28596.7 3629C28574.7 3649 28546.7 3659 28512.7 3659ZM30066 3674C29908 3674 29766 3638 29640 3566C29514 3492 29414 3392 29340 3266C29268 3140 29232 2997 29232 2837C29232 2679 29267 2537 29337 2411C29409 2285 29506 2186 29628 2114C29750 2040 29888 2003 30042 2003C30176 2003 30297 2032 30405 2090C30513 2146 30600 2221 30666 2315V1433C30666 1397 30677 1369 30699 1349C30721 1327 30749 1316 30783 1316C30817 1316 30845 1327 30867 1349C30889 1369 30900 1397 30900 1433V2849C30896 3005 30857 3146 30783 3272C30711 3396 30612 3494 30486 3566C30362 3638 30222 3674 30066 3674ZM30066 3464C30182 3464 30285 3437 30375 3383C30467 3327 30539 3252 30591 3158C30645 3064 30672 2957 30672 2837C30672 2719 30645 2613 30591 2519C30539 2423 30467 2348 30375 2294C30285 2240 30182 2213 30066 2213C29952 2213 29849 2240 29757 2294C29665 2348 29592 2423 29538 2519C29484 2613 29457 2719 29457 2837C29457 2957 29484 3064 29538 3158C29592 3252 29665 3327 29757 3383C29849 3437 29952 3464 30066 3464ZM31755.1 3659C31719.1 3659 31690.1 3649 31668.1 3629C31648.1 3607 31638.1 3578 31638.1 3542V2135C31638.1 2099 31648.1 2071 31668.1 2051C31690.1 2029 31719.1 2018 31755.1 2018C31789.1 2018 31816.1 2029 31836.1 2051C31858.1 2071 31869.1 2099 31869.1 2135V3542C31869.1 3578 31858.1 3607 31836.1 3629C31816.1 3649 31789.1 3659 31755.1 3659ZM31752.1 1706C31708.1 1706 31670.1 1690 31638.1 1658C31606.1 1626 31590.1 1587 31590.1 1541C31590.1 1491 31606.1 1452 31638.1 1424C31672.1 1394 31711.1 1379 31755.1 1379C31797.1 1379 31834.1 1394 31866.1 1424C31900.1 1452 31917.1 1491 31917.1 1541C31917.1 1587 31901.1 1626 31869.1 1658C31837.1 1690 31798.1 1706 31752.1 1706ZM33354.3 3674C33194.3 3674 33051.3 3638 32925.3 3566C32799.3 3494 32700.3 3395 32628.3 3269C32556.3 3143 32520.3 3000 32520.3 2840C32520.3 2678 32556.3 2534 32628.3 2408C32700.3 2282 32799.3 2183 32925.3 2111C33051.3 2039 33194.3 2003 33354.3 2003C33514.3 2003 33656.3 2039 33780.3 2111C33906.3 2183 34005.3 2282 34077.3 2408C34149.3 2534 34186.3 2678 34188.3 2840C34188.3 3000 34151.3 3143 34077.3 3269C34005.3 3395 33906.3 3494 33780.3 3566C33656.3 3638 33514.3 3674 33354.3 3674ZM33354.3 3464C33470.3 3464 33574.3 3437 33666.3 3383C33758.3 3329 33830.3 3255 33882.3 3161C33934.3 3067 33960.3 2960 33960.3 2840C33960.3 2720 33934.3 2613 33882.3 2519C33830.3 2423 33758.3 2348 33666.3 2294C33574.3 2240 33470.3 2213 33354.3 2213C33238.3 2213 33134.3 2240 33042.3 2294C32950.3 2348 32877.3 2423 32823.3 2519C32771.3 2613 32745.3 2720 32745.3 2840C32745.3 2960 32771.3 3067 32823.3 3161C32877.3 3255 32950.3 3329 33042.3 3383C33134.3 3437 33238.3 3464 33354.3 3464Z" fill="white"/>
<path d="M0 2646C0 1184.65 1184.65 0 2646 0C4107.35 0 5292 1184.65 5292 2646C5292 4107.35 4107.35 5292 2646 5292C1184.65 5292 0 4107.35 0 2646Z" fill="#1E1D1D"/>
<path d="M1778.23 3592C1740.24 3592 1707.25 3579 1679.26 3553.01C1651.27 3525.02 1637.28 3491.03 1637.28 3451.05V1390.73C1637.28 1348.75 1650.27 1314.76 1676.26 1288.77C1704.25 1262.78 1738.24 1249.78 1778.23 1249.78H3154.77C3196.76 1249.78 3229.74 1262.78 3253.74 1288.77C3279.73 1312.76 3292.72 1344.75 3292.72 1384.74C3292.72 1420.72 3279.73 1451.71 3253.74 1477.7C3229.74 1501.7 3196.76 1513.69 3154.77 1513.69H1919.18V2281.44H2809.88C2851.87 2281.44 2885.86 2294.43 2911.85 2320.42C2937.84 2344.42 2950.84 2375.41 2950.84 2413.39C2950.84 2451.38 2937.84 2483.37 2911.85 2509.36C2885.86 2533.35 2851.87 2545.35 2809.88 2545.35H1919.18V3451.05C1919.18 3491.03 1905.19 3525.02 1877.2 3553.01C1851.2 3579 1818.22 3592 1778.23 3592Z" fill="#757070"/>
<path d="M896.43 3593C852.43 3593 815.43 3578 785.43 3548C755.43 3518 740.43 3481 740.43 3437V1406C740.43 1360 755.43 1323 785.43 1295C815.43 1265 852.43 1250 896.43 1250H1496.43C1646.43 1250 1779.43 1283 1895.43 1349C2011.43 1415 2101.43 1507 2165.43 1625C2231.43 1741 2264.43 1875 2264.43 2027C2264.43 2173 2231.43 2303 2165.43 2417C2101.43 2531 2011.43 2620 1895.43 2684C1779.43 2748 1646.43 2780 1496.43 2780H1052.43V3437C1052.43 3481 1037.43 3518 1007.43 3548C979.43 3578 942.43 3593 896.43 3593ZM1052.43 2492H1496.43C1588.43 2492 1669.43 2472 1739.43 2432C1809.43 2392 1864.43 2337 1904.43 2267C1944.43 2197 1964.43 2117 1964.43 2027C1964.43 1931 1944.43 1847 1904.43 1775C1864.43 1701 1809.43 1643 1739.43 1601C1669.43 1559 1588.43 1538 1496.43 1538H1052.43V2492Z" fill="#FDF8F8"/>
<path d="M2990.31 3593C2934.31 3593 2891.31 3569 2861.31 3521C2831.31 3473 2828.31 3422 2852.31 3368L3695.31 1355C3725.31 1285 3774.31 1250 3842.31 1250C3914.31 1250 3963.31 1285 3989.31 1355L4835.31 3374C4857.31 3430 4853.31 3481 4823.31 3527C4795.31 3571 4752.31 3593 4694.31 3593C4664.31 3593 4635.31 3585 4607.31 3569C4581.31 3551 4562.31 3527 4550.31 3497L3806.31 1649H3890.31L3134.31 3497C3120.31 3529 3099.31 3553 3071.31 3569C3045.31 3585 3018.31 3593 2990.31 3593ZM3149.31 3077L3269.31 2819H4445.31L4565.31 3077H3149.31Z" fill="#757070"/>
</svg>
