<svg width="44288" height="5292" viewBox="0 0 44288 5292" fill="none" xmlns="http://www.w3.org/2000/svg">
<path d="M0 2646C0 1184.65 1184.65 0 2646 0C4107.35 0 5292 1184.65 5292 2646C5292 4107.35 4107.35 5292 2646 5292C1184.65 5292 0 4107.35 0 2646Z" fill="#757070"/>
<path d="M2549.84 3839C2507.85 3839 2472.86 3826 2444.87 3800.01C2416.88 3772.02 2402.88 3738.03 2402.88 3698.05V1637.73C2402.88 1595.75 2415.88 1561.76 2441.87 1535.77C2469.86 1509.78 2503.85 1496.78 2543.84 1496.78H3266.6C3394.55 1496.78 3508.52 1522.77 3608.48 1574.75C3710.45 1626.74 3790.42 1698.71 3848.4 1790.68C3906.38 1882.65 3935.37 1988.62 3935.37 2108.58C3935.37 2210.54 3907.38 2302.51 3851.4 2384.48C3797.42 2464.46 3724.44 2526.44 3632.48 2570.42C3764.43 2604.41 3870.4 2669.39 3950.37 2765.36C4032.34 2861.33 4073.33 2985.28 4073.33 3137.23C4073.33 3275.19 4041.34 3397.15 3977.36 3503.11C3913.38 3607.08 3824.41 3689.05 3710.45 3749.03C3598.49 3809.01 3469.53 3839 3323.58 3839H2549.84ZM2684.79 3575.09H3323.58C3417.55 3575.09 3499.52 3558.09 3569.5 3524.1C3641.47 3490.12 3697.45 3441.13 3737.44 3377.15C3779.43 3311.18 3800.42 3231.2 3800.42 3137.23C3800.42 3049.26 3779.43 2975.29 3737.44 2915.31C3697.45 2855.33 3641.47 2809.34 3569.5 2777.35C3499.52 2745.36 3417.55 2729.37 3323.58 2729.37H2684.79V3575.09ZM2684.79 2465.46H3266.6C3382.56 2465.46 3477.53 2435.47 3551.5 2375.49C3627.48 2313.51 3665.46 2224.54 3665.46 2108.58C3665.46 1992.62 3627.48 1905.64 3551.5 1847.66C3477.53 1789.68 3382.56 1760.69 3266.6 1760.69H2684.79V2465.46Z" fill="#ABAAAA"/>
<path d="M1624.43 3840C1580.43 3840 1543.43 3825 1513.43 3795C1483.43 3765 1468.43 3728 1468.43 3684V1653C1468.43 1607 1483.43 1570 1513.43 1542C1543.43 1512 1580.43 1497 1624.43 1497H2224.43C2374.43 1497 2507.43 1530 2623.43 1596C2739.43 1662 2829.43 1754 2893.43 1872C2959.43 1988 2992.43 2122 2992.43 2274C2992.43 2420 2959.43 2550 2893.43 2664C2829.43 2778 2739.43 2867 2623.43 2931C2507.43 2995 2374.43 3027 2224.43 3027H1780.43V3684C1780.43 3728 1765.43 3765 1735.43 3795C1707.43 3825 1670.43 3840 1624.43 3840ZM1780.43 2739H2224.43C2316.43 2739 2397.43 2719 2467.43 2679C2537.43 2639 2592.43 2584 2632.43 2514C2672.43 2444 2692.43 2364 2692.43 2274C2692.43 2178 2672.43 2094 2632.43 2022C2592.43 1948 2537.43 1890 2467.43 1848C2397.43 1806 2316.43 1785 2224.43 1785H1780.43V2739Z" fill="#FDF8F8"/>
<path d="M6333.65 3625C6299.65 3625 6271.65 3614 6249.65 3592C6227.65 3570 6216.65 3542 6216.65 3508V1399C6216.65 1365 6227.65 1337 6249.65 1315C6271.65 1293 6299.65 1282 6333.65 1282H6933.65C7081.65 1282 7212.65 1315 7326.65 1381C7440.65 1445 7529.65 1534 7593.65 1648C7657.65 1762 7689.65 1894 7689.65 2044C7689.65 2190 7657.65 2320 7593.65 2434C7529.65 2546 7440.65 2635 7326.65 2701C7212.65 2765 7081.65 2797 6933.65 2797H6450.65V3508C6450.65 3542 6439.65 3570 6417.65 3592C6395.65 3614 6367.65 3625 6333.65 3625ZM6450.65 2572H6933.65C7035.65 2572 7126.65 2550 7206.65 2506C7286.65 2460 7348.65 2397 7392.65 2317C7438.65 2237 7461.65 2146 7461.65 2044C7461.65 1938 7438.65 1845 7392.65 1765C7348.65 1685 7286.65 1622 7206.65 1576C7126.65 1530 7035.65 1507 6933.65 1507H6450.65V2572ZM8269.57 2614C8275.57 2490 8307.57 2379 8365.57 2281C8425.57 2183 8502.57 2106 8596.57 2050C8692.57 1994 8798.57 1966 8914.57 1966C9006.57 1966 9077.57 1979 9127.57 2005C9177.57 2031 9196.57 2069 9184.57 2119C9176.57 2149 9162.57 2169 9142.57 2179C9124.57 2189 9101.57 2193 9073.57 2191C9047.57 2189 9017.57 2187 8983.57 2185C8871.57 2175 8771.57 2187 8683.57 2221C8597.57 2253 8528.57 2303 8476.57 2371C8426.57 2439 8401.57 2520 8401.57 2614H8269.57ZM8287.57 3625C8251.57 3625 8223.57 3615 8203.57 3595C8183.57 3575 8173.57 3547 8173.57 3511V2098C8173.57 2062 8183.57 2034 8203.57 2014C8223.57 1994 8251.57 1984 8287.57 1984C8323.57 1984 8351.57 1994 8371.57 2014C8391.57 2034 8401.57 2062 8401.57 2098V3511C8401.57 3547 8391.57 3575 8371.57 3595C8351.57 3615 8323.57 3625 8287.57 3625ZM10324.5 3640C10164.5 3640 10021.5 3604 9895.47 3532C9769.47 3460 9670.47 3361 9598.47 3235C9526.47 3109 9490.47 2966 9490.47 2806C9490.47 2644 9526.47 2500 9598.47 2374C9670.47 2248 9769.47 2149 9895.47 2077C10021.5 2005 10164.5 1969 10324.5 1969C10484.5 1969 10626.5 2005 10750.5 2077C10876.5 2149 10975.5 2248 11047.5 2374C11119.5 2500 11156.5 2644 11158.5 2806C11158.5 2966 11121.5 3109 11047.5 3235C10975.5 3361 10876.5 3460 10750.5 3532C10626.5 3604 10484.5 3640 10324.5 3640ZM10324.5 3430C10440.5 3430 10544.5 3403 10636.5 3349C10728.5 3295 10800.5 3221 10852.5 3127C10904.5 3033 10930.5 2926 10930.5 2806C10930.5 2686 10904.5 2579 10852.5 2485C10800.5 2389 10728.5 2314 10636.5 2260C10544.5 2206 10440.5 2179 10324.5 2179C10208.5 2179 10104.5 2206 10012.5 2260C9920.47 2314 9847.47 2389 9793.47 2485C9741.47 2579 9715.47 2686 9715.47 2806C9715.47 2926 9741.47 3033 9793.47 3127C9847.47 3221 9920.47 3295 10012.5 3349C10104.5 3403 10208.5 3430 10324.5 3430Z" fill="#757070"/>
<path d="M11961.7 3625C11931.7 3625 11905.7 3615 11883.7 3595C11861.7 3573 11850.7 3544 11850.7 3508V1987C11850.7 1847 11874.7 1724 11922.7 1618C11970.7 1512 12041.7 1430 12135.7 1372C12229.7 1312 12344.7 1282 12480.7 1282C12514.7 1282 12542.7 1292 12564.7 1312C12586.7 1332 12597.7 1357 12597.7 1387C12597.7 1417 12586.7 1442 12564.7 1462C12542.7 1482 12514.7 1492 12480.7 1492C12390.7 1492 12315.7 1513 12255.7 1555C12197.7 1595 12153.7 1652 12123.7 1726C12095.7 1798 12081.7 1881 12081.7 1975V3508C12081.7 3544 12070.7 3573 12048.7 3595C12028.7 3615 11999.7 3625 11961.7 3625ZM11658.7 2245C11626.7 2245 11600.7 2236 11580.7 2218C11562.7 2198 11553.7 2174 11553.7 2146C11553.7 2116 11562.7 2092 11580.7 2074C11600.7 2054 11626.7 2044 11658.7 2044H12441.7C12473.7 2044 12498.7 2054 12516.7 2074C12536.7 2092 12546.7 2116 12546.7 2146C12546.7 2174 12536.7 2198 12516.7 2218C12498.7 2236 12473.7 2245 12441.7 2245H11658.7Z" fill="#EAE7E5"/>
<path d="M13171.4 3625C13135.4 3625 13106.4 3615 13084.4 3595C13064.4 3573 13054.4 3544 13054.4 3508V2101C13054.4 2065 13064.4 2037 13084.4 2017C13106.4 1995 13135.4 1984 13171.4 1984C13205.4 1984 13232.4 1995 13252.4 2017C13274.4 2037 13285.4 2065 13285.4 2101V3508C13285.4 3544 13274.4 3573 13252.4 3595C13232.4 3615 13205.4 3625 13171.4 3625ZM13168.4 1672C13124.4 1672 13086.4 1656 13054.4 1624C13022.4 1592 13006.4 1553 13006.4 1507C13006.4 1457 13022.4 1418 13054.4 1390C13088.4 1360 13127.4 1345 13171.4 1345C13213.4 1345 13250.4 1360 13282.4 1390C13316.4 1418 13333.4 1457 13333.4 1507C13333.4 1553 13317.4 1592 13285.4 1624C13253.4 1656 13214.4 1672 13168.4 1672ZM15430.6 3625C15396.6 3625 15368.6 3614 15346.6 3592C15324.6 3570 15313.6 3543 15313.6 3511V2731C15313.6 2607 15289.6 2505 15241.6 2425C15195.6 2345 15131.6 2285 15049.6 2245C14969.6 2205 14878.6 2185 14776.6 2185C14678.6 2185 14589.6 2204 14509.6 2242C14431.6 2280 14369.6 2332 14323.6 2398C14277.6 2464 14254.6 2539 14254.6 2623H14089.6C14093.6 2497 14127.6 2385 14191.6 2287C14255.6 2187 14340.6 2109 14446.6 2053C14552.6 1995 14670.6 1966 14800.6 1966C14942.6 1966 15069.6 1996 15181.6 2056C15293.6 2114 15381.6 2200 15445.6 2314C15511.6 2428 15544.6 2567 15544.6 2731V3511C15544.6 3543 15533.6 3570 15511.6 3592C15489.6 3614 15462.6 3625 15430.6 3625ZM14140.6 3625C14104.6 3625 14075.6 3615 14053.6 3595C14033.6 3573 14023.6 3545 14023.6 3511V2101C14023.6 2065 14033.6 2037 14053.6 2017C14075.6 1995 14104.6 1984 14140.6 1984C14174.6 1984 14201.6 1995 14221.6 2017C14243.6 2037 14254.6 2065 14254.6 2101V3511C14254.6 3545 14243.6 3573 14221.6 3595C14201.6 3615 14174.6 3625 14140.6 3625ZM16947.8 3640C16785.8 3640 16641.8 3605 16515.8 3535C16391.8 3463 16293.8 3364 16221.8 3238C16151.8 3112 16116.8 2968 16116.8 2806C16116.8 2642 16149.8 2498 16215.8 2374C16283.8 2248 16376.8 2149 16494.8 2077C16612.8 2005 16748.8 1969 16902.8 1969C17054.8 1969 17186.8 2004 17298.8 2074C17412.8 2142 17500.8 2237 17562.8 2359C17624.8 2481 17655.8 2620 17655.8 2776C17655.8 2808 17645.8 2834 17625.8 2854C17605.8 2872 17579.8 2881 17547.8 2881H16272.8V2689H17571.8L17442.8 2782C17444.8 2666 17423.8 2562 17379.8 2470C17335.8 2378 17272.8 2306 17190.8 2254C17110.8 2202 17014.8 2176 16902.8 2176C16788.8 2176 16688.8 2203 16602.8 2257C16516.8 2311 16449.8 2386 16401.8 2482C16355.8 2576 16332.8 2684 16332.8 2806C16332.8 2928 16358.8 3036 16410.8 3130C16464.8 3224 16537.8 3298 16629.8 3352C16721.8 3406 16827.8 3433 16947.8 3433C17019.8 3433 17091.8 3421 17163.8 3397C17237.8 3371 17296.8 3339 17340.8 3301C17362.8 3283 17387.8 3274 17415.8 3274C17443.8 3272 17467.8 3279 17487.8 3295C17513.8 3319 17526.8 3345 17526.8 3373C17528.8 3401 17517.8 3425 17493.8 3445C17427.8 3501 17343.8 3548 17241.8 3586C17139.8 3622 17041.8 3640 16947.8 3640ZM18861 3640C18707 3640 18569 3604 18447 3532C18325 3458 18228 3358 18156 3232C18086 3106 18051 2964 18051 2806C18051 2646 18087 2503 18159 2377C18233 2251 18333 2152 18459 2080C18585 2006 18727 1969 18885 1969C19043 1969 19184 2006 19308 2080C19434 2152 19533 2251 19605 2377C19679 2503 19717 2646 19719 2806L19626 2878C19626 3022 19592 3152 19524 3268C19458 3382 19367 3473 19251 3541C19137 3607 19007 3640 18861 3640ZM18885 3430C19001 3430 19104 3403 19194 3349C19286 3295 19358 3221 19410 3127C19464 3031 19491 2924 19491 2806C19491 2686 19464 2579 19410 2485C19358 2391 19286 2317 19194 2263C19104 2207 19001 2179 18885 2179C18771 2179 18668 2207 18576 2263C18484 2317 18411 2391 18357 2485C18303 2579 18276 2686 18276 2806C18276 2924 18303 3031 18357 3127C18411 3221 18484 3295 18576 3349C18668 3403 18771 3430 18885 3430ZM19602 3625C19568 3625 19540 3615 19518 3595C19496 3573 19485 3545 19485 3511V2998L19542 2761L19719 2806V3511C19719 3545 19708 3573 19686 3595C19664 3615 19636 3625 19602 3625ZM20414.3 2614C20420.3 2490 20452.3 2379 20510.3 2281C20570.3 2183 20647.3 2106 20741.3 2050C20837.3 1994 20943.3 1966 21059.3 1966C21151.3 1966 21222.3 1979 21272.3 2005C21322.3 2031 21341.3 2069 21329.3 2119C21321.3 2149 21307.3 2169 21287.3 2179C21269.3 2189 21246.3 2193 21218.3 2191C21192.3 2189 21162.3 2187 21128.3 2185C21016.3 2175 20916.3 2187 20828.3 2221C20742.3 2253 20673.3 2303 20621.3 2371C20571.3 2439 20546.3 2520 20546.3 2614H20414.3ZM20432.3 3625C20396.3 3625 20368.3 3615 20348.3 3595C20328.3 3575 20318.3 3547 20318.3 3511V2098C20318.3 2062 20328.3 2034 20348.3 2014C20368.3 1994 20396.3 1984 20432.3 1984C20468.3 1984 20496.3 1994 20516.3 2014C20536.3 2034 20546.3 2062 20546.3 2098V3511C20546.3 3547 20536.3 3575 20516.3 3595C20496.3 3615 20468.3 3625 20432.3 3625ZM22484.3 3625C22378.3 3625 22283.3 3600 22199.3 3550C22117.3 3500 22052.3 3432 22004.3 3346C21956.3 3258 21932.3 3158 21932.3 3046V1579C21932.3 1545 21942.3 1517 21962.3 1495C21984.3 1473 22012.3 1462 22046.3 1462C22080.3 1462 22108.3 1473 22130.3 1495C22152.3 1517 22163.3 1545 22163.3 1579V3046C22163.3 3148 22193.3 3232 22253.3 3298C22313.3 3362 22390.3 3394 22484.3 3394H22565.3C22597.3 3394 22623.3 3405 22643.3 3427C22663.3 3449 22673.3 3477 22673.3 3511C22673.3 3545 22661.3 3573 22637.3 3595C22613.3 3615 22583.3 3625 22547.3 3625H22484.3ZM21737.3 2245C21707.3 2245 21682.3 2236 21662.3 2218C21642.3 2198 21632.3 2174 21632.3 2146C21632.3 2116 21642.3 2092 21662.3 2074C21682.3 2054 21707.3 2044 21737.3 2044H22502.3C22532.3 2044 22557.3 2054 22577.3 2074C22597.3 2092 22607.3 2116 22607.3 2146C22607.3 2174 22597.3 2198 22577.3 2218C22557.3 2236 22532.3 2245 22502.3 2245H21737.3Z" fill="white"/>
<path d="M35367.1 3633C35329.1 3633 35297.1 3623 35271.1 3603C35247.1 3581 35235.1 3552 35235.1 3516V1407C35235.1 1373 35246.1 1345 35268.1 1323C35290.1 1301 35318.1 1290 35352.1 1290H36081.1C36201.1 1290 36309.1 1316 36405.1 1368C36503.1 1418 36580.1 1487 36636.1 1575C36694.1 1663 36723.1 1765 36723.1 1881C36723.1 1989 36694.1 2085 36636.1 2169C36578.1 2253 36502.1 2317 36408.1 2361C36542.1 2397 36650.1 2465 36732.1 2565C36814.1 2663 36855.1 2788 36855.1 2940C36855.1 3076 36824.1 3196 36762.1 3300C36700.1 3404 36614.1 3486 36504.1 3546C36396.1 3604 36272.1 3633 36132.1 3633H35367.1ZM35469.1 3408H36132.1C36228.1 3408 36313.1 3389 36387.1 3351C36461.1 3313 36519.1 3259 36561.1 3189C36603.1 3119 36624.1 3036 36624.1 2940C36624.1 2850 36603.1 2772 36561.1 2706C36519.1 2638 36461.1 2586 36387.1 2550C36313.1 2512 36228.1 2493 36132.1 2493H35469.1V3408ZM35469.1 2268H36081.1C36201.1 2268 36300.1 2234 36378.1 2166C36456.1 2098 36495.1 2003 36495.1 1881C36495.1 1761 36456.1 1670 36378.1 1608C36300.1 1546 36201.1 1515 36081.1 1515H35469.1V2268Z" fill="#878787"/>
<path d="M38164 3648C38010 3648 37872 3612 37750 3540C37628 3466 37531 3366 37459 3240C37389 3114 37354 2972 37354 2814C37354 2654 37390 2511 37462 2385C37536 2259 37636 2160 37762 2088C37888 2014 38030 1977 38188 1977C38346 1977 38487 2014 38611 2088C38737 2160 38836 2259 38908 2385C38982 2511 39020 2654 39022 2814L38929 2886C38929 3030 38895 3160 38827 3276C38761 3390 38670 3481 38554 3549C38440 3615 38310 3648 38164 3648ZM38188 3438C38304 3438 38407 3411 38497 3357C38589 3303 38661 3229 38713 3135C38767 3039 38794 2932 38794 2814C38794 2694 38767 2587 38713 2493C38661 2399 38589 2325 38497 2271C38407 2215 38304 2187 38188 2187C38074 2187 37971 2215 37879 2271C37787 2325 37714 2399 37660 2493C37606 2587 37579 2694 37579 2814C37579 2932 37606 3039 37660 3135C37714 3229 37787 3303 37879 3357C37971 3411 38074 3438 38188 3438ZM38905 3633C38871 3633 38843 3623 38821 3603C38799 3581 38788 3553 38788 3519V3006L38845 2769L39022 2814V3519C39022 3553 39011 3581 38989 3603C38967 3623 38939 3633 38905 3633ZM40194.3 3648C40076.3 3648 39959.3 3628 39843.3 3588C39727.3 3548 39633.3 3488 39561.3 3408C39539.3 3384 39530.3 3357 39534.3 3327C39538.3 3297 39553.3 3271 39579.3 3249C39607.3 3229 39636.3 3221 39666.3 3225C39696.3 3229 39721.3 3242 39741.3 3264C39789.3 3320 39852.3 3363 39930.3 3393C40010.3 3423 40098.3 3438 40194.3 3438C40342.3 3438 40449.3 3413 40515.3 3363C40581.3 3311 40615.3 3249 40617.3 3177C40617.3 3105 40583.3 3046 40515.3 3000C40447.3 2952 40335.3 2915 40179.3 2889C39977.3 2857 39829.3 2801 39735.3 2721C39641.3 2641 39594.3 2546 39594.3 2436C39594.3 2334 39621.3 2249 39675.3 2181C39729.3 2113 39801.3 2062 39891.3 2028C39981.3 1994 40080.3 1977 40188.3 1977C40322.3 1977 40437.3 2000 40533.3 2046C40631.3 2092 40710.3 2154 40770.3 2232C40790.3 2258 40798.3 2285 40794.3 2313C40790.3 2341 40774.3 2364 40746.3 2382C40722.3 2396 40694.3 2401 40662.3 2397C40632.3 2391 40606.3 2376 40584.3 2352C40534.3 2294 40476.3 2252 40410.3 2226C40344.3 2198 40268.3 2184 40182.3 2184C40072.3 2184 39984.3 2207 39918.3 2253C39852.3 2297 39819.3 2353 39819.3 2421C39819.3 2467 39831.3 2507 39855.3 2541C39881.3 2575 39924.3 2605 39984.3 2631C40046.3 2657 40132.3 2679 40242.3 2697C40392.3 2721 40510.3 2757 40596.3 2805C40684.3 2851 40746.3 2906 40782.3 2970C40820.3 3032 40839.3 3100 40839.3 3174C40839.3 3268 40811.3 3351 40755.3 3423C40701.3 3493 40625.3 3548 40527.3 3588C40431.3 3628 40320.3 3648 40194.3 3648ZM42132.5 3648C41970.5 3648 41826.5 3613 41700.5 3543C41576.5 3471 41478.5 3372 41406.5 3246C41336.5 3120 41301.5 2976 41301.5 2814C41301.5 2650 41334.5 2506 41400.5 2382C41468.5 2256 41561.5 2157 41679.5 2085C41797.5 2013 41933.5 1977 42087.5 1977C42239.5 1977 42371.5 2012 42483.5 2082C42597.5 2150 42685.5 2245 42747.5 2367C42809.5 2489 42840.5 2628 42840.5 2784C42840.5 2816 42830.5 2842 42810.5 2862C42790.5 2880 42764.5 2889 42732.5 2889H41457.5V2697H42756.5L42627.5 2790C42629.5 2674 42608.5 2570 42564.5 2478C42520.5 2386 42457.5 2314 42375.5 2262C42295.5 2210 42199.5 2184 42087.5 2184C41973.5 2184 41873.5 2211 41787.5 2265C41701.5 2319 41634.5 2394 41586.5 2490C41540.5 2584 41517.5 2692 41517.5 2814C41517.5 2936 41543.5 3044 41595.5 3138C41649.5 3232 41722.5 3306 41814.5 3360C41906.5 3414 42012.5 3441 42132.5 3441C42204.5 3441 42276.5 3429 42348.5 3405C42422.5 3379 42481.5 3347 42525.5 3309C42547.5 3291 42572.5 3282 42600.5 3282C42628.5 3280 42652.5 3287 42672.5 3303C42698.5 3327 42711.5 3353 42711.5 3381C42713.5 3409 42702.5 3433 42678.5 3453C42612.5 3509 42528.5 3556 42426.5 3594C42324.5 3630 42226.5 3648 42132.5 3648ZM43735.2 3633C43655.2 3633 43583.2 3611 43519.2 3567C43457.2 3523 43408.2 3462 43372.2 3384C43338.2 3306 43321.2 3216 43321.2 3114V1404C43321.2 1370 43331.2 1343 43351.2 1323C43373.2 1301 43401.2 1290 43435.2 1290C43469.2 1290 43496.2 1301 43516.2 1323C43538.2 1343 43549.2 1370 43549.2 1404V3114C43549.2 3200 43566.2 3270 43600.2 3324C43636.2 3378 43681.2 3405 43735.2 3405H43810.2C43840.2 3405 43864.2 3416 43882.2 3438C43900.2 3458 43909.2 3485 43909.2 3519C43909.2 3553 43896.2 3581 43870.2 3603C43846.2 3623 43814.2 3633 43774.2 3633H43735.2Z" fill="#EAE7E5"/>
<path d="M24554.9 3655C24426.9 3655 24307.9 3637 24197.9 3601C24089.9 3563 23995.9 3510 23915.9 3442C23835.9 3374 23774.9 3295 23732.9 3205C23716.9 3173 23715.9 3144 23729.9 3118C23745.9 3090 23771.9 3071 23807.9 3061C23835.9 3053 23862.9 3056 23888.9 3070C23916.9 3084 23937.9 3105 23951.9 3133C23981.9 3191 24025.9 3243 24083.9 3289C24141.9 3335 24210.9 3371 24290.9 3397C24370.9 3421 24458.9 3433 24554.9 3433C24660.9 3433 24754.9 3416 24836.9 3382C24918.9 3346 24982.9 3295 25028.9 3229C25076.9 3161 25100.9 3079 25100.9 2983C25100.9 2861 25055.9 2756 24965.9 2668C24875.9 2580 24734.9 2524 24542.9 2500C24308.9 2472 24125.9 2400 23993.9 2284C23861.9 2166 23795.9 2022 23795.9 1852C23795.9 1730 23827.9 1624 23891.9 1534C23957.9 1444 24047.9 1375 24161.9 1327C24275.9 1277 24406.9 1252 24554.9 1252C24664.9 1252 24764.9 1270 24854.9 1306C24944.9 1340 25022.9 1386 25088.9 1444C25156.9 1500 25211.9 1562 25253.9 1630C25273.9 1662 25279.9 1693 25271.9 1723C25265.9 1753 25248.9 1776 25220.9 1792C25190.9 1806 25159.9 1808 25127.9 1798C25097.9 1788 25074.9 1769 25058.9 1741C25028.9 1695 24990.9 1652 24944.9 1612C24900.9 1570 24846.9 1537 24782.9 1513C24718.9 1489 24641.9 1476 24551.9 1474C24393.9 1474 24266.9 1508 24170.9 1576C24074.9 1642 24026.9 1739 24026.9 1867C24026.9 1935 24044.9 1998 24080.9 2056C24116.9 2112 24175.9 2161 24257.9 2203C24341.9 2243 24453.9 2273 24593.9 2293C24843.9 2329 25028.9 2406 25148.9 2524C25270.9 2640 25331.9 2792 25331.9 2980C25331.9 3088 25311.9 3184 25271.9 3268C25233.9 3352 25178.9 3423 25106.9 3481C25036.9 3537 24953.9 3580 24857.9 3610C24763.9 3640 24662.9 3655 24554.9 3655ZM26583.2 3625C26477.2 3625 26382.2 3600 26298.2 3550C26216.2 3500 26151.2 3432 26103.2 3346C26055.2 3258 26031.2 3158 26031.2 3046V1579C26031.2 1545 26041.2 1517 26061.2 1495C26083.2 1473 26111.2 1462 26145.2 1462C26179.2 1462 26207.2 1473 26229.2 1495C26251.2 1517 26262.2 1545 26262.2 1579V3046C26262.2 3148 26292.2 3232 26352.2 3298C26412.2 3362 26489.2 3394 26583.2 3394H26664.2C26696.2 3394 26722.2 3405 26742.2 3427C26762.2 3449 26772.2 3477 26772.2 3511C26772.2 3545 26760.2 3573 26736.2 3595C26712.2 3615 26682.2 3625 26646.2 3625H26583.2ZM25836.2 2245C25806.2 2245 25781.2 2236 25761.2 2218C25741.2 2198 25731.2 2174 25731.2 2146C25731.2 2116 25741.2 2092 25761.2 2074C25781.2 2054 25806.2 2044 25836.2 2044H26601.2C26631.2 2044 26656.2 2054 26676.2 2074C26696.2 2092 26706.2 2116 26706.2 2146C26706.2 2174 26696.2 2198 26676.2 2218C26656.2 2236 26631.2 2245 26601.2 2245H25836.2ZM28012.3 3643C27870.3 3643 27743.3 3614 27631.3 3556C27519.3 3496 27430.3 3409 27364.3 3295C27300.3 3181 27268.3 3042 27268.3 2878V2098C27268.3 2066 27279.3 2039 27301.3 2017C27323.3 1995 27350.3 1984 27382.3 1984C27416.3 1984 27444.3 1995 27466.3 2017C27488.3 2039 27499.3 2066 27499.3 2098V2878C27499.3 3002 27522.3 3104 27568.3 3184C27616.3 3264 27680.3 3324 27760.3 3364C27842.3 3404 27934.3 3424 28036.3 3424C28134.3 3424 28222.3 3405 28300.3 3367C28380.3 3329 28443.3 3277 28489.3 3211C28535.3 3145 28558.3 3070 28558.3 2986H28723.3C28717.3 3112 28682.3 3225 28618.3 3325C28556.3 3423 28472.3 3501 28366.3 3559C28260.3 3615 28142.3 3643 28012.3 3643ZM28672.3 3625C28638.3 3625 28610.3 3615 28588.3 3595C28568.3 3573 28558.3 3544 28558.3 3508V2098C28558.3 2064 28568.3 2037 28588.3 2017C28610.3 1995 28638.3 1984 28672.3 1984C28706.3 1984 28734.3 1995 28756.3 2017C28778.3 2037 28789.3 2064 28789.3 2098V3508C28789.3 3544 28778.3 3573 28756.3 3595C28734.3 3615 28706.3 3625 28672.3 3625ZM30225.5 3640C30067.5 3640 29925.5 3604 29799.5 3532C29673.5 3458 29573.5 3358 29499.5 3232C29427.5 3106 29391.5 2963 29391.5 2803C29391.5 2645 29426.5 2503 29496.5 2377C29568.5 2251 29665.5 2152 29787.5 2080C29909.5 2006 30047.5 1969 30201.5 1969C30335.5 1969 30456.5 1998 30564.5 2056C30672.5 2112 30759.5 2187 30825.5 2281V1399C30825.5 1363 30836.5 1335 30858.5 1315C30880.5 1293 30908.5 1282 30942.5 1282C30976.5 1282 31004.5 1293 31026.5 1315C31048.5 1335 31059.5 1363 31059.5 1399V2815C31055.5 2971 31016.5 3112 30942.5 3238C30870.5 3362 30771.5 3460 30645.5 3532C30521.5 3604 30381.5 3640 30225.5 3640ZM30225.5 3430C30341.5 3430 30444.5 3403 30534.5 3349C30626.5 3293 30698.5 3218 30750.5 3124C30804.5 3030 30831.5 2923 30831.5 2803C30831.5 2685 30804.5 2579 30750.5 2485C30698.5 2389 30626.5 2314 30534.5 2260C30444.5 2206 30341.5 2179 30225.5 2179C30111.5 2179 30008.5 2206 29916.5 2260C29824.5 2314 29751.5 2389 29697.5 2485C29643.5 2579 29616.5 2685 29616.5 2803C29616.5 2923 29643.5 3030 29697.5 3124C29751.5 3218 29824.5 3293 29916.5 3349C30008.5 3403 30111.5 3430 30225.5 3430ZM31914.6 3625C31878.6 3625 31849.6 3615 31827.6 3595C31807.6 3573 31797.6 3544 31797.6 3508V2101C31797.6 2065 31807.6 2037 31827.6 2017C31849.6 1995 31878.6 1984 31914.6 1984C31948.6 1984 31975.6 1995 31995.6 2017C32017.6 2037 32028.6 2065 32028.6 2101V3508C32028.6 3544 32017.6 3573 31995.6 3595C31975.6 3615 31948.6 3625 31914.6 3625ZM31911.6 1672C31867.6 1672 31829.6 1656 31797.6 1624C31765.6 1592 31749.6 1553 31749.6 1507C31749.6 1457 31765.6 1418 31797.6 1390C31831.6 1360 31870.6 1345 31914.6 1345C31956.6 1345 31993.6 1360 32025.6 1390C32059.6 1418 32076.6 1457 32076.6 1507C32076.6 1553 32060.6 1592 32028.6 1624C31996.6 1656 31957.6 1672 31911.6 1672ZM33513.8 3640C33353.8 3640 33210.8 3604 33084.8 3532C32958.8 3460 32859.8 3361 32787.8 3235C32715.8 3109 32679.8 2966 32679.8 2806C32679.8 2644 32715.8 2500 32787.8 2374C32859.8 2248 32958.8 2149 33084.8 2077C33210.8 2005 33353.8 1969 33513.8 1969C33673.8 1969 33815.8 2005 33939.8 2077C34065.8 2149 34164.8 2248 34236.8 2374C34308.8 2500 34345.8 2644 34347.8 2806C34347.8 2966 34310.8 3109 34236.8 3235C34164.8 3361 34065.8 3460 33939.8 3532C33815.8 3604 33673.8 3640 33513.8 3640ZM33513.8 3430C33629.8 3430 33733.8 3403 33825.8 3349C33917.8 3295 33989.8 3221 34041.8 3127C34093.8 3033 34119.8 2926 34119.8 2806C34119.8 2686 34093.8 2579 34041.8 2485C33989.8 2389 33917.8 2314 33825.8 2260C33733.8 2206 33629.8 2179 33513.8 2179C33397.8 2179 33293.8 2206 33201.8 2260C33109.8 2314 33036.8 2389 32982.8 2485C32930.8 2579 32904.8 2686 32904.8 2806C32904.8 2926 32930.8 3033 32982.8 3127C33036.8 3221 33109.8 3295 33201.8 3349C33293.8 3403 33397.8 3430 33513.8 3430Z" fill="white"/>
</svg>
