<svg width="5292" height="5292" viewBox="0 0 5292 5292" fill="none" xmlns="http://www.w3.org/2000/svg">
<path d="M0 2646C0 1184.65 1184.65 0 2646 0C4107.35 0 5292 1184.65 5292 2646C5292 4107.35 4107.35 5292 2646 5292C1184.65 5292 0 4107.35 0 2646Z" fill="white"/>
<path d="M1725.22 3713.92C1681.24 3713.92 1644.25 3698.93 1614.26 3668.94C1584.27 3638.95 1569.28 3601.96 1569.28 3557.97V1527.65C1569.28 1481.67 1584.27 1444.68 1614.26 1416.69C1644.25 1386.7 1681.24 1371.7 1725.22 1371.7H3080.77C3126.76 1371.7 3163.74 1385.7 3191.73 1413.69C3219.73 1439.68 3233.72 1474.67 3233.72 1518.65C3233.72 1560.64 3219.73 1594.63 3191.73 1620.62C3163.74 1646.61 3126.76 1659.61 3080.77 1659.61H1881.17V2388.36H2741.88C2787.87 2388.36 2824.86 2402.36 2852.85 2430.35C2880.84 2456.34 2894.83 2490.33 2894.83 2532.32C2894.83 2574.3 2880.84 2609.29 2852.85 2637.28C2824.86 2663.27 2787.87 2676.27 2741.88 2676.27H1881.17V3557.97C1881.17 3601.96 1866.18 3638.95 1836.19 3668.94C1806.2 3698.93 1769.21 3713.92 1725.22 3713.92Z" fill="#878787"/>
<path d="M828.43 3714.92C784.43 3714.92 747.43 3699.92 717.43 3669.92C687.43 3639.92 672.43 3602.92 672.43 3558.92V1527.92C672.43 1481.92 687.43 1444.92 717.43 1416.92C747.43 1386.92 784.43 1371.92 828.43 1371.92H1428.43C1578.43 1371.92 1711.43 1404.92 1827.43 1470.92C1943.43 1536.92 2033.43 1628.92 2097.43 1746.92C2163.43 1862.92 2196.43 1996.92 2196.43 2148.92C2196.43 2294.92 2163.43 2424.92 2097.43 2538.92C2033.43 2652.92 1943.43 2741.92 1827.43 2805.92C1711.43 2869.92 1578.43 2901.92 1428.43 2901.92H984.43V3558.92C984.43 3602.92 969.43 3639.92 939.43 3669.92C911.43 3699.92 874.43 3714.92 828.43 3714.92ZM984.43 2613.92H1428.43C1520.43 2613.92 1601.43 2593.92 1671.43 2553.92C1741.43 2513.92 1796.43 2458.92 1836.43 2388.92C1876.43 2318.92 1896.43 2238.92 1896.43 2148.92C1896.43 2052.92 1876.43 1968.92 1836.43 1896.92C1796.43 1822.92 1741.43 1764.92 1671.43 1722.92C1601.43 1680.92 1520.43 1659.92 1428.43 1659.92H984.43V2613.92Z" fill="#1F1C1C"/>
<path d="M2922.31 3714.92C2866.31 3714.92 2823.31 3690.92 2793.31 3642.92C2763.31 3594.92 2760.31 3543.92 2784.31 3489.92L3627.31 1476.92C3657.31 1406.92 3706.31 1371.92 3774.31 1371.92C3846.31 1371.92 3895.31 1406.92 3921.31 1476.92L4767.31 3495.92C4789.31 3551.92 4785.31 3602.92 4755.31 3648.92C4727.31 3692.92 4684.31 3714.92 4626.31 3714.92C4596.31 3714.92 4567.31 3706.92 4539.31 3690.92C4513.31 3672.92 4494.31 3648.92 4482.31 3618.92L3738.31 1770.92H3822.31L3066.31 3618.92C3052.31 3650.92 3031.31 3674.92 3003.31 3690.92C2977.31 3706.92 2950.31 3714.92 2922.31 3714.92ZM3081.31 3198.92L3201.31 2940.92H4377.31L4497.31 3198.92H3081.31Z" fill="#878787"/>
</svg>
