<svg width="19392" height="5630" viewBox="0 0 19392 5630" fill="none" xmlns="http://www.w3.org/2000/svg">
<path d="M1466.46 3345C1422.46 3345 1385.46 3330 1355.46 3300C1327.46 3272 1313.46 3236 1313.46 3192V1824C1315.46 1666 1352.46 1524 1424.46 1398C1496.46 1272 1594.46 1173 1718.46 1101C1842.46 1027 1982.46 990 2138.46 990C2296.46 990 2437.46 1027 2561.46 1101C2685.46 1173 2783.46 1272 2855.46 1398C2929.46 1524 2966.46 1666 2966.46 1824C2966.46 1982 2932.46 2124 2864.46 2250C2798.46 2374 2707.46 2473 2591.46 2547C2475.46 2619 2344.46 2655 2198.46 2655C2080.46 2655 1971.46 2631 1871.46 2583C1773.46 2533 1689.46 2466 1619.46 2382V3192C1619.46 3236 1605.46 3272 1577.46 3300C1549.46 3330 1512.46 3345 1466.46 3345ZM2138.46 2385C2240.46 2385 2331.46 2361 2411.46 2313C2491.46 2263 2554.46 2196 2600.46 2112C2648.46 2026 2672.46 1930 2672.46 1824C2672.46 1716 2648.46 1620 2600.46 1536C2554.46 1450 2491.46 1383 2411.46 1335C2331.46 1285 2240.46 1260 2138.46 1260C2038.46 1260 1947.46 1285 1865.46 1335C1785.46 1383 1722.46 1450 1676.46 1536C1630.46 1620 1607.46 1716 1607.46 1824C1607.46 1930 1630.46 2026 1676.46 2112C1722.46 2196 1785.46 2263 1865.46 2313C1947.46 2361 2038.46 2385 2138.46 2385ZM3719.84 1617C3719.84 1497 3748.84 1390 3806.84 1296C3866.84 1200 3946.84 1124 4046.84 1068C4146.84 1012 4256.84 984 4376.84 984C4496.84 984 4585.84 1004 4643.84 1044C4703.84 1082 4726.84 1128 4712.84 1182C4706.84 1210 4694.84 1232 4676.84 1248C4660.84 1262 4641.84 1271 4619.84 1275C4597.84 1279 4573.84 1278 4547.84 1272C4419.84 1246 4304.84 1244 4202.84 1266C4100.84 1288 4019.84 1329 3959.84 1389C3901.84 1449 3872.84 1525 3872.84 1617H3719.84ZM3722.84 2643C3674.84 2643 3637.84 2631 3611.84 2607C3585.84 2581 3572.84 2543 3572.84 2493V1152C3572.84 1104 3585.84 1067 3611.84 1041C3637.84 1015 3674.84 1002 3722.84 1002C3772.84 1002 3809.84 1015 3833.84 1041C3859.84 1065 3872.84 1102 3872.84 1152V2493C3872.84 2541 3859.84 2578 3833.84 2604C3809.84 2630 3772.84 2643 3722.84 2643ZM5805.7 2655C5643.7 2655 5500.7 2620 5376.7 2550C5252.7 2478 5154.7 2380 5082.7 2256C5012.7 2130 4977.7 1986 4977.7 1824C4977.7 1660 5012.7 1516 5082.7 1392C5154.7 1266 5252.7 1168 5376.7 1098C5500.7 1026 5643.7 990 5805.7 990C5965.7 990 6107.7 1026 6231.7 1098C6355.7 1168 6452.7 1266 6522.7 1392C6594.7 1516 6630.7 1660 6630.7 1824C6630.7 1986 6595.7 2130 6525.7 2256C6455.7 2380 6358.7 2478 6234.7 2550C6110.7 2620 5967.7 2655 5805.7 2655ZM5805.7 2385C5909.7 2385 6001.7 2361 6081.7 2313C6161.7 2265 6223.7 2199 6267.7 2115C6313.7 2031 6336.7 1934 6336.7 1824C6336.7 1714 6313.7 1617 6267.7 1533C6223.7 1447 6161.7 1380 6081.7 1332C6001.7 1284 5909.7 1260 5805.7 1260C5701.7 1260 5609.7 1284 5529.7 1332C5449.7 1380 5386.7 1447 5340.7 1533C5294.7 1617 5271.7 1714 5271.7 1824C5271.7 1934 5294.7 2031 5340.7 2115C5386.7 2199 5449.7 2265 5529.7 2313C5609.7 2361 5701.7 2385 5805.7 2385Z" fill="#757070"/>
<path d="M7422.12 2643C7388.12 2643 7357.12 2631 7329.12 2607C7303.12 2581 7290.12 2547 7290.12 2505V1008C7290.12 866 7317.12 742 7371.12 636C7425.12 530 7501.12 448 7599.12 390C7699.12 330 7816.12 300 7950.12 300C7990.12 300 8023.12 312 8049.12 336C8075.12 360 8088.12 390 8088.12 426C8088.12 460 8075.12 490 8049.12 516C8023.12 540 7990.12 552 7950.12 552C7870.12 552 7801.12 570 7743.12 606C7687.12 642 7643.12 693 7611.12 759C7581.12 823 7566.12 899 7566.12 987V2505C7566.12 2547 7553.12 2581 7527.12 2607C7503.12 2631 7468.12 2643 7422.12 2643ZM7137.12 1299C7099.12 1299 7068.12 1288 7044.12 1266C7022.12 1244 7011.12 1216 7011.12 1182C7011.12 1146 7022.12 1117 7044.12 1095C7068.12 1073 7099.12 1062 7137.12 1062H7893.12C7931.12 1062 7962.12 1073 7986.12 1095C8010.12 1117 8022.12 1146 8022.12 1182C8022.12 1216 8010.12 1244 7986.12 1266C7962.12 1288 7931.12 1299 7893.12 1299H7137.12Z" fill="white"/>
<path d="M8664.68 2643C8622.68 2643 8588.68 2630 8562.68 2604C8536.68 2578 8523.68 2545 8523.68 2505V1140C8523.68 1098 8536.68 1065 8562.68 1041C8588.68 1015 8622.68 1002 8664.68 1002C8704.68 1002 8737.68 1015 8763.68 1041C8789.68 1065 8802.68 1098 8802.68 1140V2505C8802.68 2545 8789.68 2578 8763.68 2604C8737.68 2630 8704.68 2643 8664.68 2643ZM8661.68 717C8611.68 717 8568.68 699 8532.68 663C8496.68 627 8478.68 583 8478.68 531C8478.68 479 8496.68 436 8532.68 402C8570.68 366 8614.68 348 8664.68 348C8712.68 348 8754.68 366 8790.68 402C8828.68 436 8847.68 479 8847.68 531C8847.68 583 8829.68 627 8793.68 663C8757.68 699 8713.68 717 8661.68 717ZM10923.3 2646C10883.3 2646 10849.3 2633 10821.3 2607C10795.3 2579 10782.3 2546 10782.3 2508V1752C10782.3 1634 10760.3 1538 10716.3 1464C10672.3 1388 10613.3 1332 10539.3 1296C10465.3 1258 10380.3 1239 10284.3 1239C10194.3 1239 10113.3 1257 10041.3 1293C9969.3 1329 9911.3 1377 9867.3 1437C9825.3 1497 9804.3 1566 9804.3 1644H9624.3C9626.3 1518 9658.3 1406 9720.3 1308C9782.3 1208 9866.3 1130 9972.3 1074C10078.3 1016 10197.3 987 10329.3 987C10469.3 987 10594.3 1017 10704.3 1077C10814.3 1135 10901.3 1221 10965.3 1335C11029.3 1449 11061.3 1588 11061.3 1752V2508C11061.3 2546 11047.3 2579 11019.3 2607C10993.3 2633 10961.3 2646 10923.3 2646ZM9666.3 2646C9626.3 2646 9593.3 2633 9567.3 2607C9541.3 2581 9528.3 2548 9528.3 2508V1140C9528.3 1098 9541.3 1065 9567.3 1041C9593.3 1015 9626.3 1002 9666.3 1002C9708.3 1002 9741.3 1015 9765.3 1041C9791.3 1065 9804.3 1098 9804.3 1140V2508C9804.3 2548 9791.3 2581 9765.3 2607C9741.3 2633 9708.3 2646 9666.3 2646ZM12479.4 2655C12313.4 2655 12166.4 2620 12038.4 2550C11912.4 2478 11813.4 2380 11741.4 2256C11669.4 2130 11633.4 1986 11633.4 1824C11633.4 1660 11667.4 1516 11735.4 1392C11803.4 1266 11897.4 1168 12017.4 1098C12137.4 1026 12276.4 990 12434.4 990C12588.4 990 12721.4 1025 12833.4 1095C12945.4 1163 13031.4 1258 13091.4 1380C13151.4 1500 13181.4 1639 13181.4 1797C13181.4 1831 13169.4 1860 13145.4 1884C13123.4 1906 13093.4 1917 13055.4 1917H11822.4V1695H13058.4L12935.4 1782C12933.4 1676 12912.4 1581 12872.4 1497C12832.4 1413 12775.4 1347 12701.4 1299C12627.4 1251 12538.4 1227 12434.4 1227C12320.4 1227 12221.4 1253 12137.4 1305C12055.4 1357 11992.4 1428 11948.4 1518C11904.4 1608 11882.4 1710 11882.4 1824C11882.4 1938 11907.4 2040 11957.4 2130C12009.4 2218 12079.4 2288 12167.4 2340C12257.4 2392 12361.4 2418 12479.4 2418C12543.4 2418 12609.4 2406 12677.4 2382C12747.4 2358 12802.4 2330 12842.4 2298C12870.4 2276 12900.4 2265 12932.4 2265C12964.4 2263 12992.4 2272 13016.4 2292C13046.4 2320 13062.4 2351 13064.4 2385C13066.4 2417 13052.4 2445 13022.4 2469C12954.4 2523 12869.4 2568 12767.4 2604C12667.4 2638 12571.4 2655 12479.4 2655ZM14362.3 2655C14212.3 2655 14078.3 2619 13960.3 2547C13842.3 2475 13749.3 2376 13681.3 2250C13613.3 2124 13579.3 1982 13579.3 1824C13579.3 1664 13615.3 1522 13687.3 1398C13761.3 1272 13860.3 1173 13984.3 1101C14110.3 1027 14251.3 990 14407.3 990C14565.3 990 14706.3 1027 14830.3 1101C14954.3 1173 15052.3 1272 15124.3 1398C15198.3 1524 15236.3 1666 15238.3 1824L15130.3 1851C15130.3 2003 15096.3 2140 15028.3 2262C14960.3 2384 14868.3 2480 14752.3 2550C14638.3 2620 14508.3 2655 14362.3 2655ZM14407.3 2409C14515.3 2409 14611.3 2384 14695.3 2334C14779.3 2282 14845.3 2212 14893.3 2124C14943.3 2034 14968.3 1934 14968.3 1824C14968.3 1712 14943.3 1612 14893.3 1524C14845.3 1434 14779.3 1364 14695.3 1314C14611.3 1262 14515.3 1236 14407.3 1236C14303.3 1236 14208.3 1262 14122.3 1314C14036.3 1364 13968.3 1434 13918.3 1524C13870.3 1612 13846.3 1712 13846.3 1824C13846.3 1934 13870.3 2034 13918.3 2124C13968.3 2212 14036.3 2282 14122.3 2334C14208.3 2384 14303.3 2409 14407.3 2409ZM15097.3 2646C15057.3 2646 15024.3 2633 14998.3 2607C14972.3 2581 14959.3 2548 14959.3 2508V2028L15016.3 1740L15238.3 1824V2508C15238.3 2548 15224.3 2581 15196.3 2607C15170.3 2633 15137.3 2646 15097.3 2646ZM15966.6 1623C15970.6 1501 16001.6 1392 16059.6 1296C16119.6 1200 16198.6 1124 16296.6 1068C16394.6 1012 16502.6 984 16620.6 984C16730.6 984 16812.6 1001 16866.6 1035C16922.6 1069 16943.6 1112 16929.6 1164C16923.6 1194 16911.6 1216 16893.6 1230C16875.6 1242 16854.6 1249 16830.6 1251C16806.6 1251 16780.6 1249 16752.6 1245C16630.6 1225 16521.6 1228 16425.6 1254C16329.6 1280 16253.6 1325 16197.6 1389C16141.6 1453 16113.6 1531 16113.6 1623H15966.6ZM15975.6 2643C15933.6 2643 15900.6 2632 15876.6 2610C15852.6 2586 15840.6 2552 15840.6 2508V1137C15840.6 1095 15852.6 1062 15876.6 1038C15900.6 1014 15933.6 1002 15975.6 1002C16021.6 1002 16055.6 1014 16077.6 1038C16101.6 1060 16113.6 1093 16113.6 1137V2508C16113.6 2550 16101.6 2583 16077.6 2607C16055.6 2631 16021.6 2643 15975.6 2643ZM18029.4 2643C17927.4 2643 17835.4 2618 17753.4 2568C17671.4 2516 17607.4 2447 17561.4 2361C17515.4 2273 17492.4 2173 17492.4 2061V618C17492.4 578 17504.4 545 17528.4 519C17554.4 493 17587.4 480 17627.4 480C17667.4 480 17700.4 493 17726.4 519C17752.4 545 17765.4 578 17765.4 618V2061C17765.4 2151 17790.4 2225 17840.4 2283C17890.4 2341 17953.4 2370 18029.4 2370H18122.4C18156.4 2370 18184.4 2383 18206.4 2409C18230.4 2435 18242.4 2468 18242.4 2508C18242.4 2548 18227.4 2581 18197.4 2607C18169.4 2631 18132.4 2643 18086.4 2643H18029.4ZM17330.4 1299C17294.4 1299 17264.4 1288 17240.4 1266C17216.4 1244 17204.4 1216 17204.4 1182C17204.4 1146 17216.4 1117 17240.4 1095C17264.4 1073 17294.4 1062 17330.4 1062H18053.4C18089.4 1062 18119.4 1073 18143.4 1095C18167.4 1117 18179.4 1146 18179.4 1182C18179.4 1216 18167.4 1244 18143.4 1266C18119.4 1288 18089.4 1299 18053.4 1299H17330.4Z" fill="#FFFCFC"/>
<path d="M11064.5 4986C11044.1 4986 11027.3 4981.8 11014.1 4973.4C11000.9 4963.8 10994.3 4950 10994.3 4932V3634.2C10994.3 3617.4 10999.1 3604.2 11008.7 3594.6C11019.5 3585 11032.7 3580.2 11048.3 3580.2H11489.3C11556.5 3580.2 11617.7 3595.2 11672.9 3625.2C11728.1 3654 11772.5 3694.2 11806.1 3745.8C11839.7 3796.2 11856.5 3854.4 11856.5 3920.4C11856.5 3990 11837.9 4051.2 11800.7 4104C11764.7 4155.6 11717.3 4194.6 11658.5 4221C11740.1 4243.8 11805.5 4285.8 11854.7 4347C11905.1 4408.2 11930.3 4485 11930.3 4577.4C11930.3 4656.6 11912.3 4727.4 11876.3 4789.8C11841.5 4851 11792.9 4899 11730.5 4933.8C11668.1 4968.6 11596.7 4986 11516.3 4986H11064.5ZM11102.3 4878H11516.3C11576.3 4878 11629.1 4865.4 11674.7 4840.2C11720.3 4813.8 11756.3 4778.4 11782.7 4734C11809.1 4688.4 11822.3 4636.2 11822.3 4577.4C11822.3 4519.8 11809.1 4468.8 11782.7 4424.4C11756.3 4380 11720.3 4345.2 11674.7 4320C11629.1 4294.8 11576.3 4282.2 11516.3 4282.2H11102.3V4878ZM11102.3 4174.2H11489.3C11564.9 4174.2 11626.7 4151.4 11674.7 4105.8C11723.9 4059 11748.5 3997.2 11748.5 3920.4C11748.5 3846 11723.9 3789 11674.7 3749.4C11626.7 3708.6 11564.9 3688.2 11489.3 3688.2H11102.3V4174.2ZM12730.9 4996.8C12634.9 4996.8 12548.5 4975.2 12471.7 4932C12396.1 4887.6 12336.1 4827.6 12291.7 4752C12248.5 4675.2 12226.9 4589.4 12226.9 4494.6C12226.9 4398.6 12248.5 4312.8 12291.7 4237.2C12336.1 4160.4 12396.1 4100.4 12471.7 4057.2C12548.5 4012.8 12634.9 3990.6 12730.9 3990.6C12826.9 3990.6 12912.7 4012.8 12988.3 4057.2C13063.9 4100.4 13123.3 4160.4 13166.5 4237.2C13210.9 4312.8 13233.1 4398.6 13233.1 4494.6L13188.1 4566.6C13188.1 4648.2 13167.7 4721.4 13126.9 4786.2C13087.3 4851 13033.3 4902.6 12964.9 4941C12896.5 4978.2 12818.5 4996.8 12730.9 4996.8ZM12730.9 4896C12806.5 4896 12873.7 4878.6 12932.5 4843.8C12992.5 4807.8 13039.3 4759.8 13072.9 4699.8C13107.7 4638.6 13125.1 4570.2 13125.1 4494.6C13125.1 4417.8 13107.7 4349.4 13072.9 4289.4C13039.3 4228.2 12992.5 4180.2 12932.5 4145.4C12873.7 4109.4 12806.5 4091.4 12730.9 4091.4C12656.5 4091.4 12589.3 4109.4 12529.3 4145.4C12469.3 4180.2 12421.9 4228.2 12387.1 4289.4C12352.3 4349.4 12334.9 4417.8 12334.9 4494.6C12334.9 4570.2 12352.3 4638.6 12387.1 4699.8C12421.9 4759.8 12469.3 4807.8 12529.3 4843.8C12589.3 4878.6 12656.5 4896 12730.9 4896ZM13179.1 4986C13163.5 4986 13150.3 4981.2 13139.5 4971.6C13129.9 4960.8 13125.1 4947.6 13125.1 4932V4602.6L13159.3 4494.6H13233.1V4932C13233.1 4947.6 13228.3 4960.8 13218.7 4971.6C13209.1 4981.2 13195.9 4986 13179.1 4986ZM13927.4 4996.8C13865 4996.8 13799.6 4985.4 13731.2 4962.6C13662.8 4939.8 13605.8 4901.4 13560.2 4847.4C13550.6 4835.4 13546.4 4822.8 13547.6 4809.6C13550 4795.2 13557.8 4783.2 13571 4773.6C13583 4765.2 13595.6 4762.2 13608.8 4764.6C13623.2 4767 13634.6 4773.6 13643 4784.4C13677.8 4825.2 13719.8 4854 13769 4870.8C13819.4 4886.4 13874 4894.2 13932.8 4894.2C14033.6 4894.2 14105 4876.2 14147 4840.2C14189 4804.2 14210 4762.2 14210 4714.2C14210 4667.4 14187.2 4629 14141.6 4599C14097.2 4567.8 14028.2 4545.6 13934.6 4532.4C13814.6 4515.6 13725.8 4483.2 13668.2 4435.2C13610.6 4387.2 13581.8 4331.4 13581.8 4267.8C13581.8 4207.8 13596.8 4157.4 13626.8 4116.6C13656.8 4074.6 13697.6 4043.4 13749.2 4023C13802 4001.4 13862 3990.6 13929.2 3990.6C14010.8 3990.6 14079.8 4005.6 14136.2 4035.6C14192.6 4064.4 14238.2 4103.4 14273 4152.6C14282.6 4164.6 14285.6 4177.8 14282 4192.2C14279.6 4205.4 14270.6 4216.2 14255 4224.6C14243 4230.6 14230.4 4232.4 14217.2 4230C14204 4227.6 14192.6 4220.4 14183 4208.4C14153 4170 14116.4 4141.2 14073.2 4122C14031.2 4101.6 13982 4091.4 13925.6 4091.4C13850 4091.4 13791.2 4107.6 13749.2 4140C13707.2 4172.4 13686.2 4211.4 13686.2 4257C13686.2 4288.2 13694.6 4315.8 13711.4 4339.8C13729.4 4362.6 13758.2 4382.4 13797.8 4399.2C13837.4 4414.8 13890.2 4427.4 13956.2 4437C14046.2 4449 14117 4469.4 14168.6 4498.2C14221.4 4527 14258.6 4560.6 14280.2 4599C14303 4636.2 14314.4 4676.4 14314.4 4719.6C14314.4 4776 14296.4 4825.2 14260.4 4867.2C14224.4 4909.2 14177 4941.6 14118.2 4964.4C14059.4 4986 13995.8 4996.8 13927.4 4996.8ZM15083.3 4995C14988.5 4995 14903.9 4974 14829.5 4932C14756.3 4888.8 14698.7 4829.4 14656.7 4753.8C14614.7 4678.2 14593.7 4591.8 14593.7 4494.6C14593.7 4396.2 14613.5 4309.8 14653.1 4235.4C14692.7 4159.8 14747.3 4100.4 14816.9 4057.2C14886.5 4014 14966.3 3992.4 15056.3 3992.4C15145.1 3992.4 15223.7 4013.4 15292.1 4055.4C15360.5 4096.2 15413.9 4153.2 15452.3 4226.4C15490.7 4298.4 15509.9 4381.8 15509.9 4476.6C15509.9 4492.2 15505.1 4504.8 15495.5 4514.4C15485.9 4522.8 15473.3 4527 15457.7 4527H14665.7V4433.4H15486.5L15407.3 4492.8C15409.7 4414.8 15396.5 4345.8 15367.7 4285.8C15338.9 4225.8 15297.5 4179 15243.5 4145.4C15190.7 4110.6 15128.3 4093.2 15056.3 4093.2C14987.9 4093.2 14926.7 4110.6 14872.7 4145.4C14819.9 4179 14777.9 4225.8 14746.7 4285.8C14716.7 4345.8 14701.7 4415.4 14701.7 4494.6C14701.7 4572.6 14717.9 4641.6 14750.3 4701.6C14782.7 4761.6 14827.7 4809 14885.3 4843.8C14942.9 4877.4 15008.9 4894.2 15083.3 4894.2C15130.1 4894.2 15176.9 4886.4 15223.7 4870.8C15271.7 4854 15309.5 4832.4 15337.1 4806C15346.7 4796.4 15358.1 4791.6 15371.3 4791.6C15385.7 4790.4 15397.7 4794 15407.3 4802.4C15420.5 4813.2 15427.1 4825.2 15427.1 4838.4C15428.3 4851.6 15422.9 4863.6 15410.9 4874.4C15372.5 4909.2 15322.1 4938 15259.7 4960.8C15198.5 4983.6 15139.7 4995 15083.3 4995ZM16032.5 4986C15986.9 4986 15946.1 4973.4 15910.1 4948.2C15875.3 4923 15847.7 4888.2 15827.3 4843.8C15808.1 4799.4 15798.5 4747.8 15798.5 4689V3634.2C15798.5 3617.4 15803.3 3604.2 15812.9 3594.6C15823.7 3585 15836.9 3580.2 15852.5 3580.2C15869.3 3580.2 15882.5 3585 15892.1 3594.6C15901.7 3604.2 15906.5 3617.4 15906.5 3634.2V4689C15906.5 4744.2 15917.9 4789.8 15940.7 4825.8C15964.7 4860.6 15995.3 4878 16032.5 4878H16077.5C16090.7 4878 16101.5 4882.8 16109.9 4892.4C16118.3 4902 16122.5 4915.2 16122.5 4932C16122.5 4947.6 16117.7 4960.8 16108.1 4971.6C16098.5 4981.2 16085.3 4986 16068.5 4986H16032.5Z" fill="#E8E7E7"/>
<path d="M4065.55 4988.8C4003.15 4988.8 3937.75 4977.4 3869.35 4954.6C3800.95 4931.8 3743.95 4893.4 3698.35 4839.4C3688.75 4827.4 3684.55 4814.8 3685.75 4801.6C3688.15 4787.2 3695.95 4775.2 3709.15 4765.6C3721.15 4757.2 3733.75 4754.2 3746.95 4756.6C3761.35 4759 3772.75 4765.6 3781.15 4776.4C3815.95 4817.2 3857.95 4846 3907.15 4862.8C3957.55 4878.4 4012.15 4886.2 4070.95 4886.2C4171.75 4886.2 4243.15 4868.2 4285.15 4832.2C4327.15 4796.2 4348.15 4754.2 4348.15 4706.2C4348.15 4659.4 4325.35 4621 4279.75 4591C4235.35 4559.8 4166.35 4537.6 4072.75 4524.4C3952.75 4507.6 3863.95 4475.2 3806.35 4427.2C3748.75 4379.2 3719.95 4323.4 3719.95 4259.8C3719.95 4199.8 3734.95 4149.4 3764.95 4108.6C3794.95 4066.6 3835.75 4035.4 3887.35 4015C3940.15 3993.4 4000.15 3982.6 4067.35 3982.6C4148.95 3982.6 4217.95 3997.6 4274.35 4027.6C4330.75 4056.4 4376.35 4095.4 4411.15 4144.6C4420.75 4156.6 4423.75 4169.8 4420.15 4184.2C4417.75 4197.4 4408.75 4208.2 4393.15 4216.6C4381.15 4222.6 4368.55 4224.4 4355.35 4222C4342.15 4219.6 4330.75 4212.4 4321.15 4200.4C4291.15 4162 4254.55 4133.2 4211.35 4114C4169.35 4093.6 4120.15 4083.4 4063.75 4083.4C3988.15 4083.4 3929.35 4099.6 3887.35 4132C3845.35 4164.4 3824.35 4203.4 3824.35 4249C3824.35 4280.2 3832.75 4307.8 3849.55 4331.8C3867.55 4354.6 3896.35 4374.4 3935.95 4391.2C3975.55 4406.8 4028.35 4419.4 4094.35 4429C4184.35 4441 4255.15 4461.4 4306.75 4490.2C4359.55 4519 4396.75 4552.6 4418.35 4591C4441.15 4628.2 4452.55 4668.4 4452.55 4711.6C4452.55 4768 4434.55 4817.2 4398.55 4859.2C4362.55 4901.2 4315.15 4933.6 4256.35 4956.4C4197.55 4978 4133.95 4988.8 4065.55 4988.8ZM5188.99 4978C5122.99 4976.8 5064.19 4961.8 5012.59 4933C4960.99 4903 4920.79 4862.2 4891.99 4810.6C4863.19 4757.8 4848.79 4698.4 4848.79 4632.4V3736C4848.79 3719.2 4853.59 3706 4863.19 3696.4C4873.99 3685.6 4887.19 3680.2 4902.79 3680.2C4919.59 3680.2 4932.79 3685.6 4942.39 3696.4C4953.19 3706 4958.59 3719.2 4958.59 3736V4632.4C4958.59 4702 4980.19 4759 5023.39 4803.4C5066.59 4846.6 5122.39 4868.2 5190.79 4868.2H5230.39C5247.19 4868.2 5260.39 4873.6 5269.99 4884.4C5280.79 4894 5286.19 4907.2 5286.19 4924C5286.19 4939.6 5280.79 4952.8 5269.99 4963.6C5260.39 4973.2 5247.19 4978 5230.39 4978H5188.99ZM4708.39 4126.6C4693.99 4126.6 4681.99 4122.4 4672.39 4114C4663.99 4104.4 4659.79 4092.4 4659.79 4078C4659.79 4063.6 4663.99 4052.2 4672.39 4043.8C4681.99 4034.2 4693.99 4029.4 4708.39 4029.4H5196.19C5210.59 4029.4 5221.99 4034.2 5230.39 4043.8C5239.99 4052.2 5244.79 4063.6 5244.79 4078C5244.79 4092.4 5239.99 4104.4 5230.39 4114C5221.99 4122.4 5210.59 4126.6 5196.19 4126.6H4708.39ZM6039.17 4990.6C5952.77 4990.6 5875.37 4973.2 5806.97 4938.4C5738.57 4902.4 5683.97 4850.2 5643.17 4781.8C5603.57 4713.4 5583.77 4630 5583.77 4531.6V4047.4C5583.77 4031.8 5588.57 4019.2 5598.17 4009.6C5608.97 3998.8 5622.17 3993.4 5637.77 3993.4C5653.37 3993.4 5665.97 3998.8 5675.57 4009.6C5686.37 4019.2 5691.77 4031.8 5691.77 4047.4V4531.6C5691.77 4609.6 5706.77 4675 5736.77 4727.8C5767.97 4779.4 5809.37 4818.4 5860.97 4844.8C5913.77 4870 5973.17 4882.6 6039.17 4882.6C6103.97 4882.6 6162.17 4870 6213.77 4844.8C6265.37 4819.6 6306.17 4786 6336.17 4744C6366.17 4700.8 6381.17 4652.2 6381.17 4598.2H6471.17C6466.37 4672.6 6444.17 4739.8 6404.57 4799.8C6364.97 4858.6 6313.37 4905.4 6249.77 4940.2C6187.37 4973.8 6117.17 4990.6 6039.17 4990.6ZM6435.17 4978C6419.57 4978 6406.37 4973.2 6395.57 4963.6C6385.97 4952.8 6381.17 4939.6 6381.17 4924V4047.4C6381.17 4030.6 6385.97 4017.4 6395.57 4007.8C6406.37 3998.2 6419.57 3993.4 6435.17 3993.4C6451.97 3993.4 6465.17 3998.2 6474.77 4007.8C6484.37 4017.4 6489.17 4030.6 6489.17 4047.4V4924C6489.17 4939.6 6484.37 4952.8 6474.77 4963.6C6465.17 4973.2 6451.97 4978 6435.17 4978ZM7352.9 4988.8C7256.9 4988.8 7170.5 4967.2 7093.7 4924C7018.1 4879.6 6958.1 4819.6 6913.7 4744C6870.5 4667.2 6848.9 4580.8 6848.9 4484.8C6848.9 4388.8 6870.5 4303 6913.7 4227.4C6958.1 4151.8 7018.1 4092.4 7093.7 4049.2C7170.5 4004.8 7256.9 3982.6 7352.9 3982.6C7439.3 3982.6 7516.7 4001.2 7585.1 4038.4C7654.7 4075.6 7708.7 4125.4 7747.1 4187.8V3626.2C7747.1 3609.4 7751.9 3596.2 7761.5 3586.6C7772.3 3577 7785.5 3572.2 7801.1 3572.2C7817.9 3572.2 7831.1 3577 7840.7 3586.6C7850.3 3596.2 7855.1 3609.4 7855.1 3626.2V4495.6C7853.9 4589.2 7831.1 4673.2 7786.7 4747.6C7742.3 4822 7682.3 4880.8 7606.7 4924C7532.3 4967.2 7447.7 4988.8 7352.9 4988.8ZM7352.9 4888C7428.5 4888 7495.7 4870.6 7554.5 4835.8C7614.5 4799.8 7661.3 4751.8 7694.9 4691.8C7729.7 4630.6 7747.1 4561.6 7747.1 4484.8C7747.1 4408 7729.7 4339.6 7694.9 4279.6C7661.3 4219.6 7614.5 4172.2 7554.5 4137.4C7495.7 4101.4 7428.5 4083.4 7352.9 4083.4C7278.5 4083.4 7211.3 4101.4 7151.3 4137.4C7091.3 4172.2 7043.9 4219.6 7009.1 4279.6C6974.3 4339.6 6956.9 4408 6956.9 4484.8C6956.9 4561.6 6974.3 4630.6 7009.1 4691.8C7043.9 4751.8 7091.3 4799.8 7151.3 4835.8C7211.3 4870.6 7278.5 4888 7352.9 4888ZM8359.07 4978C8343.47 4978 8330.27 4973.2 8319.47 4963.6C8309.87 4952.8 8305.07 4939.6 8305.07 4924V4047.4C8305.07 4030.6 8309.87 4017.4 8319.47 4007.8C8330.27 3998.2 8343.47 3993.4 8359.07 3993.4C8375.87 3993.4 8389.07 3998.2 8398.67 4007.8C8408.27 4017.4 8413.07 4030.6 8413.07 4047.4V4924C8413.07 4939.6 8408.27 4952.8 8398.67 4963.6C8389.07 4973.2 8375.87 4978 8359.07 4978ZM8357.27 3786.4C8334.47 3786.4 8314.67 3778.6 8297.87 3763C8282.27 3746.2 8274.47 3725.8 8274.47 3701.8C8274.47 3674.2 8282.87 3653.8 8299.67 3640.6C8317.67 3626.2 8337.47 3619 8359.07 3619C8379.47 3619 8398.07 3626.2 8414.87 3640.6C8432.87 3653.8 8441.87 3674.2 8441.87 3701.8C8441.87 3725.8 8433.47 3746.2 8416.67 3763C8401.07 3778.6 8381.27 3786.4 8357.27 3786.4ZM9313.57 4988.8C9217.57 4988.8 9131.17 4967.2 9054.37 4924C8978.77 4879.6 8918.77 4819.6 8874.37 4744C8831.17 4667.2 8809.57 4581.4 8809.57 4486.6C8809.57 4390.6 8831.17 4304.8 8874.37 4229.2C8918.77 4152.4 8978.77 4092.4 9054.37 4049.2C9131.17 4004.8 9217.57 3982.6 9313.57 3982.6C9409.57 3982.6 9495.37 4004.8 9570.97 4049.2C9646.57 4092.4 9705.97 4152.4 9749.17 4229.2C9793.57 4304.8 9815.77 4390.6 9815.77 4486.6C9815.77 4581.4 9793.57 4667.2 9749.17 4744C9705.97 4819.6 9646.57 4879.6 9570.97 4924C9495.37 4967.2 9409.57 4988.8 9313.57 4988.8ZM9313.57 4888C9389.17 4888 9456.37 4870.6 9515.17 4835.8C9575.17 4799.8 9621.97 4751.8 9655.57 4691.8C9690.37 4630.6 9707.77 4561.6 9707.77 4484.8C9707.77 4409.2 9690.37 4341.4 9655.57 4281.4C9621.97 4220.2 9575.17 4172.2 9515.17 4137.4C9456.37 4101.4 9389.17 4083.4 9313.57 4083.4C9239.17 4083.4 9171.97 4101.4 9111.97 4137.4C9051.97 4172.2 9004.57 4220.2 8969.77 4281.4C8934.97 4341.4 8917.57 4409.8 8917.57 4486.6C8917.57 4562.2 8934.97 4630.6 8969.77 4691.8C9004.57 4751.8 9051.97 4799.8 9111.97 4835.8C9171.97 4870.6 9239.17 4888 9313.57 4888Z" fill="#E8E7E7"/>
</svg>
