<svg width="24257" height="5630" viewBox="0 0 24257 5630" fill="none" xmlns="http://www.w3.org/2000/svg">
<path d="M6546.65 2643C6512.65 2643 6484.65 2632 6462.65 2610C6440.65 2588 6429.65 2560 6429.65 2526V417C6429.65 383 6440.65 355 6462.65 333C6484.65 311 6512.65 300 6546.65 300H7146.65C7294.65 300 7425.65 333 7539.65 399C7653.65 463 7742.65 552 7806.65 666C7870.65 780 7902.65 912 7902.65 1062C7902.65 1208 7870.65 1338 7806.65 1452C7742.65 1564 7653.65 1653 7539.65 1719C7425.65 1783 7294.65 1815 7146.65 1815H6663.65V2526C6663.65 2560 6652.65 2588 6630.65 2610C6608.65 2632 6580.65 2643 6546.65 2643ZM6663.65 1590H7146.65C7248.65 1590 7339.65 1568 7419.65 1524C7499.65 1478 7561.65 1415 7605.65 1335C7651.65 1255 7674.65 1164 7674.65 1062C7674.65 956 7651.65 863 7605.65 783C7561.65 703 7499.65 640 7419.65 594C7339.65 548 7248.65 525 7146.65 525H6663.65V1590ZM8482.57 1632C8488.57 1508 8520.57 1397 8578.57 1299C8638.57 1201 8715.57 1124 8809.57 1068C8905.57 1012 9011.57 984 9127.57 984C9219.57 984 9290.57 997 9340.57 1023C9390.57 1049 9409.57 1087 9397.57 1137C9389.57 1167 9375.57 1187 9355.57 1197C9337.57 1207 9314.57 1211 9286.57 1209C9260.57 1207 9230.57 1205 9196.57 1203C9084.57 1193 8984.57 1205 8896.57 1239C8810.57 1271 8741.57 1321 8689.57 1389C8639.57 1457 8614.57 1538 8614.57 1632H8482.57ZM8500.57 2643C8464.57 2643 8436.57 2633 8416.57 2613C8396.57 2593 8386.57 2565 8386.57 2529V1116C8386.57 1080 8396.57 1052 8416.57 1032C8436.57 1012 8464.57 1002 8500.57 1002C8536.57 1002 8564.57 1012 8584.57 1032C8604.57 1052 8614.57 1080 8614.57 1116V2529C8614.57 2565 8604.57 2593 8584.57 2613C8564.57 2633 8536.57 2643 8500.57 2643ZM10537.5 2658C10377.5 2658 10234.5 2622 10108.5 2550C9982.47 2478 9883.47 2379 9811.47 2253C9739.47 2127 9703.47 1984 9703.47 1824C9703.47 1662 9739.47 1518 9811.47 1392C9883.47 1266 9982.47 1167 10108.5 1095C10234.5 1023 10377.5 987 10537.5 987C10697.5 987 10839.5 1023 10963.5 1095C11089.5 1167 11188.5 1266 11260.5 1392C11332.5 1518 11369.5 1662 11371.5 1824C11371.5 1984 11334.5 2127 11260.5 2253C11188.5 2379 11089.5 2478 10963.5 2550C10839.5 2622 10697.5 2658 10537.5 2658ZM10537.5 2448C10653.5 2448 10757.5 2421 10849.5 2367C10941.5 2313 11013.5 2239 11065.5 2145C11117.5 2051 11143.5 1944 11143.5 1824C11143.5 1704 11117.5 1597 11065.5 1503C11013.5 1407 10941.5 1332 10849.5 1278C10757.5 1224 10653.5 1197 10537.5 1197C10421.5 1197 10317.5 1224 10225.5 1278C10133.5 1332 10060.5 1407 10006.5 1503C9954.47 1597 9928.47 1704 9928.47 1824C9928.47 1944 9954.47 2051 10006.5 2145C10060.5 2239 10133.5 2313 10225.5 2367C10317.5 2421 10421.5 2448 10537.5 2448Z" fill="#757070"/>
<path d="M12174.7 2643C12144.7 2643 12118.7 2633 12096.7 2613C12074.7 2591 12063.7 2562 12063.7 2526V1005C12063.7 865 12087.7 742 12135.7 636C12183.7 530 12254.7 448 12348.7 390C12442.7 330 12557.7 300 12693.7 300C12727.7 300 12755.7 310 12777.7 330C12799.7 350 12810.7 375 12810.7 405C12810.7 435 12799.7 460 12777.7 480C12755.7 500 12727.7 510 12693.7 510C12603.7 510 12528.7 531 12468.7 573C12410.7 613 12366.7 670 12336.7 744C12308.7 816 12294.7 899 12294.7 993V2526C12294.7 2562 12283.7 2591 12261.7 2613C12241.7 2633 12212.7 2643 12174.7 2643ZM11871.7 1263C11839.7 1263 11813.7 1254 11793.7 1236C11775.7 1216 11766.7 1192 11766.7 1164C11766.7 1134 11775.7 1110 11793.7 1092C11813.7 1072 11839.7 1062 11871.7 1062H12654.7C12686.7 1062 12711.7 1072 12729.7 1092C12749.7 1110 12759.7 1134 12759.7 1164C12759.7 1192 12749.7 1216 12729.7 1236C12711.7 1254 12686.7 1263 12654.7 1263H11871.7Z" fill="#EAE7E5"/>
<path d="M13384.4 2643C13348.4 2643 13319.4 2633 13297.4 2613C13277.4 2591 13267.4 2562 13267.4 2526V1119C13267.4 1083 13277.4 1055 13297.4 1035C13319.4 1013 13348.4 1002 13384.4 1002C13418.4 1002 13445.4 1013 13465.4 1035C13487.4 1055 13498.4 1083 13498.4 1119V2526C13498.4 2562 13487.4 2591 13465.4 2613C13445.4 2633 13418.4 2643 13384.4 2643ZM13381.4 690C13337.4 690 13299.4 674 13267.4 642C13235.4 610 13219.4 571 13219.4 525C13219.4 475 13235.4 436 13267.4 408C13301.4 378 13340.4 363 13384.4 363C13426.4 363 13463.4 378 13495.4 408C13529.4 436 13546.4 475 13546.4 525C13546.4 571 13530.4 610 13498.4 642C13466.4 674 13427.4 690 13381.4 690ZM15643.6 2643C15609.6 2643 15581.6 2632 15559.6 2610C15537.6 2588 15526.6 2561 15526.6 2529V1749C15526.6 1625 15502.6 1523 15454.6 1443C15408.6 1363 15344.6 1303 15262.6 1263C15182.6 1223 15091.6 1203 14989.6 1203C14891.6 1203 14802.6 1222 14722.6 1260C14644.6 1298 14582.6 1350 14536.6 1416C14490.6 1482 14467.6 1557 14467.6 1641H14302.6C14306.6 1515 14340.6 1403 14404.6 1305C14468.6 1205 14553.6 1127 14659.6 1071C14765.6 1013 14883.6 984 15013.6 984C15155.6 984 15282.6 1014 15394.6 1074C15506.6 1132 15594.6 1218 15658.6 1332C15724.6 1446 15757.6 1585 15757.6 1749V2529C15757.6 2561 15746.6 2588 15724.6 2610C15702.6 2632 15675.6 2643 15643.6 2643ZM14353.6 2643C14317.6 2643 14288.6 2633 14266.6 2613C14246.6 2591 14236.6 2563 14236.6 2529V1119C14236.6 1083 14246.6 1055 14266.6 1035C14288.6 1013 14317.6 1002 14353.6 1002C14387.6 1002 14414.6 1013 14434.6 1035C14456.6 1055 14467.6 1083 14467.6 1119V2529C14467.6 2563 14456.6 2591 14434.6 2613C14414.6 2633 14387.6 2643 14353.6 2643ZM17160.8 2658C16998.8 2658 16854.8 2623 16728.8 2553C16604.8 2481 16506.8 2382 16434.8 2256C16364.8 2130 16329.8 1986 16329.8 1824C16329.8 1660 16362.8 1516 16428.8 1392C16496.8 1266 16589.8 1167 16707.8 1095C16825.8 1023 16961.8 987 17115.8 987C17267.8 987 17399.8 1022 17511.8 1092C17625.8 1160 17713.8 1255 17775.8 1377C17837.8 1499 17868.8 1638 17868.8 1794C17868.8 1826 17858.8 1852 17838.8 1872C17818.8 1890 17792.8 1899 17760.8 1899H16485.8V1707H17784.8L17655.8 1800C17657.8 1684 17636.8 1580 17592.8 1488C17548.8 1396 17485.8 1324 17403.8 1272C17323.8 1220 17227.8 1194 17115.8 1194C17001.8 1194 16901.8 1221 16815.8 1275C16729.8 1329 16662.8 1404 16614.8 1500C16568.8 1594 16545.8 1702 16545.8 1824C16545.8 1946 16571.8 2054 16623.8 2148C16677.8 2242 16750.8 2316 16842.8 2370C16934.8 2424 17040.8 2451 17160.8 2451C17232.8 2451 17304.8 2439 17376.8 2415C17450.8 2389 17509.8 2357 17553.8 2319C17575.8 2301 17600.8 2292 17628.8 2292C17656.8 2290 17680.8 2297 17700.8 2313C17726.8 2337 17739.8 2363 17739.8 2391C17741.8 2419 17730.8 2443 17706.8 2463C17640.8 2519 17556.8 2566 17454.8 2604C17352.8 2640 17254.8 2658 17160.8 2658ZM19074 2658C18920 2658 18782 2622 18660 2550C18538 2476 18441 2376 18369 2250C18299 2124 18264 1982 18264 1824C18264 1664 18300 1521 18372 1395C18446 1269 18546 1170 18672 1098C18798 1024 18940 987 19098 987C19256 987 19397 1024 19521 1098C19647 1170 19746 1269 19818 1395C19892 1521 19930 1664 19932 1824L19839 1896C19839 2040 19805 2170 19737 2286C19671 2400 19580 2491 19464 2559C19350 2625 19220 2658 19074 2658ZM19098 2448C19214 2448 19317 2421 19407 2367C19499 2313 19571 2239 19623 2145C19677 2049 19704 1942 19704 1824C19704 1704 19677 1597 19623 1503C19571 1409 19499 1335 19407 1281C19317 1225 19214 1197 19098 1197C18984 1197 18881 1225 18789 1281C18697 1335 18624 1409 18570 1503C18516 1597 18489 1704 18489 1824C18489 1942 18516 2049 18570 2145C18624 2239 18697 2313 18789 2367C18881 2421 18984 2448 19098 2448ZM19815 2643C19781 2643 19753 2633 19731 2613C19709 2591 19698 2563 19698 2529V2016L19755 1779L19932 1824V2529C19932 2563 19921 2591 19899 2613C19877 2633 19849 2643 19815 2643ZM20627.3 1632C20633.3 1508 20665.3 1397 20723.3 1299C20783.3 1201 20860.3 1124 20954.3 1068C21050.3 1012 21156.3 984 21272.3 984C21364.3 984 21435.3 997 21485.3 1023C21535.3 1049 21554.3 1087 21542.3 1137C21534.3 1167 21520.3 1187 21500.3 1197C21482.3 1207 21459.3 1211 21431.3 1209C21405.3 1207 21375.3 1205 21341.3 1203C21229.3 1193 21129.3 1205 21041.3 1239C20955.3 1271 20886.3 1321 20834.3 1389C20784.3 1457 20759.3 1538 20759.3 1632H20627.3ZM20645.3 2643C20609.3 2643 20581.3 2633 20561.3 2613C20541.3 2593 20531.3 2565 20531.3 2529V1116C20531.3 1080 20541.3 1052 20561.3 1032C20581.3 1012 20609.3 1002 20645.3 1002C20681.3 1002 20709.3 1012 20729.3 1032C20749.3 1052 20759.3 1080 20759.3 1116V2529C20759.3 2565 20749.3 2593 20729.3 2613C20709.3 2633 20681.3 2643 20645.3 2643ZM22697.3 2643C22591.3 2643 22496.3 2618 22412.3 2568C22330.3 2518 22265.3 2450 22217.3 2364C22169.3 2276 22145.3 2176 22145.3 2064V597C22145.3 563 22155.3 535 22175.3 513C22197.3 491 22225.3 480 22259.3 480C22293.3 480 22321.3 491 22343.3 513C22365.3 535 22376.3 563 22376.3 597V2064C22376.3 2166 22406.3 2250 22466.3 2316C22526.3 2380 22603.3 2412 22697.3 2412H22778.3C22810.3 2412 22836.3 2423 22856.3 2445C22876.3 2467 22886.3 2495 22886.3 2529C22886.3 2563 22874.3 2591 22850.3 2613C22826.3 2633 22796.3 2643 22760.3 2643H22697.3ZM21950.3 1263C21920.3 1263 21895.3 1254 21875.3 1236C21855.3 1216 21845.3 1192 21845.3 1164C21845.3 1134 21855.3 1110 21875.3 1092C21895.3 1072 21920.3 1062 21950.3 1062H22715.3C22745.3 1062 22770.3 1072 22790.3 1092C22810.3 1110 22820.3 1134 22820.3 1164C22820.3 1192 22810.3 1216 22790.3 1236C22770.3 1254 22745.3 1263 22715.3 1263H21950.3Z" fill="white"/>
<path d="M16034.4 5334C16006.6 5334 15983.1 5326.67 15964 5312C15946.4 5295.87 15937.6 5274.6 15937.6 5248.2V3701.6C15937.6 3676.67 15945.7 3656.13 15961.8 3640C15978 3623.87 15998.5 3615.8 16023.4 3615.8H16558C16646 3615.8 16725.2 3634.87 16795.6 3673C16867.5 3709.67 16924 3760.27 16965 3824.8C17007.6 3889.33 17028.8 3964.13 17028.8 4049.2C17028.8 4128.4 17007.6 4198.8 16965 4260.4C16922.5 4322 16866.8 4368.93 16797.8 4401.2C16896.1 4427.6 16975.3 4477.47 17035.4 4550.8C17095.6 4622.67 17125.6 4714.33 17125.6 4825.8C17125.6 4925.53 17102.9 5013.53 17057.4 5089.8C17012 5166.07 16948.9 5226.2 16868.2 5270.2C16789 5312.73 16698.1 5334 16595.4 5334H16034.4ZM16109.2 5169H16595.4C16665.8 5169 16728.2 5155.07 16782.4 5127.2C16836.7 5099.33 16879.2 5059.73 16910 5008.4C16940.8 4957.07 16956.2 4896.2 16956.2 4825.8C16956.2 4759.8 16940.8 4702.6 16910 4654.2C16879.2 4604.33 16836.7 4566.2 16782.4 4539.8C16728.2 4511.93 16665.8 4498 16595.4 4498H16109.2V5169ZM16109.2 4333H16558C16646 4333 16718.6 4308.07 16775.8 4258.2C16833 4208.33 16861.6 4138.67 16861.6 4049.2C16861.6 3961.2 16833 3894.47 16775.8 3849C16718.6 3803.53 16646 3780.8 16558 3780.8H16109.2V4333ZM18085.5 5345C17972.6 5345 17871.4 5318.6 17781.9 5265.8C17692.4 5211.53 17621.3 5138.2 17568.5 5045.8C17517.2 4953.4 17491.5 4849.27 17491.5 4733.4C17491.5 4616.07 17517.9 4511.2 17570.7 4418.8C17625 4326.4 17698.3 4253.8 17790.7 4201C17883.1 4146.73 17987.2 4119.6 18103.1 4119.6C18219 4119.6 18322.4 4146.73 18413.3 4201C18505.7 4253.8 18578.3 4326.4 18631.1 4418.8C18685.4 4511.2 18713.2 4616.07 18714.7 4733.4L18646.5 4786.2C18646.5 4891.8 18621.6 4987.13 18571.7 5072.2C18523.3 5155.8 18456.6 5222.53 18371.5 5272.4C18287.9 5320.8 18192.6 5345 18085.5 5345ZM18103.1 5191C18188.2 5191 18263.7 5171.2 18329.7 5131.6C18397.2 5092 18450 5037.73 18488.1 4968.8C18527.7 4898.4 18547.5 4819.93 18547.5 4733.4C18547.5 4645.4 18527.7 4566.93 18488.1 4498C18450 4429.07 18397.2 4374.8 18329.7 4335.2C18263.7 4294.13 18188.2 4273.6 18103.1 4273.6C18019.5 4273.6 17944 4294.13 17876.5 4335.2C17809 4374.8 17755.5 4429.07 17715.9 4498C17676.3 4566.93 17656.5 4645.4 17656.5 4733.4C17656.5 4819.93 17676.3 4898.4 17715.9 4968.8C17755.5 5037.73 17809 5092 17876.5 5131.6C17944 5171.2 18019.5 5191 18103.1 5191ZM18628.9 5334C18604 5334 18583.4 5326.67 18567.3 5312C18551.2 5295.87 18543.1 5275.33 18543.1 5250.4V4874.2L18584.9 4700.4L18714.7 4733.4V5250.4C18714.7 5275.33 18706.6 5295.87 18690.5 5312C18674.4 5326.67 18653.8 5334 18628.9 5334ZM19574.4 5345C19487.8 5345 19402 5330.33 19317 5301C19231.9 5271.67 19163 5227.67 19110.2 5169C19094 5151.4 19087.4 5131.6 19090.4 5109.6C19093.3 5087.6 19104.3 5068.53 19123.4 5052.4C19143.9 5037.73 19165.2 5031.87 19187.2 5034.8C19209.2 5037.73 19227.5 5047.27 19242.2 5063.4C19277.4 5104.47 19323.6 5136 19380.8 5158C19439.4 5180 19504 5191 19574.4 5191C19682.9 5191 19761.4 5172.67 19809.8 5136C19858.2 5097.87 19883.1 5052.4 19884.6 4999.6C19884.6 4946.8 19859.6 4903.53 19809.8 4869.8C19759.9 4834.6 19677.8 4807.47 19563.4 4788.4C19415.2 4764.93 19306.7 4723.87 19237.8 4665.2C19168.8 4606.53 19134.4 4536.87 19134.4 4456.2C19134.4 4381.4 19154.2 4319.07 19193.8 4269.2C19233.4 4219.33 19286.2 4181.93 19352.2 4157C19418.2 4132.07 19490.8 4119.6 19570 4119.6C19668.2 4119.6 19752.6 4136.47 19823 4170.2C19894.8 4203.93 19952.8 4249.4 19996.8 4306.6C20011.4 4325.67 20017.3 4345.47 20014.4 4366C20011.4 4386.53 19999.7 4403.4 19979.2 4416.6C19961.6 4426.87 19941 4430.53 19917.6 4427.6C19895.6 4423.2 19876.5 4412.2 19860.4 4394.6C19823.7 4352.07 19781.2 4321.27 19732.8 4302.2C19684.4 4281.67 19628.6 4271.4 19565.6 4271.4C19484.9 4271.4 19420.4 4288.27 19372 4322C19323.6 4354.27 19299.4 4395.33 19299.4 4445.2C19299.4 4478.93 19308.2 4508.27 19325.8 4533.2C19344.8 4558.13 19376.4 4580.13 19420.4 4599.2C19465.8 4618.27 19528.9 4634.4 19609.6 4647.6C19719.6 4665.2 19806.1 4691.6 19869.2 4726.8C19933.7 4760.53 19979.2 4800.87 20005.6 4847.8C20033.4 4893.27 20047.4 4943.13 20047.4 4997.4C20047.4 5066.33 20026.8 5127.2 19985.8 5180C19946.2 5231.33 19890.4 5271.67 19818.6 5301C19748.2 5330.33 19666.8 5345 19574.4 5345ZM20995.7 5345C20876.9 5345 20771.3 5319.33 20678.9 5268C20588 5215.2 20516.1 5142.6 20463.3 5050.2C20412 4957.8 20386.3 4852.2 20386.3 4733.4C20386.3 4613.13 20410.5 4507.53 20458.9 4416.6C20508.8 4324.2 20577 4251.6 20663.5 4198.8C20750 4146 20849.8 4119.6 20962.7 4119.6C21074.2 4119.6 21171 4145.27 21253.1 4196.6C21336.7 4246.47 21401.2 4316.13 21446.7 4405.6C21492.2 4495.07 21514.9 4597 21514.9 4711.4C21514.9 4734.87 21507.6 4753.93 21492.9 4768.6C21478.2 4781.8 21459.2 4788.4 21435.7 4788.4H20500.7V4647.6H21453.3L21358.7 4715.8C21360.2 4630.73 21344.8 4554.47 21312.5 4487C21280.2 4419.53 21234 4366.73 21173.9 4328.6C21115.2 4290.47 21044.8 4271.4 20962.7 4271.4C20879.1 4271.4 20805.8 4291.2 20742.7 4330.8C20679.6 4370.4 20630.5 4425.4 20595.3 4495.8C20561.6 4564.73 20544.7 4643.93 20544.7 4733.4C20544.7 4822.87 20563.8 4902.07 20601.9 4971C20641.5 5039.93 20695 5094.2 20762.5 5133.8C20830 5173.4 20907.7 5193.2 20995.7 5193.2C21048.5 5193.2 21101.3 5184.4 21154.1 5166.8C21208.4 5147.73 21251.6 5124.27 21283.9 5096.4C21300 5083.2 21318.4 5076.6 21338.9 5076.6C21359.4 5075.13 21377 5080.27 21391.7 5092C21410.8 5109.6 21420.3 5128.67 21420.3 5149.2C21421.8 5169.73 21413.7 5187.33 21396.1 5202C21347.7 5243.07 21286.1 5277.53 21211.3 5305.4C21136.5 5331.8 21064.6 5345 20995.7 5345ZM22171.1 5334C22112.4 5334 22059.6 5317.87 22012.7 5285.6C21967.2 5253.33 21931.3 5208.6 21904.9 5151.4C21879.9 5094.2 21867.5 5028.2 21867.5 4953.4V3699.4C21867.5 3674.47 21874.8 3654.67 21889.5 3640C21905.6 3623.87 21926.1 3615.8 21951.1 3615.8C21976 3615.8 21995.8 3623.87 22010.5 3640C22026.6 3654.67 22034.7 3674.47 22034.7 3699.4V4953.4C22034.7 5016.47 22047.1 5067.8 22072.1 5107.4C22098.5 5147 22131.5 5166.8 22171.1 5166.8H22226.1C22248.1 5166.8 22265.7 5174.87 22278.9 5191C22292.1 5205.67 22298.7 5225.47 22298.7 5250.4C22298.7 5275.33 22289.1 5295.87 22270.1 5312C22252.5 5326.67 22229 5334 22199.7 5334H22171.1Z" fill="#EAE7E5"/>
<path d="M7844.53 5352C7750.66 5352 7663.4 5338.8 7582.73 5312.4C7503.53 5284.53 7434.6 5245.67 7375.93 5195.8C7317.26 5145.93 7272.53 5088 7241.73 5022C7230 4998.53 7229.26 4977.27 7239.53 4958.2C7251.26 4937.67 7270.33 4923.73 7296.73 4916.4C7317.26 4910.53 7337.06 4912.73 7356.13 4923C7376.66 4933.27 7392.06 4948.67 7402.33 4969.2C7424.33 5011.73 7456.6 5049.87 7499.13 5083.6C7541.66 5117.33 7592.26 5143.73 7650.93 5162.8C7709.6 5180.4 7774.13 5189.2 7844.53 5189.2C7922.26 5189.2 7991.2 5176.73 8051.33 5151.8C8111.46 5125.4 8158.4 5088 8192.13 5039.6C8227.33 4989.73 8244.93 4929.6 8244.93 4859.2C8244.93 4769.73 8211.93 4692.73 8145.93 4628.2C8079.93 4563.67 7976.53 4522.6 7835.73 4505C7664.13 4484.47 7529.93 4431.67 7433.13 4346.6C7336.33 4260.07 7287.93 4154.47 7287.93 4029.8C7287.93 3940.33 7311.4 3862.6 7358.33 3796.6C7406.73 3730.6 7472.73 3680 7556.33 3644.8C7639.93 3608.13 7736 3589.8 7844.53 3589.8C7925.2 3589.8 7998.53 3603 8064.53 3629.4C8130.53 3654.33 8187.73 3688.07 8236.13 3730.6C8286 3771.67 8326.33 3817.13 8357.13 3867C8371.8 3890.47 8376.2 3913.2 8370.33 3935.2C8365.93 3957.2 8353.46 3974.07 8332.93 3985.8C8310.93 3996.07 8288.2 3997.53 8264.73 3990.2C8242.73 3982.87 8225.86 3968.93 8214.13 3948.4C8192.13 3914.67 8164.26 3883.13 8130.53 3853.8C8098.26 3823 8058.66 3798.8 8011.73 3781.2C7964.8 3763.6 7908.33 3754.07 7842.33 3752.6C7726.46 3752.6 7633.33 3777.53 7562.93 3827.4C7492.53 3875.8 7457.33 3946.93 7457.33 4040.8C7457.33 4090.67 7470.53 4136.87 7496.93 4179.4C7523.33 4220.47 7566.6 4256.4 7626.73 4287.2C7688.33 4316.53 7770.46 4338.53 7873.13 4353.2C8056.46 4379.6 8192.13 4436.07 8280.13 4522.6C8369.6 4607.67 8414.33 4719.13 8414.33 4857C8414.33 4936.2 8399.66 5006.6 8370.33 5068.2C8342.46 5129.8 8302.13 5181.87 8249.33 5224.4C8198 5265.47 8137.13 5297 8066.73 5319C7997.8 5341 7923.73 5352 7844.53 5352ZM9331.97 5330C9254.24 5330 9184.57 5311.67 9122.97 5275C9062.84 5238.33 9015.17 5188.47 8979.97 5125.4C8944.77 5060.87 8927.17 4987.53 8927.17 4905.4V3829.6C8927.17 3804.67 8934.51 3784.13 8949.17 3768C8965.31 3751.87 8985.84 3743.8 9010.77 3743.8C9035.71 3743.8 9056.24 3751.87 9072.37 3768C9088.51 3784.13 9096.57 3804.67 9096.57 3829.6V4905.4C9096.57 4980.2 9118.57 5041.8 9162.57 5090.2C9206.57 5137.13 9263.04 5160.6 9331.97 5160.6H9391.37C9414.84 5160.6 9433.91 5168.67 9448.57 5184.8C9463.24 5200.93 9470.57 5221.47 9470.57 5246.4C9470.57 5271.33 9461.77 5291.87 9444.17 5308C9426.57 5322.67 9404.57 5330 9378.17 5330H9331.97ZM8784.17 4318C8762.17 4318 8743.84 4311.4 8729.17 4298.2C8714.51 4283.53 8707.17 4265.93 8707.17 4245.4C8707.17 4223.4 8714.51 4205.8 8729.17 4192.6C8743.84 4177.93 8762.17 4170.6 8784.17 4170.6H9345.17C9367.17 4170.6 9385.51 4177.93 9400.17 4192.6C9414.84 4205.8 9422.17 4223.4 9422.17 4245.4C9422.17 4265.93 9414.84 4283.53 9400.17 4298.2C9385.51 4311.4 9367.17 4318 9345.17 4318H8784.17ZM10379.9 5343.2C10275.8 5343.2 10182.7 5321.93 10100.5 5279.4C10018.4 5235.4 9953.13 5171.6 9904.73 5088C9857.79 5004.4 9834.33 4902.47 9834.33 4782.2V4210.2C9834.33 4186.73 9842.39 4166.93 9858.53 4150.8C9874.66 4134.67 9894.46 4126.6 9917.93 4126.6C9942.86 4126.6 9963.39 4134.67 9979.53 4150.8C9995.66 4166.93 10003.7 4186.73 10003.7 4210.2V4782.2C10003.7 4873.13 10020.6 4947.93 10054.3 5006.6C10089.5 5065.27 10136.5 5109.27 10195.1 5138.6C10255.3 5167.93 10322.7 5182.6 10397.5 5182.6C10469.4 5182.6 10533.9 5168.67 10591.1 5140.8C10649.8 5112.93 10696 5074.8 10729.7 5026.4C10763.5 4978 10780.3 4923 10780.3 4861.4H10901.3C10896.9 4953.8 10871.3 5036.67 10824.3 5110C10778.9 5181.87 10717.3 5239.07 10639.5 5281.6C10561.8 5322.67 10475.3 5343.2 10379.9 5343.2ZM10863.9 5330C10839 5330 10818.5 5322.67 10802.3 5308C10787.7 5291.87 10780.3 5270.6 10780.3 5244.2V4210.2C10780.3 4185.27 10787.7 4165.47 10802.3 4150.8C10818.5 4134.67 10839 4126.6 10863.9 4126.6C10888.9 4126.6 10909.4 4134.67 10925.5 4150.8C10941.7 4165.47 10949.7 4185.27 10949.7 4210.2V5244.2C10949.7 5270.6 10941.7 5291.87 10925.5 5308C10909.4 5322.67 10888.9 5330 10863.9 5330ZM12003 5341C11887.1 5341 11783 5314.6 11690.6 5261.8C11598.2 5207.53 11524.9 5134.2 11470.6 5041.8C11417.8 4949.4 11391.4 4844.53 11391.4 4727.2C11391.4 4611.33 11417.1 4507.2 11468.4 4414.8C11521.2 4322.4 11592.3 4249.8 11681.8 4197C11771.3 4142.73 11872.5 4115.6 11985.4 4115.6C12083.7 4115.6 12172.4 4136.87 12251.6 4179.4C12330.8 4220.47 12394.6 4275.47 12443 4344.4V3697.6C12443 3671.2 12451.1 3650.67 12467.2 3636C12483.3 3619.87 12503.9 3611.8 12528.8 3611.8C12553.7 3611.8 12574.3 3619.87 12590.4 3636C12606.5 3650.67 12614.6 3671.2 12614.6 3697.6V4736C12611.7 4850.4 12583.1 4953.8 12528.8 5046.2C12476 5137.13 12403.4 5209 12311 5261.8C12220.1 5314.6 12117.4 5341 12003 5341ZM12003 5187C12088.1 5187 12163.6 5167.2 12229.6 5127.6C12297.1 5086.53 12349.9 5031.53 12388 4962.6C12427.6 4893.67 12447.4 4815.2 12447.4 4727.2C12447.4 4640.67 12427.6 4562.93 12388 4494C12349.9 4423.6 12297.1 4368.6 12229.6 4329C12163.6 4289.4 12088.1 4269.6 12003 4269.6C11919.4 4269.6 11843.9 4289.4 11776.4 4329C11708.9 4368.6 11655.4 4423.6 11615.8 4494C11576.2 4562.93 11556.4 4640.67 11556.4 4727.2C11556.4 4815.2 11576.2 4893.67 11615.8 4962.6C11655.4 5031.53 11708.9 5086.53 11776.4 5127.6C11843.9 5167.2 11919.4 5187 12003 5187ZM13241.7 5330C13215.3 5330 13194 5322.67 13177.9 5308C13163.2 5291.87 13155.9 5270.6 13155.9 5244.2V4212.4C13155.9 4186 13163.2 4165.47 13177.9 4150.8C13194 4134.67 13215.3 4126.6 13241.7 4126.6C13266.6 4126.6 13286.4 4134.67 13301.1 4150.8C13317.2 4165.47 13325.3 4186 13325.3 4212.4V5244.2C13325.3 5270.6 13317.2 5291.87 13301.1 5308C13286.4 5322.67 13266.6 5330 13241.7 5330ZM13239.5 3897.8C13207.2 3897.8 13179.3 3886.07 13155.9 3862.6C13132.4 3839.13 13120.7 3810.53 13120.7 3776.8C13120.7 3740.13 13132.4 3711.53 13155.9 3691C13180.8 3669 13209.4 3658 13241.7 3658C13272.5 3658 13299.6 3669 13323.1 3691C13348 3711.53 13360.5 3740.13 13360.5 3776.8C13360.5 3810.53 13348.7 3839.13 13325.3 3862.6C13301.8 3886.07 13273.2 3897.8 13239.5 3897.8ZM14414.4 5341C14297.1 5341 14192.2 5314.6 14099.8 5261.8C14007.4 5209 13934.8 5136.4 13882 5044C13829.2 4951.6 13802.8 4846.73 13802.8 4729.4C13802.8 4610.6 13829.2 4505 13882 4412.6C13934.8 4320.2 14007.4 4247.6 14099.8 4194.8C14192.2 4142 14297.1 4115.6 14414.4 4115.6C14531.7 4115.6 14635.9 4142 14726.8 4194.8C14819.2 4247.6 14891.8 4320.2 14944.6 4412.6C14997.4 4505 15024.5 4610.6 15026 4729.4C15026 4846.73 14998.9 4951.6 14944.6 5044C14891.8 5136.4 14819.2 5209 14726.8 5261.8C14635.9 5314.6 14531.7 5341 14414.4 5341ZM14414.4 5187C14499.5 5187 14575.7 5167.2 14643.2 5127.6C14710.7 5088 14763.5 5033.73 14801.6 4964.8C14839.7 4895.87 14858.8 4817.4 14858.8 4729.4C14858.8 4641.4 14839.7 4562.93 14801.6 4494C14763.5 4423.6 14710.7 4368.6 14643.2 4329C14575.7 4289.4 14499.5 4269.6 14414.4 4269.6C14329.3 4269.6 14253.1 4289.4 14185.6 4329C14118.1 4368.6 14064.6 4423.6 14025 4494C13986.9 4562.93 13967.8 4641.4 13967.8 4729.4C13967.8 4817.4 13986.9 4895.87 14025 4964.8C14064.6 5033.73 14118.1 5088 14185.6 5127.6C14253.1 5167.2 14329.3 5187 14414.4 5187Z" fill="white"/>
<path d="M2646 170.5C4107.07 170.5 5291.5 1354.93 5291.5 2816C5291.5 4277.07 4107.07 5461.5 2646 5461.5C1184.93 5461.5 0.5 4277.07 0.5 2816C0.5 1354.93 1184.93 170.5 2646 170.5Z" fill="#0F0F0F" stroke="black"/>
<path d="M1778.23 3762C1740.24 3762 1707.25 3749 1679.26 3723.01C1651.27 3695.02 1637.28 3661.03 1637.28 3621.05V1560.73C1637.28 1518.75 1650.27 1484.76 1676.26 1458.77C1704.25 1432.78 1738.24 1419.78 1778.23 1419.78H3154.77C3196.76 1419.78 3229.74 1432.78 3253.74 1458.77C3279.73 1482.76 3292.72 1514.75 3292.72 1554.74C3292.72 1590.72 3279.73 1621.71 3253.74 1647.7C3229.74 1671.7 3196.76 1683.69 3154.77 1683.69H1919.18V2451.44H2809.88C2851.87 2451.44 2885.86 2464.43 2911.85 2490.42C2937.84 2514.42 2950.84 2545.41 2950.84 2583.39C2950.84 2621.38 2937.84 2653.37 2911.85 2679.36C2885.86 2703.35 2851.87 2715.35 2809.88 2715.35H1919.18V3621.05C1919.18 3661.03 1905.19 3695.02 1877.2 3723.01C1851.2 3749 1818.22 3762 1778.23 3762Z" fill="#757070"/>
<path d="M896.43 3763C852.43 3763 815.43 3748 785.43 3718C755.43 3688 740.43 3651 740.43 3607V1576C740.43 1530 755.43 1493 785.43 1465C815.43 1435 852.43 1420 896.43 1420H1496.43C1646.43 1420 1779.43 1453 1895.43 1519C2011.43 1585 2101.43 1677 2165.43 1795C2231.43 1911 2264.43 2045 2264.43 2197C2264.43 2343 2231.43 2473 2165.43 2587C2101.43 2701 2011.43 2790 1895.43 2854C1779.43 2918 1646.43 2950 1496.43 2950H1052.43V3607C1052.43 3651 1037.43 3688 1007.43 3718C979.43 3748 942.43 3763 896.43 3763ZM1052.43 2662H1496.43C1588.43 2662 1669.43 2642 1739.43 2602C1809.43 2562 1864.43 2507 1904.43 2437C1944.43 2367 1964.43 2287 1964.43 2197C1964.43 2101 1944.43 2017 1904.43 1945C1864.43 1871 1809.43 1813 1739.43 1771C1669.43 1729 1588.43 1708 1496.43 1708H1052.43V2662Z" fill="#FDF8F8"/>
<path d="M2990.31 3763C2934.31 3763 2891.31 3739 2861.31 3691C2831.31 3643 2828.31 3592 2852.31 3538L3695.31 1525C3725.31 1455 3774.31 1420 3842.31 1420C3914.31 1420 3963.31 1455 3989.31 1525L4835.31 3544C4857.31 3600 4853.31 3651 4823.31 3697C4795.31 3741 4752.31 3763 4694.31 3763C4664.31 3763 4635.31 3755 4607.31 3739C4581.31 3721 4562.31 3697 4550.31 3667L3806.31 1819H3890.31L3134.31 3667C3120.31 3699 3099.31 3723 3071.31 3739C3045.31 3755 3018.31 3763 2990.31 3763ZM3149.31 3247L3269.31 2989H4445.31L4565.31 3247H3149.31Z" fill="#757070"/>
</svg>
