<svg width="1695" height="1695" viewBox="0 0 1695 1695" fill="none" xmlns="http://www.w3.org/2000/svg">
<circle cx="847.383" cy="847.383" r="847.383" fill="#FF0C0C"/>
<path d="M540.515 1222.15C528.35 1222.15 517.785 1217.98 508.821 1209.66C499.857 1200.7 495.375 1189.81 495.375 1177.01V517.189C495.375 503.743 499.537 492.858 507.861 484.534C516.825 476.211 527.71 472.049 540.515 472.049H981.353C994.799 472.049 1005.36 476.211 1013.05 484.534C1021.37 492.218 1025.53 502.462 1025.53 515.268C1025.53 526.793 1021.37 536.718 1013.05 545.042C1005.36 552.725 994.799 556.567 981.353 556.567H585.656V802.437H870.904C884.35 802.437 895.235 806.599 903.558 814.923C911.882 822.606 916.044 832.531 916.044 844.696C916.044 856.862 911.882 867.106 903.558 875.43C895.235 883.113 884.35 886.955 870.904 886.955H585.656V1177.01C585.656 1189.81 581.174 1200.7 572.209 1209.66C563.886 1217.98 553.321 1222.15 540.515 1222.15Z" fill="#757070"/>
<path d="M258.123 1222.47C244.032 1222.47 232.183 1217.66 222.575 1208.05C212.968 1198.45 208.164 1186.6 208.164 1172.51V522.078C208.164 507.347 212.968 495.497 222.575 486.53C232.183 476.923 244.032 472.119 258.123 472.119H450.273C498.311 472.119 540.904 482.687 578.053 503.824C615.202 524.96 644.025 554.424 664.521 592.213C685.658 629.362 696.226 672.276 696.226 720.954C696.226 767.71 685.658 809.343 664.521 845.851C644.025 882.36 615.202 910.862 578.053 931.358C540.904 951.854 498.311 962.102 450.273 962.102H308.082V1172.51C308.082 1186.6 303.278 1198.45 293.671 1208.05C284.704 1217.66 272.855 1222.47 258.123 1222.47ZM308.082 869.87H450.273C479.737 869.87 505.677 863.465 528.094 850.655C550.512 837.845 568.126 820.231 580.936 797.814C593.746 775.396 600.151 749.776 600.151 720.954C600.151 690.21 593.746 663.309 580.936 640.251C568.126 616.552 550.512 597.978 528.094 584.527C505.677 571.077 479.737 564.351 450.273 564.351H308.082V869.87Z" fill="#FDF8F8"/>
<path d="M928.686 1222.47C910.752 1222.47 896.981 1214.78 887.373 1199.41C877.766 1184.04 876.805 1167.7 884.491 1150.41L1154.46 505.745C1164.07 483.328 1179.76 472.119 1201.54 472.119C1224.6 472.119 1240.29 483.328 1248.62 505.745L1519.55 1152.33C1526.59 1170.27 1525.31 1186.6 1515.7 1201.33C1506.74 1215.42 1492.97 1222.47 1474.39 1222.47C1464.79 1222.47 1455.5 1219.9 1446.53 1214.78C1438.2 1209.02 1432.12 1201.33 1428.28 1191.72L1190.01 599.899H1216.91L974.802 1191.72C970.318 1201.97 963.593 1209.66 954.626 1214.78C946.3 1219.9 937.653 1222.47 928.686 1222.47ZM979.606 1057.22L1018.04 974.592H1394.65L1433.08 1057.22H979.606Z" fill="#757070"/>
</svg>
