<svg width="24576" height="6337" viewBox="0 0 24576 6337" fill="none" xmlns="http://www.w3.org/2000/svg">
<path d="M5743.61 865H6139.61C6267.61 865 6377.61 888 6469.61 934C6561.61 980 6632.61 1047 6682.61 1135C6732.61 1221 6757.61 1324 6757.61 1444C6757.61 1536 6739.61 1619 6703.61 1693C6667.61 1765 6619.61 1826 6559.61 1876C6499.61 1926 6431.61 1964 6355.61 1990C6279.61 2014 6200.61 2023 6118.61 2017C6038.61 2011 5960.61 1988 5884.61 1948V1918C5884.61 1918 5901.61 1921 5935.61 1927C5969.61 1931 6012.61 1932 6064.61 1930C6118.61 1926 6174.61 1915 6232.61 1897C6292.61 1877 6347.61 1843 6397.61 1795C6449.61 1747 6488.61 1680 6514.61 1594C6520.61 1572 6525.61 1545 6529.61 1513C6533.61 1479 6534.61 1446 6532.61 1414C6530.61 1276 6494.61 1165 6424.61 1081C6354.61 997 6255.61 955 6127.61 955H5773.61C5773.61 955 5770.61 948 5764.61 934C5760.61 918 5755.61 903 5749.61 889C5745.61 873 5743.61 865 5743.61 865ZM5782.61 865V2965H5587.61V865H5782.61ZM5596.61 2746V2965H5356.61V2935C5356.61 2935 5362.61 2935 5374.61 2935C5388.61 2935 5395.61 2935 5395.61 2935C5447.61 2935 5491.61 2917 5527.61 2881C5565.61 2843 5585.61 2798 5587.61 2746H5596.61ZM5596.61 1084H5587.61C5587.61 1032 5568.61 988 5530.61 952C5492.61 914 5447.61 895 5395.61 895C5395.61 895 5389.61 895 5377.61 895C5365.61 895 5359.61 895 5359.61 895L5356.61 865H5596.61V1084ZM5773.61 2746H5782.61C5784.61 2798 5803.61 2843 5839.61 2881C5877.61 2917 5922.61 2935 5974.61 2935C5974.61 2935 5980.61 2935 5992.61 2935C6006.61 2935 6013.61 2935 6013.61 2935V2965H5773.61V2746ZM7559.76 1165H7946.76C8040.76 1165 8124.76 1176 8198.76 1198C8274.76 1220 8338.76 1252 8390.76 1294C8444.76 1336 8485.76 1387 8513.76 1447C8541.76 1507 8555.76 1575 8555.76 1651C8555.76 1735 8535.76 1813 8495.76 1885C8455.76 1957 8399.76 2016 8327.76 2062C8257.76 2108 8177.76 2136 8087.76 2146C8121.76 2160 8160.76 2191 8204.76 2239C8250.76 2287 8289.76 2334 8321.76 2380C8321.76 2380 8334.76 2398 8360.76 2434C8386.76 2468 8419.76 2511 8459.76 2563C8501.76 2613 8542.76 2661 8582.76 2707C8624.76 2753 8662.76 2793 8696.76 2827C8732.76 2861 8770.76 2888 8810.76 2908C8852.76 2926 8900.76 2935 8954.76 2935V2965H8861.76C8751.76 2965 8660.76 2951 8588.76 2923C8518.76 2895 8461.76 2861 8417.76 2821C8373.76 2779 8335.76 2739 8303.76 2701C8295.76 2691 8276.76 2666 8246.76 2626C8218.76 2584 8187.76 2539 8153.76 2491C8119.76 2443 8088.76 2400 8060.76 2362C8032.76 2322 8015.76 2298 8009.76 2290C7969.76 2238 7923.76 2192 7871.76 2152C7819.76 2110 7764.76 2089 7706.76 2089V2059C7706.76 2059 7722.76 2060 7754.76 2062C7786.76 2062 7827.76 2061 7877.76 2059C7933.76 2057 7989.76 2053 8045.76 2047C8101.76 2039 8153.76 2017 8201.76 1981C8251.76 1945 8290.76 1885 8318.76 1801C8326.76 1779 8332.76 1753 8336.76 1723C8340.76 1693 8341.76 1662 8339.76 1630C8337.76 1574 8326.76 1524 8306.76 1480C8288.76 1436 8261.76 1398 8225.76 1366C8191.76 1334 8150.76 1309 8102.76 1291C8054.76 1273 8000.76 1263 7940.76 1261C7846.76 1257 7764.76 1256 7694.76 1258C7624.76 1260 7589.76 1260 7589.76 1258C7589.76 1256 7586.76 1248 7580.76 1234C7576.76 1218 7571.76 1203 7565.76 1189C7561.76 1173 7559.76 1165 7559.76 1165ZM7595.76 1165V2965H7403.76V1165H7595.76ZM7412.76 2773L7448.76 2965H7193.76V2935C7193.76 2935 7200.76 2935 7214.76 2935C7228.76 2935 7235.76 2935 7235.76 2935C7283.76 2935 7323.76 2919 7355.76 2887C7387.76 2855 7404.76 2817 7406.76 2773H7412.76ZM7412.76 1354H7406.76C7404.76 1308 7387.76 1270 7355.76 1240C7323.76 1210 7283.76 1195 7235.76 1195C7235.76 1195 7228.76 1195 7214.76 1195C7200.76 1195 7193.76 1195 7193.76 1195V1165H7448.76L7412.76 1354ZM7586.76 2773H7595.76C7597.76 2817 7614.76 2855 7646.76 2887C7678.76 2919 7718.76 2935 7766.76 2935C7766.76 2935 7772.76 2935 7784.76 2935C7798.76 2935 7805.76 2935 7805.76 2935L7808.76 2965H7550.76L7586.76 2773ZM10115.1 1123C10255.1 1123 10386.1 1146 10508.1 1192C10632.1 1236 10740.1 1300 10832.1 1384C10926.1 1468 10999.1 1568 11051.1 1684C11103.1 1798 11129.1 1925 11129.1 2065C11129.1 2205 11103.1 2333 11051.1 2449C10999.1 2563 10926.1 2662 10832.1 2746C10740.1 2830 10632.1 2895 10508.1 2941C10386.1 2985 10255.1 3007 10115.1 3007C9975.15 3007 9844.15 2985 9722.15 2941C9600.15 2895 9492.15 2830 9398.15 2746C9306.15 2662 9234.15 2563 9182.15 2449C9130.15 2333 9104.15 2205 9104.15 2065C9104.15 1925 9130.15 1798 9182.15 1684C9234.15 1568 9306.15 1468 9398.15 1384C9492.15 1300 9600.15 1236 9722.15 1192C9844.15 1146 9975.15 1123 10115.1 1123ZM10115.1 2917C10263.1 2917 10397.1 2881 10517.1 2809C10637.1 2737 10732.1 2637 10802.1 2509C10872.1 2381 10907.1 2233 10907.1 2065C10907.1 1895 10872.1 1747 10802.1 1621C10732.1 1493 10637.1 1393 10517.1 1321C10397.1 1249 10263.1 1213 10115.1 1213C9969.15 1213 9836.15 1249 9716.15 1321C9596.15 1393 9501.15 1493 9431.15 1621C9361.15 1747 9326.15 1895 9326.15 2065C9326.15 2233 9361.15 2381 9431.15 2509C9501.15 2637 9596.15 2737 9716.15 2809C9836.15 2881 9969.15 2917 10115.1 2917Z" fill="#757070"/>
<path d="M11839.8 828V2928H11644.8V828H11839.8ZM12520.8 1848V1938H11830.8V1848H12520.8ZM12649.8 828V921H11830.8V828H12649.8ZM12520.8 1932V2130H12490.8V2085C12490.8 2045 12476.8 2011 12448.8 1983C12420.8 1953 12386.8 1938 12346.8 1938V1932H12520.8ZM12520.8 1656V1854H12346.8V1848C12386.8 1846 12420.8 1831 12448.8 1803C12476.8 1773 12490.8 1738 12490.8 1698V1656H12520.8ZM12649.8 912V1113H12619.8V1068C12619.8 1028 12604.8 994 12574.8 966C12546.8 936 12512.8 921 12472.8 921V912H12649.8ZM12649.8 774V861L12283.8 828C12327.8 828 12373.8 825 12421.8 819C12471.8 813 12517.8 806 12559.8 798C12601.8 790 12631.8 782 12649.8 774ZM11653.8 2709V2928H11413.8V2898C11413.8 2898 11419.8 2898 11431.8 2898C11445.8 2898 11452.8 2898 11452.8 2898C11504.8 2898 11548.8 2880 11584.8 2844C11622.8 2806 11642.8 2761 11644.8 2709H11653.8ZM11653.8 1047H11644.8C11644.8 995 11625.8 951 11587.8 915C11549.8 877 11504.8 858 11452.8 858C11452.8 858 11446.8 858 11434.8 858C11422.8 858 11416.8 858 11416.8 858L11413.8 828H11653.8V1047ZM11830.8 2709H11839.8C11841.8 2761 11860.8 2806 11896.8 2844C11934.8 2880 11979.8 2898 12031.8 2898C12031.8 2898 12037.8 2898 12049.8 2898C12061.8 2898 12068.8 2898 12070.8 2898V2928H11830.8V2709ZM13486.8 1128V2928H13297.8V1128H13486.8ZM13306.8 2736V2928H13051.8V2898C13051.8 2898 13058.8 2898 13072.8 2898C13086.8 2898 13093.8 2898 13093.8 2898C13149.8 2898 13196.8 2882 13234.8 2850C13274.8 2818 13295.8 2780 13297.8 2736H13306.8ZM13477.8 2736H13486.8C13488.8 2780 13508.8 2818 13546.8 2850C13586.8 2882 13634.8 2898 13690.8 2898C13690.8 2898 13696.8 2898 13708.8 2898C13722.8 2898 13729.8 2898 13729.8 2898L13732.8 2928H13477.8V2736ZM13477.8 1320V1128H13732.8L13729.8 1158C13729.8 1158 13722.8 1158 13708.8 1158C13696.8 1158 13690.8 1158 13690.8 1158C13634.8 1158 13586.8 1174 13546.8 1206C13508.8 1236 13488.8 1274 13486.8 1320H13477.8ZM13306.8 1320H13297.8C13295.8 1274 13274.8 1236 13234.8 1206C13196.8 1174 13149.8 1158 13093.8 1158C13091.8 1158 13083.8 1158 13069.8 1158C13057.8 1158 13051.8 1158 13051.8 1158V1128H13306.8V1320ZM14368.6 1083L16030.6 2649L16060.6 2970L14398.6 1395L14368.6 1083ZM14374.6 2742V2928H14149.6V2898C14149.6 2898 14157.6 2898 14173.6 2898C14191.6 2898 14200.6 2898 14200.6 2898C14246.6 2898 14285.6 2883 14317.6 2853C14349.6 2823 14365.6 2786 14365.6 2742H14374.6ZM14500.6 2742C14500.6 2786 14516.6 2823 14548.6 2853C14582.6 2883 14621.6 2898 14665.6 2898C14665.6 2898 14673.6 2898 14689.6 2898C14707.6 2898 14716.6 2898 14716.6 2898V2928H14491.6V2742H14500.6ZM14368.6 1083L14497.6 1251L14500.6 2928H14365.6V1458C14365.6 1356 14360.6 1268 14350.6 1194C14342.6 1120 14338.6 1083 14338.6 1083H14368.6ZM16060.6 1128V2586C16060.6 2650 16062.6 2712 16066.6 2772C16070.6 2830 16074.6 2878 16078.6 2916C16084.6 2952 16087.6 2970 16087.6 2970H16060.6L15928.6 2811V1128H16060.6ZM16051.6 1314V1128H16276.6V1158C16276.6 1158 16267.6 1158 16249.6 1158C16233.6 1158 16225.6 1158 16225.6 1158C16181.6 1158 16142.6 1173 16108.6 1203C16076.6 1233 16060.6 1270 16060.6 1314H16051.6ZM15928.6 1314C15926.6 1270 15909.6 1233 15877.6 1203C15845.6 1173 15806.6 1158 15760.6 1158C15760.6 1158 15751.6 1158 15733.6 1158C15717.6 1158 15709.6 1158 15709.6 1158V1128H15934.6V1314H15928.6ZM17105.5 1128V2928H16913.5V1128H17105.5ZM17912.5 2835L17906.5 2928H17099.5V2835H17912.5ZM17771.5 1983V2073H17099.5V1983H17771.5ZM17909.5 1128V1221H17099.5V1128H17909.5ZM18080.5 2499L17915.5 2928H17459.5L17561.5 2835C17661.5 2835 17741.5 2821 17801.5 2793C17863.5 2763 17913.5 2723 17951.5 2673C17989.5 2621 18022.5 2563 18050.5 2499H18080.5ZM17771.5 2067V2238H17738.5V2199C17738.5 2165 17728.5 2136 17708.5 2112C17688.5 2086 17657.5 2073 17615.5 2073V2067H17771.5ZM17771.5 1818V1989H17615.5V1983C17657.5 1983 17688.5 1971 17708.5 1947C17728.5 1921 17738.5 1891 17738.5 1857V1818H17771.5ZM17909.5 1212V1419H17876.5V1374C17876.5 1332 17862.5 1296 17834.5 1266C17808.5 1236 17772.5 1221 17726.5 1221V1212H17909.5ZM17909.5 1080V1158L17567.5 1128C17629.5 1128 17695.5 1123 17765.5 1113C17835.5 1101 17883.5 1090 17909.5 1080ZM16919.5 2736L16958.5 2928H16697.5V2898C16697.5 2898 16704.5 2898 16718.5 2898C16732.5 2898 16739.5 2898 16739.5 2898C16789.5 2898 16830.5 2882 16862.5 2850C16894.5 2818 16911.5 2780 16913.5 2736H16919.5ZM16919.5 1317H16913.5C16911.5 1271 16894.5 1233 16862.5 1203C16830.5 1173 16789.5 1158 16739.5 1158C16739.5 1158 16732.5 1158 16718.5 1158C16704.5 1158 16697.5 1158 16697.5 1158V1128H16958.5L16919.5 1317Z" fill="white"/>
<path d="M19462.6 786L20350.6 2910H20095.6L19402.6 1071L19462.6 786ZM18817.6 2709C18803.6 2749 18801.6 2783 18811.6 2811C18821.6 2839 18837.6 2861 18859.6 2877C18883.6 2891 18907.6 2898 18931.6 2898H18958.6V2928H18355.6V2898C18355.6 2898 18360.6 2898 18370.6 2898C18378.6 2898 18382.6 2898 18382.6 2898C18428.6 2898 18475.6 2884 18523.6 2856C18573.6 2826 18614.6 2777 18646.6 2709H18817.6ZM19462.6 786L19489.6 996L18736.6 2919H18556.6L19324.6 1095C19324.6 1095 19329.6 1083 19339.6 1059C19351.6 1033 19364.6 1002 19378.6 966C19394.6 930 19407.6 895 19417.6 861C19429.6 827 19435.6 802 19435.6 786H19462.6ZM19885.6 2109V2199H18946.6V2109H19885.6ZM20020.6 2709H20266.6C20296.6 2777 20336.6 2826 20386.6 2856C20436.6 2884 20484.6 2898 20530.6 2898C20530.6 2898 20534.6 2898 20542.6 2898C20550.6 2898 20554.6 2898 20554.6 2898V2928H19879.6V2898H19906.6C19944.6 2898 19978.6 2882 20008.6 2850C20038.6 2816 20042.6 2769 20020.6 2709ZM21202.3 1128H21589.3C21683.3 1128 21767.3 1139 21841.3 1161C21917.3 1183 21981.3 1215 22033.3 1257C22087.3 1299 22128.3 1350 22156.3 1410C22184.3 1470 22198.3 1538 22198.3 1614C22198.3 1698 22178.3 1776 22138.3 1848C22098.3 1920 22042.3 1979 21970.3 2025C21900.3 2071 21820.3 2099 21730.3 2109C21764.3 2123 21803.3 2154 21847.3 2202C21893.3 2250 21932.3 2297 21964.3 2343C21964.3 2343 21977.3 2361 22003.3 2397C22029.3 2431 22062.3 2474 22102.3 2526C22144.3 2576 22185.3 2624 22225.3 2670C22267.3 2716 22305.3 2756 22339.3 2790C22375.3 2824 22413.3 2851 22453.3 2871C22495.3 2889 22543.3 2898 22597.3 2898V2928H22504.3C22394.3 2928 22303.3 2914 22231.3 2886C22161.3 2858 22104.3 2824 22060.3 2784C22016.3 2742 21978.3 2702 21946.3 2664C21938.3 2654 21919.3 2629 21889.3 2589C21861.3 2547 21830.3 2502 21796.3 2454C21762.3 2406 21731.3 2363 21703.3 2325C21675.3 2285 21658.3 2261 21652.3 2253C21612.3 2201 21566.3 2155 21514.3 2115C21462.3 2073 21407.3 2052 21349.3 2052V2022C21349.3 2022 21365.3 2023 21397.3 2025C21429.3 2025 21470.3 2024 21520.3 2022C21576.3 2020 21632.3 2016 21688.3 2010C21744.3 2002 21796.3 1980 21844.3 1944C21894.3 1908 21933.3 1848 21961.3 1764C21969.3 1742 21975.3 1716 21979.3 1686C21983.3 1656 21984.3 1625 21982.3 1593C21980.3 1537 21969.3 1487 21949.3 1443C21931.3 1399 21904.3 1361 21868.3 1329C21834.3 1297 21793.3 1272 21745.3 1254C21697.3 1236 21643.3 1226 21583.3 1224C21489.3 1220 21407.3 1219 21337.3 1221C21267.3 1223 21232.3 1223 21232.3 1221C21232.3 1219 21229.3 1211 21223.3 1197C21219.3 1181 21214.3 1166 21208.3 1152C21204.3 1136 21202.3 1128 21202.3 1128ZM21238.3 1128V2928H21046.3V1128H21238.3ZM21055.3 2736L21091.3 2928H20836.3V2898C20836.3 2898 20843.3 2898 20857.3 2898C20871.3 2898 20878.3 2898 20878.3 2898C20926.3 2898 20966.3 2882 20998.3 2850C21030.3 2818 21047.3 2780 21049.3 2736H21055.3ZM21055.3 1317H21049.3C21047.3 1271 21030.3 1233 20998.3 1203C20966.3 1173 20926.3 1158 20878.3 1158C20878.3 1158 20871.3 1158 20857.3 1158C20843.3 1158 20836.3 1158 20836.3 1158V1128H21091.3L21055.3 1317ZM21229.3 2736H21238.3C21240.3 2780 21257.3 2818 21289.3 2850C21321.3 2882 21361.3 2898 21409.3 2898C21409.3 2898 21415.3 2898 21427.3 2898C21441.3 2898 21448.3 2898 21448.3 2898L21451.3 2928H21193.3L21229.3 2736ZM23592 1137V2928H23397V1137H23592ZM24318 1125V1215H22671V1125H24318ZM24318 1209V1416H24285V1368C24285 1326 24271 1291 24243 1263C24217 1233 24181 1217 24135 1215V1209H24318ZM24318 1077V1155L23982 1125C24022 1125 24064 1123 24108 1119C24154 1113 24196 1106 24234 1098C24272 1090 24300 1083 24318 1077ZM23403 2736V2928H23184V2898C23186 2898 23192 2898 23202 2898C23214 2898 23220 2898 23220 2898C23268 2898 23309 2882 23343 2850C23377 2818 23395 2780 23397 2736H23403ZM23583 2736H23592C23594 2780 23612 2818 23646 2850C23680 2882 23721 2898 23769 2898C23769 2898 23774 2898 23784 2898C23796 2898 23802 2898 23802 2898V2928H23583V2736ZM22854 1209V1215C22808 1217 22771 1233 22743 1263C22717 1291 22704 1326 22704 1368V1416H22671V1209H22854ZM22671 1077C22689 1083 22716 1090 22752 1098C22790 1106 22832 1113 22878 1119C22924 1123 22967 1125 23007 1125L22671 1155V1077Z" fill="white"/>
<path d="M6377.12 3898C6403.79 3898 6432.12 3899.67 6462.12 3903C6493.79 3906.33 6523.79 3911.33 6552.12 3918C6582.12 3923 6608.79 3928.83 6632.12 3935.5C6657.12 3940.5 6676.29 3946.33 6689.62 3953V4230.5H6667.12C6667.12 4150.5 6639.62 4088 6584.62 4043C6529.62 3996.33 6462.95 3973 6384.62 3973C6292.95 3973 6218.79 4002.17 6162.12 4060.5C6105.45 4117.17 6077.12 4183.83 6077.12 4260.5C6077.12 4292.17 6083.79 4329.67 6097.12 4373C6112.12 4414.67 6138.79 4453.83 6177.12 4490.5L6669.62 4945.5C6719.62 4992.17 6752.95 5042.17 6769.62 5095.5C6786.29 5148.83 6794.62 5200.5 6794.62 5250.5C6794.62 5388.83 6752.12 5501.33 6667.12 5588C6583.79 5674.67 6470.45 5718 6327.12 5718C6287.12 5718 6239.62 5713.83 6184.62 5705.5C6131.29 5697.17 6078.79 5683 6027.12 5663C5977.12 5641.33 5935.45 5613.83 5902.12 5580.5C5897.12 5553.83 5894.62 5520.5 5894.62 5480.5C5894.62 5440.5 5897.95 5398.83 5904.62 5355.5C5911.29 5310.5 5920.45 5269.67 5932.12 5233H5954.62C5946.29 5318 5957.12 5392.17 5987.12 5455.5C6017.12 5518.83 6060.45 5567.17 6117.12 5600.5C6175.45 5632.17 6241.29 5646.33 6314.62 5643C6406.29 5638 6484.62 5606.33 6549.62 5548C6616.29 5488 6649.62 5408 6649.62 5308C6649.62 5259.67 6641.29 5216.33 6624.62 5178C6607.95 5138 6583.79 5103.83 6552.12 5075.5L6072.12 4630.5C6022.12 4583.83 5987.12 4533 5967.12 4478C5947.12 4421.33 5937.12 4368.83 5937.12 4320.5C5937.12 4250.5 5953.79 4183 5987.12 4118C6020.45 4053 6069.62 4000.5 6134.62 3960.5C6201.29 3918.83 6282.12 3898 6377.12 3898ZM6689.62 3923V3975.5H6499.62V3923H6689.62ZM7866.14 4190.5V5683H7703.64V4190.5H7866.14ZM8471.14 4180.5V4255.5H7098.64V4180.5H8471.14ZM8471.14 4250.5V4423H8443.64V4383C8443.64 4348 8431.98 4318.83 8408.64 4295.5C8386.98 4270.5 8356.98 4257.17 8318.64 4255.5V4250.5H8471.14ZM8471.14 4140.5V4205.5L8191.14 4180.5C8224.48 4180.5 8259.48 4178.83 8296.14 4175.5C8334.48 4170.5 8369.48 4164.67 8401.14 4158C8432.81 4151.33 8456.14 4145.5 8471.14 4140.5ZM7708.64 5523V5683H7526.14V5658C7527.81 5658 7532.81 5658 7541.14 5658C7551.14 5658 7556.14 5658 7556.14 5658C7596.14 5658 7630.31 5644.67 7658.64 5618C7686.98 5591.33 7701.98 5559.67 7703.64 5523H7708.64ZM7858.64 5523H7866.14C7867.81 5559.67 7882.81 5591.33 7911.14 5618C7939.48 5644.67 7973.64 5658 8013.64 5658C8013.64 5658 8017.81 5658 8026.14 5658C8036.14 5658 8041.14 5658 8041.14 5658V5683H7858.64V5523ZM7251.14 4250.5V4255.5C7212.81 4257.17 7181.98 4270.5 7158.64 4295.5C7136.98 4318.83 7126.14 4348 7126.14 4383V4423H7098.64V4250.5H7251.14ZM7098.64 4140.5C7113.64 4145.5 7136.14 4151.33 7166.14 4158C7197.81 4164.67 7232.81 4170.5 7271.14 4175.5C7309.48 4178.83 7345.31 4180.5 7378.64 4180.5L7098.64 4205.5V4140.5ZM9048.96 4183V5128C9048.96 5289.67 9089.79 5417.17 9171.46 5510.5C9254.79 5603.83 9368.12 5650.5 9511.46 5650.5C9669.79 5650.5 9793.96 5606.33 9883.96 5518C9975.62 5429.67 10021.5 5308.83 10021.5 5155.5V4183H10136.5V5155.5C10136.5 5328.83 10080.6 5466.33 9968.96 5568C9858.96 5668 9707.29 5718 9513.96 5718C9322.29 5718 9169.79 5668 9056.46 5568C8944.79 5468 8888.96 5331.33 8888.96 5158V4183H9048.96ZM8893.96 4183V4315.5H8888.96C8887.29 4285.5 8874.79 4260.5 8851.46 4240.5C8829.79 4218.83 8802.29 4208 8768.96 4208C8768.96 4208 8762.29 4208 8748.96 4208C8737.29 4208 8731.46 4208 8731.46 4208V4183H8893.96ZM9206.46 4183V4208C9206.46 4208 9199.79 4208 9186.46 4208C9174.79 4208 9168.96 4208 9168.96 4208C9137.29 4208 9108.96 4218.83 9083.96 4240.5C9060.62 4260.5 9048.96 4285.5 9048.96 4315.5H9043.96V4183H9206.46ZM10026.5 4183V4315.5H10021.5C10021.5 4285.5 10009.8 4260.5 9986.46 4240.5C9963.12 4218.83 9934.79 4208 9901.46 4208C9901.46 4208 9894.79 4208 9881.46 4208C9869.79 4208 9863.96 4208 9863.96 4208V4183H10026.5ZM10294 4183V4208C10294 4208 10287.3 4208 10274 4208C10262.3 4208 10256.5 4208 10256.5 4208C10224.8 4208 10197.3 4218.83 10174 4240.5C10150.6 4260.5 10138.1 4285.5 10136.5 4315.5H10131.5V4183H10294ZM11479.4 4183C11644.4 4183 11786.9 4213 11906.9 4273C12026.9 4333 12119.4 4419.67 12184.4 4533C12249.4 4644.67 12281.9 4778 12281.9 4933C12281.9 5088 12249.4 5221.33 12184.4 5333C12119.4 5444.67 12026.9 5531.33 11906.9 5593C11786.9 5653 11644.4 5683 11479.4 5683H10946.9L10941.9 5608C11058.6 5608 11156.1 5608 11234.4 5608C11314.4 5608 11375.3 5608 11416.9 5608C11458.6 5608 11479.4 5608 11479.4 5608C11672.8 5608 11824.4 5548 11934.4 5428C12046.1 5306.33 12101.9 5141.33 12101.9 4933C12101.9 4724.67 12046.1 4560.5 11934.4 4440.5C11824.4 4318.83 11672.8 4258 11479.4 4258C11479.4 4258 11457.8 4258 11414.4 4258C11371.1 4258 11307.8 4258 11224.4 4258C11141.1 4258 11038.6 4258 10916.9 4258V4183H11479.4ZM10981.9 4183V5683H10819.4V4183H10981.9ZM10824.4 5520.5V5683H10644.4V5658C10644.4 5658 10649.4 5658 10659.4 5658C10671.1 5658 10676.9 5658 10676.9 5658C10716.9 5658 10750.3 5644.67 10776.9 5618C10803.6 5589.67 10817.8 5557.17 10819.4 5520.5H10824.4ZM10824.4 4345.5H10819.4C10817.8 4305.5 10802.8 4273 10774.4 4248C10747.8 4221.33 10714.4 4208 10674.4 4208C10674.4 4208 10669.4 4208 10659.4 4208C10649.4 4208 10644.4 4208 10644.4 4208V4183H10824.4V4345.5ZM12994.7 4183V5683H12837.2V4183H12994.7ZM12844.7 5523V5683H12632.2V5658C12632.2 5658 12638.1 5658 12649.7 5658C12661.4 5658 12667.2 5658 12667.2 5658C12713.9 5658 12753.1 5644.67 12784.7 5618C12818.1 5591.33 12835.6 5559.67 12837.2 5523H12844.7ZM12987.2 5523H12994.7C12996.4 5559.67 13013.1 5591.33 13044.7 5618C13078.1 5644.67 13118.1 5658 13164.7 5658C13164.7 5658 13169.7 5658 13179.7 5658C13191.4 5658 13197.2 5658 13197.2 5658L13199.7 5683H12987.2V5523ZM12987.2 4343V4183H13199.7L13197.2 4208C13197.2 4208 13191.4 4208 13179.7 4208C13169.7 4208 13164.7 4208 13164.7 4208C13118.1 4208 13078.1 4221.33 13044.7 4248C13013.1 4273 12996.4 4304.67 12994.7 4343H12987.2ZM12844.7 4343H12837.2C12835.6 4304.67 12818.1 4273 12784.7 4248C12753.1 4221.33 12713.9 4208 12667.2 4208C12665.6 4208 12658.9 4208 12647.2 4208C12637.2 4208 12632.2 4208 12632.2 4208V4183H12844.7V4343ZM14390.5 4148C14507.1 4148 14616.3 4167.17 14718 4205.5C14821.3 4242.17 14911.3 4295.5 14988 4365.5C15066.3 4435.5 15127.1 4518.83 15170.5 4615.5C15213.8 4710.5 15235.5 4816.33 15235.5 4933C15235.5 5049.67 15213.8 5156.33 15170.5 5253C15127.1 5348 15066.3 5430.5 14988 5500.5C14911.3 5570.5 14821.3 5624.67 14718 5663C14616.3 5699.67 14507.1 5718 14390.5 5718C14273.8 5718 14164.6 5699.67 14063 5663C13961.3 5624.67 13871.3 5570.5 13793 5500.5C13716.3 5430.5 13656.3 5348 13613 5253C13569.6 5156.33 13548 5049.67 13548 4933C13548 4816.33 13569.6 4710.5 13613 4615.5C13656.3 4518.83 13716.3 4435.5 13793 4365.5C13871.3 4295.5 13961.3 4242.17 14063 4205.5C14164.6 4167.17 14273.8 4148 14390.5 4148ZM14390.5 5643C14513.8 5643 14625.5 5613 14725.5 5553C14825.5 5493 14904.6 5409.67 14963 5303C15021.3 5196.33 15050.5 5073 15050.5 4933C15050.5 4791.33 15021.3 4668 14963 4563C14904.6 4456.33 14825.5 4373 14725.5 4313C14625.5 4253 14513.8 4223 14390.5 4223C14268.8 4223 14158 4253 14058 4313C13958 4373 13878.8 4456.33 13820.5 4563C13762.1 4668 13733 4791.33 13733 4933C13733 5073 13762.1 5196.33 13820.5 5303C13878.8 5409.67 13958 5493 14058 5553C14158 5613 14268.8 5643 14390.5 5643ZM16616.5 3933H16881.5C16998.2 3933 17096.5 3950.5 17176.5 3985.5C17258.2 4020.5 17319.8 4069.67 17361.5 4133C17403.2 4194.67 17424 4267.17 17424 4350.5C17424 4420.5 17410.7 4482.17 17384 4535.5C17357.3 4587.17 17323.2 4629.67 17281.5 4663C17239.8 4694.67 17195.7 4717.17 17149 4730.5C17237.3 4743.83 17313.2 4773 17376.5 4818C17441.5 4863 17490.7 4919.67 17524 4988C17559 5054.67 17576.5 5129.67 17576.5 5213C17576.5 5306.33 17554 5388.83 17509 5460.5C17464 5530.5 17397.3 5585.5 17309 5625.5C17222.3 5663.83 17117.3 5683 16994 5683H16716.5C16716.5 5683 16716.5 5675.5 16716.5 5660.5C16718.2 5645.5 16719 5630.5 16719 5615.5C16719 5600.5 16719 5593 16719 5593H16984C17070.7 5593 17144 5578 17204 5548C17264 5516.33 17309.8 5470.5 17341.5 5410.5C17373.2 5350.5 17389 5278.83 17389 5195.5C17389 5102.17 17370.7 5026.33 17334 4968C17299 4909.67 17253.2 4865.5 17196.5 4835.5C17139.8 4805.5 17078.2 4785.5 17011.5 4775.5C16946.5 4763.83 16884 4758 16824 4758V4735.5C16862.3 4735.5 16904.8 4731.33 16951.5 4723C16998.2 4714.67 17043.2 4698 17086.5 4673C17129.8 4648 17165.7 4611.33 17194 4563C17222.3 4513 17236.5 4448 17236.5 4368C17236.5 4293 17222.3 4228.83 17194 4175.5C17167.3 4122.17 17126.5 4082.17 17071.5 4055.5C17018.2 4027.17 16951.5 4013 16871.5 4013H16641.5C16641.5 4011.33 16639 4004.67 16634 3993C16630.7 3979.67 16626.5 3966.33 16621.5 3953C16618.2 3939.67 16616.5 3933 16616.5 3933ZM16739 3933V5683H16576.5V3933H16739ZM16584 5500.5V5683H16384L16386.5 5658C16389.8 5658 16394.8 5658 16401.5 5658C16409.8 5658 16414.8 5658 16416.5 5658C16459.8 5658 16497.3 5643 16529 5613C16560.7 5581.33 16576.5 5543.83 16576.5 5500.5H16584ZM16584 4115.5H16576.5C16576.5 4072.17 16560.7 4035.5 16529 4005.5C16497.3 3973.83 16459.8 3958 16416.5 3958C16414.8 3958 16409.8 3958 16401.5 3958C16394.8 3958 16389.8 3958 16386.5 3958L16384 3933H16584V4115.5ZM18627.2 4148L19314.7 5668H19117.2L18584.7 4370.5L18627.2 4148ZM18144.7 5500.5C18126.4 5550.5 18128.9 5589.67 18152.2 5618C18175.6 5644.67 18202.2 5658 18232.2 5658H18252.2V5683H17774.7V5658C17774.7 5658 17778.1 5658 17784.7 5658C17791.4 5658 17794.7 5658 17794.7 5658C17829.7 5658 17865.6 5646.33 17902.2 5623C17938.9 5598 17970.6 5557.17 17997.2 5500.5H18144.7ZM18627.2 4148L18644.7 4320.5L18072.2 5675.5H17914.7L18507.2 4405.5C18507.2 4405.5 18511.4 4395.5 18519.7 4375.5C18529.7 4355.5 18540.6 4331.33 18552.2 4303C18565.6 4273 18577.2 4243.83 18587.2 4215.5C18597.2 4187.17 18603.1 4164.67 18604.7 4148H18627.2ZM18922.2 5100.5V5175.5H18259.7V5100.5H18922.2ZM19049.7 5500.5H19239.7C19264.7 5557.17 19295.6 5598 19332.2 5623C19368.9 5646.33 19403.9 5658 19437.2 5658C19437.2 5658 19440.6 5658 19447.2 5658C19453.9 5658 19457.2 5658 19457.2 5658V5683H18944.7V5658H18964.7C18993.1 5658 19018.9 5644.67 19042.2 5618C19065.6 5589.67 19068.1 5550.5 19049.7 5500.5ZM20154.9 4148C20201.6 4148 20242.4 4149.67 20277.4 4153C20312.4 4156.33 20342.4 4160.5 20367.4 4165.5C20394.1 4168.83 20416.6 4173.83 20434.9 4180.5C20454.9 4185.5 20472.4 4190.5 20487.4 4195.5L20489.9 4443H20459.9C20459.9 4374.67 20436.6 4321.33 20389.9 4283C20343.3 4243 20270.8 4223 20172.4 4223C20089.1 4223 20017.4 4246.33 19957.4 4293C19899.1 4338 19870.8 4393.83 19872.4 4460.5C19872.4 4482.17 19874.9 4504.67 19879.9 4528C19886.6 4549.67 19896.6 4571.33 19909.9 4593C19924.9 4614.67 19944.9 4636.33 19969.9 4658L20474.9 5048C20513.3 5079.67 20541.6 5120.5 20559.9 5170.5C20578.3 5218.83 20588.3 5267.17 20589.9 5315.5C20591.6 5388.83 20572.4 5456.33 20532.4 5518C20492.4 5579.67 20438.3 5628.83 20369.9 5665.5C20303.3 5700.5 20229.1 5718 20147.4 5718C20099.1 5718 20046.6 5713.83 19989.9 5705.5C19934.9 5697.17 19883.3 5684.67 19834.9 5668C19786.6 5649.67 19746.6 5627.17 19714.9 5600.5C19709.9 5577.17 19707.4 5548 19707.4 5513C19707.4 5476.33 19709.9 5438 19714.9 5398C19721.6 5358 19729.9 5322.17 19739.9 5290.5H19769.9C19763.3 5365.5 19774.1 5429.67 19802.4 5483C19830.8 5536.33 19872.4 5577.17 19927.4 5605.5C19982.4 5632.17 20046.6 5644.67 20119.9 5643C20223.3 5639.67 20304.1 5613.83 20362.4 5565.5C20422.4 5515.5 20452.4 5449.67 20452.4 5368C20452.4 5328 20444.9 5292.17 20429.9 5260.5C20416.6 5227.17 20394.1 5196.33 20362.4 5168L19862.4 4783C19815.8 4743 19784.1 4698.83 19767.4 4650.5C19750.8 4602.17 19742.4 4556.33 19742.4 4513C19742.4 4444.67 19760.8 4383 19797.4 4328C19834.1 4273 19883.3 4229.67 19944.9 4198C20008.3 4164.67 20078.3 4148 20154.9 4148ZM20484.9 4170.5L20487.4 4215.5H20309.9V4170.5H20484.9ZM21327.2 4183V5683H21167.2V4183H21327.2ZM21999.7 5605.5L21994.7 5683H21322.2V5605.5H21999.7ZM21882.2 4895.5V4970.5H21322.2V4895.5H21882.2ZM21997.2 4183V4260.5H21322.2V4183H21997.2ZM22139.7 5325.5L22002.2 5683H21622.2L21707.2 5605.5C21790.6 5605.5 21857.2 5593.83 21907.2 5570.5C21958.9 5545.5 22000.6 5512.17 22032.2 5470.5C22063.9 5427.17 22091.4 5378.83 22114.7 5325.5H22139.7ZM21882.2 4965.5V5108H21854.7V5075.5C21854.7 5047.17 21846.4 5023 21829.7 5003C21813.1 4981.33 21787.2 4970.5 21752.2 4970.5V4965.5H21882.2ZM21882.2 4758V4900.5H21752.2V4895.5C21787.2 4895.5 21813.1 4885.5 21829.7 4865.5C21846.4 4843.83 21854.7 4818.83 21854.7 4790.5V4758H21882.2ZM21997.2 4253V4425.5H21969.7V4388C21969.7 4353 21958.1 4323 21934.7 4298C21913.1 4273 21883.1 4260.5 21844.7 4260.5V4253H21997.2ZM21997.2 4143V4208L21712.2 4183C21763.9 4183 21818.9 4178.83 21877.2 4170.5C21935.6 4160.5 21975.6 4151.33 21997.2 4143ZM21172.2 5523L21204.7 5683H20987.2V5658C20987.2 5658 20993.1 5658 21004.7 5658C21016.4 5658 21022.2 5658 21022.2 5658C21063.9 5658 21098.1 5644.67 21124.7 5618C21151.4 5591.33 21165.6 5559.67 21167.2 5523H21172.2ZM21172.2 4340.5H21167.2C21165.6 4302.17 21151.4 4270.5 21124.7 4245.5C21098.1 4220.5 21063.9 4208 21022.2 4208C21022.2 4208 21016.4 4208 21004.7 4208C20993.1 4208 20987.2 4208 20987.2 4208V4183H21204.7L21172.2 4340.5ZM22792.5 4183V5683H22632.5V4183H22792.5ZM23465 5605.5L23460 5683H22787.5V5605.5H23465ZM23605 5325.5L23467.5 5683H23087.5L23172.5 5605.5C23255.9 5605.5 23322.5 5593.83 23372.5 5570.5C23424.2 5545.5 23465.9 5512.17 23497.5 5470.5C23529.2 5427.17 23556.7 5378.83 23580 5325.5H23605ZM22637.5 5523L22670 5683H22452.5V5658C22452.5 5658 22458.4 5658 22470 5658C22481.7 5658 22487.5 5658 22487.5 5658C22529.2 5658 22563.4 5644.67 22590 5618C22616.7 5591.33 22630.9 5559.67 22632.5 5523H22637.5ZM22785 4343V4183H22970V4208C22970 4208 22965 4208 22955 4208C22945 4208 22940 4208 22940 4208C22900 4208 22865 4221.33 22835 4248C22806.7 4273 22792.5 4304.67 22792.5 4343H22785ZM22637.5 4343H22632.5C22630.9 4304.67 22615.9 4273 22587.5 4248C22559.2 4221.33 22524.2 4208 22482.5 4208C22482.5 4208 22477.5 4208 22467.5 4208C22457.5 4208 22452.5 4208 22452.5 4208V4183H22637.5V4343Z" fill="white"/>
<path fill-rule="evenodd" clip-rule="evenodd" d="M857.202 2320.98C874.638 2343.6 874.008 2355.34 856.197 2339.7C850.376 2334.57 843.777 2330.39 841.532 2330.39C831.41 2330.39 856.184 2360.55 915.296 2420.16C1047.48 2553.51 1215.99 2729.22 1215.99 2733.73C1215.99 2736.31 1231.19 2753.9 1249.78 2772.82C1272.81 2796.27 1286.61 2806.22 1293.08 2804.08C1301.86 2801.18 1340.11 2756.59 1340.11 2749.25C1340.11 2747.46 1269.92 2680.38 1184.13 2600.17C1041.96 2467.21 973.078 2406.4 875.384 2327.57C840.747 2299.62 840.747 2299.62 857.202 2320.98ZM1333.77 2753.3C1336.86 2761.14 1171.3 2605.51 1164.54 2594.22C1161.63 2589.38 1198 2621.88 1245.36 2666.43C1292.71 2710.98 1332.5 2750.07 1333.77 2753.3ZM1287.79 2801.23C1286.2 2801.23 1269.48 2786.09 1250.63 2767.59C1231.77 2749.1 1217.65 2733.96 1219.24 2733.96C1220.83 2733.96 1237.55 2749.1 1256.4 2767.59C1275.25 2786.09 1289.38 2801.23 1287.79 2801.23Z" fill="#EAE7E5"/>
<path d="M808.992 2329.67C808.992 2339.72 869.993 2425.15 923.557 2490.14C1000.77 2583.81 1176.37 2781.13 1214.59 2817.19C1235.84 2837.23 1247.76 2844.96 1250.59 2840.52C1253.03 2836.68 1247.71 2826.42 1237.95 2816.16C1041.01 2609.05 886.332 2433.02 839.418 2362.62C814.975 2325.93 808.992 2319.45 808.992 2329.67Z" fill="#EAE7E5"/>
<path d="M1350.06 2794.97C1306.68 2841.59 1299.15 2866.24 1336.81 2838.34L1356.93 2823.45L1348.74 2842.48C1341.31 2859.73 1341.51 2862.38 1350.94 2870.66C1360.6 2879.15 1362.7 2878.9 1380.51 2867.14C1391.04 2860.18 1404.84 2847.68 1411.18 2839.38C1422.22 2824.91 1422.27 2823.67 1412.66 2809.42C1406.34 2800.06 1398.93 2795.5 1392.65 2797.1C1385.57 2798.89 1382.77 2796.37 1383.04 2788.38C1383.66 2769.38 1371.64 2771.78 1350.06 2794.97Z" fill="#EAE7E5"/>
<path d="M1407.65 2858.68C1373.3 2899.95 1365.59 2925.07 1392.25 2908.92C1407.82 2899.47 1410.74 2900.37 1406.5 2913.33C1401.33 2929.12 1406.04 2927.45 1432.77 2904C1468.06 2873.04 1470.67 2865.38 1451.48 2848.98C1442.62 2841.41 1433.59 2835.13 1431.42 2835.04C1429.25 2834.94 1418.56 2845.58 1407.65 2858.68Z" fill="#EAE7E5"/>
<path d="M1272.09 2869.35C1273.51 2873.51 1279.31 2877.76 1284.97 2878.83C1291.55 2880.07 1294.32 2878.06 1292.67 2873.23C1291.25 2869.08 1285.45 2864.82 1279.79 2863.75C1273.22 2862.52 1270.44 2864.53 1272.09 2869.35Z" fill="#EAE7E5"/>
<path d="M1302.24 2897.05C1296.05 2906.78 1315.39 2922.75 1323.66 2914.73C1328.77 2909.76 1328.61 2906.13 1322.99 2899.55C1314.29 2889.37 1307.64 2888.57 1302.24 2897.05Z" fill="#EAE7E5"/>
<path d="M1334.34 2932.95C1334.34 2945.44 1355.85 2964.02 1365.95 2960.25C1378.52 2955.57 1376.89 2949.41 1359.53 2936.16C1341.51 2922.39 1334.34 2921.48 1334.34 2932.95Z" fill="#EAE7E5"/>
<path d="M2492.41 2778.52C2471.53 2803.04 2439.29 2838.98 2420.76 2858.4C2374.23 2907.19 2216.95 3081.57 2171.42 3134.85C2106.81 3210.47 2014.25 3311.3 2009.44 3311.3C2006.92 3311.3 2004.01 3314.8 2002.98 3319.07C2001.96 3323.35 1953.97 3378.21 1896.35 3440.99C1838.73 3503.76 1768.81 3580.23 1740.98 3610.91C1713.15 3641.59 1683.01 3672.72 1674 3680.08C1665 3687.43 1657.62 3696.89 1657.62 3701.09C1657.62 3705.28 1654.28 3710.73 1650.2 3713.19C1646.12 3715.66 1623.64 3739.12 1600.24 3765.32C1576.83 3791.53 1536.66 3834.55 1510.96 3860.92C1485.26 3887.3 1440.85 3933.78 1412.27 3964.23C1383.7 3994.67 1352.52 4027.7 1342.99 4037.62C1265.67 4118.15 1185.9 4204.68 1162.53 4233.36C1149.97 4248.77 1111.29 4291.66 1076.58 4328.65C1041.86 4365.65 1005.77 4404.6 996.369 4415.23C986.974 4425.85 955.912 4459.56 927.336 4490.14C746.533 4683.58 643.921 4806.44 654.549 4816.76C658.844 4820.93 858.587 4624.95 943.953 4532.81C959.442 4516.09 1001.23 4472.14 1036.81 4435.15C1072.4 4398.15 1140.23 4327.53 1187.55 4278.21C1234.87 4228.88 1299.92 4162.03 1332.12 4129.67C1422.57 4038.72 1524.79 3927.6 1542.26 3901.25C1550.95 3888.13 1586.31 3848.81 1620.83 3813.83C1655.35 3778.87 1701.79 3730.4 1724.01 3706.13C1746.23 3681.86 1768.32 3657.93 1773.09 3652.95C1807.79 3616.64 1866.43 3551.27 1885.66 3527.45C1898.36 3511.72 1913.94 3493.7 1920.3 3487.42C1931.33 3476.5 1971.14 3432.92 2027.09 3370.53C2041.38 3354.59 2077.75 3313.06 2107.92 3278.23C2138.08 3243.4 2167.96 3209.14 2174.3 3202.11C2180.66 3195.08 2199.27 3174.52 2215.68 3156.42C2232.08 3138.33 2261.95 3104.24 2282.07 3080.67C2302.18 3057.1 2347.95 3004.13 2383.77 2962.96C2572.6 2745.98 2564.52 2756.51 2552.81 2742.8C2548.65 2737.94 2541.91 2733.96 2537.82 2733.96C2533.73 2733.96 2513.3 2754.02 2492.41 2778.52Z" fill="black"/>
<path d="M2116.81 3606.92C2108.75 3615.37 2102.15 3625.37 2102.15 3629.14C2102.15 3632.91 2117.2 3650.6 2135.58 3668.43C2153.96 3686.27 2198.45 3731.13 2234.45 3768.13C2313.99 3849.88 2641.93 4176.9 2812.15 4344.23C2980.01 4509.22 3228.26 4742.14 3232.19 4738.33C3240.53 4730.22 3176.37 4657.53 3029.49 4508.66C2975.09 4453.51 2907.2 4383.71 2878.62 4353.54C2587.73 4046.38 2409.55 3862.78 2239.48 3694.95C2195.57 3651.61 2155.65 3610.63 2150.78 3603.86C2139.28 3587.92 2134.55 3588.35 2116.81 3606.92Z" fill="black"/>
<path d="M1459.27 2938.13C1454.22 2945.61 1451.98 2952.55 1454.28 2953.55C1456.57 2954.55 1462.36 2962.11 1467.12 2970.36C1476.57 2986.71 1498.15 3009.11 1691.71 3203.5C1763.13 3275.22 1824.08 3333.1 1827.15 3332.11C1830.2 3331.12 1839.07 3322.3 1846.85 3312.51L1860.98 3294.7L1670.5 3109.63C1565.73 3007.83 1477.41 2924.54 1474.23 2924.54C1471.05 2924.54 1464.31 2930.66 1459.27 2938.13Z" fill="black"/>
<path fill-rule="evenodd" clip-rule="evenodd" d="M3105.08 1822.58C3087.13 1833.08 3057.4 1852.8 3039.03 1866.41C2978.03 1911.59 2920.81 1949.89 2925.35 1942.5C2935.66 1925.72 2977.5 1871.47 3001.45 1843.86C3015.61 1827.53 3025.89 1812.89 3024.29 1811.34C3021.22 1808.36 2956.02 1858.8 2936.35 1879.37C2921.01 1895.41 2898.93 1922.89 2898.38 1926.62C2896.3 1940.7 2891.64 1954.33 2874.1 1997.55C2854.45 2046 2829.47 2119.84 2821.26 2153.82C2815.54 2177.46 2825.14 2165.39 2839.33 2131.11C2852.66 2098.89 2880.95 2053.33 2885.11 2057.36C2886.64 2058.84 2878.62 2083.1 2867.29 2111.25C2849.05 2156.58 2826.02 2234.8 2832.87 2228.13C2834.28 2226.76 2846.7 2203.18 2860.47 2175.72C2883.15 2130.47 2904.6 2101.5 2904.6 2116.11C2904.6 2119.25 2899.67 2137.84 2893.66 2157.44C2877.68 2209.46 2874.48 2225.3 2880.71 2221.56C2883.7 2219.77 2903.69 2193.04 2925.13 2162.17C2946.57 2131.3 2965.17 2107.06 2966.45 2108.32C2967.75 2109.57 2952.9 2141.4 2933.47 2179.05C2914.03 2216.69 2899.28 2248.62 2900.69 2249.99C2902.1 2251.35 2916.74 2234.47 2933.23 2212.45C2949.72 2190.44 2964.48 2173.66 2966.02 2175.15C2967.56 2176.65 2956.9 2201.47 2942.33 2230.31L2915.84 2282.74L2937.64 2257.85C2980.54 2208.85 2985.06 2204.34 2985.23 2210.35C2985.34 2213.69 2972.92 2236.4 2957.65 2260.8C2908.46 2339.38 2908.09 2340.19 2934.41 2311.3C2948.18 2296.18 2969.47 2273.47 2981.73 2260.85L3004.02 2237.9L2988.43 2264.97C2979.87 2279.85 2973.73 2292.86 2974.81 2293.88C2975.88 2294.89 3002.74 2273.92 3034.49 2247.27C3080.85 2208.35 3088.92 2203.22 3075.47 2221.16C3066.25 2233.45 3050.58 2252.33 3040.64 2263.13C3003.83 2303.08 2998.72 2310.27 3009.95 2306.29C3015.51 2304.32 3020.06 2304.33 3020.06 2306.3C3020.06 2308.27 3015.51 2314.87 3009.95 2320.95C2986.15 2347.02 3027.92 2317.15 3079.53 2271.18C3133.91 2222.74 3150.12 2212.77 3132.83 2238.39C3121.98 2254.47 3123.92 2262.68 3135.4 2249.25C3139.42 2244.55 3145.57 2240.7 3149.07 2240.7C3159.51 2240.7 3072.61 2323.22 3023.99 2359.48C2999.16 2377.99 2980.13 2394.38 2981.69 2395.9C2983.25 2397.41 2998.37 2390.95 3015.28 2381.53C3073.97 2348.84 3090.47 2340.83 3093.35 2343.64C3094.96 2345.19 3090.84 2352.12 3084.21 2359.03C3062.6 2381.54 3076.5 2377.3 3121.53 2347.63C3191.46 2301.56 3185.17 2318.45 3109.5 2379.95L3086.45 2398.68L3121.09 2380.63C3140.14 2370.71 3166.77 2356.37 3180.26 2348.76C3193.75 2341.15 3204.79 2336.36 3204.79 2338.11C3204.79 2339.87 3182.32 2357.76 3154.85 2377.88C3102.62 2416.13 3100.79 2419.93 3141.29 2406.06C3169.72 2396.32 3170.16 2396.25 3170.16 2401.96C3170.16 2404.32 3163.02 2410.56 3154.28 2415.82C3124.29 2433.87 3154.78 2425.67 3192.77 2405.45C3230.15 2385.57 3294.33 2336.98 3289.46 2332.25C3288.09 2330.92 3277.21 2336.26 3265.29 2344.12C3228.34 2368.46 3230.93 2360.2 3275.27 2312.17C3326.26 2256.94 3347.91 2229.8 3368.43 2195.36C3390.46 2158.41 3387.59 2157.56 3354.4 2191.26L3325.04 2221.09L3343.24 2190.26C3366.74 2150.48 3396.63 2088.78 3393.75 2085.99C3392.52 2084.79 3376.13 2107.98 3357.33 2137.52C3338.53 2167.05 3309.38 2208.02 3292.56 2228.57C3263.04 2264.61 3217.3 2305.15 3211.96 2299.98C3210.54 2298.59 3227.4 2276.5 3249.43 2250.86C3292.34 2200.94 3319.4 2163.35 3330.6 2138.14C3340.89 2115 3339.61 2115.16 3316.56 2139.95C3305 2152.36 3294.43 2161.44 3293.07 2160.12C3291.7 2158.79 3296.24 2146.75 3303.17 2133.35C3317.9 2104.82 3313.28 2108.75 3282.44 2151.02C3256.36 2186.76 3199.76 2246.31 3191.87 2246.31C3188.9 2246.31 3194.79 2235.59 3204.95 2222.49C3232.51 2186.95 3270.82 2128.06 3278.78 2108.98C3284.84 2094.46 3284.72 2093.51 3277.86 2101.97C3260.68 2123.18 3264.48 2109.52 3289.56 2059.93C3323.33 1993.18 3325.94 1986.19 3320.41 1977.5C3317.27 1972.57 3308.43 1982.5 3292.55 2008.8C3250.94 2077.67 3190.36 2155.69 3183.59 2149.12C3182.09 2147.66 3188 2135.51 3196.72 2122.12C3211.96 2098.72 3245.2 2031.71 3245.2 2024.42C3245.2 2022.49 3241.31 2022.35 3236.55 2024.13C3231.79 2025.9 3227.89 2026.08 3227.89 2024.53C3227.89 2022.98 3241.91 1995.94 3259.06 1964.45C3276.21 1932.96 3292.03 1901.36 3294.21 1894.23C3297.87 1882.24 3297.26 1881.81 3286.12 1888.56C3279.49 1892.59 3274.07 1897.99 3274.07 1900.58C3274.07 1908.07 3205.92 2008.17 3193.22 2019.32C3175.59 2034.81 3179.38 2024.81 3205.01 1988.16C3217.83 1969.83 3227.14 1954.84 3225.71 1954.84C3224.27 1954.84 3199.27 1982.58 3170.16 2016.49C3141.04 2050.4 3115.99 2078.15 3114.49 2078.15C3111.19 2078.15 3111.33 2077.92 3155.72 2010.89C3175.12 1981.6 3193.09 1953.86 3195.65 1949.23C3198.22 1944.6 3170.15 1970.04 3133.28 2005.75C3096.4 2041.47 3066.24 2069.71 3066.24 2068.51C3066.24 2064.85 3112.79 1998.96 3140.6 1963.25L3166.79 1929.61L3141.98 1951.07C3128.34 1962.87 3115.74 1971.13 3113.99 1969.43C3109.17 1964.76 3155.48 1907.46 3204.47 1857.5C3228.46 1833.03 3242.89 1815.71 3236.55 1819.02C3206.54 1834.67 3167.74 1866.59 3124.03 1911.56C3097.73 1938.63 3074.8 1959.41 3073.09 1957.74C3071.38 1956.08 3077.55 1946.54 3086.83 1936.57C3099.23 1923.2 3097.03 1924.33 3078.5 1940.82C3064.63 1953.16 3033.87 1986.75 3010.13 2015.47C2933.5 2108.2 2954.31 2053.04 3034.99 1949.57C3081.69 1889.68 3083.23 1886.85 3059.65 1904.47C3045.81 1914.82 3031.24 1925.64 3027.27 1928.54C3022.61 1931.93 3020.06 1931.64 3020.06 1927.74C3020.06 1924.42 3047.28 1895.1 3080.56 1862.59C3113.83 1830.09 3140.31 1803.5 3139.39 1803.5C3138.47 1803.5 3123.03 1812.08 3105.08 1822.58ZM2954.09 2015.23C2944.12 2024.47 2943.96 2024.32 2950.58 2011.81C2954.38 2004.61 2959.07 2000.26 2961 2002.13C2962.94 2004.01 2959.84 2009.9 2954.09 2015.23Z" fill="#7E4430"/>
<path d="M2737.18 2401.94C2737.18 2404.99 2741.07 2410.62 2745.83 2414.47C2750.6 2418.3 2754.5 2423.96 2754.5 2427.05C2754.5 2430.14 2750.54 2429.47 2745.7 2425.56C2740.86 2421.66 2735.84 2419.49 2734.56 2420.74C2730.55 2424.63 2794.93 2486.81 2820.98 2504.21C2834.6 2513.31 2850.98 2527.73 2857.37 2536.26C2863.78 2544.79 2870.87 2549.97 2873.14 2547.77C2875.41 2545.56 2869.13 2534.76 2859.18 2523.76C2835.4 2497.46 2835.99 2491.54 2860.13 2514.26C2893.46 2545.63 2897.56 2534.9 2867.07 2496.12C2844.81 2467.81 2842.55 2462.1 2855.53 2466.94C2884.19 2477.62 2834.03 2430.78 2797.59 2412.84C2774.51 2401.48 2737.18 2394.74 2737.18 2401.94Z" fill="#7E4430"/>
<path d="M2698.11 2533.58C2662.42 2561.47 2617.79 2595.69 2604.9 2605.04C2593.46 2613.34 2593.44 2613.98 2603.68 2655.18C2609.39 2678.13 2617.72 2698.78 2622.21 2701.07C2626.71 2703.36 2648.09 2709.59 2669.73 2714.92C2728.03 2729.29 2755.18 2748.22 2772.19 2786.34C2779.92 2803.67 2788.04 2817.9 2790.22 2817.94C2794.36 2818.05 2798.64 2791.24 2802.5 2740.97C2805.09 2707.11 2797.42 2701.35 2791.31 2732.56L2787.19 2753.58L2782.51 2736.78C2779.93 2727.54 2779.09 2706.1 2780.64 2689.14L2783.47 2658.29L2773.31 2684.52C2762.91 2711.38 2754.49 2723.97 2754.49 2712.67C2754.49 2701.93 2776.35 2597.28 2780.96 2585.9C2784.06 2578.29 2783.32 2576.38 2778.44 2579.31C2770.44 2584.1 2743.47 2635.18 2728.58 2673.71C2722.91 2688.35 2716.04 2700.33 2713.3 2700.33C2706.35 2700.33 2707.43 2690.04 2717.14 2663.9C2729.71 2630.02 2727.69 2629.53 2702.58 2660.37C2680.33 2687.7 2658.49 2704.27 2652.45 2698.42C2650.85 2696.86 2663.69 2675.84 2680.98 2651.72C2711.47 2609.18 2737.27 2565.27 2737.09 2556.22C2737.04 2553.78 2716.52 2572.6 2691.51 2598.04C2622.62 2668.07 2622.47 2660.03 2691.09 2574.26C2713.27 2546.54 2731.4 2521.95 2731.4 2519.61C2731.4 2511.29 2721.1 2515.61 2698.11 2533.58Z" fill="#7E4430"/>
<path d="M2530.86 2498.72C2489.28 2502.97 2430.6 2527.53 2430.88 2540.58C2430.95 2543.67 2441.6 2546.92 2454.57 2547.82C2481.49 2549.67 2526.43 2565.64 2563.2 2586.42C2593.47 2603.53 2599.08 2601.38 2641.33 2556.58L2669.62 2526.6L2616.69 2552.64C2566.62 2577.27 2548.49 2581.13 2563.07 2564.08C2566.63 2559.9 2583.25 2549.27 2599.97 2540.46C2650.66 2513.74 2660.35 2499.49 2616.93 2515.51C2582.53 2528.21 2514.22 2536.74 2520.03 2527.61C2522.19 2524.2 2538.17 2517.07 2555.53 2511.76C2572.88 2506.45 2587.08 2500.04 2587.08 2497.52C2587.08 2495 2583.84 2493.28 2579.87 2493.7C2575.89 2494.12 2553.85 2496.38 2530.86 2498.72Z" fill="#7E4430"/>
<path fill-rule="evenodd" clip-rule="evenodd" d="M2954.09 2015.23C2944.12 2024.48 2943.97 2024.33 2950.58 2011.81C2954.38 2004.61 2959.07 2000.26 2961 2002.13C2962.95 2004.01 2959.84 2009.9 2954.09 2015.23ZM1333.77 2753.31C1336.86 2761.14 1171.3 2605.51 1164.54 2594.22C1161.64 2589.38 1198.01 2621.88 1245.36 2666.43C1292.71 2710.98 1332.5 2750.07 1333.77 2753.31ZM1287.79 2801.23C1286.2 2801.23 1269.49 2786.09 1250.63 2767.59C1231.77 2749.1 1217.65 2733.96 1219.24 2733.96C1220.83 2733.96 1237.55 2749.1 1256.4 2767.59C1275.25 2786.09 1289.38 2801.23 1287.79 2801.23Z" fill="black"/>
<path fill-rule="evenodd" clip-rule="evenodd" d="M3204.79 1694.95C3018.59 1730.25 2866.84 1845.68 2804.2 1999.68C2779.85 2059.55 2771.83 2103.57 2765.38 2212.68C2762.01 2269.71 2758.24 2321.64 2757 2328.07C2755.76 2334.5 2738.85 2359.35 2719.41 2383.28C2677.48 2434.91 2658.54 2444.76 2584.12 2453.65C2515.55 2461.82 2477.25 2471.86 2445.41 2489.98C2414.44 2507.6 2381.12 2535.13 2373.06 2549.76C2364.62 2565.07 2375.68 2580.99 2397.97 2585.62C2437.24 2593.77 2503.91 2616.69 2516.93 2626.52L2530.48 2636.75L2496.86 2675.55C2478.37 2696.89 2418.9 2763.53 2364.71 2823.65C2310.52 2883.77 2197.11 3011.22 2112.68 3106.88C2028.25 3202.55 1955.14 3284.07 1950.21 3288.04C1942.48 3294.26 1926.55 3280.94 1835.52 3192.11C1777.37 3135.37 1678.48 3041.62 1615.77 2983.76C1534.41 2908.7 1501.76 2875.01 1501.76 2866.14C1501.76 2857.14 1438.38 2793.84 1272.28 2636.96C1049.89 2426.91 999.748 2383.51 893.767 2309.29C848.625 2277.69 843.622 2272.39 843.544 2256.05C843.402 2225.57 826.907 2167.6 807.363 2128.9C776.691 2068.15 690.339 1990.9 601.164 1944.42C556.158 1920.96 382.385 1859.64 360.759 1859.58C335.028 1859.52 341.287 1875.98 384.527 1922.15C433.834 1974.79 461.648 2024.35 483.112 2097.77C528.09 2251.63 605.534 2329.35 733.034 2348.58L779.637 2355.61L806.662 2394.74C876.695 2496.13 1017.28 2659.92 1149.59 2794.27C1201.98 2847.47 1262.68 2910.53 1284.46 2934.4C1306.24 2958.26 1334.82 2983.73 1347.96 2990.98C1363.12 2999.34 1401.78 3038.31 1453.66 3097.48C1498.64 3148.8 1589.57 3247.19 1655.71 3316.14C1721.85 3385.07 1779.55 3446.25 1783.91 3452.09C1793.11 3464.38 1796.01 3460.32 1709.58 3555.75C1679.42 3589.05 1608.11 3668.11 1551.12 3731.45C1494.13 3794.78 1411.28 3885.7 1367.02 3933.49C1322.77 3981.27 1266.78 4041.75 1242.62 4067.9C1218.44 4094.05 1155.74 4160.89 1103.27 4216.44C908.075 4423.08 779.487 4569.66 681.676 4697.04C615.661 4783 594.676 4820.42 590.86 4858.98C588.528 4882.57 590.156 4889.01 601.413 4900.64C645.196 4945.89 740.243 4886.17 953.827 4679.21C1028.72 4606.63 1152.12 4482.87 1228.05 4404.16C1303.97 4325.45 1421.94 4203.12 1490.2 4132.31C1558.45 4061.49 1646.79 3970.67 1686.48 3930.49C1775.47 3840.41 1822.44 3791.95 1899.79 3710.44L1959.84 3647.15L2419.23 4094.94C3080.49 4739.5 3243.9 4885.47 3338.92 4916.49C3371.03 4926.97 3389.64 4922.41 3404.5 4900.38C3413 4887.78 3413.35 4882.77 3407.06 4862.3C3397.13 4829.96 3360.34 4770.06 3324.6 4728C3264.54 4657.34 3065.36 4448.07 2832.46 4210.95C2768.88 4146.2 2683.11 4057.98 2641.86 4014.89C2542.8 3911.4 2319.38 3684.89 2201.24 3568.17C2091.6 3459.85 2094.78 3481.3 2175.71 3396.32C2407.75 3152.64 2515.45 3025.73 2641.47 2847.47C2671.02 2805.67 2689.63 2784.41 2696.67 2784.41C2709.89 2784.41 2736.03 2813.85 2740.6 2833.89C2753.63 2890.98 2757.6 2899.32 2771.79 2899.32C2781.26 2899.32 2790.05 2893.18 2798.95 2880.36C2816.13 2855.61 2822.24 2833.78 2832.89 2759.19C2849.12 2645.48 2869.42 2589.81 2907.47 2554.6C2919.13 2543.81 2932.26 2528.35 2936.63 2520.24C2943.64 2507.26 2949.25 2505.05 2983.76 2501.7C3136.59 2486.85 3315.04 2386.63 3404.45 2265.43C3477.36 2166.59 3511.25 2033.3 3491.85 1921.62C3468.6 1787.68 3379.67 1698.9 3263.96 1694.07C3239.36 1693.05 3212.73 1693.44 3204.79 1694.95ZM3039.03 1866.41C3057.4 1852.81 3087.13 1833.08 3105.08 1822.58C3123.03 1812.08 3138.47 1803.5 3139.39 1803.5C3140.31 1803.5 3113.83 1830.1 3080.56 1862.6C3047.28 1895.11 3020.06 1924.42 3020.06 1927.74C3020.06 1931.64 3022.61 1931.93 3027.27 1928.54C3031.24 1925.65 3045.81 1914.82 3059.65 1904.47C3083.23 1886.85 3081.69 1889.68 3035 1949.57C2954.31 2053.04 2933.5 2108.2 3010.13 2015.48C3033.87 1986.75 3064.63 1953.16 3078.5 1940.82C3097.03 1924.34 3099.23 1923.21 3086.83 1936.57C3077.55 1946.55 3071.38 1956.09 3073.09 1957.75C3074.8 1959.41 3097.73 1938.63 3124.03 1911.57C3167.74 1866.59 3206.54 1834.67 3236.55 1819.03C3242.89 1815.72 3228.46 1833.03 3204.47 1857.5C3155.48 1907.46 3109.17 1964.76 3113.99 1969.43C3115.74 1971.13 3128.34 1962.87 3141.98 1951.07L3166.79 1929.61L3140.6 1963.25C3112.79 1998.96 3066.24 2064.85 3066.24 2068.51C3066.24 2069.71 3096.4 2041.47 3133.28 2005.76C3170.15 1970.04 3198.22 1944.61 3195.65 1949.23C3193.09 1953.86 3175.12 1981.61 3155.72 2010.89C3111.33 2077.92 3111.19 2078.16 3114.49 2078.16C3115.99 2078.16 3141.04 2050.4 3170.16 2016.49C3199.27 1982.59 3224.27 1954.84 3225.71 1954.84C3227.14 1954.84 3217.83 1969.83 3205.01 1988.16C3179.38 2024.81 3175.59 2034.81 3193.22 2019.32C3205.92 2008.17 3274.07 1908.07 3274.07 1900.58C3274.07 1897.99 3279.49 1892.59 3286.12 1888.56C3297.26 1881.82 3297.87 1882.24 3294.21 1894.23C3292.03 1901.36 3276.21 1932.96 3259.06 1964.45C3241.91 1995.94 3227.89 2022.98 3227.89 2024.53C3227.89 2026.08 3231.79 2025.9 3236.55 2024.13C3241.31 2022.35 3245.2 2022.49 3245.2 2024.42C3245.2 2031.72 3211.96 2098.72 3196.72 2122.12C3188 2135.52 3182.09 2147.66 3183.59 2149.12C3190.36 2155.69 3250.94 2077.67 3292.55 2008.81C3308.43 1982.51 3317.28 1972.57 3320.41 1977.5C3325.94 1986.19 3323.33 1993.19 3289.56 2059.94C3264.48 2109.52 3260.68 2123.19 3277.86 2101.98C3284.72 2093.51 3284.84 2094.46 3278.78 2108.98C3270.82 2128.06 3232.51 2186.95 3204.95 2222.49C3194.79 2235.59 3188.9 2246.31 3191.87 2246.31C3199.76 2246.31 3256.36 2186.76 3282.44 2151.02C3313.28 2108.76 3317.9 2104.82 3303.17 2133.35C3296.25 2146.75 3291.7 2158.8 3293.07 2160.12C3294.43 2161.44 3305 2152.37 3316.56 2139.95C3339.61 2115.17 3340.89 2115.01 3330.6 2138.14C3319.4 2163.35 3292.34 2200.94 3249.43 2250.86C3227.4 2276.5 3210.54 2298.59 3211.96 2299.98C3217.3 2305.15 3263.04 2264.61 3292.56 2228.57C3309.38 2208.03 3338.53 2167.05 3357.33 2137.52C3376.13 2107.98 3392.52 2084.79 3393.75 2085.99C3396.63 2088.78 3366.74 2150.48 3343.24 2190.26L3325.04 2221.09L3354.4 2191.27C3387.59 2157.56 3390.46 2158.41 3368.43 2195.37C3347.91 2229.8 3326.26 2256.94 3275.27 2312.17C3230.93 2360.2 3228.34 2368.46 3265.29 2344.13C3277.21 2336.26 3288.09 2330.92 3289.46 2332.25C3294.33 2336.98 3230.15 2385.58 3192.77 2405.46C3154.78 2425.67 3124.29 2433.88 3154.28 2415.83C3163.02 2410.56 3170.16 2404.33 3170.16 2401.96C3170.16 2396.26 3169.72 2396.32 3141.29 2406.06C3100.79 2419.93 3102.62 2416.13 3154.85 2377.89C3182.32 2357.76 3204.79 2339.87 3204.79 2338.12C3204.79 2336.37 3193.75 2341.15 3180.26 2348.76C3166.77 2356.37 3140.14 2370.71 3121.09 2380.64L3086.45 2398.68L3109.5 2379.95C3185.17 2318.46 3191.46 2301.57 3121.53 2347.64C3076.5 2377.3 3062.6 2381.55 3084.21 2359.04C3090.84 2352.12 3094.96 2345.19 3093.35 2343.64C3090.47 2340.83 3073.97 2348.84 3015.28 2381.53C2998.37 2390.95 2983.25 2397.42 2981.69 2395.9C2980.13 2394.38 2999.16 2378 3023.99 2359.48C3072.61 2323.23 3159.51 2240.7 3149.07 2240.7C3145.57 2240.7 3139.42 2244.55 3135.4 2249.25C3123.92 2262.68 3121.98 2254.47 3132.83 2238.39C3150.13 2212.77 3133.91 2222.74 3079.53 2271.18C3027.92 2317.15 2986.15 2347.03 3009.96 2320.95C3015.51 2314.87 3020.06 2308.28 3020.06 2306.3C3020.06 2304.33 3015.51 2304.32 3009.96 2306.29C2998.72 2310.27 3003.83 2303.08 3040.64 2263.13C3050.58 2252.34 3066.25 2233.45 3075.47 2221.17C3088.92 2203.22 3080.85 2208.36 3034.49 2247.27C3002.74 2273.92 2975.88 2294.89 2974.81 2293.88C2973.73 2292.86 2979.87 2279.85 2988.43 2264.97L3004.02 2237.9L2981.73 2260.86C2969.47 2273.48 2948.18 2296.18 2934.41 2311.3C2908.09 2340.19 2908.46 2339.38 2957.65 2260.8C2972.92 2236.4 2985.34 2213.7 2985.23 2210.35C2985.06 2204.35 2980.54 2208.86 2937.64 2257.85L2915.84 2282.74L2942.33 2230.31C2956.9 2201.47 2967.56 2176.65 2966.02 2175.15C2964.48 2173.66 2949.72 2190.44 2933.23 2212.45C2916.74 2234.47 2902.1 2251.36 2900.69 2249.99C2899.28 2248.62 2914.03 2216.7 2933.47 2179.05C2952.9 2141.4 2967.75 2109.57 2966.45 2108.32C2965.17 2107.06 2946.57 2131.3 2925.13 2162.17C2903.69 2193.04 2883.7 2219.77 2880.71 2221.56C2874.48 2225.3 2877.68 2209.47 2893.66 2157.44C2899.67 2137.85 2904.6 2119.25 2904.6 2116.11C2904.6 2101.5 2883.15 2130.47 2860.47 2175.72C2846.7 2203.18 2834.29 2226.77 2832.87 2228.13C2826.02 2234.8 2849.05 2156.58 2867.29 2111.25C2878.62 2083.1 2886.64 2058.85 2885.11 2057.37C2880.95 2053.33 2852.66 2098.89 2839.33 2131.12C2825.14 2165.39 2815.54 2177.46 2821.26 2153.83C2829.47 2119.84 2854.45 2046 2874.1 1997.55C2891.64 1954.33 2896.3 1940.7 2898.38 1926.63C2898.93 1922.89 2921.01 1895.42 2936.35 1879.38C2956.02 1858.8 3021.22 1808.37 3024.29 1811.34C3025.89 1812.89 3015.61 1827.53 3001.45 1843.86C2977.5 1871.47 2935.66 1925.72 2925.35 1942.5C2920.81 1949.9 2978.03 1911.59 3039.03 1866.41ZM2820.7 2061.69C2824.9 2036.57 2847.87 1988.2 2867.4 1963.33C2875.91 1952.5 2883.83 1943.63 2885.01 1943.63C2888.24 1943.63 2862.8 1997.66 2838.83 2041.72C2821.2 2074.13 2818.04 2077.6 2820.7 2061.69ZM616.151 2154.11C594.826 2128.85 548.272 2047.98 540.479 2022.66L536.333 2009.21L554.317 2021.64C564.206 2028.48 572.3 2031.39 572.3 2028.09C572.3 2014.51 586.72 2024.5 630.278 2068.23C655.539 2093.59 676.213 2111.32 676.213 2107.61C676.213 2103.9 659.381 2080.62 638.81 2055.88C618.236 2031.13 603.053 2010.89 605.067 2010.89C607.082 2010.89 617.248 2017.2 627.657 2024.9C649.979 2041.43 655.767 2042.5 650.498 2029.11C648.319 2023.57 655.974 2027.84 668.069 2038.92C679.853 2049.7 687.341 2054.89 684.7 2050.42C676.479 2036.53 712.446 2064.24 740.724 2093.59C767.801 2121.71 781.272 2142.67 788.416 2167.84L792.394 2181.85L780.616 2167.84C766.536 2151.08 765.537 2155.51 777.242 2182.71C790.135 2212.67 788.461 2224.42 773.79 2207.07L761.929 2193.06L764.79 2207.07C766.367 2214.78 769.501 2227.39 771.759 2235.1C775.114 2246.55 769.929 2243.51 743.358 2218.47C708.598 2185.71 701.901 2186.08 725.287 2219.49C743.501 2245.52 743.352 2247.59 723.84 2239.43C699.124 2229.09 639.706 2182.02 616.151 2154.11ZM552.7 2126.52C547.602 2114.58 543.435 2102.44 543.435 2099.56C543.435 2089.62 555.159 2101.39 574.511 2130.76C585.179 2146.95 606.176 2170.11 621.18 2182.23C636.178 2194.35 668.095 2222.59 692.11 2244.99L735.76 2285.71L701.655 2271.64C679.217 2262.38 672.378 2260.92 681.676 2267.36C689.443 2272.74 701.129 2281.68 707.65 2287.22C719.116 2296.97 718.837 2296.99 699.306 2287.83C688.191 2282.61 664.812 2269.61 647.349 2258.94L615.597 2239.54L641.334 2265.34C682.675 2306.8 649.064 2294.88 603.358 2251.88C574.257 2224.49 553.532 2192.93 537.118 2150.99C524.99 2120 527.224 2116.85 547.995 2135.61L561.96 2148.22L552.7 2126.52ZM856.197 2339.7C874.009 2355.34 874.638 2343.61 857.203 2320.98C840.748 2299.62 840.748 2299.62 875.385 2327.57C973.079 2406.4 1041.96 2467.21 1184.13 2600.17C1269.92 2680.39 1340.11 2747.47 1340.11 2749.25C1340.11 2756.6 1301.86 2801.19 1293.08 2804.09C1286.61 2806.22 1272.81 2796.27 1249.79 2772.82C1231.19 2753.9 1215.99 2736.31 1215.99 2733.74C1215.99 2729.22 1047.49 2553.51 915.297 2420.17C856.184 2360.55 831.41 2330.39 841.533 2330.39C843.778 2330.39 850.377 2334.57 856.197 2339.7ZM923.557 2490.14C869.992 2425.16 808.992 2339.72 808.992 2329.67C808.992 2319.46 814.974 2325.93 839.418 2362.62C886.331 2433.03 1041.01 2609.06 1237.95 2816.16C1247.71 2826.42 1253.03 2836.68 1250.59 2840.53C1247.76 2844.96 1235.84 2837.24 1214.59 2817.19C1176.37 2781.14 1000.77 2583.81 923.557 2490.14ZM2878.43 2445.59C2843.29 2420.24 2780.71 2368.64 2778.55 2363.23C2775.73 2356.17 2781.68 2357.28 2802.41 2367.69C2831.99 2382.53 2861.38 2407.69 2882.08 2435.9L2901.33 2462.11L2878.43 2445.59ZM2745.84 2414.47C2741.07 2410.63 2737.18 2405 2737.18 2401.95C2737.18 2394.74 2774.52 2401.48 2797.6 2412.84C2834.03 2430.78 2884.19 2477.62 2855.53 2466.94C2842.56 2462.11 2844.82 2467.81 2867.07 2496.12C2897.56 2534.9 2893.46 2545.63 2860.14 2514.26C2836 2491.55 2835.4 2497.47 2859.18 2523.76C2869.13 2534.76 2875.42 2545.57 2873.15 2547.77C2870.88 2549.97 2863.78 2544.79 2857.38 2536.26C2850.98 2527.73 2834.6 2513.31 2820.98 2504.21C2794.94 2486.81 2730.56 2424.64 2734.57 2420.74C2735.84 2419.5 2740.87 2421.66 2745.7 2425.56C2750.55 2429.47 2754.5 2430.14 2754.5 2427.05C2754.5 2423.97 2750.6 2418.3 2745.84 2414.47ZM2430.89 2540.58C2430.61 2527.53 2489.29 2502.97 2530.86 2498.72C2553.85 2496.38 2575.9 2494.12 2579.87 2493.7C2583.84 2493.28 2587.08 2495.01 2587.08 2497.52C2587.08 2500.04 2572.88 2506.45 2555.53 2511.76C2538.17 2517.07 2522.2 2524.2 2520.03 2527.61C2514.22 2536.74 2582.53 2528.21 2616.93 2515.51C2660.35 2499.49 2650.66 2513.74 2599.97 2540.46C2583.25 2549.27 2566.64 2559.91 2563.07 2564.08C2548.49 2581.14 2566.62 2577.27 2616.69 2552.64L2669.62 2526.6L2641.34 2556.58C2599.08 2601.38 2593.47 2603.53 2563.2 2586.42C2526.43 2565.64 2481.49 2549.67 2454.57 2547.82C2441.61 2546.92 2430.95 2543.67 2430.89 2540.58ZM2604.9 2605.05C2617.79 2595.7 2662.42 2561.47 2698.12 2533.58C2721.11 2515.61 2731.41 2511.29 2731.41 2519.62C2731.41 2521.95 2713.27 2546.55 2691.09 2574.26C2622.48 2660.04 2622.63 2668.07 2691.51 2598.04C2716.53 2572.6 2737.05 2553.79 2737.1 2556.23C2737.27 2565.28 2711.47 2609.19 2680.99 2651.72C2663.7 2675.84 2650.85 2696.86 2652.46 2698.42C2658.49 2704.28 2680.34 2687.7 2702.59 2660.38C2727.69 2629.53 2729.71 2630.02 2717.14 2663.9C2707.44 2690.04 2706.36 2700.33 2713.3 2700.33C2716.05 2700.33 2722.92 2688.35 2728.58 2673.71C2743.48 2635.18 2770.45 2584.11 2778.44 2579.31C2783.33 2576.38 2784.06 2578.29 2780.97 2585.91C2776.35 2597.28 2754.5 2701.93 2754.5 2712.67C2754.5 2723.97 2762.92 2711.38 2773.31 2684.52L2783.47 2658.29L2780.65 2689.14C2779.1 2706.1 2779.94 2727.54 2782.51 2736.79L2787.2 2753.58L2791.32 2732.56C2797.43 2701.35 2805.1 2707.11 2802.5 2740.97C2798.64 2791.24 2794.37 2818.05 2790.23 2817.95C2788.04 2817.9 2779.92 2803.67 2772.19 2786.34C2755.19 2748.22 2728.03 2729.29 2669.74 2714.93C2648.09 2709.59 2626.71 2703.36 2622.21 2701.07C2617.72 2698.79 2609.39 2678.13 2603.69 2655.18C2593.45 2613.99 2593.47 2613.35 2604.9 2605.05ZM2420.76 2858.4C2439.3 2838.98 2471.53 2803.04 2492.42 2778.53C2513.3 2754.02 2533.73 2733.96 2537.82 2733.96C2541.92 2733.96 2548.66 2737.94 2552.81 2742.8C2564.53 2756.51 2572.61 2745.99 2383.78 2962.97C2347.95 3004.14 2302.18 3057.1 2282.07 3080.68C2261.96 3104.24 2232.08 3138.33 2215.68 3156.43C2199.28 3174.52 2180.66 3195.08 2174.31 3202.11C2167.96 3209.15 2138.09 3243.4 2107.92 3278.23C2077.76 3313.06 2041.39 3354.59 2027.1 3370.53C1971.15 3432.93 1931.33 3476.5 1920.3 3487.42C1913.95 3493.7 1898.36 3511.72 1885.66 3527.45C1866.43 3551.27 1807.79 3616.64 1773.09 3652.95C1768.33 3657.93 1746.24 3681.86 1724.02 3706.13C1701.79 3730.4 1655.36 3778.87 1620.84 3813.83C1586.31 3848.81 1550.95 3888.14 1542.27 3901.25C1524.79 3927.61 1422.57 4038.72 1332.12 4129.67C1299.92 4162.03 1234.87 4228.88 1187.55 4278.21C1140.24 4327.53 1072.4 4398.16 1036.82 4435.15C1001.23 4472.15 959.446 4516.09 943.958 4532.82C858.592 4624.95 658.849 4820.93 654.553 4816.76C643.925 4806.44 746.538 4683.58 927.34 4490.14C955.916 4459.56 986.978 4425.86 996.374 4415.23C1005.77 4404.61 1041.86 4365.65 1076.58 4328.65C1111.3 4291.66 1149.98 4248.77 1162.53 4233.36C1185.9 4204.68 1265.68 4118.15 1343 4037.62C1352.52 4027.7 1383.7 3994.67 1412.28 3964.23C1440.85 3933.78 1485.26 3887.3 1510.96 3860.92C1536.67 3834.55 1576.84 3791.53 1600.24 3765.33C1623.64 3739.12 1646.12 3715.66 1650.21 3713.2C1654.29 3710.73 1657.63 3705.29 1657.63 3701.09C1657.63 3696.89 1665 3687.44 1674.01 3680.08C1683.01 3672.72 1713.15 3641.59 1740.98 3610.92C1768.81 3580.23 1838.73 3503.76 1896.35 3440.99C1953.97 3378.21 2001.96 3323.35 2002.99 3319.08C2004.01 3314.8 2006.92 3311.3 2009.45 3311.3C2014.26 3311.3 2106.81 3210.47 2171.43 3134.85C2216.95 3081.57 2374.23 2907.2 2420.76 2858.4ZM1336.81 2838.35C1299.15 2866.24 1306.68 2841.6 1350.06 2794.97C1371.64 2771.78 1383.66 2769.38 1383.04 2788.38C1382.77 2796.37 1385.57 2798.89 1392.65 2797.1C1398.94 2795.5 1406.35 2800.06 1412.67 2809.43C1422.28 2823.67 1422.22 2824.91 1411.18 2839.38C1404.85 2847.68 1391.04 2860.18 1380.51 2867.14C1362.7 2878.91 1360.61 2879.15 1350.94 2870.67C1341.52 2862.39 1341.31 2859.73 1348.74 2842.49L1356.93 2823.45L1336.81 2838.35ZM1392.25 2908.92C1365.6 2925.07 1373.3 2899.95 1407.65 2858.68C1418.56 2845.58 1429.25 2834.94 1431.42 2835.04C1433.59 2835.13 1442.62 2841.41 1451.48 2848.98C1470.68 2865.38 1468.07 2873.04 1432.77 2904C1406.04 2927.45 1401.34 2929.12 1406.5 2913.33C1410.74 2900.37 1407.83 2899.47 1392.25 2908.92ZM1284.97 2878.83C1279.31 2877.76 1273.51 2873.51 1272.09 2869.35C1270.44 2864.53 1273.22 2862.52 1279.8 2863.75C1285.45 2864.82 1291.25 2869.08 1292.67 2873.24C1294.32 2878.06 1291.55 2880.07 1284.97 2878.83ZM1323.66 2914.74C1315.4 2922.75 1296.05 2906.78 1302.25 2897.05C1307.65 2888.57 1314.29 2889.37 1322.99 2899.55C1328.62 2906.13 1328.78 2909.76 1323.66 2914.74ZM1365.95 2960.25C1355.86 2964.02 1334.34 2945.45 1334.34 2932.95C1334.34 2921.48 1341.52 2922.39 1359.54 2936.16C1376.89 2949.41 1378.53 2955.57 1365.95 2960.25ZM1454.28 2953.55C1451.98 2952.55 1454.23 2945.62 1459.27 2938.13C1464.32 2930.66 1471.05 2924.54 1474.23 2924.54C1477.41 2924.54 1565.73 3007.83 1670.5 3109.63L1860.99 3294.7L1846.85 3312.51C1839.07 3322.3 1830.2 3331.12 1827.15 3332.11C1824.08 3333.1 1763.14 3275.23 1691.71 3203.5C1498.15 3009.11 1476.57 2986.71 1467.12 2970.36C1462.36 2962.12 1456.58 2954.55 1454.28 2953.55ZM2102.15 3629.14C2102.15 3625.37 2108.75 3615.37 2116.81 3606.93C2134.55 3588.35 2139.28 3587.93 2150.77 3603.86C2155.65 3610.63 2195.57 3651.61 2239.48 3694.95C2409.54 3862.78 2587.73 4046.38 2878.62 4353.54C2907.2 4383.71 2975.08 4453.52 3029.49 4508.66C3176.37 4657.53 3240.53 4730.23 3232.19 4738.33C3228.26 4742.15 2980.01 4509.22 2812.15 4344.23C2641.93 4176.91 2313.99 3849.88 2234.45 3768.13C2198.45 3731.14 2153.96 3686.27 2135.58 3668.44C2117.19 3650.6 2102.15 3632.91 2102.15 3629.14Z" fill="black"/>
<path d="M2867.4 1963.33C2847.86 1988.2 2824.89 2036.57 2820.7 2061.69C2818.04 2077.6 2821.2 2074.12 2838.83 2041.71C2862.8 1997.66 2888.24 1943.62 2885.01 1943.62C2883.83 1943.62 2875.91 1952.49 2867.4 1963.33Z" fill="#7E4430"/>
<path d="M2778.55 2363.23C2780.7 2368.64 2843.29 2420.23 2878.42 2445.59L2901.33 2462.1L2882.08 2435.9C2861.37 2407.68 2831.98 2382.53 2802.41 2367.68C2781.68 2357.28 2775.73 2356.17 2778.55 2363.23Z" fill="#7E4430"/>
<path d="M540.482 2022.66C548.275 2047.98 594.829 2128.84 616.154 2154.11C639.708 2182.02 699.127 2229.09 723.843 2239.43C743.354 2247.59 743.503 2245.52 725.29 2219.49C701.904 2186.08 708.6 2185.7 743.361 2218.47C769.932 2243.51 775.117 2246.55 771.762 2235.1C769.504 2227.39 766.37 2214.78 764.793 2207.07L761.931 2193.06L773.793 2207.07C788.464 2224.42 790.138 2212.66 777.245 2182.71C765.539 2155.51 766.538 2151.08 780.619 2167.83L792.396 2181.85L788.419 2167.83C781.274 2142.67 767.804 2121.71 740.726 2093.59C712.448 2064.24 676.481 2036.53 684.702 2050.42C687.343 2054.89 679.855 2049.7 668.072 2038.92C655.977 2027.84 648.321 2023.57 650.5 2029.11C655.769 2042.5 649.981 2041.43 627.659 2024.9C617.251 2017.19 607.085 2010.89 605.07 2010.89C603.055 2010.89 618.238 2031.13 638.813 2055.88C659.383 2080.62 676.215 2103.9 676.215 2107.61C676.215 2111.32 655.542 2093.59 630.281 2068.23C586.723 2024.49 572.302 2014.51 572.302 2028.09C572.302 2031.39 564.208 2028.48 554.32 2021.64L536.336 2009.21L540.482 2022.66Z" fill="#FF0000"/>
<path d="M543.436 2099.56C543.436 2102.44 547.604 2114.58 552.701 2126.52L561.961 2148.22L547.996 2135.61C527.225 2116.85 524.991 2120 537.12 2150.99C553.533 2192.93 574.258 2224.49 603.36 2251.88C649.065 2294.88 682.677 2306.8 641.335 2265.34L615.599 2239.53L647.35 2258.94C664.813 2269.61 688.192 2282.61 699.307 2287.83C718.838 2296.99 719.117 2296.97 707.652 2287.22C701.131 2281.68 689.444 2272.74 681.677 2267.36C672.379 2260.91 679.218 2262.38 701.656 2271.64L735.761 2285.71L692.111 2244.99C668.096 2222.59 636.18 2194.35 621.181 2182.23C606.177 2170.11 585.181 2146.95 574.512 2130.76C555.16 2101.39 543.436 2089.61 543.436 2099.56Z" fill="#FF0000"/>
<path d="M246.339 4331.46C224.16 4347.31 189.625 4355.22 142.734 4355.22C95.8427 4355.22 61.9416 4346.35 41.0305 4328.61C20.1196 4310.24 9.66406 4286.48 9.66406 4257.32V4235.46C9.66406 4224.06 17.268 4199.66 32.476 4162.28C48.3177 4124.26 57.8227 4086.55 60.991 4049.17C83.1696 3791.91 94.2588 3600.85 94.2588 3476.03C94.2588 3351.2 92.9909 3278.32 90.4564 3257.42C87.9219 3236.5 81.9023 3211.48 72.3969 3182.33C63.5257 3153.18 59.09 3137.97 59.09 3136.7C59.09 3103.12 80.6344 3082.53 123.724 3074.92C252.992 3052.11 441.825 3040.7 690.22 3040.7H749.151C796.045 3040.7 829.631 3047.04 849.908 3059.71C870.815 3072.39 881.275 3096.15 881.275 3131V3153.81C881.275 3200.07 859.726 3223.2 816.641 3223.2C807.135 3223.2 787.487 3219.39 757.71 3211.8C727.926 3204.19 700.044 3198.17 674.063 3193.73C648.717 3188.66 594.539 3186.13 511.528 3186.13C429.151 3186.13 375.29 3205.46 349.943 3244.11C325.23 3282.76 312.874 3358.8 312.874 3472.22C312.874 3530.52 322.062 3569.49 340.438 3589.14C359.448 3608.15 403.171 3617.65 471.607 3617.65C488.716 3617.65 514.38 3614.16 548.598 3607.19C582.815 3600.22 612.281 3596.74 636.994 3596.74C661.709 3596.74 683.569 3607.51 702.581 3629.05C722.223 3650.6 732.047 3681.01 732.047 3720.3C732.047 3776.7 702.893 3804.9 644.598 3804.9L534.34 3795.39C486.181 3795.39 443.092 3803.62 405.072 3820.11C367.052 3835.94 341.072 3855.27 327.131 3878.08C292.913 3933.84 275.804 4026.99 275.804 4157.53L280.557 4269.68C280.557 4294.39 269.151 4314.99 246.339 4331.46Z" fill="#D9D9D9"/>
<path d="M2286.13 4638.2C2286.13 4667.98 2279.48 4691.42 2266.17 4708.53C2252.86 4725.64 2241.14 4734.2 2231 4734.2C2221.49 4734.2 2171.12 4706.63 2079.87 4651.5C2024.11 4617.92 1965.49 4601.13 1904.03 4601.13C1843.19 4601.13 1791.24 4616.65 1748.15 4647.7C1705.69 4678.11 1684.47 4720.89 1684.47 4776.02C1684.47 4831.14 1707.59 4879.94 1753.85 4922.39C1777.29 4943.93 1848.59 4983.22 1967.71 5040.25C2086.84 5096.64 2169.22 5147.97 2214.84 5194.23C2278.21 5258.86 2309.89 5332.68 2309.89 5415.69V5448.01C2309.26 5498.07 2296.9 5547.18 2272.82 5595.34C2226.56 5686.58 2148.31 5750.58 2038.05 5787.33C1981.02 5806.34 1917.65 5815.85 1847.95 5815.85C1631.87 5815.85 1501.02 5769.59 1455.39 5677.07C1439.55 5644.76 1431.63 5615.29 1431.63 5588.68C1431.63 5563.33 1438.6 5542.43 1452.54 5525.95C1466.48 5508.84 1482.32 5500.28 1500.07 5500.28C1517.81 5500.28 1546.64 5517.39 1586.56 5551.61C1627.12 5585.83 1668.62 5613.39 1711.08 5634.31C1753.53 5654.58 1807.08 5664.72 1871.71 5664.72C1936.35 5664.72 1990.84 5647.61 2035.2 5613.39C2080.19 5579.18 2102.69 5530.38 2102.69 5467.02C2102.69 5403.65 2070.68 5347.57 2006.68 5298.79C1978.17 5277.24 1910.05 5241.12 1802.33 5190.42C1695.24 5139.1 1619.51 5089.68 1575.16 5042.15C1516.23 4979.42 1486.76 4904.02 1486.76 4815.94C1486.76 4704.41 1527.95 4616.65 1610.33 4552.65C1692.7 4488.02 1794.09 4455.7 1914.49 4455.7H1947.75C2072.58 4455.7 2160.03 4472.18 2210.09 4505.13C2260.78 4537.45 2286.13 4581.8 2286.13 4638.2Z" fill="#D9D9D9"/>
<path d="M1978.63 2052.92C2071.77 2052.92 2146.86 2026.31 2203.89 1973.08C2261.56 1919.85 2290.39 1848.89 2290.39 1760.17V1719.3C2290.39 1643.9 2265.68 1585.6 2216.25 1544.41C2167.46 1502.59 2103.14 1481.68 2023.3 1481.68H1996.68C1933.32 1481.68 1892.44 1489.92 1874.07 1506.4C1856.33 1522.87 1847.46 1557.72 1847.46 1610.95C1846.18 1623.62 1845.56 1632.81 1845.56 1638.51L1841.75 1704.09C1841.75 1710.43 1841.75 1716.77 1841.75 1723.1L1835.1 1844.77L1834.15 1854.27C1834.15 1860.6 1834.15 1866.94 1834.15 1873.28L1829.4 1955.97V1991.14C1829.4 2031.06 1856.33 2051.02 1910.19 2051.02L1926.35 2052.92H1978.63ZM1671.61 2682.14C1593.04 2682.14 1553.75 2652.04 1553.75 2591.85C1553.75 2582.98 1562.3 2553.82 1579.41 2504.4C1597.16 2454.98 1610.46 2378.94 1619.34 2276.29C1628.21 2173 1632.64 2081.12 1632.64 2000.65L1635.5 1936.02C1637.4 1892.92 1638.34 1864.72 1638.34 1851.42L1639.3 1830.51V1706.95C1639.3 1591.62 1636.12 1517.8 1629.79 1485.48C1624.09 1453.17 1621.24 1432.89 1621.24 1424.65C1621.24 1398.04 1649.75 1380.61 1706.78 1372.38C1789.16 1360.34 1903.22 1354.32 2048.96 1354.32C2268.21 1354.32 2409.2 1421.17 2471.93 1554.87C2495.38 1604.3 2507.1 1654.35 2507.1 1705.05V1728.81C2507.1 1849.83 2466.55 1949.01 2385.44 2026.31C2348.05 2062.43 2307.81 2089.99 2264.72 2109C2222.27 2127.38 2163.97 2144.17 2089.83 2159.37C1913.04 2195.5 1824.64 2265.51 1824.64 2369.43C1824.64 2396.05 1828.13 2426.47 1835.1 2460.68C1842.07 2494.27 1845.56 2518.03 1845.56 2531.96C1845.56 2573.15 1830.03 2608.64 1798.98 2638.42C1768.57 2667.57 1732.44 2682.14 1690.62 2682.14H1671.61Z" fill="#D9D9D9"/>
<path d="M3555.41 3788.3C3633.99 3788.3 3673.28 3778.16 3673.28 3757.89V3751.24C3673.28 3740.46 3652.04 3650.8 3609.59 3482.24C3567.13 3313.06 3538.62 3228.47 3524.05 3228.47H3520.25C3518.97 3228.47 3506.94 3253.18 3484.12 3302.61C3366.26 3555.44 3307.33 3709.41 3307.33 3764.54V3770.24C3307.33 3779.75 3319.37 3784.5 3343.45 3784.5L3358.66 3786.4L3428.05 3788.3H3555.41ZM3533.55 2999.4H3555.41C3609.27 2999.4 3657.43 3048.51 3699.89 3146.72C3772.13 3312.11 3854.18 3579.2 3946.07 3947.99C3958.11 3994.87 3975.85 4041.77 3999.3 4088.65C4023.38 4135.55 4035.41 4165.33 4035.41 4178C4035.41 4214.12 4023.38 4245.8 3999.3 4273.05C3975.22 4300.3 3946.7 4313.92 3913.75 4313.92H3892.84C3837.71 4313.92 3803.17 4296.5 3789.24 4261.65C3786.7 4255.94 3783.85 4239.78 3780.68 4213.17C3778.15 4185.92 3774.34 4160.57 3769.28 4137.13C3751.53 4054.76 3729.35 3998.36 3702.74 3967.94C3676.76 3936.9 3602.94 3921.37 3481.27 3921.37C3359.61 3921.37 3284.2 3935.31 3255.06 3963.2C3226.54 3991.07 3196.76 4048.1 3165.71 4134.28C3156.2 4160.89 3148.6 4190.36 3142.89 4222.68C3137.82 4254.99 3132.44 4275.9 3126.74 4285.41C3115.33 4303.78 3091.88 4312.97 3056.4 4312.97C3021.55 4312.97 2993.66 4300.93 2972.76 4276.85C2951.84 4252.77 2941.39 4224.58 2941.39 4192.26C2941.39 4159.31 2957.87 4120.02 2990.82 4074.4C3023.13 4028.78 3083.64 3889.37 3172.36 3656.19C3311.77 3288.66 3405.55 3082.09 3453.71 3036.47C3480.32 3011.76 3506.94 2999.4 3533.55 2999.4Z" fill="#D9D9D9"/>
</svg>
