<svg width="24204" height="5936" viewBox="0 0 24204 5936" fill="none" xmlns="http://www.w3.org/2000/svg">
<path d="M6278.46 3651C6234.46 3651 6197.46 3636 6167.46 3606C6139.46 3578 6125.46 3542 6125.46 3498V2130C6127.46 1972 6164.46 1830 6236.46 1704C6308.46 1578 6406.46 1479 6530.46 1407C6654.46 1333 6794.46 1296 6950.46 1296C7108.46 1296 7249.46 1333 7373.46 1407C7497.46 1479 7595.46 1578 7667.46 1704C7741.46 1830 7778.46 1972 7778.46 2130C7778.46 2288 7744.46 2430 7676.46 2556C7610.46 2680 7519.46 2779 7403.46 2853C7287.46 2925 7156.46 2961 7010.46 2961C6892.46 2961 6783.46 2937 6683.46 2889C6585.46 2839 6501.46 2772 6431.46 2688V3498C6431.46 3542 6417.46 3578 6389.46 3606C6361.46 3636 6324.46 3651 6278.46 3651ZM6950.46 2691C7052.46 2691 7143.46 2667 7223.46 2619C7303.46 2569 7366.46 2502 7412.46 2418C7460.46 2332 7484.46 2236 7484.46 2130C7484.46 2022 7460.46 1926 7412.46 1842C7366.46 1756 7303.46 1689 7223.46 1641C7143.46 1591 7052.46 1566 6950.46 1566C6850.46 1566 6759.46 1591 6677.46 1641C6597.46 1689 6534.46 1756 6488.46 1842C6442.46 1926 6419.46 2022 6419.46 2130C6419.46 2236 6442.46 2332 6488.46 2418C6534.46 2502 6597.46 2569 6677.46 2619C6759.46 2667 6850.46 2691 6950.46 2691ZM8531.84 1923C8531.84 1803 8560.84 1696 8618.84 1602C8678.84 1506 8758.84 1430 8858.84 1374C8958.84 1318 9068.84 1290 9188.84 1290C9308.84 1290 9397.84 1310 9455.84 1350C9515.84 1388 9538.84 1434 9524.84 1488C9518.84 1516 9506.84 1538 9488.84 1554C9472.84 1568 9453.84 1577 9431.84 1581C9409.84 1585 9385.84 1584 9359.84 1578C9231.84 1552 9116.84 1550 9014.84 1572C8912.84 1594 8831.84 1635 8771.84 1695C8713.84 1755 8684.84 1831 8684.84 1923H8531.84ZM8534.84 2949C8486.84 2949 8449.84 2937 8423.84 2913C8397.84 2887 8384.84 2849 8384.84 2799V1458C8384.84 1410 8397.84 1373 8423.84 1347C8449.84 1321 8486.84 1308 8534.84 1308C8584.84 1308 8621.84 1321 8645.84 1347C8671.84 1371 8684.84 1408 8684.84 1458V2799C8684.84 2847 8671.84 2884 8645.84 2910C8621.84 2936 8584.84 2949 8534.84 2949ZM10617.7 2961C10455.7 2961 10312.7 2926 10188.7 2856C10064.7 2784 9966.7 2686 9894.7 2562C9824.7 2436 9789.7 2292 9789.7 2130C9789.7 1966 9824.7 1822 9894.7 1698C9966.7 1572 10064.7 1474 10188.7 1404C10312.7 1332 10455.7 1296 10617.7 1296C10777.7 1296 10919.7 1332 11043.7 1404C11167.7 1474 11264.7 1572 11334.7 1698C11406.7 1822 11442.7 1966 11442.7 2130C11442.7 2292 11407.7 2436 11337.7 2562C11267.7 2686 11170.7 2784 11046.7 2856C10922.7 2926 10779.7 2961 10617.7 2961ZM10617.7 2691C10721.7 2691 10813.7 2667 10893.7 2619C10973.7 2571 11035.7 2505 11079.7 2421C11125.7 2337 11148.7 2240 11148.7 2130C11148.7 2020 11125.7 1923 11079.7 1839C11035.7 1753 10973.7 1686 10893.7 1638C10813.7 1590 10721.7 1566 10617.7 1566C10513.7 1566 10421.7 1590 10341.7 1638C10261.7 1686 10198.7 1753 10152.7 1839C10106.7 1923 10083.7 2020 10083.7 2130C10083.7 2240 10106.7 2337 10152.7 2421C10198.7 2505 10261.7 2571 10341.7 2619C10421.7 2667 10513.7 2691 10617.7 2691Z" fill="#757070"/>
<path d="M12234.1 2949C12200.1 2949 12169.1 2937 12141.1 2913C12115.1 2887 12102.1 2853 12102.1 2811V1314C12102.1 1172 12129.1 1048 12183.1 942C12237.1 836 12313.1 754 12411.1 696C12511.1 636 12628.1 606 12762.1 606C12802.1 606 12835.1 618 12861.1 642C12887.1 666 12900.1 696 12900.1 732C12900.1 766 12887.1 796 12861.1 822C12835.1 846 12802.1 858 12762.1 858C12682.1 858 12613.1 876 12555.1 912C12499.1 948 12455.1 999 12423.1 1065C12393.1 1129 12378.1 1205 12378.1 1293V2811C12378.1 2853 12365.1 2887 12339.1 2913C12315.1 2937 12280.1 2949 12234.1 2949ZM11949.1 1605C11911.1 1605 11880.1 1594 11856.1 1572C11834.1 1550 11823.1 1522 11823.1 1488C11823.1 1452 11834.1 1423 11856.1 1401C11880.1 1379 11911.1 1368 11949.1 1368H12705.1C12743.1 1368 12774.1 1379 12798.1 1401C12822.1 1423 12834.1 1452 12834.1 1488C12834.1 1522 12822.1 1550 12798.1 1572C12774.1 1594 12743.1 1605 12705.1 1605H11949.1Z" fill="white"/>
<path d="M13476.7 2949C13434.7 2949 13400.7 2936 13374.7 2910C13348.7 2884 13335.7 2851 13335.7 2811V1446C13335.7 1404 13348.7 1371 13374.7 1347C13400.7 1321 13434.7 1308 13476.7 1308C13516.7 1308 13549.7 1321 13575.7 1347C13601.7 1371 13614.7 1404 13614.7 1446V2811C13614.7 2851 13601.7 2884 13575.7 2910C13549.7 2936 13516.7 2949 13476.7 2949ZM13473.7 1023C13423.7 1023 13380.7 1005 13344.7 969C13308.7 933 13290.7 889 13290.7 837C13290.7 785 13308.7 742 13344.7 708C13382.7 672 13426.7 654 13476.7 654C13524.7 654 13566.7 672 13602.7 708C13640.7 742 13659.7 785 13659.7 837C13659.7 889 13641.7 933 13605.7 969C13569.7 1005 13525.7 1023 13473.7 1023ZM15735.3 2952C15695.3 2952 15661.3 2939 15633.3 2913C15607.3 2885 15594.3 2852 15594.3 2814V2058C15594.3 1940 15572.3 1844 15528.3 1770C15484.3 1694 15425.3 1638 15351.3 1602C15277.3 1564 15192.3 1545 15096.3 1545C15006.3 1545 14925.3 1563 14853.3 1599C14781.3 1635 14723.3 1683 14679.3 1743C14637.3 1803 14616.3 1872 14616.3 1950H14436.3C14438.3 1824 14470.3 1712 14532.3 1614C14594.3 1514 14678.3 1436 14784.3 1380C14890.3 1322 15009.3 1293 15141.3 1293C15281.3 1293 15406.3 1323 15516.3 1383C15626.3 1441 15713.3 1527 15777.3 1641C15841.3 1755 15873.3 1894 15873.3 2058V2814C15873.3 2852 15859.3 2885 15831.3 2913C15805.3 2939 15773.3 2952 15735.3 2952ZM14478.3 2952C14438.3 2952 14405.3 2939 14379.3 2913C14353.3 2887 14340.3 2854 14340.3 2814V1446C14340.3 1404 14353.3 1371 14379.3 1347C14405.3 1321 14438.3 1308 14478.3 1308C14520.3 1308 14553.3 1321 14577.3 1347C14603.3 1371 14616.3 1404 14616.3 1446V2814C14616.3 2854 14603.3 2887 14577.3 2913C14553.3 2939 14520.3 2952 14478.3 2952ZM17291.4 2961C17125.4 2961 16978.4 2926 16850.4 2856C16724.4 2784 16625.4 2686 16553.4 2562C16481.4 2436 16445.4 2292 16445.4 2130C16445.4 1966 16479.4 1822 16547.4 1698C16615.4 1572 16709.4 1474 16829.4 1404C16949.4 1332 17088.4 1296 17246.4 1296C17400.4 1296 17533.4 1331 17645.4 1401C17757.4 1469 17843.4 1564 17903.4 1686C17963.4 1806 17993.4 1945 17993.4 2103C17993.4 2137 17981.4 2166 17957.4 2190C17935.4 2212 17905.4 2223 17867.4 2223H16634.4V2001H17870.4L17747.4 2088C17745.4 1982 17724.4 1887 17684.4 1803C17644.4 1719 17587.4 1653 17513.4 1605C17439.4 1557 17350.4 1533 17246.4 1533C17132.4 1533 17033.4 1559 16949.4 1611C16867.4 1663 16804.4 1734 16760.4 1824C16716.4 1914 16694.4 2016 16694.4 2130C16694.4 2244 16719.4 2346 16769.4 2436C16821.4 2524 16891.4 2594 16979.4 2646C17069.4 2698 17173.4 2724 17291.4 2724C17355.4 2724 17421.4 2712 17489.4 2688C17559.4 2664 17614.4 2636 17654.4 2604C17682.4 2582 17712.4 2571 17744.4 2571C17776.4 2569 17804.4 2578 17828.4 2598C17858.4 2626 17874.4 2657 17876.4 2691C17878.4 2723 17864.4 2751 17834.4 2775C17766.4 2829 17681.4 2874 17579.4 2910C17479.4 2944 17383.4 2961 17291.4 2961ZM19174.3 2961C19024.3 2961 18890.3 2925 18772.3 2853C18654.3 2781 18561.3 2682 18493.3 2556C18425.3 2430 18391.3 2288 18391.3 2130C18391.3 1970 18427.3 1828 18499.3 1704C18573.3 1578 18672.3 1479 18796.3 1407C18922.3 1333 19063.3 1296 19219.3 1296C19377.3 1296 19518.3 1333 19642.3 1407C19766.3 1479 19864.3 1578 19936.3 1704C20010.3 1830 20048.3 1972 20050.3 2130L19942.3 2157C19942.3 2309 19908.3 2446 19840.3 2568C19772.3 2690 19680.3 2786 19564.3 2856C19450.3 2926 19320.3 2961 19174.3 2961ZM19219.3 2715C19327.3 2715 19423.3 2690 19507.3 2640C19591.3 2588 19657.3 2518 19705.3 2430C19755.3 2340 19780.3 2240 19780.3 2130C19780.3 2018 19755.3 1918 19705.3 1830C19657.3 1740 19591.3 1670 19507.3 1620C19423.3 1568 19327.3 1542 19219.3 1542C19115.3 1542 19020.3 1568 18934.3 1620C18848.3 1670 18780.3 1740 18730.3 1830C18682.3 1918 18658.3 2018 18658.3 2130C18658.3 2240 18682.3 2340 18730.3 2430C18780.3 2518 18848.3 2588 18934.3 2640C19020.3 2690 19115.3 2715 19219.3 2715ZM19909.3 2952C19869.3 2952 19836.3 2939 19810.3 2913C19784.3 2887 19771.3 2854 19771.3 2814V2334L19828.3 2046L20050.3 2130V2814C20050.3 2854 20036.3 2887 20008.3 2913C19982.3 2939 19949.3 2952 19909.3 2952ZM20778.6 1929C20782.6 1807 20813.6 1698 20871.6 1602C20931.6 1506 21010.6 1430 21108.6 1374C21206.6 1318 21314.6 1290 21432.6 1290C21542.6 1290 21624.6 1307 21678.6 1341C21734.6 1375 21755.6 1418 21741.6 1470C21735.6 1500 21723.6 1522 21705.6 1536C21687.6 1548 21666.6 1555 21642.6 1557C21618.6 1557 21592.6 1555 21564.6 1551C21442.6 1531 21333.6 1534 21237.6 1560C21141.6 1586 21065.6 1631 21009.6 1695C20953.6 1759 20925.6 1837 20925.6 1929H20778.6ZM20787.6 2949C20745.6 2949 20712.6 2938 20688.6 2916C20664.6 2892 20652.6 2858 20652.6 2814V1443C20652.6 1401 20664.6 1368 20688.6 1344C20712.6 1320 20745.6 1308 20787.6 1308C20833.6 1308 20867.6 1320 20889.6 1344C20913.6 1366 20925.6 1399 20925.6 1443V2814C20925.6 2856 20913.6 2889 20889.6 2913C20867.6 2937 20833.6 2949 20787.6 2949ZM22841.4 2949C22739.4 2949 22647.4 2924 22565.4 2874C22483.4 2822 22419.4 2753 22373.4 2667C22327.4 2579 22304.4 2479 22304.4 2367V924C22304.4 884 22316.4 851 22340.4 825C22366.4 799 22399.4 786 22439.4 786C22479.4 786 22512.4 799 22538.4 825C22564.4 851 22577.4 884 22577.4 924V2367C22577.4 2457 22602.4 2531 22652.4 2589C22702.4 2647 22765.4 2676 22841.4 2676H22934.4C22968.4 2676 22996.4 2689 23018.4 2715C23042.4 2741 23054.4 2774 23054.4 2814C23054.4 2854 23039.4 2887 23009.4 2913C22981.4 2937 22944.4 2949 22898.4 2949H22841.4ZM22142.4 1605C22106.4 1605 22076.4 1594 22052.4 1572C22028.4 1550 22016.4 1522 22016.4 1488C22016.4 1452 22028.4 1423 22052.4 1401C22076.4 1379 22106.4 1368 22142.4 1368H22865.4C22901.4 1368 22931.4 1379 22955.4 1401C22979.4 1423 22991.4 1452 22991.4 1488C22991.4 1522 22979.4 1550 22955.4 1572C22931.4 1594 22901.4 1605 22865.4 1605H22142.4Z" fill="#FFFCFC"/>
<path d="M15876.5 5292C15856.1 5292 15839.3 5287.8 15826.1 5279.4C15812.9 5269.8 15806.3 5256 15806.3 5238V3940.2C15806.3 3923.4 15811.1 3910.2 15820.7 3900.6C15831.5 3891 15844.7 3886.2 15860.3 3886.2H16301.3C16368.5 3886.2 16429.7 3901.2 16484.9 3931.2C16540.1 3960 16584.5 4000.2 16618.1 4051.8C16651.7 4102.2 16668.5 4160.4 16668.5 4226.4C16668.5 4296 16649.9 4357.2 16612.7 4410C16576.7 4461.6 16529.3 4500.6 16470.5 4527C16552.1 4549.8 16617.5 4591.8 16666.7 4653C16717.1 4714.2 16742.3 4791 16742.3 4883.4C16742.3 4962.6 16724.3 5033.4 16688.3 5095.8C16653.5 5157 16604.9 5205 16542.5 5239.8C16480.1 5274.6 16408.7 5292 16328.3 5292H15876.5ZM15914.3 5184H16328.3C16388.3 5184 16441.1 5171.4 16486.7 5146.2C16532.3 5119.8 16568.3 5084.4 16594.7 5040C16621.1 4994.4 16634.3 4942.2 16634.3 4883.4C16634.3 4825.8 16621.1 4774.8 16594.7 4730.4C16568.3 4686 16532.3 4651.2 16486.7 4626C16441.1 4600.8 16388.3 4588.2 16328.3 4588.2H15914.3V5184ZM15914.3 4480.2H16301.3C16376.9 4480.2 16438.7 4457.4 16486.7 4411.8C16535.9 4365 16560.5 4303.2 16560.5 4226.4C16560.5 4152 16535.9 4095 16486.7 4055.4C16438.7 4014.6 16376.9 3994.2 16301.3 3994.2H15914.3V4480.2ZM17542.9 5302.8C17446.9 5302.8 17360.5 5281.2 17283.7 5238C17208.1 5193.6 17148.1 5133.6 17103.7 5058C17060.5 4981.2 17038.9 4895.4 17038.9 4800.6C17038.9 4704.6 17060.5 4618.8 17103.7 4543.2C17148.1 4466.4 17208.1 4406.4 17283.7 4363.2C17360.5 4318.8 17446.9 4296.6 17542.9 4296.6C17638.9 4296.6 17724.7 4318.8 17800.3 4363.2C17875.9 4406.4 17935.3 4466.4 17978.5 4543.2C18022.9 4618.8 18045.1 4704.6 18045.1 4800.6L18000.1 4872.6C18000.1 4954.2 17979.7 5027.4 17938.9 5092.2C17899.3 5157 17845.3 5208.6 17776.9 5247C17708.5 5284.2 17630.5 5302.8 17542.9 5302.8ZM17542.9 5202C17618.5 5202 17685.7 5184.6 17744.5 5149.8C17804.5 5113.8 17851.3 5065.8 17884.9 5005.8C17919.7 4944.6 17937.1 4876.2 17937.1 4800.6C17937.1 4723.8 17919.7 4655.4 17884.9 4595.4C17851.3 4534.2 17804.5 4486.2 17744.5 4451.4C17685.7 4415.4 17618.5 4397.4 17542.9 4397.4C17468.5 4397.4 17401.3 4415.4 17341.3 4451.4C17281.3 4486.2 17233.9 4534.2 17199.1 4595.4C17164.3 4655.4 17146.9 4723.8 17146.9 4800.6C17146.9 4876.2 17164.3 4944.6 17199.1 5005.8C17233.9 5065.8 17281.3 5113.8 17341.3 5149.8C17401.3 5184.6 17468.5 5202 17542.9 5202ZM17991.1 5292C17975.5 5292 17962.3 5287.2 17951.5 5277.6C17941.9 5266.8 17937.1 5253.6 17937.1 5238V4908.6L17971.3 4800.6H18045.1V5238C18045.1 5253.6 18040.3 5266.8 18030.7 5277.6C18021.1 5287.2 18007.9 5292 17991.1 5292ZM18739.4 5302.8C18677 5302.8 18611.6 5291.4 18543.2 5268.6C18474.8 5245.8 18417.8 5207.4 18372.2 5153.4C18362.6 5141.4 18358.4 5128.8 18359.6 5115.6C18362 5101.2 18369.8 5089.2 18383 5079.6C18395 5071.2 18407.6 5068.2 18420.8 5070.6C18435.2 5073 18446.6 5079.6 18455 5090.4C18489.8 5131.2 18531.8 5160 18581 5176.8C18631.4 5192.4 18686 5200.2 18744.8 5200.2C18845.6 5200.2 18917 5182.2 18959 5146.2C19001 5110.2 19022 5068.2 19022 5020.2C19022 4973.4 18999.2 4935 18953.6 4905C18909.2 4873.8 18840.2 4851.6 18746.6 4838.4C18626.6 4821.6 18537.8 4789.2 18480.2 4741.2C18422.6 4693.2 18393.8 4637.4 18393.8 4573.8C18393.8 4513.8 18408.8 4463.4 18438.8 4422.6C18468.8 4380.6 18509.6 4349.4 18561.2 4329C18614 4307.4 18674 4296.6 18741.2 4296.6C18822.8 4296.6 18891.8 4311.6 18948.2 4341.6C19004.6 4370.4 19050.2 4409.4 19085 4458.6C19094.6 4470.6 19097.6 4483.8 19094 4498.2C19091.6 4511.4 19082.6 4522.2 19067 4530.6C19055 4536.6 19042.4 4538.4 19029.2 4536C19016 4533.6 19004.6 4526.4 18995 4514.4C18965 4476 18928.4 4447.2 18885.2 4428C18843.2 4407.6 18794 4397.4 18737.6 4397.4C18662 4397.4 18603.2 4413.6 18561.2 4446C18519.2 4478.4 18498.2 4517.4 18498.2 4563C18498.2 4594.2 18506.6 4621.8 18523.4 4645.8C18541.4 4668.6 18570.2 4688.4 18609.8 4705.2C18649.4 4720.8 18702.2 4733.4 18768.2 4743C18858.2 4755 18929 4775.4 18980.6 4804.2C19033.4 4833 19070.6 4866.6 19092.2 4905C19115 4942.2 19126.4 4982.4 19126.4 5025.6C19126.4 5082 19108.4 5131.2 19072.4 5173.2C19036.4 5215.2 18989 5247.6 18930.2 5270.4C18871.4 5292 18807.8 5302.8 18739.4 5302.8ZM19895.3 5301C19800.5 5301 19715.9 5280 19641.5 5238C19568.3 5194.8 19510.7 5135.4 19468.7 5059.8C19426.7 4984.2 19405.7 4897.8 19405.7 4800.6C19405.7 4702.2 19425.5 4615.8 19465.1 4541.4C19504.7 4465.8 19559.3 4406.4 19628.9 4363.2C19698.5 4320 19778.3 4298.4 19868.3 4298.4C19957.1 4298.4 20035.7 4319.4 20104.1 4361.4C20172.5 4402.2 20225.9 4459.2 20264.3 4532.4C20302.7 4604.4 20321.9 4687.8 20321.9 4782.6C20321.9 4798.2 20317.1 4810.8 20307.5 4820.4C20297.9 4828.8 20285.3 4833 20269.7 4833H19477.7V4739.4H20298.5L20219.3 4798.8C20221.7 4720.8 20208.5 4651.8 20179.7 4591.8C20150.9 4531.8 20109.5 4485 20055.5 4451.4C20002.7 4416.6 19940.3 4399.2 19868.3 4399.2C19799.9 4399.2 19738.7 4416.6 19684.7 4451.4C19631.9 4485 19589.9 4531.8 19558.7 4591.8C19528.7 4651.8 19513.7 4721.4 19513.7 4800.6C19513.7 4878.6 19529.9 4947.6 19562.3 5007.6C19594.7 5067.6 19639.7 5115 19697.3 5149.8C19754.9 5183.4 19820.9 5200.2 19895.3 5200.2C19942.1 5200.2 19988.9 5192.4 20035.7 5176.8C20083.7 5160 20121.5 5138.4 20149.1 5112C20158.7 5102.4 20170.1 5097.6 20183.3 5097.6C20197.7 5096.4 20209.7 5100 20219.3 5108.4C20232.5 5119.2 20239.1 5131.2 20239.1 5144.4C20240.3 5157.6 20234.9 5169.6 20222.9 5180.4C20184.5 5215.2 20134.1 5244 20071.7 5266.8C20010.5 5289.6 19951.7 5301 19895.3 5301ZM20844.5 5292C20798.9 5292 20758.1 5279.4 20722.1 5254.2C20687.3 5229 20659.7 5194.2 20639.3 5149.8C20620.1 5105.4 20610.5 5053.8 20610.5 4995V3940.2C20610.5 3923.4 20615.3 3910.2 20624.9 3900.6C20635.7 3891 20648.9 3886.2 20664.5 3886.2C20681.3 3886.2 20694.5 3891 20704.1 3900.6C20713.7 3910.2 20718.5 3923.4 20718.5 3940.2V4995C20718.5 5050.2 20729.9 5095.8 20752.7 5131.8C20776.7 5166.6 20807.3 5184 20844.5 5184H20889.5C20902.7 5184 20913.5 5188.8 20921.9 5198.4C20930.3 5208 20934.5 5221.2 20934.5 5238C20934.5 5253.6 20929.7 5266.8 20920.1 5277.6C20910.5 5287.2 20897.3 5292 20880.5 5292H20844.5Z" fill="#E8E7E7"/>
<path d="M8877.55 5294.8C8815.15 5294.8 8749.75 5283.4 8681.35 5260.6C8612.95 5237.8 8555.95 5199.4 8510.35 5145.4C8500.75 5133.4 8496.55 5120.8 8497.75 5107.6C8500.15 5093.2 8507.95 5081.2 8521.15 5071.6C8533.15 5063.2 8545.75 5060.2 8558.95 5062.6C8573.35 5065 8584.75 5071.6 8593.15 5082.4C8627.95 5123.2 8669.95 5152 8719.15 5168.8C8769.55 5184.4 8824.15 5192.2 8882.95 5192.2C8983.75 5192.2 9055.15 5174.2 9097.15 5138.2C9139.15 5102.2 9160.15 5060.2 9160.15 5012.2C9160.15 4965.4 9137.35 4927 9091.75 4897C9047.35 4865.8 8978.35 4843.6 8884.75 4830.4C8764.75 4813.6 8675.95 4781.2 8618.35 4733.2C8560.75 4685.2 8531.95 4629.4 8531.95 4565.8C8531.95 4505.8 8546.95 4455.4 8576.95 4414.6C8606.95 4372.6 8647.75 4341.4 8699.35 4321C8752.15 4299.4 8812.15 4288.6 8879.35 4288.6C8960.95 4288.6 9029.95 4303.6 9086.35 4333.6C9142.75 4362.4 9188.35 4401.4 9223.15 4450.6C9232.75 4462.6 9235.75 4475.8 9232.15 4490.2C9229.75 4503.4 9220.75 4514.2 9205.15 4522.6C9193.15 4528.6 9180.55 4530.4 9167.35 4528C9154.15 4525.6 9142.75 4518.4 9133.15 4506.4C9103.15 4468 9066.55 4439.2 9023.35 4420C8981.35 4399.6 8932.15 4389.4 8875.75 4389.4C8800.15 4389.4 8741.35 4405.6 8699.35 4438C8657.35 4470.4 8636.35 4509.4 8636.35 4555C8636.35 4586.2 8644.75 4613.8 8661.55 4637.8C8679.55 4660.6 8708.35 4680.4 8747.95 4697.2C8787.55 4712.8 8840.35 4725.4 8906.35 4735C8996.35 4747 9067.15 4767.4 9118.75 4796.2C9171.55 4825 9208.75 4858.6 9230.35 4897C9253.15 4934.2 9264.55 4974.4 9264.55 5017.6C9264.55 5074 9246.55 5123.2 9210.55 5165.2C9174.55 5207.2 9127.15 5239.6 9068.35 5262.4C9009.55 5284 8945.95 5294.8 8877.55 5294.8ZM10001 5284C9934.99 5282.8 9876.19 5267.8 9824.59 5239C9772.99 5209 9732.79 5168.2 9703.99 5116.6C9675.19 5063.8 9660.79 5004.4 9660.79 4938.4V4042C9660.79 4025.2 9665.59 4012 9675.19 4002.4C9685.99 3991.6 9699.19 3986.2 9714.79 3986.2C9731.59 3986.2 9744.79 3991.6 9754.39 4002.4C9765.19 4012 9770.59 4025.2 9770.59 4042V4938.4C9770.59 5008 9792.19 5065 9835.39 5109.4C9878.59 5152.6 9934.39 5174.2 10002.8 5174.2H10042.4C10059.2 5174.2 10072.4 5179.6 10082 5190.4C10092.8 5200 10098.2 5213.2 10098.2 5230C10098.2 5245.6 10092.8 5258.8 10082 5269.6C10072.4 5279.2 10059.2 5284 10042.4 5284H10001ZM9520.39 4432.6C9505.99 4432.6 9493.99 4428.4 9484.39 4420C9475.99 4410.4 9471.79 4398.4 9471.79 4384C9471.79 4369.6 9475.99 4358.2 9484.39 4349.8C9493.99 4340.2 9505.99 4335.4 9520.39 4335.4H10008.2C10022.6 4335.4 10034 4340.2 10042.4 4349.8C10052 4358.2 10056.8 4369.6 10056.8 4384C10056.8 4398.4 10052 4410.4 10042.4 4420C10034 4428.4 10022.6 4432.6 10008.2 4432.6H9520.39ZM10851.2 5296.6C10764.8 5296.6 10687.4 5279.2 10619 5244.4C10550.6 5208.4 10496 5156.2 10455.2 5087.8C10415.6 5019.4 10395.8 4936 10395.8 4837.6V4353.4C10395.8 4337.8 10400.6 4325.2 10410.2 4315.6C10421 4304.8 10434.2 4299.4 10449.8 4299.4C10465.4 4299.4 10478 4304.8 10487.6 4315.6C10498.4 4325.2 10503.8 4337.8 10503.8 4353.4V4837.6C10503.8 4915.6 10518.8 4981 10548.8 5033.8C10580 5085.4 10621.4 5124.4 10673 5150.8C10725.8 5176 10785.2 5188.6 10851.2 5188.6C10916 5188.6 10974.2 5176 11025.8 5150.8C11077.4 5125.6 11118.2 5092 11148.2 5050C11178.2 5006.8 11193.2 4958.2 11193.2 4904.2H11283.2C11278.4 4978.6 11256.2 5045.8 11216.6 5105.8C11177 5164.6 11125.4 5211.4 11061.8 5246.2C10999.4 5279.8 10929.2 5296.6 10851.2 5296.6ZM11247.2 5284C11231.6 5284 11218.4 5279.2 11207.6 5269.6C11198 5258.8 11193.2 5245.6 11193.2 5230V4353.4C11193.2 4336.6 11198 4323.4 11207.6 4313.8C11218.4 4304.2 11231.6 4299.4 11247.2 4299.4C11264 4299.4 11277.2 4304.2 11286.8 4313.8C11296.4 4323.4 11301.2 4336.6 11301.2 4353.4V5230C11301.2 5245.6 11296.4 5258.8 11286.8 5269.6C11277.2 5279.2 11264 5284 11247.2 5284ZM12164.9 5294.8C12068.9 5294.8 11982.5 5273.2 11905.7 5230C11830.1 5185.6 11770.1 5125.6 11725.7 5050C11682.5 4973.2 11660.9 4886.8 11660.9 4790.8C11660.9 4694.8 11682.5 4609 11725.7 4533.4C11770.1 4457.8 11830.1 4398.4 11905.7 4355.2C11982.5 4310.8 12068.9 4288.6 12164.9 4288.6C12251.3 4288.6 12328.7 4307.2 12397.1 4344.4C12466.7 4381.6 12520.7 4431.4 12559.1 4493.8V3932.2C12559.1 3915.4 12563.9 3902.2 12573.5 3892.6C12584.3 3883 12597.5 3878.2 12613.1 3878.2C12629.9 3878.2 12643.1 3883 12652.7 3892.6C12662.3 3902.2 12667.1 3915.4 12667.1 3932.2V4801.6C12665.9 4895.2 12643.1 4979.2 12598.7 5053.6C12554.3 5128 12494.3 5186.8 12418.7 5230C12344.3 5273.2 12259.7 5294.8 12164.9 5294.8ZM12164.9 5194C12240.5 5194 12307.7 5176.6 12366.5 5141.8C12426.5 5105.8 12473.3 5057.8 12506.9 4997.8C12541.7 4936.6 12559.1 4867.6 12559.1 4790.8C12559.1 4714 12541.7 4645.6 12506.9 4585.6C12473.3 4525.6 12426.5 4478.2 12366.5 4443.4C12307.7 4407.4 12240.5 4389.4 12164.9 4389.4C12090.5 4389.4 12023.3 4407.4 11963.3 4443.4C11903.3 4478.2 11855.9 4525.6 11821.1 4585.6C11786.3 4645.6 11768.9 4714 11768.9 4790.8C11768.9 4867.6 11786.3 4936.6 11821.1 4997.8C11855.9 5057.8 11903.3 5105.8 11963.3 5141.8C12023.3 5176.6 12090.5 5194 12164.9 5194ZM13171.1 5284C13155.5 5284 13142.3 5279.2 13131.5 5269.6C13121.9 5258.8 13117.1 5245.6 13117.1 5230V4353.4C13117.1 4336.6 13121.9 4323.4 13131.5 4313.8C13142.3 4304.2 13155.5 4299.4 13171.1 4299.4C13187.9 4299.4 13201.1 4304.2 13210.7 4313.8C13220.3 4323.4 13225.1 4336.6 13225.1 4353.4V5230C13225.1 5245.6 13220.3 5258.8 13210.7 5269.6C13201.1 5279.2 13187.9 5284 13171.1 5284ZM13169.3 4092.4C13146.5 4092.4 13126.7 4084.6 13109.9 4069C13094.3 4052.2 13086.5 4031.8 13086.5 4007.8C13086.5 3980.2 13094.9 3959.8 13111.7 3946.6C13129.7 3932.2 13149.5 3925 13171.1 3925C13191.5 3925 13210.1 3932.2 13226.9 3946.6C13244.9 3959.8 13253.9 3980.2 13253.9 4007.8C13253.9 4031.8 13245.5 4052.2 13228.7 4069C13213.1 4084.6 13193.3 4092.4 13169.3 4092.4ZM14125.6 5294.8C14029.6 5294.8 13943.2 5273.2 13866.4 5230C13790.8 5185.6 13730.8 5125.6 13686.4 5050C13643.2 4973.2 13621.6 4887.4 13621.6 4792.6C13621.6 4696.6 13643.2 4610.8 13686.4 4535.2C13730.8 4458.4 13790.8 4398.4 13866.4 4355.2C13943.2 4310.8 14029.6 4288.6 14125.6 4288.6C14221.6 4288.6 14307.4 4310.8 14383 4355.2C14458.6 4398.4 14518 4458.4 14561.2 4535.2C14605.6 4610.8 14627.8 4696.6 14627.8 4792.6C14627.8 4887.4 14605.6 4973.2 14561.2 5050C14518 5125.6 14458.6 5185.6 14383 5230C14307.4 5273.2 14221.6 5294.8 14125.6 5294.8ZM14125.6 5194C14201.2 5194 14268.4 5176.6 14327.2 5141.8C14387.2 5105.8 14434 5057.8 14467.6 4997.8C14502.4 4936.6 14519.8 4867.6 14519.8 4790.8C14519.8 4715.2 14502.4 4647.4 14467.6 4587.4C14434 4526.2 14387.2 4478.2 14327.2 4443.4C14268.4 4407.4 14201.2 4389.4 14125.6 4389.4C14051.2 4389.4 13984 4407.4 13924 4443.4C13864 4478.2 13816.6 4526.2 13781.8 4587.4C13747 4647.4 13729.6 4715.8 13729.6 4792.6C13729.6 4868.2 13747 4936.6 13781.8 4997.8C13816.6 5057.8 13864 5105.8 13924 5141.8C13984 5176.6 14051.2 5194 14125.6 5194Z" fill="#E8E7E7"/>
<path d="M2646 0.5C4107.07 0.5 5291.5 1184.93 5291.5 2646C5291.5 4107.07 4107.07 5291.5 2646 5291.5C1184.93 5291.5 0.5 4107.07 0.5 2646C0.5 1184.93 1184.93 0.5 2646 0.5Z" fill="#0F0F0F" stroke="black"/>
<path d="M1778.23 3592C1740.24 3592 1707.25 3579 1679.26 3553.01C1651.27 3525.02 1637.28 3491.03 1637.28 3451.05V1390.73C1637.28 1348.75 1650.27 1314.76 1676.26 1288.77C1704.25 1262.78 1738.24 1249.78 1778.23 1249.78H3154.77C3196.76 1249.78 3229.74 1262.78 3253.74 1288.77C3279.73 1312.76 3292.72 1344.75 3292.72 1384.74C3292.72 1420.72 3279.73 1451.71 3253.74 1477.7C3229.74 1501.7 3196.76 1513.69 3154.77 1513.69H1919.18V2281.44H2809.88C2851.87 2281.44 2885.86 2294.43 2911.85 2320.42C2937.84 2344.42 2950.84 2375.41 2950.84 2413.39C2950.84 2451.38 2937.84 2483.37 2911.85 2509.36C2885.86 2533.35 2851.87 2545.35 2809.88 2545.35H1919.18V3451.05C1919.18 3491.03 1905.19 3525.02 1877.2 3553.01C1851.2 3579 1818.22 3592 1778.23 3592Z" fill="#757070"/>
<path d="M896.43 3593C852.43 3593 815.43 3578 785.43 3548C755.43 3518 740.43 3481 740.43 3437V1406C740.43 1360 755.43 1323 785.43 1295C815.43 1265 852.43 1250 896.43 1250H1496.43C1646.43 1250 1779.43 1283 1895.43 1349C2011.43 1415 2101.43 1507 2165.43 1625C2231.43 1741 2264.43 1875 2264.43 2027C2264.43 2173 2231.43 2303 2165.43 2417C2101.43 2531 2011.43 2620 1895.43 2684C1779.43 2748 1646.43 2780 1496.43 2780H1052.43V3437C1052.43 3481 1037.43 3518 1007.43 3548C979.43 3578 942.43 3593 896.43 3593ZM1052.43 2492H1496.43C1588.43 2492 1669.43 2472 1739.43 2432C1809.43 2392 1864.43 2337 1904.43 2267C1944.43 2197 1964.43 2117 1964.43 2027C1964.43 1931 1944.43 1847 1904.43 1775C1864.43 1701 1809.43 1643 1739.43 1601C1669.43 1559 1588.43 1538 1496.43 1538H1052.43V2492Z" fill="#FDF8F8"/>
<path d="M2990.31 3593C2934.31 3593 2891.31 3569 2861.31 3521C2831.31 3473 2828.31 3422 2852.31 3368L3695.31 1355C3725.31 1285 3774.31 1250 3842.31 1250C3914.31 1250 3963.31 1285 3989.31 1355L4835.31 3374C4857.31 3430 4853.31 3481 4823.31 3527C4795.31 3571 4752.31 3593 4694.31 3593C4664.31 3593 4635.31 3585 4607.31 3569C4581.31 3551 4562.31 3527 4550.31 3497L3806.31 1649H3890.31L3134.31 3497C3120.31 3529 3099.31 3553 3071.31 3569C3045.31 3585 3018.31 3593 2990.31 3593ZM3149.31 3077L3269.31 2819H4445.31L4565.31 3077H3149.31Z" fill="#757070"/>
</svg>
