<svg width="5292" height="5292" viewBox="0 0 5292 5292" fill="none" xmlns="http://www.w3.org/2000/svg">
<path d="M2646 0.5C4107.07 0.5 5291.5 1184.93 5291.5 2646C5291.5 4107.07 4107.07 5291.5 2646 5291.5C1184.93 5291.5 0.5 4107.07 0.5 2646C0.5 1184.93 1184.93 0.5 2646 0.5Z" fill="#0F0F0F" stroke="black"/>
<path d="M1778.23 3592C1740.24 3592 1707.25 3579 1679.26 3553.01C1651.27 3525.02 1637.28 3491.03 1637.28 3451.05V1390.73C1637.28 1348.75 1650.27 1314.76 1676.26 1288.77C1704.25 1262.78 1738.24 1249.78 1778.23 1249.78H3154.77C3196.76 1249.78 3229.74 1262.78 3253.74 1288.77C3279.73 1312.76 3292.72 1344.75 3292.72 1384.74C3292.72 1420.72 3279.73 1451.71 3253.74 1477.7C3229.74 1501.7 3196.76 1513.69 3154.77 1513.69H1919.18V2281.44H2809.88C2851.87 2281.44 2885.86 2294.43 2911.85 2320.42C2937.84 2344.42 2950.84 2375.41 2950.84 2413.39C2950.84 2451.38 2937.84 2483.37 2911.85 2509.36C2885.86 2533.35 2851.87 2545.35 2809.88 2545.35H1919.18V3451.05C1919.18 3491.03 1905.19 3525.02 1877.2 3553.01C1851.2 3579 1818.22 3592 1778.23 3592Z" fill="#757070"/>
<path d="M896.43 3593C852.43 3593 815.43 3578 785.43 3548C755.43 3518 740.43 3481 740.43 3437V1406C740.43 1360 755.43 1323 785.43 1295C815.43 1265 852.43 1250 896.43 1250H1496.43C1646.43 1250 1779.43 1283 1895.43 1349C2011.43 1415 2101.43 1507 2165.43 1625C2231.43 1741 2264.43 1875 2264.43 2027C2264.43 2173 2231.43 2303 2165.43 2417C2101.43 2531 2011.43 2620 1895.43 2684C1779.43 2748 1646.43 2780 1496.43 2780H1052.43V3437C1052.43 3481 1037.43 3518 1007.43 3548C979.43 3578 942.43 3593 896.43 3593ZM1052.43 2492H1496.43C1588.43 2492 1669.43 2472 1739.43 2432C1809.43 2392 1864.43 2337 1904.43 2267C1944.43 2197 1964.43 2117 1964.43 2027C1964.43 1931 1944.43 1847 1904.43 1775C1864.43 1701 1809.43 1643 1739.43 1601C1669.43 1559 1588.43 1538 1496.43 1538H1052.43V2492Z" fill="#FDF8F8"/>
<path d="M2990.31 3593C2934.31 3593 2891.31 3569 2861.31 3521C2831.31 3473 2828.31 3422 2852.31 3368L3695.31 1355C3725.31 1285 3774.31 1250 3842.31 1250C3914.31 1250 3963.31 1285 3989.31 1355L4835.31 3374C4857.31 3430 4853.31 3481 4823.31 3527C4795.31 3571 4752.31 3593 4694.31 3593C4664.31 3593 4635.31 3585 4607.31 3569C4581.31 3551 4562.31 3527 4550.31 3497L3806.31 1649H3890.31L3134.31 3497C3120.31 3529 3099.31 3553 3071.31 3569C3045.31 3585 3018.31 3593 2990.31 3593ZM3149.31 3077L3269.31 2819H4445.31L4565.31 3077H3149.31Z" fill="#757070"/>
</svg>
