<svg width="7010" height="7107" viewBox="0 0 7010 7107" fill="none" xmlns="http://www.w3.org/2000/svg">
<path d="M6810 0H200C89.5431 0 0 89.5431 0 200V6907C0 7017.46 89.5431 7107 200 7107H6810C6920.46 7107 7010 7017.46 7010 6907V200C7010 89.5431 6920.46 0 6810 0Z" fill="#401616"/>
<path d="M3687.78 3356C3911.78 3356 4082.45 3305.33 4199.78 3204C4322.45 3097.33 4383.78 2937.33 4383.78 2724C4383.78 2521.33 4319.78 2366.67 4191.78 2260C4069.11 2148 3887.78 2092 3647.78 2092C3562.45 2092 3490.45 2094.67 3431.78 2100C3378.45 2100 3322.45 2105.33 3263.78 2116V3356H3687.78ZM3271.78 5924C3213.11 5940 3119.78 5956 2991.78 5972C2869.11 5988 2746.45 5996 2623.78 5996C2501.11 5996 2391.78 5985.33 2295.78 5964C2205.11 5948 2127.78 5916 2063.78 5868C1999.78 5820 1951.78 5753.33 1919.78 5668C1887.78 5582.67 1871.78 5470.67 1871.78 5332V1564C1871.78 1452 1901.11 1366.67 1959.78 1308C2023.78 1244 2109.11 1193.33 2215.78 1156C2397.11 1092 2602.45 1046.67 2831.78 1020C3066.45 988 3301.11 972 3535.78 972C4271.78 972 4834.45 1129.33 5223.78 1444C5613.11 1758.67 5807.78 2185.33 5807.78 2724C5807.78 2985.33 5765.11 3222.67 5679.78 3436C5599.78 3644 5477.11 3825.33 5311.78 3980C5151.78 4129.33 4946.45 4246.67 4695.78 4332C4450.45 4412 4165.11 4452 3839.78 4452H3271.78V5924Z" fill="white"/>
</svg>
