<svg width="4198" height="2897" viewBox="0 0 4198 2897" fill="none" xmlns="http://www.w3.org/2000/svg">
<path d="M1107.23 2642C1069.24 2642 1036.25 2629 1008.26 2603.01C980.271 2575.02 966.276 2541.03 966.276 2501.05V440.734C966.276 398.748 979.271 364.759 1005.26 338.768C1033.25 312.777 1067.24 299.781 1107.23 299.781H2483.77C2525.76 299.781 2558.74 312.777 2582.74 338.768C2608.73 362.76 2621.72 394.749 2621.72 434.736C2621.72 470.724 2608.73 501.714 2582.74 527.705C2558.74 551.697 2525.76 563.693 2483.77 563.693H1248.18V1331.44H2138.88C2180.87 1331.44 2214.86 1344.43 2240.85 1370.42C2266.84 1394.42 2279.84 1425.41 2279.84 1463.39C2279.84 1501.38 2266.84 1533.37 2240.85 1559.36C2214.86 1583.35 2180.87 1595.35 2138.88 1595.35H1248.18V2501.05C1248.18 2541.03 1234.19 2575.02 1206.2 2603.01C1180.2 2629 1147.22 2642 1107.23 2642Z" fill="#959393"/>
<path d="M225.43 2643C181.43 2643 144.43 2628 114.43 2598C84.4297 2568 69.4297 2531 69.4297 2487V456C69.4297 410 84.4297 373 114.43 345C144.43 315 181.43 300 225.43 300H825.43C975.43 300 1108.43 333 1224.43 399C1340.43 465 1430.43 557 1494.43 675C1560.43 791 1593.43 925 1593.43 1077C1593.43 1223 1560.43 1353 1494.43 1467C1430.43 1581 1340.43 1670 1224.43 1734C1108.43 1798 975.43 1830 825.43 1830H381.43V2487C381.43 2531 366.43 2568 336.43 2598C308.43 2628 271.43 2643 225.43 2643ZM381.43 1542H825.43C917.43 1542 998.43 1522 1068.43 1482C1138.43 1442 1193.43 1387 1233.43 1317C1273.43 1247 1293.43 1167 1293.43 1077C1293.43 981 1273.43 897 1233.43 825C1193.43 751 1138.43 693 1068.43 651C998.43 609 917.43 588 825.43 588H381.43V1542Z" fill="#FDF8F8"/>
<path d="M2319.31 2643C2263.31 2643 2220.31 2619 2190.31 2571C2160.31 2523 2157.31 2472 2181.31 2418L3024.31 405C3054.31 335 3103.31 300 3171.31 300C3243.31 300 3292.31 335 3318.31 405L4164.31 2424C4186.31 2480 4182.31 2531 4152.31 2577C4124.31 2621 4081.31 2643 4023.31 2643C3993.31 2643 3964.31 2635 3936.31 2619C3910.31 2601 3891.31 2577 3879.31 2547L3135.31 699H3219.31L2463.31 2547C2449.31 2579 2428.31 2603 2400.31 2619C2374.31 2635 2347.31 2643 2319.31 2643ZM2478.31 2127L2598.31 1869H3774.31L3894.31 2127H2478.31Z" fill="#959393"/>
</svg>
