<svg width="6819" height="6980" viewBox="0 0 6819 6980" fill="none" xmlns="http://www.w3.org/2000/svg">
<path d="M0 3409.5C0 1526.49 1526.49 0 3409.5 0C5292.51 0 6819 1526.49 6819 3409.5V3570.5C6819 5453.51 5292.51 6980 3409.5 6980C1526.49 6980 0 5453.51 0 3570.5V3409.5Z" fill="#1E1D1D"/>
<path d="M2703.24 4346C2671.25 4346 2643.26 4335 2619.26 4313.01C2597.27 4289.02 2586.27 4261.03 2586.27 4229.04V2120.74C2586.27 2086.75 2597.27 2058.76 2619.26 2036.77C2641.26 2014.78 2669.25 2003.78 2703.24 2003.78H4109.77C4143.76 2003.78 4171.75 2014.78 4193.74 2036.77C4215.73 2056.76 4226.73 2083.75 4226.73 2117.74C4226.73 2147.73 4215.73 2173.72 4193.74 2195.72C4171.75 2217.71 4143.76 2228.71 4109.77 2228.71H2820.2V3056.43H3758.88C3792.87 3056.43 3820.86 3067.43 3842.86 3089.42C3864.85 3111.41 3875.84 3138.4 3875.84 3170.39C3875.84 3202.38 3864.85 3229.37 3842.86 3251.36C3820.86 3273.36 3792.87 3284.35 3758.88 3284.35H2820.2V4229.04C2820.2 4261.03 2809.2 4289.02 2787.21 4313.01C2765.21 4335 2737.22 4346 2703.24 4346Z" fill="#878787"/>
<path d="M1819.54 4347C1785.54 4347 1757.54 4336 1735.54 4314C1713.54 4292 1702.54 4264 1702.54 4230V2121C1702.54 2087 1713.54 2059 1735.54 2037C1757.54 2015 1785.54 2004 1819.54 2004H2419.54C2567.54 2004 2698.54 2037 2812.54 2103C2926.54 2167 3015.54 2256 3079.54 2370C3143.54 2484 3175.54 2616 3175.54 2766C3175.54 2912 3143.54 3042 3079.54 3156C3015.54 3268 2926.54 3357 2812.54 3423C2698.54 3487 2567.54 3519 2419.54 3519H1936.54V4230C1936.54 4264 1925.54 4292 1903.54 4314C1881.54 4336 1853.54 4347 1819.54 4347ZM1936.54 3294H2419.54C2521.54 3294 2612.54 3272 2692.54 3228C2772.54 3182 2834.54 3119 2878.54 3039C2924.54 2959 2947.54 2868 2947.54 2766C2947.54 2660 2924.54 2567 2878.54 2487C2834.54 2407 2772.54 2344 2692.54 2298C2612.54 2252 2521.54 2229 2419.54 2229H1936.54V3294Z" fill="#FDF8F8"/>
<path d="M3900.31 4347C3854.31 4347 3821.31 4328 3801.31 4290C3781.31 4252 3779.31 4215 3795.31 4179L4677.31 2085C4699.31 2031 4737.31 2004 4791.31 2004C4843.31 2004 4880.31 2031 4902.31 2085L5787.31 4182C5805.31 4220 5802.31 4257 5778.31 4293C5756.31 4329 5724.31 4347 5682.31 4347C5658.31 4347 5636.31 4341 5616.31 4329C5598.31 4317 5583.31 4299 5571.31 4275L4746.31 2274H4839.31L4008.31 4275C3998.31 4299 3983.31 4317 3963.31 4329C3945.31 4341 3924.31 4347 3900.31 4347ZM4098.31 3789L4188.31 3588H5406.31L5496.31 3789H4098.31Z" fill="#878787"/>
</svg>
