<svg width="26330" height="6980" viewBox="0 0 26330 6980" fill="none" xmlns="http://www.w3.org/2000/svg">
<path d="M8447.56 3443C8411.56 3443 8382.56 3432 8360.56 3410C8340.56 3390 8330.56 3362 8330.56 3326V1910C8332.56 1754 8369.56 1614 8441.56 1490C8515.56 1364 8614.56 1265 8738.56 1193C8864.56 1121 9005.56 1085 9161.56 1085C9321.56 1085 9464.56 1122 9590.56 1196C9716.56 1268 9815.56 1367 9887.56 1493C9961.56 1619 9998.56 1762 9998.56 1922C9998.56 2080 9962.56 2222 9890.56 2348C9820.56 2474 9724.56 2574 9602.56 2648C9480.56 2720 9342.56 2756 9188.56 2756C9054.56 2756 8932.56 2728 8822.56 2672C8714.56 2614 8627.56 2538 8561.56 2444V3326C8561.56 3362 8550.56 3390 8528.56 3410C8508.56 3432 8481.56 3443 8447.56 3443ZM9161.56 2546C9277.56 2546 9381.56 2519 9473.56 2465C9565.56 2411 9637.56 2337 9689.56 2243C9743.56 2147 9770.56 2040 9770.56 1922C9770.56 1802 9743.56 1695 9689.56 1601C9637.56 1507 9565.56 1433 9473.56 1379C9381.56 1323 9277.56 1295 9161.56 1295C9047.56 1295 8944.56 1323 8852.56 1379C8760.56 1433 8688.56 1507 8636.56 1601C8584.56 1695 8558.56 1802 8558.56 1922C8558.56 2040 8584.56 2147 8636.56 2243C8688.56 2337 8760.56 2411 8852.56 2465C8944.56 2519 9047.56 2546 9161.56 2546ZM10697.7 1730C10703.7 1606 10735.7 1495 10793.7 1397C10853.7 1299 10930.7 1222 11024.7 1166C11120.7 1110 11226.7 1082 11342.7 1082C11434.7 1082 11505.7 1095 11555.7 1121C11605.7 1147 11624.7 1185 11612.7 1235C11604.7 1265 11590.7 1285 11570.7 1295C11552.7 1305 11529.7 1309 11501.7 1307C11475.7 1305 11445.7 1303 11411.7 1301C11299.7 1291 11199.7 1303 11111.7 1337C11025.7 1369 10956.7 1419 10904.7 1487C10854.7 1555 10829.7 1636 10829.7 1730H10697.7ZM10715.7 2741C10679.7 2741 10651.7 2731 10631.7 2711C10611.7 2691 10601.7 2663 10601.7 2627V1214C10601.7 1178 10611.7 1150 10631.7 1130C10651.7 1110 10679.7 1100 10715.7 1100C10751.7 1100 10779.7 1110 10799.7 1130C10819.7 1150 10829.7 1178 10829.7 1214V2627C10829.7 2663 10819.7 2691 10799.7 2711C10779.7 2731 10751.7 2741 10715.7 2741ZM12752.6 2756C12592.6 2756 12449.6 2720 12323.6 2648C12197.6 2576 12098.6 2477 12026.6 2351C11954.6 2225 11918.6 2082 11918.6 1922C11918.6 1760 11954.6 1616 12026.6 1490C12098.6 1364 12197.6 1265 12323.6 1193C12449.6 1121 12592.6 1085 12752.6 1085C12912.6 1085 13054.6 1121 13178.6 1193C13304.6 1265 13403.6 1364 13475.6 1490C13547.6 1616 13584.6 1760 13586.6 1922C13586.6 2082 13549.6 2225 13475.6 2351C13403.6 2477 13304.6 2576 13178.6 2648C13054.6 2720 12912.6 2756 12752.6 2756ZM12752.6 2546C12868.6 2546 12972.6 2519 13064.6 2465C13156.6 2411 13228.6 2337 13280.6 2243C13332.6 2149 13358.6 2042 13358.6 1922C13358.6 1802 13332.6 1695 13280.6 1601C13228.6 1505 13156.6 1430 13064.6 1376C12972.6 1322 12868.6 1295 12752.6 1295C12636.6 1295 12532.6 1322 12440.6 1376C12348.6 1430 12275.6 1505 12221.6 1601C12169.6 1695 12143.6 1802 12143.6 1922C12143.6 2042 12169.6 2149 12221.6 2243C12275.6 2337 12348.6 2411 12440.6 2465C12532.6 2519 12636.6 2546 12752.6 2546Z" fill="#757070"/>
<path d="M14389.8 2741C14359.8 2741 14333.8 2731 14311.8 2711C14289.8 2689 14278.8 2660 14278.8 2624V1103C14278.8 963 14302.8 840 14350.8 734C14398.8 628 14469.8 546 14563.8 488C14657.8 428 14772.8 398 14908.8 398C14942.8 398 14970.8 408 14992.8 428C15014.8 448 15025.8 473 15025.8 503C15025.8 533 15014.8 558 14992.8 578C14970.8 598 14942.8 608 14908.8 608C14818.8 608 14743.8 629 14683.8 671C14625.8 711 14581.8 768 14551.8 842C14523.8 914 14509.8 997 14509.8 1091V2624C14509.8 2660 14498.8 2689 14476.8 2711C14456.8 2731 14427.8 2741 14389.8 2741ZM14086.8 1361C14054.8 1361 14028.8 1352 14008.8 1334C13990.8 1314 13981.8 1290 13981.8 1262C13981.8 1232 13990.8 1208 14008.8 1190C14028.8 1170 14054.8 1160 14086.8 1160H14869.8C14901.8 1160 14926.8 1170 14944.8 1190C14964.8 1208 14974.8 1232 14974.8 1262C14974.8 1290 14964.8 1314 14944.8 1334C14926.8 1352 14901.8 1361 14869.8 1361H14086.8Z" fill="#EAE7E5"/>
<path d="M15599.5 2741C15563.5 2741 15534.5 2731 15512.5 2711C15492.5 2689 15482.5 2660 15482.5 2624V1217C15482.5 1181 15492.5 1153 15512.5 1133C15534.5 1111 15563.5 1100 15599.5 1100C15633.5 1100 15660.5 1111 15680.5 1133C15702.5 1153 15713.5 1181 15713.5 1217V2624C15713.5 2660 15702.5 2689 15680.5 2711C15660.5 2731 15633.5 2741 15599.5 2741ZM15596.5 788C15552.5 788 15514.5 772 15482.5 740C15450.5 708 15434.5 669 15434.5 623C15434.5 573 15450.5 534 15482.5 506C15516.5 476 15555.5 461 15599.5 461C15641.5 461 15678.5 476 15710.5 506C15744.5 534 15761.5 573 15761.5 623C15761.5 669 15745.5 708 15713.5 740C15681.5 772 15642.5 788 15596.5 788ZM17858.7 2741C17824.7 2741 17796.7 2730 17774.7 2708C17752.7 2686 17741.7 2659 17741.7 2627V1847C17741.7 1723 17717.7 1621 17669.7 1541C17623.7 1461 17559.7 1401 17477.7 1361C17397.7 1321 17306.7 1301 17204.7 1301C17106.7 1301 17017.7 1320 16937.7 1358C16859.7 1396 16797.7 1448 16751.7 1514C16705.7 1580 16682.7 1655 16682.7 1739H16517.7C16521.7 1613 16555.7 1501 16619.7 1403C16683.7 1303 16768.7 1225 16874.7 1169C16980.7 1111 17098.7 1082 17228.7 1082C17370.7 1082 17497.7 1112 17609.7 1172C17721.7 1230 17809.7 1316 17873.7 1430C17939.7 1544 17972.7 1683 17972.7 1847V2627C17972.7 2659 17961.7 2686 17939.7 2708C17917.7 2730 17890.7 2741 17858.7 2741ZM16568.7 2741C16532.7 2741 16503.7 2731 16481.7 2711C16461.7 2689 16451.7 2661 16451.7 2627V1217C16451.7 1181 16461.7 1153 16481.7 1133C16503.7 1111 16532.7 1100 16568.7 1100C16602.7 1100 16629.7 1111 16649.7 1133C16671.7 1153 16682.7 1181 16682.7 1217V2627C16682.7 2661 16671.7 2689 16649.7 2711C16629.7 2731 16602.7 2741 16568.7 2741ZM19375.9 2756C19213.9 2756 19069.9 2721 18943.9 2651C18819.9 2579 18721.9 2480 18649.9 2354C18579.9 2228 18544.9 2084 18544.9 1922C18544.9 1758 18577.9 1614 18643.9 1490C18711.9 1364 18804.9 1265 18922.9 1193C19040.9 1121 19176.9 1085 19330.9 1085C19482.9 1085 19614.9 1120 19726.9 1190C19840.9 1258 19928.9 1353 19990.9 1475C20052.9 1597 20083.9 1736 20083.9 1892C20083.9 1924 20073.9 1950 20053.9 1970C20033.9 1988 20007.9 1997 19975.9 1997H18700.9V1805H19999.9L19870.9 1898C19872.9 1782 19851.9 1678 19807.9 1586C19763.9 1494 19700.9 1422 19618.9 1370C19538.9 1318 19442.9 1292 19330.9 1292C19216.9 1292 19116.9 1319 19030.9 1373C18944.9 1427 18877.9 1502 18829.9 1598C18783.9 1692 18760.9 1800 18760.9 1922C18760.9 2044 18786.9 2152 18838.9 2246C18892.9 2340 18965.9 2414 19057.9 2468C19149.9 2522 19255.9 2549 19375.9 2549C19447.9 2549 19519.9 2537 19591.9 2513C19665.9 2487 19724.9 2455 19768.9 2417C19790.9 2399 19815.9 2390 19843.9 2390C19871.9 2388 19895.9 2395 19915.9 2411C19941.9 2435 19954.9 2461 19954.9 2489C19956.9 2517 19945.9 2541 19921.9 2561C19855.9 2617 19771.9 2664 19669.9 2702C19567.9 2738 19469.9 2756 19375.9 2756ZM21289.1 2756C21135.1 2756 20997.1 2720 20875.1 2648C20753.1 2574 20656.1 2474 20584.1 2348C20514.1 2222 20479.1 2080 20479.1 1922C20479.1 1762 20515.1 1619 20587.1 1493C20661.1 1367 20761.1 1268 20887.1 1196C21013.1 1122 21155.1 1085 21313.1 1085C21471.1 1085 21612.1 1122 21736.1 1196C21862.1 1268 21961.1 1367 22033.1 1493C22107.1 1619 22145.1 1762 22147.1 1922L22054.1 1994C22054.1 2138 22020.1 2268 21952.1 2384C21886.1 2498 21795.1 2589 21679.1 2657C21565.1 2723 21435.1 2756 21289.1 2756ZM21313.1 2546C21429.1 2546 21532.1 2519 21622.1 2465C21714.1 2411 21786.1 2337 21838.1 2243C21892.1 2147 21919.1 2040 21919.1 1922C21919.1 1802 21892.1 1695 21838.1 1601C21786.1 1507 21714.1 1433 21622.1 1379C21532.1 1323 21429.1 1295 21313.1 1295C21199.1 1295 21096.1 1323 21004.1 1379C20912.1 1433 20839.1 1507 20785.1 1601C20731.1 1695 20704.1 1802 20704.1 1922C20704.1 2040 20731.1 2147 20785.1 2243C20839.1 2337 20912.1 2411 21004.1 2465C21096.1 2519 21199.1 2546 21313.1 2546ZM22030.1 2741C21996.1 2741 21968.1 2731 21946.1 2711C21924.1 2689 21913.1 2661 21913.1 2627V2114L21970.1 1877L22147.1 1922V2627C22147.1 2661 22136.1 2689 22114.1 2711C22092.1 2731 22064.1 2741 22030.1 2741ZM22842.4 1730C22848.4 1606 22880.4 1495 22938.4 1397C22998.4 1299 23075.4 1222 23169.4 1166C23265.4 1110 23371.4 1082 23487.4 1082C23579.4 1082 23650.4 1095 23700.4 1121C23750.4 1147 23769.4 1185 23757.4 1235C23749.4 1265 23735.4 1285 23715.4 1295C23697.4 1305 23674.4 1309 23646.4 1307C23620.4 1305 23590.4 1303 23556.4 1301C23444.4 1291 23344.4 1303 23256.4 1337C23170.4 1369 23101.4 1419 23049.4 1487C22999.4 1555 22974.4 1636 22974.4 1730H22842.4ZM22860.4 2741C22824.4 2741 22796.4 2731 22776.4 2711C22756.4 2691 22746.4 2663 22746.4 2627V1214C22746.4 1178 22756.4 1150 22776.4 1130C22796.4 1110 22824.4 1100 22860.4 1100C22896.4 1100 22924.4 1110 22944.4 1130C22964.4 1150 22974.4 1178 22974.4 1214V2627C22974.4 2663 22964.4 2691 22944.4 2711C22924.4 2731 22896.4 2741 22860.4 2741ZM24912.4 2741C24806.4 2741 24711.4 2716 24627.4 2666C24545.4 2616 24480.4 2548 24432.4 2462C24384.4 2374 24360.4 2274 24360.4 2162V695C24360.4 661 24370.4 633 24390.4 611C24412.4 589 24440.4 578 24474.4 578C24508.4 578 24536.4 589 24558.4 611C24580.4 633 24591.4 661 24591.4 695V2162C24591.4 2264 24621.4 2348 24681.4 2414C24741.4 2478 24818.4 2510 24912.4 2510H24993.4C25025.4 2510 25051.4 2521 25071.4 2543C25091.4 2565 25101.4 2593 25101.4 2627C25101.4 2661 25089.4 2689 25065.4 2711C25041.4 2731 25011.4 2741 24975.4 2741H24912.4ZM24165.4 1361C24135.4 1361 24110.4 1352 24090.4 1334C24070.4 1314 24060.4 1290 24060.4 1262C24060.4 1232 24070.4 1208 24090.4 1190C24110.4 1170 24135.4 1160 24165.4 1160H24930.4C24960.4 1160 24985.4 1170 25005.4 1190C25025.4 1208 25035.4 1232 25035.4 1262C25035.4 1290 25025.4 1314 25005.4 1334C24985.4 1352 24960.4 1361 24930.4 1361H24165.4Z" fill="white"/>
<path d="M10065.4 5700C10040 5700 10018.7 5693.33 10001.4 5680C9985.35 5665.33 9977.35 5646 9977.35 5622V4216C9977.35 4193.33 9984.68 4174.67 9999.35 4160C10014 4145.33 10032.7 4138 10055.4 4138H10541.4C10621.4 4138 10693.4 4155.33 10757.4 4190C10822.7 4223.33 10874 4269.33 10911.4 4328C10950 4386.67 10969.4 4454.67 10969.4 4532C10969.4 4604 10950 4668 10911.4 4724C10872.7 4780 10822 4822.67 10759.4 4852C10848.7 4876 10920.7 4921.33 10975.4 4988C11030 5053.33 11057.4 5136.67 11057.4 5238C11057.4 5328.67 11036.7 5408.67 10995.4 5478C10954 5547.33 10896.7 5602 10823.4 5642C10751.4 5680.67 10668.7 5700 10575.4 5700H10065.4ZM10133.4 5550H10575.4C10639.4 5550 10696 5537.33 10745.4 5512C10794.7 5486.67 10833.4 5450.67 10861.4 5404C10889.4 5357.33 10903.4 5302 10903.4 5238C10903.4 5178 10889.4 5126 10861.4 5082C10833.4 5036.67 10794.7 5002 10745.4 4978C10696 4952.67 10639.4 4940 10575.4 4940H10133.4V5550ZM10133.4 4790H10541.4C10621.4 4790 10687.4 4767.33 10739.4 4722C10791.4 4676.67 10817.4 4613.33 10817.4 4532C10817.4 4452 10791.4 4391.33 10739.4 4350C10687.4 4308.67 10621.4 4288 10541.4 4288H10133.4V4790ZM11930 5710C11827.3 5710 11735.3 5686 11654 5638C11572.6 5588.67 11508 5522 11460 5438C11413.3 5354 11390 5259.33 11390 5154C11390 5047.33 11414 4952 11462 4868C11511.3 4784 11578 4718 11662 4670C11746 4620.67 11840.6 4596 11946 4596C12051.3 4596 12145.3 4620.67 12228 4670C12312 4718 12378 4784 12426 4868C12475.3 4952 12500.6 5047.33 12502 5154L12440 5202C12440 5298 12417.3 5384.67 12372 5462C12328 5538 12267.3 5598.67 12190 5644C12114 5688 12027.3 5710 11930 5710ZM11946 5570C12023.3 5570 12092 5552 12152 5516C12213.3 5480 12261.3 5430.67 12296 5368C12332 5304 12350 5232.67 12350 5154C12350 5074 12332 5002.67 12296 4940C12261.3 4877.33 12213.3 4828 12152 4792C12092 4754.67 12023.3 4736 11946 4736C11870 4736 11801.3 4754.67 11740 4792C11678.6 4828 11630 4877.33 11594 4940C11558 5002.67 11540 5074 11540 5154C11540 5232.67 11558 5304 11594 5368C11630 5430.67 11678.6 5480 11740 5516C11801.3 5552 11870 5570 11946 5570ZM12424 5700C12401.3 5700 12382.6 5693.33 12368 5680C12353.3 5665.33 12346 5646.67 12346 5624V5282L12384 5124L12502 5154V5624C12502 5646.67 12494.6 5665.33 12480 5680C12465.3 5693.33 12446.6 5700 12424 5700ZM13283.5 5710C13204.8 5710 13126.8 5696.67 13049.5 5670C12972.2 5643.33 12909.5 5603.33 12861.5 5550C12846.8 5534 12840.8 5516 12843.5 5496C12846.2 5476 12856.2 5458.67 12873.5 5444C12892.2 5430.67 12911.5 5425.33 12931.5 5428C12951.5 5430.67 12968.2 5439.33 12981.5 5454C13013.5 5491.33 13055.5 5520 13107.5 5540C13160.8 5560 13219.5 5570 13283.5 5570C13382.2 5570 13453.5 5553.33 13497.5 5520C13541.5 5485.33 13564.2 5444 13565.5 5396C13565.5 5348 13542.8 5308.67 13497.5 5278C13452.2 5246 13377.5 5221.33 13273.5 5204C13138.8 5182.67 13040.2 5145.33 12977.5 5092C12914.8 5038.67 12883.5 4975.33 12883.5 4902C12883.5 4834 12901.5 4777.33 12937.5 4732C12973.5 4686.67 13021.5 4652.67 13081.5 4630C13141.5 4607.33 13207.5 4596 13279.5 4596C13368.8 4596 13445.5 4611.33 13509.5 4642C13574.8 4672.67 13627.5 4714 13667.5 4766C13680.8 4783.33 13686.2 4801.33 13683.5 4820C13680.8 4838.67 13670.2 4854 13651.5 4866C13635.5 4875.33 13616.8 4878.67 13595.5 4876C13575.5 4872 13558.2 4862 13543.5 4846C13510.2 4807.33 13471.5 4779.33 13427.5 4762C13383.5 4743.33 13332.8 4734 13275.5 4734C13202.2 4734 13143.5 4749.33 13099.5 4780C13055.5 4809.33 13033.5 4846.67 13033.5 4892C13033.5 4922.67 13041.5 4949.33 13057.5 4972C13074.8 4994.67 13103.5 5014.67 13143.5 5032C13184.8 5049.33 13242.2 5064 13315.5 5076C13415.5 5092 13494.2 5116 13551.5 5148C13610.2 5178.67 13651.5 5215.33 13675.5 5258C13700.8 5299.33 13713.5 5344.67 13713.5 5394C13713.5 5456.67 13694.8 5512 13657.5 5560C13621.5 5606.67 13570.8 5643.33 13505.5 5670C13441.5 5696.67 13367.5 5710 13283.5 5710ZM14575.6 5710C14467.6 5710 14371.6 5686.67 14287.6 5640C14205 5592 14139.6 5526 14091.6 5442C14045 5358 14021.6 5262 14021.6 5154C14021.6 5044.67 14043.6 4948.67 14087.6 4866C14133 4782 14195 4716 14273.6 4668C14352.3 4620 14443 4596 14545.6 4596C14647 4596 14735 4619.33 14809.6 4666C14885.6 4711.33 14944.3 4774.67 14985.6 4856C15027 4937.33 15047.6 5030 15047.6 5134C15047.6 5155.33 15041 5172.67 15027.6 5186C15014.3 5198 14997 5204 14975.6 5204H14125.6V5076H14991.6L14905.6 5138C14907 5060.67 14893 4991.33 14863.6 4930C14834.3 4868.67 14792.3 4820.67 14737.6 4786C14684.3 4751.33 14620.3 4734 14545.6 4734C14469.6 4734 14403 4752 14345.6 4788C14288.3 4824 14243.6 4874 14211.6 4938C14181 5000.67 14165.6 5072.67 14165.6 5154C14165.6 5235.33 14183 5307.33 14217.6 5370C14253.6 5432.67 14302.3 5482 14363.6 5518C14425 5554 14495.6 5572 14575.6 5572C14623.6 5572 14671.6 5564 14719.6 5548C14769 5530.67 14808.3 5509.33 14837.6 5484C14852.3 5472 14869 5466 14887.6 5466C14906.3 5464.67 14922.3 5469.33 14935.6 5480C14953 5496 14961.6 5513.33 14961.6 5532C14963 5550.67 14955.6 5566.67 14939.6 5580C14895.6 5617.33 14839.6 5648.67 14771.6 5674C14703.6 5698 14638.3 5710 14575.6 5710ZM15644.1 5700C15590.8 5700 15542.8 5685.33 15500.1 5656C15458.8 5626.67 15426.1 5586 15402.1 5534C15379.5 5482 15368.1 5422 15368.1 5354V4214C15368.1 4191.33 15374.8 4173.33 15388.1 4160C15402.8 4145.33 15421.5 4138 15444.1 4138C15466.8 4138 15484.8 4145.33 15498.1 4160C15512.8 4173.33 15520.1 4191.33 15520.1 4214V5354C15520.1 5411.33 15531.5 5458 15554.1 5494C15578.1 5530 15608.1 5548 15644.1 5548H15694.1C15714.1 5548 15730.1 5555.33 15742.1 5570C15754.1 5583.33 15760.1 5601.33 15760.1 5624C15760.1 5646.67 15751.5 5665.33 15734.1 5680C15718.1 5693.33 15696.8 5700 15670.1 5700H15644.1ZM17258.5 5720C17173.2 5720 17093.9 5708 17020.5 5684C16948.5 5658.67 16885.9 5623.33 16832.5 5578C16779.2 5532.67 16738.5 5480 16710.5 5420C16699.9 5398.67 16699.2 5379.33 16708.5 5362C16719.2 5343.33 16736.5 5330.67 16760.5 5324C16779.2 5318.67 16797.2 5320.67 16814.5 5330C16833.2 5339.33 16847.2 5353.33 16856.5 5372C16876.5 5410.67 16905.9 5445.33 16944.5 5476C16983.2 5506.67 17029.2 5530.67 17082.5 5548C17135.9 5564 17194.5 5572 17258.5 5572C17329.2 5572 17391.9 5560.67 17446.5 5538C17501.2 5514 17543.9 5480 17574.5 5436C17606.5 5390.67 17622.5 5336 17622.5 5272C17622.5 5190.67 17592.5 5120.67 17532.5 5062C17472.5 5003.33 17378.5 4966 17250.5 4950C17094.5 4931.33 16972.5 4883.33 16884.5 4806C16796.5 4727.33 16752.5 4631.33 16752.5 4518C16752.5 4436.67 16773.9 4366 16816.5 4306C16860.5 4246 16920.5 4200 16996.5 4168C17072.5 4134.67 17159.9 4118 17258.5 4118C17331.9 4118 17398.5 4130 17458.5 4154C17518.5 4176.67 17570.5 4207.33 17614.5 4246C17659.9 4283.33 17696.5 4324.67 17724.5 4370C17737.9 4391.33 17741.9 4412 17736.5 4432C17732.5 4452 17721.2 4467.33 17702.5 4478C17682.5 4487.33 17661.9 4488.67 17640.5 4482C17620.5 4475.33 17605.2 4462.67 17594.5 4444C17574.5 4413.33 17549.2 4384.67 17518.5 4358C17489.2 4330 17453.2 4308 17410.5 4292C17367.9 4276 17316.5 4267.33 17256.5 4266C17151.2 4266 17066.5 4288.67 17002.5 4334C16938.5 4378 16906.5 4442.67 16906.5 4528C16906.5 4573.33 16918.5 4615.33 16942.5 4654C16966.5 4691.33 17005.9 4724 17060.5 4752C17116.5 4778.67 17191.2 4798.67 17284.5 4812C17451.2 4836 17574.5 4887.33 17654.5 4966C17735.9 5043.33 17776.5 5144.67 17776.5 5270C17776.5 5342 17763.2 5406 17736.5 5462C17711.2 5518 17674.5 5565.33 17626.5 5604C17579.9 5641.33 17524.5 5670 17460.5 5690C17397.9 5710 17330.5 5720 17258.5 5720ZM18610.7 5700C18540.1 5700 18476.7 5683.33 18420.7 5650C18366.1 5616.67 18322.7 5571.33 18290.7 5514C18258.7 5455.33 18242.7 5388.67 18242.7 5314V4336C18242.7 4313.33 18249.4 4294.67 18262.7 4280C18277.4 4265.33 18296.1 4258 18318.7 4258C18341.4 4258 18360.1 4265.33 18374.7 4280C18389.4 4294.67 18396.7 4313.33 18396.7 4336V5314C18396.7 5382 18416.7 5438 18456.7 5482C18496.7 5524.67 18548.1 5546 18610.7 5546H18664.7C18686.1 5546 18703.4 5553.33 18716.7 5568C18730.1 5582.67 18736.7 5601.33 18736.7 5624C18736.7 5646.67 18728.7 5665.33 18712.7 5680C18696.7 5693.33 18676.7 5700 18652.7 5700H18610.7ZM18112.7 4780C18092.7 4780 18076.1 4774 18062.7 4762C18049.4 4748.67 18042.7 4732.67 18042.7 4714C18042.7 4694 18049.4 4678 18062.7 4666C18076.1 4652.67 18092.7 4646 18112.7 4646H18622.7C18642.7 4646 18659.4 4652.67 18672.7 4666C18686.1 4678 18692.7 4694 18692.7 4714C18692.7 4732.67 18686.1 4748.67 18672.7 4762C18659.4 4774 18642.7 4780 18622.7 4780H18112.7ZM19563.4 5712C19468.8 5712 19384.1 5692.67 19309.4 5654C19234.8 5614 19175.4 5556 19131.4 5480C19088.8 5404 19067.4 5311.33 19067.4 5202V4682C19067.4 4660.67 19074.8 4642.67 19089.4 4628C19104.1 4613.33 19122.1 4606 19143.4 4606C19166.1 4606 19184.8 4613.33 19199.4 4628C19214.1 4642.67 19221.4 4660.67 19221.4 4682V5202C19221.4 5284.67 19236.8 5352.67 19267.4 5406C19299.4 5459.33 19342.1 5499.33 19395.4 5526C19450.1 5552.67 19511.4 5566 19579.4 5566C19644.8 5566 19703.4 5553.33 19755.4 5528C19808.8 5502.67 19850.8 5468 19881.4 5424C19912.1 5380 19927.4 5330 19927.4 5274H20037.4C20033.4 5358 20010.1 5433.33 19967.4 5500C19926.1 5565.33 19870.1 5617.33 19799.4 5656C19728.8 5693.33 19650.1 5712 19563.4 5712ZM20003.4 5700C19980.8 5700 19962.1 5693.33 19947.4 5680C19934.1 5665.33 19927.4 5646 19927.4 5622V4682C19927.4 4659.33 19934.1 4641.33 19947.4 4628C19962.1 4613.33 19980.8 4606 20003.4 4606C20026.1 4606 20044.8 4613.33 20059.4 4628C20074.1 4641.33 20081.4 4659.33 20081.4 4682V5622C20081.4 5646 20074.1 5665.33 20059.4 5680C20044.8 5693.33 20026.1 5700 20003.4 5700ZM21038.9 5710C20933.6 5710 20838.9 5686 20754.9 5638C20670.9 5588.67 20604.3 5522 20554.9 5438C20506.9 5354 20482.9 5258.67 20482.9 5152C20482.9 5046.67 20506.3 4952 20552.9 4868C20600.9 4784 20665.6 4718 20746.9 4670C20828.3 4620.67 20920.3 4596 21022.9 4596C21112.3 4596 21192.9 4615.33 21264.9 4654C21336.9 4691.33 21394.9 4741.33 21438.9 4804V4216C21438.9 4192 21446.3 4173.33 21460.9 4160C21475.6 4145.33 21494.3 4138 21516.9 4138C21539.6 4138 21558.3 4145.33 21572.9 4160C21587.6 4173.33 21594.9 4192 21594.9 4216V5160C21592.3 5264 21566.3 5358 21516.9 5442C21468.9 5524.67 21402.9 5590 21318.9 5638C21236.3 5686 21142.9 5710 21038.9 5710ZM21038.9 5570C21116.3 5570 21184.9 5552 21244.9 5516C21306.3 5478.67 21354.3 5428.67 21388.9 5366C21424.9 5303.33 21442.9 5232 21442.9 5152C21442.9 5073.33 21424.9 5002.67 21388.9 4940C21354.3 4876 21306.3 4826 21244.9 4790C21184.9 4754 21116.3 4736 21038.9 4736C20962.9 4736 20894.3 4754 20832.9 4790C20771.6 4826 20722.9 4876 20686.9 4940C20650.9 5002.67 20632.9 5073.33 20632.9 5152C20632.9 5232 20650.9 5303.33 20686.9 5366C20722.9 5428.67 20771.6 5478.67 20832.9 5516C20894.3 5552 20962.9 5570 21038.9 5570ZM22165 5700C22141 5700 22121.7 5693.33 22107 5680C22093.7 5665.33 22087 5646 22087 5622V4684C22087 4660 22093.7 4641.33 22107 4628C22121.7 4613.33 22141 4606 22165 4606C22187.7 4606 22205.7 4613.33 22219 4628C22233.7 4641.33 22241 4660 22241 4684V5622C22241 5646 22233.7 5665.33 22219 5680C22205.7 5693.33 22187.7 5700 22165 5700ZM22163 4398C22133.7 4398 22108.3 4387.33 22087 4366C22065.7 4344.67 22055 4318.67 22055 4288C22055 4254.67 22065.7 4228.67 22087 4210C22109.7 4190 22135.7 4180 22165 4180C22193 4180 22217.7 4190 22239 4210C22261.7 4228.67 22273 4254.67 22273 4288C22273 4318.67 22262.3 4344.67 22241 4366C22219.7 4387.33 22193.7 4398 22163 4398ZM23231.1 5710C23124.5 5710 23029.1 5686 22945.1 5638C22861.1 5590 22795.1 5524 22747.1 5440C22699.1 5356 22675.1 5260.67 22675.1 5154C22675.1 5046 22699.1 4950 22747.1 4866C22795.1 4782 22861.1 4716 22945.1 4668C23029.1 4620 23124.5 4596 23231.1 4596C23337.8 4596 23432.5 4620 23515.1 4668C23599.1 4716 23665.1 4782 23713.1 4866C23761.1 4950 23785.8 5046 23787.1 5154C23787.1 5260.67 23762.5 5356 23713.1 5440C23665.1 5524 23599.1 5590 23515.1 5638C23432.5 5686 23337.8 5710 23231.1 5710ZM23231.1 5570C23308.5 5570 23377.8 5552 23439.1 5516C23500.5 5480 23548.5 5430.67 23583.1 5368C23617.8 5305.33 23635.1 5234 23635.1 5154C23635.1 5074 23617.8 5002.67 23583.1 4940C23548.5 4876 23500.5 4826 23439.1 4790C23377.8 4754 23308.5 4736 23231.1 4736C23153.8 4736 23084.5 4754 23023.1 4790C22961.8 4826 22913.1 4876 22877.1 4940C22842.5 5002.67 22825.1 5074 22825.1 5154C22825.1 5234 22842.5 5305.33 22877.1 5368C22913.1 5430.67 22961.8 5480 23023.1 5516C23084.5 5552 23153.8 5570 23231.1 5570Z" fill="#FDF8F8"/>
<path d="M0 3409.5C0 1526.49 1526.49 0 3409.5 0C5292.51 0 6819 1526.49 6819 3409.5V3570.5C6819 5453.51 5292.51 6980 3409.5 6980C1526.49 6980 0 5453.51 0 3570.5V3409.5Z" fill="#1E1D1D"/>
<path d="M2703.24 4346C2671.25 4346 2643.26 4335 2619.26 4313.01C2597.27 4289.02 2586.27 4261.03 2586.27 4229.04V2120.74C2586.27 2086.75 2597.27 2058.76 2619.26 2036.77C2641.26 2014.78 2669.25 2003.78 2703.24 2003.78H4109.77C4143.76 2003.78 4171.75 2014.78 4193.74 2036.77C4215.73 2056.76 4226.73 2083.75 4226.73 2117.74C4226.73 2147.73 4215.73 2173.72 4193.74 2195.72C4171.75 2217.71 4143.76 2228.71 4109.77 2228.71H2820.2V3056.43H3758.88C3792.87 3056.43 3820.86 3067.43 3842.86 3089.42C3864.85 3111.41 3875.84 3138.4 3875.84 3170.39C3875.84 3202.38 3864.85 3229.37 3842.86 3251.36C3820.86 3273.36 3792.87 3284.35 3758.88 3284.35H2820.2V4229.04C2820.2 4261.03 2809.2 4289.02 2787.21 4313.01C2765.21 4335 2737.22 4346 2703.24 4346Z" fill="#878787"/>
<path d="M1819.54 4347C1785.54 4347 1757.54 4336 1735.54 4314C1713.54 4292 1702.54 4264 1702.54 4230V2121C1702.54 2087 1713.54 2059 1735.54 2037C1757.54 2015 1785.54 2004 1819.54 2004H2419.54C2567.54 2004 2698.54 2037 2812.54 2103C2926.54 2167 3015.54 2256 3079.54 2370C3143.54 2484 3175.54 2616 3175.54 2766C3175.54 2912 3143.54 3042 3079.54 3156C3015.54 3268 2926.54 3357 2812.54 3423C2698.54 3487 2567.54 3519 2419.54 3519H1936.54V4230C1936.54 4264 1925.54 4292 1903.54 4314C1881.54 4336 1853.54 4347 1819.54 4347ZM1936.54 3294H2419.54C2521.54 3294 2612.54 3272 2692.54 3228C2772.54 3182 2834.54 3119 2878.54 3039C2924.54 2959 2947.54 2868 2947.54 2766C2947.54 2660 2924.54 2567 2878.54 2487C2834.54 2407 2772.54 2344 2692.54 2298C2612.54 2252 2521.54 2229 2419.54 2229H1936.54V3294Z" fill="#FDF8F8"/>
<path d="M3900.31 4347C3854.31 4347 3821.31 4328 3801.31 4290C3781.31 4252 3779.31 4215 3795.31 4179L4677.31 2085C4699.31 2031 4737.31 2004 4791.31 2004C4843.31 2004 4880.31 2031 4902.31 2085L5787.31 4182C5805.31 4220 5802.31 4257 5778.31 4293C5756.31 4329 5724.31 4347 5682.31 4347C5658.31 4347 5636.31 4341 5616.31 4329C5598.31 4317 5583.31 4299 5571.31 4275L4746.31 2274H4839.31L4008.31 4275C3998.31 4299 3983.31 4317 3963.31 4329C3945.31 4341 3924.31 4347 3900.31 4347ZM4098.31 3789L4188.31 3588H5406.31L5496.31 3789H4098.31Z" fill="#878787"/>
</svg>
