<svg width="4198" height="2897" viewBox="0 0 4198 2897" fill="none" xmlns="http://www.w3.org/2000/svg">
<path d="M1086.24 2642C1054.25 2642 1026.26 2631 1002.26 2609.01C980.271 2585.02 969.275 2557.03 969.275 2525.04V416.742C969.275 382.753 980.271 354.763 1002.26 332.77C1024.26 310.777 1052.25 299.781 1086.24 299.781H2492.77C2526.76 299.781 2554.75 310.777 2576.74 332.77C2598.73 352.763 2609.73 379.754 2609.73 413.743C2609.73 443.733 2598.73 469.724 2576.74 491.717C2554.75 513.71 2526.76 524.706 2492.77 524.706H1203.2V1352.43H2141.88C2175.87 1352.43 2203.86 1363.43 2225.86 1385.42C2247.85 1407.41 2258.84 1434.4 2258.84 1466.39C2258.84 1498.38 2247.85 1525.37 2225.86 1547.36C2203.86 1569.36 2175.87 1580.35 2141.88 1580.35H1203.2V2525.04C1203.2 2557.03 1192.2 2585.02 1170.21 2609.01C1148.21 2631 1120.22 2642 1086.24 2642Z" fill="#878787"/>
<path d="M202.543 2643C168.543 2643 140.543 2632 118.543 2610C96.543 2588 85.543 2560 85.543 2526V417C85.543 383 96.543 355 118.543 333C140.543 311 168.543 300 202.543 300H802.543C950.543 300 1081.54 333 1195.54 399C1309.54 463 1398.54 552 1462.54 666C1526.54 780 1558.54 912 1558.54 1062C1558.54 1208 1526.54 1338 1462.54 1452C1398.54 1564 1309.54 1653 1195.54 1719C1081.54 1783 950.543 1815 802.543 1815H319.543V2526C319.543 2560 308.543 2588 286.543 2610C264.543 2632 236.543 2643 202.543 2643ZM319.543 1590H802.543C904.543 1590 995.543 1568 1075.54 1524C1155.54 1478 1217.54 1415 1261.54 1335C1307.54 1255 1330.54 1164 1330.54 1062C1330.54 956 1307.54 863 1261.54 783C1217.54 703 1155.54 640 1075.54 594C995.543 548 904.543 525 802.543 525H319.543V1590Z" fill="#FDF8F8"/>
<path d="M2283.31 2643C2237.31 2643 2204.31 2624 2184.31 2586C2164.31 2548 2162.31 2511 2178.31 2475L3060.31 381C3082.31 327 3120.31 300 3174.31 300C3226.31 300 3263.31 327 3285.31 381L4170.31 2478C4188.31 2516 4185.31 2553 4161.31 2589C4139.31 2625 4107.31 2643 4065.31 2643C4041.31 2643 4019.31 2637 3999.31 2625C3981.31 2613 3966.31 2595 3954.31 2571L3129.31 570H3222.31L2391.31 2571C2381.31 2595 2366.31 2613 2346.31 2625C2328.31 2637 2307.31 2643 2283.31 2643ZM2481.31 2085L2571.31 1884H3789.31L3879.31 2085H2481.31Z" fill="#878787"/>
</svg>
