<svg width="44717" height="5292" viewBox="0 0 44717 5292" fill="none" xmlns="http://www.w3.org/2000/svg">
<path d="M6442.65 3593C6408.65 3593 6380.65 3582 6358.65 3560C6336.65 3538 6325.65 3510 6325.65 3476V1367C6325.65 1333 6336.65 1305 6358.65 1283C6380.65 1261 6408.65 1250 6442.65 1250H7042.65C7190.65 1250 7321.65 1283 7435.65 1349C7549.65 1413 7638.65 1502 7702.65 1616C7766.65 1730 7798.65 1862 7798.65 2012C7798.65 2158 7766.65 2288 7702.65 2402C7638.65 2514 7549.65 2603 7435.65 2669C7321.65 2733 7190.65 2765 7042.65 2765H6559.65V3476C6559.65 3510 6548.65 3538 6526.65 3560C6504.65 3582 6476.65 3593 6442.65 3593ZM6559.65 2540H7042.65C7144.65 2540 7235.65 2518 7315.65 2474C7395.65 2428 7457.65 2365 7501.65 2285C7547.65 2205 7570.65 2114 7570.65 2012C7570.65 1906 7547.65 1813 7501.65 1733C7457.65 1653 7395.65 1590 7315.65 1544C7235.65 1498 7144.65 1475 7042.65 1475H6559.65V2540ZM8378.57 2582C8384.57 2458 8416.57 2347 8474.57 2249C8534.57 2151 8611.57 2074 8705.57 2018C8801.57 1962 8907.57 1934 9023.57 1934C9115.57 1934 9186.57 1947 9236.57 1973C9286.57 1999 9305.57 2037 9293.57 2087C9285.57 2117 9271.57 2137 9251.57 2147C9233.57 2157 9210.57 2161 9182.57 2159C9156.57 2157 9126.57 2155 9092.57 2153C8980.57 2143 8880.57 2155 8792.57 2189C8706.57 2221 8637.57 2271 8585.57 2339C8535.57 2407 8510.57 2488 8510.57 2582H8378.57ZM8396.57 3593C8360.57 3593 8332.57 3583 8312.57 3563C8292.57 3543 8282.57 3515 8282.57 3479V2066C8282.57 2030 8292.57 2002 8312.57 1982C8332.57 1962 8360.57 1952 8396.57 1952C8432.57 1952 8460.57 1962 8480.57 1982C8500.57 2002 8510.57 2030 8510.57 2066V3479C8510.57 3515 8500.57 3543 8480.57 3563C8460.57 3583 8432.57 3593 8396.57 3593ZM10433.5 3608C10273.5 3608 10130.5 3572 10004.5 3500C9878.47 3428 9779.47 3329 9707.47 3203C9635.47 3077 9599.47 2934 9599.47 2774C9599.47 2612 9635.47 2468 9707.47 2342C9779.47 2216 9878.47 2117 10004.5 2045C10130.5 1973 10273.5 1937 10433.5 1937C10593.5 1937 10735.5 1973 10859.5 2045C10985.5 2117 11084.5 2216 11156.5 2342C11228.5 2468 11265.5 2612 11267.5 2774C11267.5 2934 11230.5 3077 11156.5 3203C11084.5 3329 10985.5 3428 10859.5 3500C10735.5 3572 10593.5 3608 10433.5 3608ZM10433.5 3398C10549.5 3398 10653.5 3371 10745.5 3317C10837.5 3263 10909.5 3189 10961.5 3095C11013.5 3001 11039.5 2894 11039.5 2774C11039.5 2654 11013.5 2547 10961.5 2453C10909.5 2357 10837.5 2282 10745.5 2228C10653.5 2174 10549.5 2147 10433.5 2147C10317.5 2147 10213.5 2174 10121.5 2228C10029.5 2282 9956.47 2357 9902.47 2453C9850.47 2547 9824.47 2654 9824.47 2774C9824.47 2894 9850.47 3001 9902.47 3095C9956.47 3189 10029.5 3263 10121.5 3317C10213.5 3371 10317.5 3398 10433.5 3398Z" fill="#757070"/>
<path d="M12070.7 3593C12040.7 3593 12014.7 3583 11992.7 3563C11970.7 3541 11959.7 3512 11959.7 3476V1955C11959.7 1815 11983.7 1692 12031.7 1586C12079.7 1480 12150.7 1398 12244.7 1340C12338.7 1280 12453.7 1250 12589.7 1250C12623.7 1250 12651.7 1260 12673.7 1280C12695.7 1300 12706.7 1325 12706.7 1355C12706.7 1385 12695.7 1410 12673.7 1430C12651.7 1450 12623.7 1460 12589.7 1460C12499.7 1460 12424.7 1481 12364.7 1523C12306.7 1563 12262.7 1620 12232.7 1694C12204.7 1766 12190.7 1849 12190.7 1943V3476C12190.7 3512 12179.7 3541 12157.7 3563C12137.7 3583 12108.7 3593 12070.7 3593ZM11767.7 2213C11735.7 2213 11709.7 2204 11689.7 2186C11671.7 2166 11662.7 2142 11662.7 2114C11662.7 2084 11671.7 2060 11689.7 2042C11709.7 2022 11735.7 2012 11767.7 2012H12550.7C12582.7 2012 12607.7 2022 12625.7 2042C12645.7 2060 12655.7 2084 12655.7 2114C12655.7 2142 12645.7 2166 12625.7 2186C12607.7 2204 12582.7 2213 12550.7 2213H11767.7Z" fill="#EAE7E5"/>
<path d="M13280.4 3593C13244.4 3593 13215.4 3583 13193.4 3563C13173.4 3541 13163.4 3512 13163.4 3476V2069C13163.4 2033 13173.4 2005 13193.4 1985C13215.4 1963 13244.4 1952 13280.4 1952C13314.4 1952 13341.4 1963 13361.4 1985C13383.4 2005 13394.4 2033 13394.4 2069V3476C13394.4 3512 13383.4 3541 13361.4 3563C13341.4 3583 13314.4 3593 13280.4 3593ZM13277.4 1640C13233.4 1640 13195.4 1624 13163.4 1592C13131.4 1560 13115.4 1521 13115.4 1475C13115.4 1425 13131.4 1386 13163.4 1358C13197.4 1328 13236.4 1313 13280.4 1313C13322.4 1313 13359.4 1328 13391.4 1358C13425.4 1386 13442.4 1425 13442.4 1475C13442.4 1521 13426.4 1560 13394.4 1592C13362.4 1624 13323.4 1640 13277.4 1640ZM15539.6 3593C15505.6 3593 15477.6 3582 15455.6 3560C15433.6 3538 15422.6 3511 15422.6 3479V2699C15422.6 2575 15398.6 2473 15350.6 2393C15304.6 2313 15240.6 2253 15158.6 2213C15078.6 2173 14987.6 2153 14885.6 2153C14787.6 2153 14698.6 2172 14618.6 2210C14540.6 2248 14478.6 2300 14432.6 2366C14386.6 2432 14363.6 2507 14363.6 2591H14198.6C14202.6 2465 14236.6 2353 14300.6 2255C14364.6 2155 14449.6 2077 14555.6 2021C14661.6 1963 14779.6 1934 14909.6 1934C15051.6 1934 15178.6 1964 15290.6 2024C15402.6 2082 15490.6 2168 15554.6 2282C15620.6 2396 15653.6 2535 15653.6 2699V3479C15653.6 3511 15642.6 3538 15620.6 3560C15598.6 3582 15571.6 3593 15539.6 3593ZM14249.6 3593C14213.6 3593 14184.6 3583 14162.6 3563C14142.6 3541 14132.6 3513 14132.6 3479V2069C14132.6 2033 14142.6 2005 14162.6 1985C14184.6 1963 14213.6 1952 14249.6 1952C14283.6 1952 14310.6 1963 14330.6 1985C14352.6 2005 14363.6 2033 14363.6 2069V3479C14363.6 3513 14352.6 3541 14330.6 3563C14310.6 3583 14283.6 3593 14249.6 3593ZM17056.8 3608C16894.8 3608 16750.8 3573 16624.8 3503C16500.8 3431 16402.8 3332 16330.8 3206C16260.8 3080 16225.8 2936 16225.8 2774C16225.8 2610 16258.8 2466 16324.8 2342C16392.8 2216 16485.8 2117 16603.8 2045C16721.8 1973 16857.8 1937 17011.8 1937C17163.8 1937 17295.8 1972 17407.8 2042C17521.8 2110 17609.8 2205 17671.8 2327C17733.8 2449 17764.8 2588 17764.8 2744C17764.8 2776 17754.8 2802 17734.8 2822C17714.8 2840 17688.8 2849 17656.8 2849H16381.8V2657H17680.8L17551.8 2750C17553.8 2634 17532.8 2530 17488.8 2438C17444.8 2346 17381.8 2274 17299.8 2222C17219.8 2170 17123.8 2144 17011.8 2144C16897.8 2144 16797.8 2171 16711.8 2225C16625.8 2279 16558.8 2354 16510.8 2450C16464.8 2544 16441.8 2652 16441.8 2774C16441.8 2896 16467.8 3004 16519.8 3098C16573.8 3192 16646.8 3266 16738.8 3320C16830.8 3374 16936.8 3401 17056.8 3401C17128.8 3401 17200.8 3389 17272.8 3365C17346.8 3339 17405.8 3307 17449.8 3269C17471.8 3251 17496.8 3242 17524.8 3242C17552.8 3240 17576.8 3247 17596.8 3263C17622.8 3287 17635.8 3313 17635.8 3341C17637.8 3369 17626.8 3393 17602.8 3413C17536.8 3469 17452.8 3516 17350.8 3554C17248.8 3590 17150.8 3608 17056.8 3608ZM18970 3608C18816 3608 18678 3572 18556 3500C18434 3426 18337 3326 18265 3200C18195 3074 18160 2932 18160 2774C18160 2614 18196 2471 18268 2345C18342 2219 18442 2120 18568 2048C18694 1974 18836 1937 18994 1937C19152 1937 19293 1974 19417 2048C19543 2120 19642 2219 19714 2345C19788 2471 19826 2614 19828 2774L19735 2846C19735 2990 19701 3120 19633 3236C19567 3350 19476 3441 19360 3509C19246 3575 19116 3608 18970 3608ZM18994 3398C19110 3398 19213 3371 19303 3317C19395 3263 19467 3189 19519 3095C19573 2999 19600 2892 19600 2774C19600 2654 19573 2547 19519 2453C19467 2359 19395 2285 19303 2231C19213 2175 19110 2147 18994 2147C18880 2147 18777 2175 18685 2231C18593 2285 18520 2359 18466 2453C18412 2547 18385 2654 18385 2774C18385 2892 18412 2999 18466 3095C18520 3189 18593 3263 18685 3317C18777 3371 18880 3398 18994 3398ZM19711 3593C19677 3593 19649 3583 19627 3563C19605 3541 19594 3513 19594 3479V2966L19651 2729L19828 2774V3479C19828 3513 19817 3541 19795 3563C19773 3583 19745 3593 19711 3593ZM20523.3 2582C20529.3 2458 20561.3 2347 20619.3 2249C20679.3 2151 20756.3 2074 20850.3 2018C20946.3 1962 21052.3 1934 21168.3 1934C21260.3 1934 21331.3 1947 21381.3 1973C21431.3 1999 21450.3 2037 21438.3 2087C21430.3 2117 21416.3 2137 21396.3 2147C21378.3 2157 21355.3 2161 21327.3 2159C21301.3 2157 21271.3 2155 21237.3 2153C21125.3 2143 21025.3 2155 20937.3 2189C20851.3 2221 20782.3 2271 20730.3 2339C20680.3 2407 20655.3 2488 20655.3 2582H20523.3ZM20541.3 3593C20505.3 3593 20477.3 3583 20457.3 3563C20437.3 3543 20427.3 3515 20427.3 3479V2066C20427.3 2030 20437.3 2002 20457.3 1982C20477.3 1962 20505.3 1952 20541.3 1952C20577.3 1952 20605.3 1962 20625.3 1982C20645.3 2002 20655.3 2030 20655.3 2066V3479C20655.3 3515 20645.3 3543 20625.3 3563C20605.3 3583 20577.3 3593 20541.3 3593ZM22593.3 3593C22487.3 3593 22392.3 3568 22308.3 3518C22226.3 3468 22161.3 3400 22113.3 3314C22065.3 3226 22041.3 3126 22041.3 3014V1547C22041.3 1513 22051.3 1485 22071.3 1463C22093.3 1441 22121.3 1430 22155.3 1430C22189.3 1430 22217.3 1441 22239.3 1463C22261.3 1485 22272.3 1513 22272.3 1547V3014C22272.3 3116 22302.3 3200 22362.3 3266C22422.3 3330 22499.3 3362 22593.3 3362H22674.3C22706.3 3362 22732.3 3373 22752.3 3395C22772.3 3417 22782.3 3445 22782.3 3479C22782.3 3513 22770.3 3541 22746.3 3563C22722.3 3583 22692.3 3593 22656.3 3593H22593.3ZM21846.3 2213C21816.3 2213 21791.3 2204 21771.3 2186C21751.3 2166 21741.3 2142 21741.3 2114C21741.3 2084 21751.3 2060 21771.3 2042C21791.3 2022 21816.3 2012 21846.3 2012H22611.3C22641.3 2012 22666.3 2022 22686.3 2042C22706.3 2060 22716.3 2084 22716.3 2114C22716.3 2142 22706.3 2166 22686.3 2186C22666.3 2204 22641.3 2213 22611.3 2213H21846.3Z" fill="white"/>
<path d="M35796.1 3725C35758.1 3725 35726.1 3715 35700.1 3695C35676.1 3673 35664.1 3644 35664.1 3608V1499C35664.1 1465 35675.1 1437 35697.1 1415C35719.1 1393 35747.1 1382 35781.1 1382H36510.1C36630.1 1382 36738.1 1408 36834.1 1460C36932.1 1510 37009.1 1579 37065.1 1667C37123.1 1755 37152.1 1857 37152.1 1973C37152.1 2081 37123.1 2177 37065.1 2261C37007.1 2345 36931.1 2409 36837.1 2453C36971.1 2489 37079.1 2557 37161.1 2657C37243.1 2755 37284.1 2880 37284.1 3032C37284.1 3168 37253.1 3288 37191.1 3392C37129.1 3496 37043.1 3578 36933.1 3638C36825.1 3696 36701.1 3725 36561.1 3725H35796.1ZM35898.1 3500H36561.1C36657.1 3500 36742.1 3481 36816.1 3443C36890.1 3405 36948.1 3351 36990.1 3281C37032.1 3211 37053.1 3128 37053.1 3032C37053.1 2942 37032.1 2864 36990.1 2798C36948.1 2730 36890.1 2678 36816.1 2642C36742.1 2604 36657.1 2585 36561.1 2585H35898.1V3500ZM35898.1 2360H36510.1C36630.1 2360 36729.1 2326 36807.1 2258C36885.1 2190 36924.1 2095 36924.1 1973C36924.1 1853 36885.1 1762 36807.1 1700C36729.1 1638 36630.1 1607 36510.1 1607H35898.1V2360Z" fill="#EAE7E5"/>
<path d="M38593 3740C38439 3740 38301 3704 38179 3632C38057 3558 37960 3458 37888 3332C37818 3206 37783 3064 37783 2906C37783 2746 37819 2603 37891 2477C37965 2351 38065 2252 38191 2180C38317 2106 38459 2069 38617 2069C38775 2069 38916 2106 39040 2180C39166 2252 39265 2351 39337 2477C39411 2603 39449 2746 39451 2906L39358 2978C39358 3122 39324 3252 39256 3368C39190 3482 39099 3573 38983 3641C38869 3707 38739 3740 38593 3740ZM38617 3530C38733 3530 38836 3503 38926 3449C39018 3395 39090 3321 39142 3227C39196 3131 39223 3024 39223 2906C39223 2786 39196 2679 39142 2585C39090 2491 39018 2417 38926 2363C38836 2307 38733 2279 38617 2279C38503 2279 38400 2307 38308 2363C38216 2417 38143 2491 38089 2585C38035 2679 38008 2786 38008 2906C38008 3024 38035 3131 38089 3227C38143 3321 38216 3395 38308 3449C38400 3503 38503 3530 38617 3530ZM39334 3725C39300 3725 39272 3715 39250 3695C39228 3673 39217 3645 39217 3611V3098L39274 2861L39451 2906V3611C39451 3645 39440 3673 39418 3695C39396 3715 39368 3725 39334 3725ZM40623.3 3740C40505.3 3740 40388.3 3720 40272.3 3680C40156.3 3640 40062.3 3580 39990.3 3500C39968.3 3476 39959.3 3449 39963.3 3419C39967.3 3389 39982.3 3363 40008.3 3341C40036.3 3321 40065.3 3313 40095.3 3317C40125.3 3321 40150.3 3334 40170.3 3356C40218.3 3412 40281.3 3455 40359.3 3485C40439.3 3515 40527.3 3530 40623.3 3530C40771.3 3530 40878.3 3505 40944.3 3455C41010.3 3403 41044.3 3341 41046.3 3269C41046.3 3197 41012.3 3138 40944.3 3092C40876.3 3044 40764.3 3007 40608.3 2981C40406.3 2949 40258.3 2893 40164.3 2813C40070.3 2733 40023.3 2638 40023.3 2528C40023.3 2426 40050.3 2341 40104.3 2273C40158.3 2205 40230.3 2154 40320.3 2120C40410.3 2086 40509.3 2069 40617.3 2069C40751.3 2069 40866.3 2092 40962.3 2138C41060.3 2184 41139.3 2246 41199.3 2324C41219.3 2350 41227.3 2377 41223.3 2405C41219.3 2433 41203.3 2456 41175.3 2474C41151.3 2488 41123.3 2493 41091.3 2489C41061.3 2483 41035.3 2468 41013.3 2444C40963.3 2386 40905.3 2344 40839.3 2318C40773.3 2290 40697.3 2276 40611.3 2276C40501.3 2276 40413.3 2299 40347.3 2345C40281.3 2389 40248.3 2445 40248.3 2513C40248.3 2559 40260.3 2599 40284.3 2633C40310.3 2667 40353.3 2697 40413.3 2723C40475.3 2749 40561.3 2771 40671.3 2789C40821.3 2813 40939.3 2849 41025.3 2897C41113.3 2943 41175.3 2998 41211.3 3062C41249.3 3124 41268.3 3192 41268.3 3266C41268.3 3360 41240.3 3443 41184.3 3515C41130.3 3585 41054.3 3640 40956.3 3680C40860.3 3720 40749.3 3740 40623.3 3740ZM42561.5 3740C42399.5 3740 42255.5 3705 42129.5 3635C42005.5 3563 41907.5 3464 41835.5 3338C41765.5 3212 41730.5 3068 41730.5 2906C41730.5 2742 41763.5 2598 41829.5 2474C41897.5 2348 41990.5 2249 42108.5 2177C42226.5 2105 42362.5 2069 42516.5 2069C42668.5 2069 42800.5 2104 42912.5 2174C43026.5 2242 43114.5 2337 43176.5 2459C43238.5 2581 43269.5 2720 43269.5 2876C43269.5 2908 43259.5 2934 43239.5 2954C43219.5 2972 43193.5 2981 43161.5 2981H41886.5V2789H43185.5L43056.5 2882C43058.5 2766 43037.5 2662 42993.5 2570C42949.5 2478 42886.5 2406 42804.5 2354C42724.5 2302 42628.5 2276 42516.5 2276C42402.5 2276 42302.5 2303 42216.5 2357C42130.5 2411 42063.5 2486 42015.5 2582C41969.5 2676 41946.5 2784 41946.5 2906C41946.5 3028 41972.5 3136 42024.5 3230C42078.5 3324 42151.5 3398 42243.5 3452C42335.5 3506 42441.5 3533 42561.5 3533C42633.5 3533 42705.5 3521 42777.5 3497C42851.5 3471 42910.5 3439 42954.5 3401C42976.5 3383 43001.5 3374 43029.5 3374C43057.5 3372 43081.5 3379 43101.5 3395C43127.5 3419 43140.5 3445 43140.5 3473C43142.5 3501 43131.5 3525 43107.5 3545C43041.5 3601 42957.5 3648 42855.5 3686C42753.5 3722 42655.5 3740 42561.5 3740ZM44164.2 3725C44084.2 3725 44012.2 3703 43948.2 3659C43886.2 3615 43837.2 3554 43801.2 3476C43767.2 3398 43750.2 3308 43750.2 3206V1496C43750.2 1462 43760.2 1435 43780.2 1415C43802.2 1393 43830.2 1382 43864.2 1382C43898.2 1382 43925.2 1393 43945.2 1415C43967.2 1435 43978.2 1462 43978.2 1496V3206C43978.2 3292 43995.2 3362 44029.2 3416C44065.2 3470 44110.2 3497 44164.2 3497H44239.2C44269.2 3497 44293.2 3508 44311.2 3530C44329.2 3550 44338.2 3577 44338.2 3611C44338.2 3645 44325.2 3673 44299.2 3695C44275.2 3715 44243.2 3725 44203.2 3725H44164.2Z" fill="#EAE7E5"/>
<path d="M24663.9 3747C24535.9 3747 24416.9 3729 24306.9 3693C24198.9 3655 24104.9 3602 24024.9 3534C23944.9 3466 23883.9 3387 23841.9 3297C23825.9 3265 23824.9 3236 23838.9 3210C23854.9 3182 23880.9 3163 23916.9 3153C23944.9 3145 23971.9 3148 23997.9 3162C24025.9 3176 24046.9 3197 24060.9 3225C24090.9 3283 24134.9 3335 24192.9 3381C24250.9 3427 24319.9 3463 24399.9 3489C24479.9 3513 24567.9 3525 24663.9 3525C24769.9 3525 24863.9 3508 24945.9 3474C25027.9 3438 25091.9 3387 25137.9 3321C25185.9 3253 25209.9 3171 25209.9 3075C25209.9 2953 25164.9 2848 25074.9 2760C24984.9 2672 24843.9 2616 24651.9 2592C24417.9 2564 24234.9 2492 24102.9 2376C23970.9 2258 23904.9 2114 23904.9 1944C23904.9 1822 23936.9 1716 24000.9 1626C24066.9 1536 24156.9 1467 24270.9 1419C24384.9 1369 24515.9 1344 24663.9 1344C24773.9 1344 24873.9 1362 24963.9 1398C25053.9 1432 25131.9 1478 25197.9 1536C25265.9 1592 25320.9 1654 25362.9 1722C25382.9 1754 25388.9 1785 25380.9 1815C25374.9 1845 25357.9 1868 25329.9 1884C25299.9 1898 25268.9 1900 25236.9 1890C25206.9 1880 25183.9 1861 25167.9 1833C25137.9 1787 25099.9 1744 25053.9 1704C25009.9 1662 24955.9 1629 24891.9 1605C24827.9 1581 24750.9 1568 24660.9 1566C24502.9 1566 24375.9 1600 24279.9 1668C24183.9 1734 24135.9 1831 24135.9 1959C24135.9 2027 24153.9 2090 24189.9 2148C24225.9 2204 24284.9 2253 24366.9 2295C24450.9 2335 24562.9 2365 24702.9 2385C24952.9 2421 25137.9 2498 25257.9 2616C25379.9 2732 25440.9 2884 25440.9 3072C25440.9 3180 25420.9 3276 25380.9 3360C25342.9 3444 25287.9 3515 25215.9 3573C25145.9 3629 25062.9 3672 24966.9 3702C24872.9 3732 24771.9 3747 24663.9 3747ZM26692.2 3717C26586.2 3717 26491.2 3692 26407.2 3642C26325.2 3592 26260.2 3524 26212.2 3438C26164.2 3350 26140.2 3250 26140.2 3138V1671C26140.2 1637 26150.2 1609 26170.2 1587C26192.2 1565 26220.2 1554 26254.2 1554C26288.2 1554 26316.2 1565 26338.2 1587C26360.2 1609 26371.2 1637 26371.2 1671V3138C26371.2 3240 26401.2 3324 26461.2 3390C26521.2 3454 26598.2 3486 26692.2 3486H26773.2C26805.2 3486 26831.2 3497 26851.2 3519C26871.2 3541 26881.2 3569 26881.2 3603C26881.2 3637 26869.2 3665 26845.2 3687C26821.2 3707 26791.2 3717 26755.2 3717H26692.2ZM25945.2 2337C25915.2 2337 25890.2 2328 25870.2 2310C25850.2 2290 25840.2 2266 25840.2 2238C25840.2 2208 25850.2 2184 25870.2 2166C25890.2 2146 25915.2 2136 25945.2 2136H26710.2C26740.2 2136 26765.2 2146 26785.2 2166C26805.2 2184 26815.2 2208 26815.2 2238C26815.2 2266 26805.2 2290 26785.2 2310C26765.2 2328 26740.2 2337 26710.2 2337H25945.2ZM28121.3 3735C27979.3 3735 27852.3 3706 27740.3 3648C27628.3 3588 27539.3 3501 27473.3 3387C27409.3 3273 27377.3 3134 27377.3 2970V2190C27377.3 2158 27388.3 2131 27410.3 2109C27432.3 2087 27459.3 2076 27491.3 2076C27525.3 2076 27553.3 2087 27575.3 2109C27597.3 2131 27608.3 2158 27608.3 2190V2970C27608.3 3094 27631.3 3196 27677.3 3276C27725.3 3356 27789.3 3416 27869.3 3456C27951.3 3496 28043.3 3516 28145.3 3516C28243.3 3516 28331.3 3497 28409.3 3459C28489.3 3421 28552.3 3369 28598.3 3303C28644.3 3237 28667.3 3162 28667.3 3078H28832.3C28826.3 3204 28791.3 3317 28727.3 3417C28665.3 3515 28581.3 3593 28475.3 3651C28369.3 3707 28251.3 3735 28121.3 3735ZM28781.3 3717C28747.3 3717 28719.3 3707 28697.3 3687C28677.3 3665 28667.3 3636 28667.3 3600V2190C28667.3 2156 28677.3 2129 28697.3 2109C28719.3 2087 28747.3 2076 28781.3 2076C28815.3 2076 28843.3 2087 28865.3 2109C28887.3 2129 28898.3 2156 28898.3 2190V3600C28898.3 3636 28887.3 3665 28865.3 3687C28843.3 3707 28815.3 3717 28781.3 3717ZM30334.5 3732C30176.5 3732 30034.5 3696 29908.5 3624C29782.5 3550 29682.5 3450 29608.5 3324C29536.5 3198 29500.5 3055 29500.5 2895C29500.5 2737 29535.5 2595 29605.5 2469C29677.5 2343 29774.5 2244 29896.5 2172C30018.5 2098 30156.5 2061 30310.5 2061C30444.5 2061 30565.5 2090 30673.5 2148C30781.5 2204 30868.5 2279 30934.5 2373V1491C30934.5 1455 30945.5 1427 30967.5 1407C30989.5 1385 31017.5 1374 31051.5 1374C31085.5 1374 31113.5 1385 31135.5 1407C31157.5 1427 31168.5 1455 31168.5 1491V2907C31164.5 3063 31125.5 3204 31051.5 3330C30979.5 3454 30880.5 3552 30754.5 3624C30630.5 3696 30490.5 3732 30334.5 3732ZM30334.5 3522C30450.5 3522 30553.5 3495 30643.5 3441C30735.5 3385 30807.5 3310 30859.5 3216C30913.5 3122 30940.5 3015 30940.5 2895C30940.5 2777 30913.5 2671 30859.5 2577C30807.5 2481 30735.5 2406 30643.5 2352C30553.5 2298 30450.5 2271 30334.5 2271C30220.5 2271 30117.5 2298 30025.5 2352C29933.5 2406 29860.5 2481 29806.5 2577C29752.5 2671 29725.5 2777 29725.5 2895C29725.5 3015 29752.5 3122 29806.5 3216C29860.5 3310 29933.5 3385 30025.5 3441C30117.5 3495 30220.5 3522 30334.5 3522ZM32023.6 3717C31987.6 3717 31958.6 3707 31936.6 3687C31916.6 3665 31906.6 3636 31906.6 3600V2193C31906.6 2157 31916.6 2129 31936.6 2109C31958.6 2087 31987.6 2076 32023.6 2076C32057.6 2076 32084.6 2087 32104.6 2109C32126.6 2129 32137.6 2157 32137.6 2193V3600C32137.6 3636 32126.6 3665 32104.6 3687C32084.6 3707 32057.6 3717 32023.6 3717ZM32020.6 1764C31976.6 1764 31938.6 1748 31906.6 1716C31874.6 1684 31858.6 1645 31858.6 1599C31858.6 1549 31874.6 1510 31906.6 1482C31940.6 1452 31979.6 1437 32023.6 1437C32065.6 1437 32102.6 1452 32134.6 1482C32168.6 1510 32185.6 1549 32185.6 1599C32185.6 1645 32169.6 1684 32137.6 1716C32105.6 1748 32066.6 1764 32020.6 1764ZM33622.8 3732C33462.8 3732 33319.8 3696 33193.8 3624C33067.8 3552 32968.8 3453 32896.8 3327C32824.8 3201 32788.8 3058 32788.8 2898C32788.8 2736 32824.8 2592 32896.8 2466C32968.8 2340 33067.8 2241 33193.8 2169C33319.8 2097 33462.8 2061 33622.8 2061C33782.8 2061 33924.8 2097 34048.8 2169C34174.8 2241 34273.8 2340 34345.8 2466C34417.8 2592 34454.8 2736 34456.8 2898C34456.8 3058 34419.8 3201 34345.8 3327C34273.8 3453 34174.8 3552 34048.8 3624C33924.8 3696 33782.8 3732 33622.8 3732ZM33622.8 3522C33738.8 3522 33842.8 3495 33934.8 3441C34026.8 3387 34098.8 3313 34150.8 3219C34202.8 3125 34228.8 3018 34228.8 2898C34228.8 2778 34202.8 2671 34150.8 2577C34098.8 2481 34026.8 2406 33934.8 2352C33842.8 2298 33738.8 2271 33622.8 2271C33506.8 2271 33402.8 2298 33310.8 2352C33218.8 2406 33145.8 2481 33091.8 2577C33039.8 2671 33013.8 2778 33013.8 2898C33013.8 3018 33039.8 3125 33091.8 3219C33145.8 3313 33218.8 3387 33310.8 3441C33402.8 3495 33506.8 3522 33622.8 3522Z" fill="white"/>
<path d="M2646 0.5C4107.07 0.5 5291.5 1184.93 5291.5 2646C5291.5 4107.07 4107.07 5291.5 2646 5291.5C1184.93 5291.5 0.5 4107.07 0.5 2646C0.5 1184.93 1184.93 0.5 2646 0.5Z" fill="#0F0F0F" stroke="black"/>
<path d="M1778.23 3592C1740.24 3592 1707.25 3579 1679.26 3553.01C1651.27 3525.02 1637.28 3491.03 1637.28 3451.05V1390.73C1637.28 1348.75 1650.27 1314.76 1676.26 1288.77C1704.25 1262.78 1738.24 1249.78 1778.23 1249.78H3154.77C3196.76 1249.78 3229.74 1262.78 3253.74 1288.77C3279.73 1312.76 3292.72 1344.75 3292.72 1384.74C3292.72 1420.72 3279.73 1451.71 3253.74 1477.7C3229.74 1501.7 3196.76 1513.69 3154.77 1513.69H1919.18V2281.44H2809.88C2851.87 2281.44 2885.86 2294.43 2911.85 2320.42C2937.84 2344.42 2950.84 2375.41 2950.84 2413.39C2950.84 2451.38 2937.84 2483.37 2911.85 2509.36C2885.86 2533.35 2851.87 2545.35 2809.88 2545.35H1919.18V3451.05C1919.18 3491.03 1905.19 3525.02 1877.2 3553.01C1851.2 3579 1818.22 3592 1778.23 3592Z" fill="#757070"/>
<path d="M896.43 3593C852.43 3593 815.43 3578 785.43 3548C755.43 3518 740.43 3481 740.43 3437V1406C740.43 1360 755.43 1323 785.43 1295C815.43 1265 852.43 1250 896.43 1250H1496.43C1646.43 1250 1779.43 1283 1895.43 1349C2011.43 1415 2101.43 1507 2165.43 1625C2231.43 1741 2264.43 1875 2264.43 2027C2264.43 2173 2231.43 2303 2165.43 2417C2101.43 2531 2011.43 2620 1895.43 2684C1779.43 2748 1646.43 2780 1496.43 2780H1052.43V3437C1052.43 3481 1037.43 3518 1007.43 3548C979.43 3578 942.43 3593 896.43 3593ZM1052.43 2492H1496.43C1588.43 2492 1669.43 2472 1739.43 2432C1809.43 2392 1864.43 2337 1904.43 2267C1944.43 2197 1964.43 2117 1964.43 2027C1964.43 1931 1944.43 1847 1904.43 1775C1864.43 1701 1809.43 1643 1739.43 1601C1669.43 1559 1588.43 1538 1496.43 1538H1052.43V2492Z" fill="#FDF8F8"/>
<path d="M2990.31 3593C2934.31 3593 2891.31 3569 2861.31 3521C2831.31 3473 2828.31 3422 2852.31 3368L3695.31 1355C3725.31 1285 3774.31 1250 3842.31 1250C3914.31 1250 3963.31 1285 3989.31 1355L4835.31 3374C4857.31 3430 4853.31 3481 4823.31 3527C4795.31 3571 4752.31 3593 4694.31 3593C4664.31 3593 4635.31 3585 4607.31 3569C4581.31 3551 4562.31 3527 4550.31 3497L3806.31 1649H3890.31L3134.31 3497C3120.31 3529 3099.31 3553 3071.31 3569C3045.31 3585 3018.31 3593 2990.31 3593ZM3149.31 3077L3269.31 2819H4445.31L4565.31 3077H3149.31Z" fill="#757070"/>
</svg>
