<svg width="3675" height="3675" viewBox="0 0 3675 3675" fill="none" xmlns="http://www.w3.org/2000/svg">
<rect x="1837" width="1838" height="3675" fill="#2A0F0F"/>
<rect width="1837.5" height="3675" fill="#2A0F0F"/>
<mask id="path-5-outside-1_192_38" maskUnits="userSpaceOnUse" x="1051.2" y="970.242" width="1393" height="1856" fill="black">
<rect fill="white" x="1051.2" y="970.242" width="1393" height="1856"/>
<path d="M2313.46 1050.62C2326.41 1070.97 2337.51 1098.72 2346.76 1133.87C2357.86 1167.17 2363.41 1202.32 2363.41 1239.32C2363.41 1311.47 2347.68 1363.27 2316.23 1394.71C2286.63 1424.31 2245.93 1439.11 2194.13 1439.11H1611.39V1752.68H2219.11C2233.91 1773.03 2245.93 1799.86 2255.18 1833.16C2266.28 1866.46 2271.83 1901.61 2271.83 1938.61C2271.83 2008.9 2256.11 2059.78 2224.66 2091.23C2195.06 2120.83 2154.36 2135.63 2102.56 2135.63H1616.94V2721.14C1596.59 2726.69 1564.22 2732.24 1519.82 2737.79C1477.27 2743.34 1434.72 2746.12 1392.17 2746.12C1349.62 2746.12 1311.7 2742.42 1278.4 2735.02C1246.95 2729.47 1220.12 2718.37 1197.93 2701.72C1175.73 2685.07 1159.08 2661.94 1147.98 2632.34C1136.88 2602.74 1131.33 2563.9 1131.33 2515.8V1308.69C1131.33 1229.14 1154.45 1166.24 1200.7 1119.99C1246.95 1073.75 1309.85 1050.62 1389.4 1050.62H2313.46Z"/>
</mask>
<g filter="url(#filter0_i_192_38)">
<path d="M2313.46 1050.62C2326.41 1070.97 2337.51 1098.72 2346.76 1133.87C2357.86 1167.17 2363.41 1202.32 2363.41 1239.32C2363.41 1311.47 2347.68 1363.27 2316.23 1394.71C2286.63 1424.31 2245.93 1439.11 2194.13 1439.11H1611.39V1752.68H2219.11C2233.91 1773.03 2245.93 1799.86 2255.18 1833.16C2266.28 1866.46 2271.83 1901.61 2271.83 1938.61C2271.83 2008.9 2256.11 2059.78 2224.66 2091.23C2195.06 2120.83 2154.36 2135.63 2102.56 2135.63H1616.94V2721.14C1596.59 2726.69 1564.22 2732.24 1519.82 2737.79C1477.27 2743.34 1434.72 2746.12 1392.17 2746.12C1349.62 2746.12 1311.7 2742.42 1278.4 2735.02C1246.95 2729.47 1220.12 2718.37 1197.93 2701.72C1175.73 2685.07 1159.08 2661.94 1147.98 2632.34C1136.88 2602.74 1131.33 2563.9 1131.33 2515.8V1308.69C1131.33 1229.14 1154.45 1166.24 1200.7 1119.99C1246.95 1073.75 1309.85 1050.62 1389.4 1050.62H2313.46Z" fill="#C1C1C1"/>
</g>
<path d="M2313.46 1050.62L2380.95 1007.67L2357.37 970.62H2313.46V1050.62ZM2346.76 1133.87L2269.39 1154.23L2270.05 1156.72L2270.86 1159.17L2346.76 1133.87ZM2316.23 1394.71L2372.8 1451.28L2316.23 1394.71ZM1611.39 1439.11V1359.11H1531.39V1439.11H1611.39ZM1611.39 1752.68H1531.39V1832.68H1611.39V1752.68ZM2219.11 1752.68L2283.81 1705.63L2259.85 1672.68H2219.11V1752.68ZM2255.18 1833.16L2178.1 1854.57L2178.65 1856.53L2179.29 1858.46L2255.18 1833.16ZM2224.66 2091.23L2281.23 2147.8L2281.23 2147.8L2224.66 2091.23ZM1616.94 2135.63V2055.63H1536.94V2135.63H1616.94ZM1616.94 2721.14L1637.99 2798.32L1696.94 2782.25V2721.14H1616.94ZM1519.82 2737.79L1509.9 2658.41L1509.68 2658.44L1509.47 2658.46L1519.82 2737.79ZM1278.4 2735.02L1295.75 2656.92L1294.04 2656.54L1292.3 2656.23L1278.4 2735.02ZM1197.93 2701.72L1149.93 2765.72L1149.93 2765.72L1197.93 2701.72ZM1147.98 2632.34L1073.07 2660.43L1073.07 2660.43L1147.98 2632.34ZM2313.46 1050.62L2245.96 1093.57C2252.83 1104.37 2261.29 1123.45 2269.39 1154.23L2346.76 1133.87L2424.12 1113.51C2413.72 1073.99 2399.98 1037.58 2380.95 1007.67L2313.46 1050.62ZM2346.76 1133.87L2270.86 1159.17C2279.1 1183.88 2283.41 1210.45 2283.41 1239.32H2363.41H2443.41C2443.41 1194.19 2436.61 1150.46 2422.65 1108.57L2346.76 1133.87ZM2363.41 1239.32H2283.41C2283.41 1302.88 2269.07 1328.74 2259.66 1338.15L2316.23 1394.71L2372.8 1451.28C2426.29 1397.79 2443.41 1320.05 2443.41 1239.32H2363.41ZM2316.23 1394.71L2259.66 1338.15C2248.46 1349.35 2230.05 1359.11 2194.13 1359.11V1439.11V1519.11C2261.81 1519.11 2324.8 1499.28 2372.8 1451.28L2316.23 1394.71ZM2194.13 1439.11V1359.11H1611.39V1439.11V1519.11H2194.13V1439.11ZM1611.39 1439.11H1531.39V1752.68H1611.39H1691.39V1439.11H1611.39ZM1611.39 1752.68V1832.68H2219.11V1752.68V1672.68H1611.39V1752.68ZM2219.11 1752.68L2154.41 1799.74C2161.91 1810.05 2170.52 1827.28 2178.1 1854.57L2255.18 1833.16L2332.26 1811.75C2321.34 1772.43 2305.91 1736.02 2283.81 1705.63L2219.11 1752.68ZM2255.18 1833.16L2179.29 1858.46C2187.52 1883.17 2191.83 1909.74 2191.83 1938.61H2271.83H2351.83C2351.83 1893.48 2345.04 1849.75 2331.08 1807.86L2255.18 1833.16ZM2271.83 1938.61H2191.83C2191.83 1999.6 2177.81 2024.94 2168.09 2034.66L2224.66 2091.23L2281.23 2147.8C2334.4 2094.62 2351.83 2018.21 2351.83 1938.61H2271.83ZM2224.66 2091.23L2168.09 2034.66C2156.89 2045.86 2138.48 2055.63 2102.56 2055.63V2135.63V2215.63C2170.24 2215.63 2233.23 2195.79 2281.23 2147.8L2224.66 2091.23ZM2102.56 2135.63V2055.63H1616.94V2135.63V2215.63H2102.56V2135.63ZM1616.94 2135.63H1536.94V2721.14H1616.94H1696.94V2135.63H1616.94ZM1616.94 2721.14L1595.89 2643.96C1581.36 2647.93 1553.73 2652.93 1509.9 2658.41L1519.82 2737.79L1529.74 2817.17C1574.7 2811.55 1611.83 2805.46 1637.99 2798.32L1616.94 2721.14ZM1519.82 2737.79L1509.47 2658.46C1470.33 2663.57 1431.23 2666.12 1392.17 2666.12V2746.12V2826.12C1438.21 2826.12 1484.22 2823.11 1530.17 2817.12L1519.82 2737.79ZM1392.17 2746.12V2666.12C1354.09 2666.12 1322.16 2662.79 1295.75 2656.92L1278.4 2735.02L1261.04 2813.11C1301.24 2822.04 1345.15 2826.12 1392.17 2826.12V2746.12ZM1278.4 2735.02L1292.3 2656.23C1271.35 2652.54 1256.66 2645.77 1245.93 2637.72L1197.93 2701.72L1149.93 2765.72C1183.59 2790.97 1222.55 2806.4 1264.5 2813.8L1278.4 2735.02ZM1197.93 2701.72L1245.93 2637.72C1237.57 2631.45 1229.39 2621.6 1222.88 2604.25L1147.98 2632.34L1073.07 2660.43C1088.76 2702.28 1113.88 2738.68 1149.93 2765.72L1197.93 2701.72ZM1147.98 2632.34L1222.88 2604.25C1216.43 2587.05 1211.33 2558.79 1211.33 2515.8H1131.33H1051.33C1051.33 2569 1057.32 2618.44 1073.07 2660.43L1147.98 2632.34ZM1131.33 2515.8H1211.33V1308.69H1131.33H1051.33V2515.8H1131.33ZM1131.33 1308.69H1211.33C1211.33 1245.47 1229.16 1204.67 1257.27 1176.56L1200.7 1119.99L1144.13 1063.43C1079.74 1127.81 1051.33 1212.81 1051.33 1308.69H1131.33ZM1200.7 1119.99L1257.27 1176.56C1285.38 1148.45 1326.18 1130.62 1389.4 1130.62V1050.62V970.62C1293.52 970.62 1208.52 999.038 1144.13 1063.43L1200.7 1119.99ZM1389.4 1050.62V1130.62H2313.46V1050.62V970.62H1389.4V1050.62Z" fill="black" mask="url(#path-5-outside-1_192_38)"/>
<mask id="path-7-outside-2_192_38" maskUnits="userSpaceOnUse" x="82" y="96" width="1608" height="1985" fill="black">
<rect fill="white" x="82" y="96" width="1608" height="1985"/>
<path d="M833.276 1044.14C910.974 1044.14 970.173 1026.57 1010.87 991.416C1053.42 954.417 1074.7 898.918 1074.7 824.919C1074.7 754.62 1052.5 700.971 1008.1 663.972C965.549 625.122 902.65 605.697 819.401 605.697C789.801 605.697 764.827 606.622 744.477 608.472C725.978 608.472 706.553 610.322 686.203 614.022V1044.14H833.276ZM688.978 1934.9C668.629 1940.45 636.254 1946 591.855 1951.55C549.306 1957.1 506.756 1959.87 464.207 1959.87C421.658 1959.87 383.733 1956.17 350.434 1948.77C318.984 1943.23 292.16 1932.13 269.96 1915.48C247.761 1898.83 231.111 1875.7 220.011 1846.1C208.911 1816.5 203.361 1777.65 203.361 1729.55V422.551C203.361 383.701 213.536 354.102 233.886 333.752C256.085 311.552 285.685 293.978 322.684 281.028C385.583 258.828 456.807 243.103 536.356 233.854C617.754 222.754 699.153 217.204 780.552 217.204C1035.85 217.204 1231.02 271.778 1366.07 380.926C1501.11 490.074 1568.64 638.072 1568.64 824.919C1568.64 915.567 1553.84 997.891 1524.24 1071.89C1496.49 1144.04 1453.94 1206.94 1396.59 1260.59C1341.09 1312.39 1269.87 1353.08 1182.92 1382.68C1097.82 1410.43 998.848 1424.31 886 1424.31H688.978V1934.9Z"/>
</mask>
<path d="M833.276 1044.14C910.974 1044.14 970.173 1026.57 1010.87 991.416C1053.42 954.417 1074.7 898.918 1074.7 824.919C1074.7 754.62 1052.5 700.971 1008.1 663.972C965.549 625.122 902.65 605.697 819.401 605.697C789.801 605.697 764.827 606.622 744.477 608.472C725.978 608.472 706.553 610.322 686.203 614.022V1044.14H833.276ZM688.978 1934.9C668.629 1940.45 636.254 1946 591.855 1951.55C549.306 1957.1 506.756 1959.87 464.207 1959.87C421.658 1959.87 383.733 1956.17 350.434 1948.77C318.984 1943.23 292.16 1932.13 269.96 1915.48C247.761 1898.83 231.111 1875.7 220.011 1846.1C208.911 1816.5 203.361 1777.65 203.361 1729.55V422.551C203.361 383.701 213.536 354.102 233.886 333.752C256.085 311.552 285.685 293.978 322.684 281.028C385.583 258.828 456.807 243.103 536.356 233.854C617.754 222.754 699.153 217.204 780.552 217.204C1035.85 217.204 1231.02 271.778 1366.07 380.926C1501.11 490.074 1568.64 638.072 1568.64 824.919C1568.64 915.567 1553.84 997.891 1524.24 1071.89C1496.49 1144.04 1453.94 1206.94 1396.59 1260.59C1341.09 1312.39 1269.87 1353.08 1182.92 1382.68C1097.82 1410.43 998.848 1424.31 886 1424.31H688.978V1934.9Z" fill="#FDF8F8"/>
<path d="M1010.87 991.416L1089.96 1082.99L1090.12 1082.86L1090.27 1082.72L1010.87 991.416ZM1008.1 663.972L926.511 753.328L928.533 755.174L930.636 756.926L1008.1 663.972ZM744.477 608.472V729.472H749.966L755.432 728.976L744.477 608.472ZM686.203 614.022L664.558 494.974L565.203 513.039V614.022H686.203ZM686.203 1044.14H565.203V1165.14H686.203V1044.14ZM688.978 1934.9L720.815 2051.64L809.978 2027.32V1934.9H688.978ZM591.855 1951.55L576.847 1831.48L576.526 1831.52L576.205 1831.57L591.855 1951.55ZM350.434 1948.77L376.682 1830.66L374.084 1830.08L371.462 1829.62L350.434 1948.77ZM269.96 1915.48L197.36 2012.28L197.36 2012.28L269.96 1915.48ZM220.011 1846.1L106.715 1888.59L106.715 1888.59L220.011 1846.1ZM233.886 333.752L319.446 419.312L319.446 419.312L233.886 333.752ZM322.684 281.028L362.657 395.235L362.806 395.182L362.956 395.13L322.684 281.028ZM536.356 233.854L550.331 354.044L551.519 353.906L552.704 353.744L536.356 233.854ZM1366.07 380.926L1290.01 475.033L1366.07 380.926ZM1524.24 1071.89L1411.89 1026.95L1411.59 1027.7L1411.3 1028.45L1524.24 1071.89ZM1396.59 1260.59L1479.15 1349.04L1479.2 1349L1479.25 1348.95L1396.59 1260.59ZM1182.92 1382.68L1220.43 1497.72L1221.17 1497.48L1221.91 1497.23L1182.92 1382.68ZM688.978 1424.31V1303.31H567.978V1424.31H688.978ZM833.276 1044.14V1165.14C927.331 1165.14 1019.28 1144.03 1089.96 1082.99L1010.87 991.416L931.785 899.84C921.062 909.101 894.618 923.14 833.276 923.14V1044.14ZM1010.87 991.416L1090.27 1082.72C1166.91 1016.08 1195.7 922.314 1195.7 824.919H1074.7H953.697C953.697 875.521 939.932 892.754 931.475 900.109L1010.87 991.416ZM1074.7 824.919H1195.7C1195.7 727.243 1163.49 635.96 1085.56 571.017L1008.1 663.972L930.636 756.926C941.502 765.981 953.697 781.997 953.697 824.919H1074.7ZM1008.1 663.972L1089.68 574.615C1016.66 507.941 919.552 484.697 819.401 484.697V605.697V726.697C885.747 726.697 914.436 742.303 926.511 753.328L1008.1 663.972ZM819.401 605.697V484.697C787.609 484.697 758.728 485.678 733.523 487.969L744.477 608.472L755.432 728.976C770.925 727.567 791.994 726.697 819.401 726.697V605.697ZM744.477 608.472V487.472C717.927 487.472 691.226 490.125 664.558 494.974L686.203 614.022L707.848 733.071C721.879 730.52 734.028 729.472 744.477 729.472V608.472ZM686.203 614.022H565.203V1044.14H686.203H807.203V614.022H686.203ZM686.203 1044.14V1165.14H833.276V1044.14V923.14H686.203V1044.14ZM688.978 1934.9L657.141 1818.16C645.582 1821.32 620.396 1826.04 576.847 1831.48L591.855 1951.55L606.863 2071.62C652.112 2065.96 691.675 2059.58 720.815 2051.64L688.978 1934.9ZM591.855 1951.55L576.205 1831.57C538.801 1836.45 501.479 1838.87 464.207 1838.87V1959.87V2080.87C512.034 2080.87 559.81 2077.75 607.505 2071.53L591.855 1951.55ZM464.207 1959.87V1838.87C428.417 1838.87 399.555 1835.74 376.682 1830.66L350.434 1948.77L324.185 2066.89C367.912 2076.61 414.898 2080.87 464.207 2080.87V1959.87ZM350.434 1948.77L371.462 1829.62C355.889 1826.87 347.418 1822.32 342.56 1818.68L269.96 1915.48L197.36 2012.28C236.901 2041.93 282.08 2059.58 329.406 2067.93L350.434 1948.77ZM269.96 1915.48L342.56 1818.68C341.302 1817.73 337.459 1814.69 333.307 1803.62L220.011 1846.1L106.715 1888.59C124.763 1936.71 154.219 1979.92 197.36 2012.28L269.96 1915.48ZM220.011 1846.1L333.307 1803.62C329.236 1792.76 324.361 1769.92 324.361 1729.55H203.361H82.3613C82.3613 1785.38 88.5861 1840.24 106.715 1888.59L220.011 1846.1ZM203.361 1729.55H324.361V422.551H203.361H82.3613V1729.55H203.361ZM203.361 422.551H324.361C324.361 413.412 325.589 410.059 325.421 410.548C325.307 410.88 324.845 412.098 323.778 413.844C322.692 415.621 321.236 417.522 319.446 419.312L233.886 333.752L148.326 248.192C98.2479 298.27 82.3613 363.16 82.3613 422.551H203.361ZM233.886 333.752L319.446 419.312C326.006 412.752 338.654 403.636 362.657 395.235L322.684 281.028L282.712 166.821C232.715 184.32 186.165 210.353 148.326 248.192L233.886 333.752ZM322.684 281.028L362.956 395.13C415.849 376.462 478.022 362.452 550.331 354.044L536.356 233.854L522.38 113.663C435.592 123.755 355.318 141.195 282.413 166.926L322.684 281.028ZM536.356 233.854L552.704 353.744C628.735 343.376 704.672 338.204 780.552 338.204V217.204V96.204C693.634 96.204 606.774 102.131 520.007 113.963L536.356 233.854ZM780.552 217.204V338.204C1020.75 338.204 1184.58 389.823 1290.01 475.033L1366.07 380.926L1442.13 286.82C1277.46 153.733 1050.95 96.204 780.552 96.204V217.204ZM1366.07 380.926L1290.01 475.033C1394.24 559.279 1447.64 671.434 1447.64 824.919H1568.64H1689.64C1689.64 604.71 1607.98 420.87 1442.13 286.82L1366.07 380.926ZM1568.64 824.919H1447.64C1447.64 902.273 1435.04 969.073 1411.89 1026.95L1524.24 1071.89L1636.58 1116.83C1672.63 1026.71 1689.64 928.862 1689.64 824.919H1568.64ZM1524.24 1071.89L1411.3 1028.45C1390.23 1083.25 1358.14 1130.86 1313.93 1172.22L1396.59 1260.59L1479.25 1348.95C1549.74 1283.01 1602.75 1204.82 1637.17 1115.33L1524.24 1071.89ZM1396.59 1260.59L1314.03 1172.13C1273.39 1210.06 1218 1242.92 1143.93 1268.14L1182.92 1382.68L1221.91 1497.23C1321.73 1463.25 1408.8 1414.71 1479.15 1349.04L1396.59 1260.59ZM1182.92 1382.68L1145.41 1267.65C1075.1 1290.57 989.274 1303.31 886 1303.31V1424.31V1545.31C1008.42 1545.31 1120.54 1530.3 1220.43 1497.72L1182.92 1382.68ZM886 1424.31V1303.31H688.978V1424.31V1545.31H886V1424.31ZM688.978 1424.31H567.978V1934.9H688.978H809.978V1424.31H688.978Z" fill="black" mask="url(#path-7-outside-2_192_38)"/>
<mask id="path-9-outside-3_192_38" maskUnits="userSpaceOnUse" x="1713.18" y="1611.88" width="1851" height="1948" fill="black">
<rect fill="white" x="1713.18" y="1611.88" width="1851" height="1948"/>
<path d="M2293.05 1795.21C2324.5 1776.71 2371.67 1759.14 2434.57 1742.49C2499.32 1725.84 2564.07 1717.51 2628.82 1717.51C2721.32 1717.51 2802.71 1731.39 2873.01 1759.14C2945.16 1785.04 2991.41 1826.66 3011.76 1884.01C3045.06 1980.21 3081.13 2092.13 3119.98 2219.78C3158.83 2347.43 3197.68 2479.7 3236.53 2616.6C3275.38 2751.64 3313.31 2885.77 3350.31 3018.96C3387.3 3150.31 3419.68 3266.86 3447.43 3368.61C3425.23 3394.51 3391.93 3414.86 3347.53 3429.66C3303.13 3446.31 3250.41 3454.63 3189.36 3454.63C3144.96 3454.63 3107.03 3450.93 3075.59 3443.53C3045.99 3436.13 3021.01 3425.03 3000.66 3410.23C2982.16 3395.43 2966.44 3376.01 2953.49 3351.96C2942.39 3327.91 2932.21 3300.16 2922.96 3268.71L2873.01 3077.24H2370.75C2355.95 3132.74 2341.15 3190.09 2326.35 3249.29C2311.55 3308.48 2296.75 3365.83 2281.95 3421.33C2256.05 3430.58 2228.3 3437.98 2198.7 3443.53C2170.95 3450.93 2136.73 3454.63 2096.03 3454.63C2001.68 3454.63 1931.38 3438.91 1885.13 3407.46C1840.73 3374.16 1818.53 3328.83 1818.53 3271.49C1818.53 3245.59 1822.23 3219.69 1829.63 3193.79C1837.03 3167.89 1845.36 3137.36 1854.61 3102.21C1867.56 3052.26 1885.13 2990.29 1907.33 2916.29C1931.38 2842.29 1957.28 2762.74 1985.03 2677.65C2012.78 2590.7 2042.38 2501.9 2073.83 2411.25C2105.28 2320.6 2134.88 2235.5 2162.63 2155.95C2190.37 2074.56 2215.35 2002.41 2237.55 1939.51C2261.6 1876.61 2280.1 1828.51 2293.05 1795.21ZM2626.04 2153.18C2600.14 2230.88 2570.54 2317.83 2537.24 2414.02C2505.79 2508.37 2477.12 2604.57 2451.22 2702.62H2795.31C2769.42 2602.72 2742.59 2505.6 2714.84 2411.25C2688.94 2315.05 2664.89 2229.03 2642.69 2153.18H2626.04Z"/>
</mask>
<g filter="url(#filter1_i_192_38)">
<path d="M2293.05 1795.21C2324.5 1776.71 2371.67 1759.14 2434.57 1742.49C2499.32 1725.84 2564.07 1717.51 2628.82 1717.51C2721.32 1717.51 2802.71 1731.39 2873.01 1759.14C2945.16 1785.04 2991.41 1826.66 3011.76 1884.01C3045.06 1980.21 3081.13 2092.13 3119.98 2219.78C3158.83 2347.43 3197.68 2479.7 3236.53 2616.6C3275.38 2751.64 3313.31 2885.77 3350.31 3018.96C3387.3 3150.31 3419.68 3266.86 3447.43 3368.61C3425.23 3394.51 3391.93 3414.86 3347.53 3429.66C3303.13 3446.31 3250.41 3454.63 3189.36 3454.63C3144.96 3454.63 3107.03 3450.93 3075.59 3443.53C3045.99 3436.13 3021.01 3425.03 3000.66 3410.23C2982.16 3395.43 2966.44 3376.01 2953.49 3351.96C2942.39 3327.91 2932.21 3300.16 2922.96 3268.71L2873.01 3077.24H2370.75C2355.95 3132.74 2341.15 3190.09 2326.35 3249.29C2311.55 3308.48 2296.75 3365.83 2281.95 3421.33C2256.05 3430.58 2228.3 3437.98 2198.7 3443.53C2170.95 3450.93 2136.73 3454.63 2096.03 3454.63C2001.68 3454.63 1931.38 3438.91 1885.13 3407.46C1840.73 3374.16 1818.53 3328.83 1818.53 3271.49C1818.53 3245.59 1822.23 3219.69 1829.63 3193.79C1837.03 3167.89 1845.36 3137.36 1854.61 3102.21C1867.56 3052.26 1885.13 2990.29 1907.33 2916.29C1931.38 2842.29 1957.28 2762.74 1985.03 2677.65C2012.78 2590.7 2042.38 2501.9 2073.83 2411.25C2105.28 2320.6 2134.88 2235.5 2162.63 2155.95C2190.37 2074.56 2215.35 2002.41 2237.55 1939.51C2261.6 1876.61 2280.1 1828.51 2293.05 1795.21ZM2626.04 2153.18C2600.14 2230.88 2570.54 2317.83 2537.24 2414.02C2505.79 2508.37 2477.12 2604.57 2451.22 2702.62H2795.31C2769.42 2602.72 2742.59 2505.6 2714.84 2411.25C2688.94 2315.05 2664.89 2229.03 2642.69 2153.18H2626.04Z" fill="#B8B8B8"/>
</g>
<path d="M2293.05 1795.21L2239.81 1704.71L2208.4 1723.19L2195.19 1757.15L2293.05 1795.21ZM2434.57 1742.49L2408.42 1640.79L2408.06 1640.89L2407.7 1640.98L2434.57 1742.49ZM2873.01 1759.14L2834.46 1856.8L2835.99 1857.41L2837.54 1857.96L2873.01 1759.14ZM3011.76 1884.01L3110.98 1849.66L3110.85 1849.28L3110.72 1848.9L3011.76 1884.01ZM3119.98 2219.78L3220.44 2189.21L3220.44 2189.21L3119.98 2219.78ZM3236.53 2616.6L3135.52 2645.26L3135.57 2645.44L3135.62 2645.62L3236.53 2616.6ZM3350.31 3018.96L3249.14 3047.07L3249.19 3047.25L3249.24 3047.43L3350.31 3018.96ZM3447.43 3368.61L3527.15 3436.94L3563.37 3394.68L3548.73 3340.98L3447.43 3368.61ZM3347.53 3429.66L3314.33 3330.05L3312.48 3330.66L3310.66 3331.34L3347.53 3429.66ZM3075.59 3443.53L3050.12 3545.4L3050.83 3545.57L3051.54 3545.74L3075.59 3443.53ZM3000.66 3410.23L2935.07 3492.22L2936.95 3493.73L2938.9 3495.15L3000.66 3410.23ZM2953.49 3351.96L2858.15 3395.96L2859.51 3398.89L2861.04 3401.74L2953.49 3351.96ZM2922.96 3268.71L2821.36 3295.21L2821.77 3296.78L2822.23 3298.34L2922.96 3268.71ZM2873.01 3077.24L2974.61 3050.73L2954.14 2972.24H2873.01V3077.24ZM2370.75 3077.24V2972.24H2290.08L2269.29 3050.18L2370.75 3077.24ZM2326.35 3249.29L2224.48 3223.82L2224.48 3223.82L2326.35 3249.29ZM2281.95 3421.33L2317.26 3520.22L2369.19 3501.67L2383.4 3448.39L2281.95 3421.33ZM2198.7 3443.53L2179.35 3340.33L2175.46 3341.06L2171.65 3342.08L2198.7 3443.53ZM1885.13 3407.46L1822.13 3491.46L1824.08 3492.92L1826.09 3494.29L1885.13 3407.46ZM1829.63 3193.79L1728.67 3164.94L1728.67 3164.94L1829.63 3193.79ZM1854.61 3102.21L1956.15 3128.94L1956.2 3128.75L1956.25 3128.56L1854.61 3102.21ZM1907.33 2916.29L1807.47 2883.84L1807.1 2884.97L1806.76 2886.12L1907.33 2916.29ZM1985.03 2677.65L2084.85 2710.2L2084.96 2709.88L2085.06 2709.57L1985.03 2677.65ZM2073.83 2411.25L1974.63 2376.83L1974.63 2376.83L2073.83 2411.25ZM2162.63 2155.95L2261.77 2190.54L2261.89 2190.19L2262.01 2189.83L2162.63 2155.95ZM2237.55 1939.51L2139.47 1902.01L2138.99 1903.28L2138.54 1904.56L2237.55 1939.51ZM2626.04 2153.18V2048.18H2550.36L2526.43 2119.98L2626.04 2153.18ZM2537.24 2414.02L2438.02 2379.68L2437.82 2380.25L2437.63 2380.82L2537.24 2414.02ZM2451.22 2702.62L2349.7 2675.8L2314.88 2807.62H2451.22V2702.62ZM2795.31 2702.62V2807.62H2931.01L2896.95 2676.27L2795.31 2702.62ZM2714.84 2411.25L2613.45 2438.55L2613.77 2439.72L2614.11 2440.88L2714.84 2411.25ZM2642.69 2153.18L2743.46 2123.68L2721.37 2048.18H2642.69V2153.18ZM2293.05 1795.21L2346.29 1885.71C2365.45 1874.44 2401.77 1859.78 2461.44 1843.99L2434.57 1742.49L2407.7 1640.98C2341.57 1658.49 2283.55 1678.98 2239.81 1704.71L2293.05 1795.21ZM2434.57 1742.49L2460.72 1844.18C2517.21 1829.65 2573.17 1822.51 2628.82 1822.51V1717.51V1612.51C2554.96 1612.51 2481.43 1622.02 2408.42 1640.79L2434.57 1742.49ZM2628.82 1717.51V1822.51C2710.98 1822.51 2778.85 1834.85 2834.46 1856.8L2873.01 1759.14L2911.57 1661.47C2826.58 1627.92 2731.65 1612.51 2628.82 1612.51V1717.51ZM2873.01 1759.14L2837.54 1857.96C2888.43 1876.23 2905.65 1898.94 2912.81 1919.12L3011.76 1884.01L3110.72 1848.9C3077.18 1754.38 3001.9 1693.84 2908.49 1660.31L2873.01 1759.14ZM3011.76 1884.01L2912.54 1918.36C2945.3 2012.99 2980.96 2123.6 3019.53 2250.35L3119.98 2219.78L3220.44 2189.21C3181.31 2060.66 3144.83 1947.42 3110.98 1849.66L3011.76 1884.01ZM3119.98 2219.78L3019.53 2250.35C3058.18 2377.32 3096.84 2508.96 3135.52 2645.26L3236.53 2616.6L3337.54 2587.93C3298.53 2450.44 3259.49 2317.53 3220.44 2189.21L3119.98 2219.78ZM3236.53 2616.6L3135.62 2645.62C3174.39 2780.37 3212.22 2914.18 3249.14 3047.07L3350.31 3018.96L3451.47 2990.86C3414.39 2857.35 3376.38 2722.92 3337.44 2587.57L3236.53 2616.6ZM3350.31 3018.96L3249.24 3047.43C3286.18 3178.58 3318.47 3294.84 3346.13 3396.24L3447.43 3368.61L3548.73 3340.98C3520.88 3238.88 3488.43 3122.05 3451.37 2990.5L3350.31 3018.96ZM3447.43 3368.61L3367.71 3300.28C3361.67 3307.31 3347.12 3319.11 3314.33 3330.05L3347.53 3429.66L3380.73 3529.27C3436.74 3510.6 3488.78 3481.7 3527.15 3436.94L3447.43 3368.61ZM3347.53 3429.66L3310.66 3331.34C3280.9 3342.51 3241.26 3349.63 3189.36 3349.63V3454.63V3559.63C3259.55 3559.63 3325.37 3550.11 3384.4 3527.97L3347.53 3429.66ZM3189.36 3454.63V3349.63C3150.28 3349.63 3120.89 3346.33 3099.63 3341.32L3075.59 3443.53L3051.54 3545.74C3093.18 3555.54 3139.64 3559.63 3189.36 3559.63V3454.63ZM3075.59 3443.53L3101.05 3341.67C3081.82 3336.86 3069.82 3330.7 3062.42 3325.32L3000.66 3410.23L2938.9 3495.15C2972.2 3519.37 3010.15 3535.41 3050.12 3545.4L3075.59 3443.53ZM3000.66 3410.23L3066.25 3328.24C3060.34 3323.51 3053.21 3315.68 3045.94 3302.18L2953.49 3351.96L2861.04 3401.74C2879.67 3436.34 2903.98 3467.36 2935.07 3492.22L3000.66 3410.23ZM2953.49 3351.96L3048.82 3307.96C3040.3 3289.5 3031.82 3266.72 3023.7 3239.08L2922.96 3268.71L2822.23 3298.34C2832.6 3333.6 2844.47 3366.32 2858.15 3395.96L2953.49 3351.96ZM2922.96 3268.71L3024.56 3242.21L2974.61 3050.73L2873.01 3077.24L2771.41 3103.74L2821.36 3295.21L2922.96 3268.71ZM2873.01 3077.24V2972.24H2370.75V3077.24V3182.24H2873.01V3077.24ZM2370.75 3077.24L2269.29 3050.18C2254.34 3106.24 2239.41 3164.12 2224.48 3223.82L2326.35 3249.29L2428.21 3274.75C2442.89 3216.05 2457.55 3159.23 2472.2 3104.29L2370.75 3077.24ZM2326.35 3249.29L2224.48 3223.82C2209.81 3282.52 2195.14 3339.34 2180.49 3394.28L2281.95 3421.33L2383.4 3448.39C2398.35 3392.33 2413.29 3334.45 2428.21 3274.75L2326.35 3249.29ZM2281.95 3421.33L2246.63 3322.45C2226.4 3329.68 2204.03 3335.7 2179.35 3340.33L2198.7 3443.53L2218.05 3546.73C2252.57 3540.26 2285.7 3531.49 2317.26 3520.22L2281.95 3421.33ZM2198.7 3443.53L2171.65 3342.08C2155.54 3346.37 2131.06 3349.63 2096.03 3349.63V3454.63V3559.63C2142.39 3559.63 2186.36 3555.49 2225.75 3544.99L2198.7 3443.53ZM2096.03 3454.63V3349.63C2009.78 3349.63 1964.72 3334.6 1944.17 3320.63L1885.13 3407.46L1826.09 3494.29C1898.04 3543.21 1993.58 3559.63 2096.03 3559.63V3454.63ZM1885.13 3407.46L1948.13 3323.46C1931.19 3310.75 1923.53 3297.08 1923.53 3271.49H1818.53H1713.53C1713.53 3360.59 1750.27 3437.57 1822.13 3491.46L1885.13 3407.46ZM1818.53 3271.49H1923.53C1923.53 3255.73 1925.76 3239.53 1930.59 3222.63L1829.63 3193.79L1728.67 3164.94C1718.7 3199.84 1713.53 3235.45 1713.53 3271.49H1818.53ZM1829.63 3193.79L1930.59 3222.63C1938.25 3195.83 1946.77 3164.57 1956.15 3128.94L1854.61 3102.21L1753.06 3075.49C1743.94 3110.16 1735.81 3139.94 1728.67 3164.94L1829.63 3193.79ZM1854.61 3102.21L1956.25 3128.56C1968.74 3080.35 1985.92 3019.75 2007.9 2946.46L1907.33 2916.29L1806.76 2886.12C1784.34 2960.83 1766.37 3024.17 1752.97 3075.86L1854.61 3102.21ZM1907.33 2916.29L2007.19 2948.75C2031.23 2874.78 2057.11 2795.27 2084.85 2710.2L1985.03 2677.65L1885.2 2645.09C1857.44 2730.22 1831.53 2809.8 1807.47 2883.84L1907.33 2916.29ZM1985.03 2677.65L2085.06 2709.57C2112.53 2623.5 2141.85 2535.53 2173.03 2445.67L2073.83 2411.25L1974.63 2376.83C1942.91 2468.27 1913.03 2557.9 1885 2645.72L1985.03 2677.65ZM2073.83 2411.25L2173.03 2445.67C2204.46 2355.07 2234.04 2270.02 2261.77 2190.54L2162.63 2155.95L2063.48 2121.37C2035.71 2200.98 2006.09 2286.14 1974.63 2376.83L2073.83 2411.25ZM2162.63 2155.95L2262.01 2189.83C2289.67 2108.7 2314.52 2036.91 2336.56 1974.45L2237.55 1939.51L2138.54 1904.56C2116.18 1967.9 2091.08 2040.41 2063.24 2122.07L2162.63 2155.95ZM2237.55 1939.51L2335.62 1977.01C2359.65 1914.16 2378.07 1866.28 2390.91 1833.27L2293.05 1795.21L2195.19 1757.15C2182.13 1790.73 2163.54 1839.05 2139.47 1902.01L2237.55 1939.51ZM2626.04 2153.18L2526.43 2119.98C2500.68 2197.21 2471.22 2283.77 2438.02 2379.68L2537.24 2414.02L2636.47 2448.37C2669.87 2351.88 2699.6 2264.54 2725.65 2186.38L2626.04 2153.18ZM2537.24 2414.02L2437.63 2380.82C2405.47 2477.32 2376.16 2575.65 2349.7 2675.8L2451.22 2702.62L2552.74 2729.44C2578.08 2633.49 2606.12 2539.43 2636.86 2447.23L2537.24 2414.02ZM2451.22 2702.62V2807.62H2795.31V2702.62V2597.62H2451.22V2702.62ZM2795.31 2702.62L2896.95 2676.27C2870.78 2575.33 2843.66 2477.11 2815.57 2381.62L2714.84 2411.25L2614.11 2440.88C2641.52 2534.09 2668.05 2630.12 2693.68 2728.97L2795.31 2702.62ZM2714.84 2411.25L2816.23 2383.95C2790.18 2287.2 2765.92 2200.42 2743.46 2123.68L2642.69 2153.18L2541.92 2182.67C2563.86 2257.63 2587.7 2342.9 2613.45 2438.55L2714.84 2411.25ZM2642.69 2153.18V2048.18H2626.04V2153.18V2258.18H2642.69V2153.18Z" fill="black" mask="url(#path-9-outside-3_192_38)"/>
<defs>
<filter id="filter0_i_192_38" x="994.328" y="970.617" width="1449.08" height="1912.5" filterUnits="userSpaceOnUse" color-interpolation-filters="sRGB">
<feFlood flood-opacity="0" result="BackgroundImageFix"/>
<feBlend mode="normal" in="SourceGraphic" in2="BackgroundImageFix" result="shape"/>
<feColorMatrix in="SourceAlpha" type="matrix" values="0 0 0 0 0 0 0 0 0 0 0 0 0 0 0 0 0 0 127 0" result="hardAlpha"/>
<feOffset dx="-61" dy="190"/>
<feGaussianBlur stdDeviation="28.5"/>
<feComposite in2="hardAlpha" operator="arithmetic" k2="-1" k3="1"/>
<feColorMatrix type="matrix" values="0 0 0 0 0 0 0 0 0 0 0 0 0 0 0 0 0 0 0.25 0"/>
<feBlend mode="normal" in2="shape" result="effect1_innerShadow_192_38"/>
</filter>
<filter id="filter1_i_192_38" x="1713.53" y="1612.51" width="1864.84" height="1962.12" filterUnits="userSpaceOnUse" color-interpolation-filters="sRGB">
<feFlood flood-opacity="0" result="BackgroundImageFix"/>
<feBlend mode="normal" in="SourceGraphic" in2="BackgroundImageFix" result="shape"/>
<feColorMatrix in="SourceAlpha" type="matrix" values="0 0 0 0 0 0 0 0 0 0 0 0 0 0 0 0 0 0 127 0" result="hardAlpha"/>
<feOffset dx="96" dy="56"/>
<feGaussianBlur stdDeviation="7.5"/>
<feComposite in2="hardAlpha" operator="arithmetic" k2="-1" k3="1"/>
<feColorMatrix type="matrix" values="0 0 0 0 0 0 0 0 0 0 0 0 0 0 0 0 0 0 0.25 0"/>
<feBlend mode="normal" in2="shape" result="effect1_innerShadow_192_38"/>
</filter>
</defs>
</svg>
