<svg width="5969" height="5969" viewBox="0 0 5969 5969" fill="none" xmlns="http://www.w3.org/2000/svg">
<circle cx="2984.5" cy="2984.5" r="2984.5" fill="#121212"/>
<path d="M2266.64 4662C2200.64 4662 2145.14 4639.5 2100.14 4594.5C2055.14 4549.5 2032.64 4494 2032.64 4428V1381.5C2032.64 1312.5 2055.14 1257 2100.14 1215C2145.14 1170 2200.64 1147.5 2266.64 1147.5H3166.64C3391.64 1147.5 3591.14 1197 3765.14 1296C3939.14 1395 4074.14 1533 4170.14 1710C4269.14 1884 4318.64 2085 4318.64 2313C4318.64 2532 4269.14 2727 4170.14 2898C4074.14 3069 3939.14 3202.5 3765.14 3298.5C3591.14 3394.5 3391.64 3442.5 3166.64 3442.5H2500.64V4428C2500.64 4494 2478.14 4549.5 2433.14 4594.5C2391.14 4639.5 2335.64 4662 2266.64 4662ZM2500.64 3010.5H3166.64C3304.64 3010.5 3426.14 2980.5 3531.14 2920.5C3636.14 2860.5 3718.64 2778 3778.64 2673C3838.64 2568 3868.64 2448 3868.64 2313C3868.64 2169 3838.64 2043 3778.64 1935C3718.64 1824 3636.14 1737 3531.14 1674C3426.14 1611 3304.64 1579.5 3166.64 1579.5H2500.64V3010.5Z" fill="white"/>
</svg>
