<svg width="25500" height="6134" viewBox="0 0 25500 6134" fill="none" xmlns="http://www.w3.org/2000/svg">
<circle cx="2984.5" cy="2984.5" r="2984.5" fill="#1D0606"/>
<path d="M1824.75 4239C1780.42 4239 1741.92 4223.83 1709.25 4193.5C1676.58 4160.83 1660.25 4121.17 1660.25 4074.5V1670C1660.25 1621 1675.42 1581.33 1705.75 1551C1738.42 1520.67 1778.08 1505.5 1824.75 1505.5H3431.25C3480.25 1505.5 3518.75 1520.67 3546.75 1551C3577.08 1579 3592.25 1616.33 3592.25 1663C3592.25 1705 3577.08 1741.17 3546.75 1771.5C3518.75 1799.5 3480.25 1813.5 3431.25 1813.5H1989.25V2709.5H3028.75C3077.75 2709.5 3117.42 2724.67 3147.75 2755C3178.08 2783 3193.25 2819.17 3193.25 2863.5C3193.25 2907.83 3178.08 2945.17 3147.75 2975.5C3117.42 3003.5 3077.75 3017.5 3028.75 3017.5H1989.25V4074.5C1989.25 4121.17 1972.92 4160.83 1940.25 4193.5C1909.92 4223.83 1871.42 4239 1824.75 4239Z" fill="#757070"/>
<path d="M972.668 4158C921.335 4158 878.168 4140.5 843.168 4105.5C808.168 4070.5 790.668 4027.33 790.668 3976V1606.5C790.668 1552.83 808.168 1509.67 843.168 1477C878.168 1442 921.335 1424.5 972.668 1424.5H1672.67C1847.67 1424.5 2002.83 1463 2138.17 1540C2273.5 1617 2378.5 1724.33 2453.17 1862C2530.17 1997.33 2568.67 2153.67 2568.67 2331C2568.67 2501.33 2530.17 2653 2453.17 2786C2378.5 2919 2273.5 3022.83 2138.17 3097.5C2002.83 3172.17 1847.67 3209.5 1672.67 3209.5H1154.67V3976C1154.67 4027.33 1137.17 4070.5 1102.17 4105.5C1069.5 4140.5 1026.33 4158 972.668 4158ZM1154.67 2873.5H1672.67C1780 2873.5 1874.5 2850.17 1956.17 2803.5C2037.83 2756.83 2102 2692.67 2148.67 2611C2195.33 2529.33 2218.67 2436 2218.67 2331C2218.67 2219 2195.33 2121 2148.67 2037C2102 1950.67 2037.83 1883 1956.17 1834C1874.5 1785 1780 1760.5 1672.67 1760.5H1154.67V2873.5Z" fill="#FDF8F8"/>
<path d="M3225.03 4158C3159.7 4158 3109.53 4130 3074.53 4074C3039.53 4018 3036.03 3958.5 3064.03 3895.5L4047.53 1547C4082.53 1465.33 4139.7 1424.5 4219.03 1424.5C4303.03 1424.5 4360.2 1465.33 4390.53 1547L5377.53 3902.5C5403.2 3967.83 5398.53 4027.33 5363.53 4081C5330.86 4132.33 5280.7 4158 5213.03 4158C5178.03 4158 5144.2 4148.67 5111.53 4130C5081.2 4109 5059.03 4081 5045.03 4046L4177.03 1890H4275.03L3393.03 4046C3376.7 4083.33 3352.2 4111.33 3319.53 4130C3289.2 4148.67 3257.7 4158 3225.03 4158ZM3410.53 3556L3550.53 3255H4922.53L5062.53 3556H3410.53Z" fill="#757070"/>
<path d="M7277.58 3147C7233.58 3147 7196.58 3132 7166.58 3102C7136.58 3072 7121.58 3035 7121.58 2991V960C7121.58 914 7136.58 877 7166.58 849C7196.58 819 7233.58 804 7277.58 804H7877.58C8027.58 804 8160.58 837 8276.58 903C8392.58 969 8482.58 1061 8546.58 1179C8612.58 1295 8645.58 1429 8645.58 1581C8645.58 1727 8612.58 1857 8546.58 1971C8482.58 2085 8392.58 2174 8276.58 2238C8160.58 2302 8027.58 2334 7877.58 2334H7433.58V2991C7433.58 3035 7418.58 3072 7388.58 3102C7360.58 3132 7323.58 3147 7277.58 3147ZM7433.58 2046H7877.58C7969.58 2046 8050.58 2026 8120.58 1986C8190.58 1946 8245.58 1891 8285.58 1821C8325.58 1751 8345.58 1671 8345.58 1581C8345.58 1485 8325.58 1401 8285.58 1329C8245.58 1255 8190.58 1197 8120.58 1155C8050.58 1113 7969.58 1092 7877.58 1092H7433.58V2046ZM9257.72 2121C9257.72 2001 9286.72 1894 9344.72 1800C9404.72 1704 9484.72 1628 9584.72 1572C9684.72 1516 9794.72 1488 9914.72 1488C10034.7 1488 10123.7 1508 10181.7 1548C10241.7 1586 10264.7 1632 10250.7 1686C10244.7 1714 10232.7 1736 10214.7 1752C10198.7 1766 10179.7 1775 10157.7 1779C10135.7 1783 10111.7 1782 10085.7 1776C9957.72 1750 9842.72 1748 9740.72 1770C9638.72 1792 9557.72 1833 9497.72 1893C9439.72 1953 9410.72 2029 9410.72 2121H9257.72ZM9260.72 3147C9212.72 3147 9175.72 3135 9149.72 3111C9123.72 3085 9110.72 3047 9110.72 2997V1656C9110.72 1608 9123.72 1571 9149.72 1545C9175.72 1519 9212.72 1506 9260.72 1506C9310.72 1506 9347.72 1519 9371.72 1545C9397.72 1569 9410.72 1606 9410.72 1656V2997C9410.72 3045 9397.72 3082 9371.72 3108C9347.72 3134 9310.72 3147 9260.72 3147ZM11343.6 3159C11181.6 3159 11038.6 3124 10914.6 3054C10790.6 2982 10692.6 2884 10620.6 2760C10550.6 2634 10515.6 2490 10515.6 2328C10515.6 2164 10550.6 2020 10620.6 1896C10692.6 1770 10790.6 1672 10914.6 1602C11038.6 1530 11181.6 1494 11343.6 1494C11503.6 1494 11645.6 1530 11769.6 1602C11893.6 1672 11990.6 1770 12060.6 1896C12132.6 2020 12168.6 2164 12168.6 2328C12168.6 2490 12133.6 2634 12063.6 2760C11993.6 2884 11896.6 2982 11772.6 3054C11648.6 3124 11505.6 3159 11343.6 3159ZM11343.6 2889C11447.6 2889 11539.6 2865 11619.6 2817C11699.6 2769 11761.6 2703 11805.6 2619C11851.6 2535 11874.6 2438 11874.6 2328C11874.6 2218 11851.6 2121 11805.6 2037C11761.6 1951 11699.6 1884 11619.6 1836C11539.6 1788 11447.6 1764 11343.6 1764C11239.6 1764 11147.6 1788 11067.6 1836C10987.6 1884 10924.6 1951 10878.6 2037C10832.6 2121 10809.6 2218 10809.6 2328C10809.6 2438 10832.6 2535 10878.6 2619C10924.6 2703 10987.6 2769 11067.6 2817C11147.6 2865 11239.6 2889 11343.6 2889Z" fill="#ACA8A8"/>
<path d="M12960 3147C12926 3147 12895 3135 12867 3111C12841 3085 12828 3051 12828 3009V1512C12828 1370 12855 1246 12909 1140C12963 1034 13039 952 13137 894C13237 834 13354 804 13488 804C13528 804 13561 816 13587 840C13613 864 13626 894 13626 930C13626 964 13613 994 13587 1020C13561 1044 13528 1056 13488 1056C13408 1056 13339 1074 13281 1110C13225 1146 13181 1197 13149 1263C13119 1327 13104 1403 13104 1491V3009C13104 3051 13091 3085 13065 3111C13041 3135 13006 3147 12960 3147ZM12675 1803C12637 1803 12606 1792 12582 1770C12560 1748 12549 1720 12549 1686C12549 1650 12560 1621 12582 1599C12606 1577 12637 1566 12675 1566H13431C13469 1566 13500 1577 13524 1599C13548 1621 13560 1650 13560 1686C13560 1720 13548 1748 13524 1770C13500 1792 13469 1803 13431 1803H12675Z" fill="white"/>
<path d="M14352.6 3147C14310.6 3147 14276.6 3134 14250.6 3108C14224.6 3082 14211.6 3049 14211.6 3009V1644C14211.6 1602 14224.6 1569 14250.6 1545C14276.6 1519 14310.6 1506 14352.6 1506C14392.6 1506 14425.6 1519 14451.6 1545C14477.6 1569 14490.6 1602 14490.6 1644V3009C14490.6 3049 14477.6 3082 14451.6 3108C14425.6 3134 14392.6 3147 14352.6 3147ZM14349.6 1221C14299.6 1221 14256.6 1203 14220.6 1167C14184.6 1131 14166.6 1087 14166.6 1035C14166.6 983 14184.6 940 14220.6 906C14258.6 870 14302.6 852 14352.6 852C14400.6 852 14442.6 870 14478.6 906C14516.6 940 14535.6 983 14535.6 1035C14535.6 1087 14517.6 1131 14481.6 1167C14445.6 1203 14401.6 1221 14349.6 1221ZM16761.2 3150C16721.2 3150 16687.2 3137 16659.2 3111C16633.2 3083 16620.2 3050 16620.2 3012V2256C16620.2 2138 16598.2 2042 16554.2 1968C16510.2 1892 16451.2 1836 16377.2 1800C16303.2 1762 16218.2 1743 16122.2 1743C16032.2 1743 15951.2 1761 15879.2 1797C15807.2 1833 15749.2 1881 15705.2 1941C15663.2 2001 15642.2 2070 15642.2 2148H15462.2C15464.2 2022 15496.2 1910 15558.2 1812C15620.2 1712 15704.2 1634 15810.2 1578C15916.2 1520 16035.2 1491 16167.2 1491C16307.2 1491 16432.2 1521 16542.2 1581C16652.2 1639 16739.2 1725 16803.2 1839C16867.2 1953 16899.2 2092 16899.2 2256V3012C16899.2 3050 16885.2 3083 16857.2 3111C16831.2 3137 16799.2 3150 16761.2 3150ZM15504.2 3150C15464.2 3150 15431.2 3137 15405.2 3111C15379.2 3085 15366.2 3052 15366.2 3012V1644C15366.2 1602 15379.2 1569 15405.2 1545C15431.2 1519 15464.2 1506 15504.2 1506C15546.2 1506 15579.2 1519 15603.2 1545C15629.2 1569 15642.2 1602 15642.2 1644V3012C15642.2 3052 15629.2 3085 15603.2 3111C15579.2 3137 15546.2 3150 15504.2 3150ZM18467.3 3159C18301.3 3159 18154.3 3124 18026.3 3054C17900.3 2982 17801.3 2884 17729.3 2760C17657.3 2634 17621.3 2490 17621.3 2328C17621.3 2164 17655.3 2020 17723.3 1896C17791.3 1770 17885.3 1672 18005.3 1602C18125.3 1530 18264.3 1494 18422.3 1494C18576.3 1494 18709.3 1529 18821.3 1599C18933.3 1667 19019.3 1762 19079.3 1884C19139.3 2004 19169.3 2143 19169.3 2301C19169.3 2335 19157.3 2364 19133.3 2388C19111.3 2410 19081.3 2421 19043.3 2421H17810.2V2199H19046.3L18923.3 2286C18921.3 2180 18900.3 2085 18860.3 2001C18820.3 1917 18763.3 1851 18689.3 1803C18615.3 1755 18526.3 1731 18422.3 1731C18308.3 1731 18209.3 1757 18125.3 1809C18043.3 1861 17980.3 1932 17936.3 2022C17892.3 2112 17870.3 2214 17870.3 2328C17870.3 2442 17895.3 2544 17945.3 2634C17997.3 2722 18067.3 2792 18155.3 2844C18245.3 2896 18349.3 2922 18467.3 2922C18531.3 2922 18597.3 2910 18665.3 2886C18735.3 2862 18790.3 2834 18830.3 2802C18858.3 2780 18888.3 2769 18920.3 2769C18952.3 2767 18980.3 2776 19004.3 2796C19034.3 2824 19050.3 2855 19052.3 2889C19054.3 2921 19040.3 2949 19010.3 2973C18942.3 3027 18857.3 3072 18755.3 3108C18655.3 3142 18559.3 3159 18467.3 3159ZM20500.1 3159C20350.1 3159 20216.1 3123 20098.1 3051C19980.1 2979 19887.1 2880 19819.1 2754C19751.1 2628 19717.1 2486 19717.1 2328C19717.1 2168 19753.1 2026 19825.1 1902C19899.1 1776 19998.1 1677 20122.1 1605C20248.1 1531 20389.1 1494 20545.1 1494C20703.1 1494 20844.1 1531 20968.1 1605C21092.1 1677 21190.1 1776 21262.1 1902C21336.1 2028 21374.1 2170 21376.1 2328L21268.1 2355C21268.1 2507 21234.1 2644 21166.1 2766C21098.1 2888 21006.1 2984 20890.1 3054C20776.1 3124 20646.1 3159 20500.1 3159ZM20545.1 2913C20653.1 2913 20749.1 2888 20833.1 2838C20917.1 2786 20983.1 2716 21031.1 2628C21081.1 2538 21106.1 2438 21106.1 2328C21106.1 2216 21081.1 2116 21031.1 2028C20983.1 1938 20917.1 1868 20833.1 1818C20749.1 1766 20653.1 1740 20545.1 1740C20441.1 1740 20346.1 1766 20260.1 1818C20174.1 1868 20106.1 1938 20056.1 2028C20008.1 2116 19984.1 2216 19984.1 2328C19984.1 2438 20008.1 2538 20056.1 2628C20106.1 2716 20174.1 2786 20260.1 2838C20346.1 2888 20441.1 2913 20545.1 2913ZM21235.1 3150C21195.1 3150 21162.1 3137 21136.1 3111C21110.1 3085 21097.1 3052 21097.1 3012V2532L21154.1 2244L21376.1 2328V3012C21376.1 3052 21362.1 3085 21334.1 3111C21308.1 3137 21275.1 3150 21235.1 3150ZM22254.5 2127C22258.5 2005 22289.5 1896 22347.5 1800C22407.5 1704 22486.5 1628 22584.5 1572C22682.5 1516 22790.5 1488 22908.5 1488C23018.5 1488 23100.5 1505 23154.5 1539C23210.5 1573 23231.5 1616 23217.5 1668C23211.5 1698 23199.5 1720 23181.5 1734C23163.5 1746 23142.5 1753 23118.5 1755C23094.5 1755 23068.5 1753 23040.5 1749C22918.5 1729 22809.5 1732 22713.5 1758C22617.5 1784 22541.5 1829 22485.5 1893C22429.5 1957 22401.5 2035 22401.5 2127H22254.5ZM22263.5 3147C22221.5 3147 22188.5 3136 22164.5 3114C22140.5 3090 22128.5 3056 22128.5 3012V1641C22128.5 1599 22140.5 1566 22164.5 1542C22188.5 1518 22221.5 1506 22263.5 1506C22309.5 1506 22343.5 1518 22365.5 1542C22389.5 1564 22401.5 1597 22401.5 1641V3012C22401.5 3054 22389.5 3087 22365.5 3111C22343.5 3135 22309.5 3147 22263.5 3147ZM24467.3 3147C24365.3 3147 24273.3 3122 24191.3 3072C24109.3 3020 24045.3 2951 23999.3 2865C23953.3 2777 23930.3 2677 23930.3 2565V1122C23930.3 1082 23942.3 1049 23966.3 1023C23992.3 997 24025.3 984 24065.3 984C24105.3 984 24138.3 997 24164.3 1023C24190.3 1049 24203.3 1082 24203.3 1122V2565C24203.3 2655 24228.3 2729 24278.3 2787C24328.3 2845 24391.3 2874 24467.3 2874H24560.3C24594.3 2874 24622.3 2887 24644.3 2913C24668.3 2939 24680.3 2972 24680.3 3012C24680.3 3052 24665.3 3085 24635.3 3111C24607.3 3135 24570.3 3147 24524.3 3147H24467.3ZM23768.3 1803C23732.3 1803 23702.3 1792 23678.3 1770C23654.3 1748 23642.3 1720 23642.3 1686C23642.3 1650 23654.3 1621 23678.3 1599C23702.3 1577 23732.3 1566 23768.3 1566H24491.3C24527.3 1566 24557.3 1577 24581.3 1599C24605.3 1621 24617.3 1650 24617.3 1686C24617.3 1720 24605.3 1748 24581.3 1770C24557.3 1792 24527.3 1803 24491.3 1803H23768.3Z" fill="#FFFCFC"/>
<path d="M16992.5 5490C16972.1 5490 16955.3 5485.8 16942.1 5477.4C16928.9 5467.8 16922.3 5454 16922.3 5436V4138.2C16922.3 4121.4 16927.1 4108.2 16936.7 4098.6C16947.5 4089 16960.7 4084.2 16976.3 4084.2H17417.3C17484.5 4084.2 17545.7 4099.2 17600.9 4129.2C17656.1 4158 17700.5 4198.2 17734.1 4249.8C17767.7 4300.2 17784.5 4358.4 17784.5 4424.4C17784.5 4494 17765.9 4555.2 17728.7 4608C17692.7 4659.6 17645.3 4698.6 17586.5 4725C17668.1 4747.8 17733.5 4789.8 17782.7 4851C17833.1 4912.2 17858.3 4989 17858.3 5081.4C17858.3 5160.6 17840.3 5231.4 17804.3 5293.8C17769.5 5355 17720.9 5403 17658.5 5437.8C17596.1 5472.6 17524.7 5490 17444.3 5490H16992.5ZM17030.3 5382H17444.3C17504.3 5382 17557.1 5369.4 17602.7 5344.2C17648.3 5317.8 17684.3 5282.4 17710.7 5238C17737.1 5192.4 17750.3 5140.2 17750.3 5081.4C17750.3 5023.8 17737.1 4972.8 17710.7 4928.4C17684.3 4884 17648.3 4849.2 17602.7 4824C17557.1 4798.8 17504.3 4786.2 17444.3 4786.2H17030.3V5382ZM17030.3 4678.2H17417.3C17492.9 4678.2 17554.7 4655.4 17602.7 4609.8C17651.9 4563 17676.5 4501.2 17676.5 4424.4C17676.5 4350 17651.9 4293 17602.7 4253.4C17554.7 4212.6 17492.9 4192.2 17417.3 4192.2H17030.3V4678.2ZM18748.9 5500.8C18652.9 5500.8 18566.5 5479.2 18489.7 5436C18414.1 5391.6 18354.1 5331.6 18309.7 5256C18266.5 5179.2 18244.9 5093.4 18244.9 4998.6C18244.9 4902.6 18266.5 4816.8 18309.7 4741.2C18354.1 4664.4 18414.1 4604.4 18489.7 4561.2C18566.5 4516.8 18652.9 4494.6 18748.9 4494.6C18844.9 4494.6 18930.7 4516.8 19006.3 4561.2C19081.9 4604.4 19141.3 4664.4 19184.5 4741.2C19228.9 4816.8 19251.1 4902.6 19251.1 4998.6L19206.1 5070.6C19206.1 5152.2 19185.7 5225.4 19144.9 5290.2C19105.3 5355 19051.3 5406.6 18982.9 5445C18914.5 5482.2 18836.5 5500.8 18748.9 5500.8ZM18748.9 5400C18824.5 5400 18891.7 5382.6 18950.5 5347.8C19010.5 5311.8 19057.3 5263.8 19090.9 5203.8C19125.7 5142.6 19143.1 5074.2 19143.1 4998.6C19143.1 4921.8 19125.7 4853.4 19090.9 4793.4C19057.3 4732.2 19010.5 4684.2 18950.5 4649.4C18891.7 4613.4 18824.5 4595.4 18748.9 4595.4C18674.5 4595.4 18607.3 4613.4 18547.3 4649.4C18487.3 4684.2 18439.9 4732.2 18405.1 4793.4C18370.3 4853.4 18352.9 4921.8 18352.9 4998.6C18352.9 5074.2 18370.3 5142.6 18405.1 5203.8C18439.9 5263.8 18487.3 5311.8 18547.3 5347.8C18607.3 5382.6 18674.5 5400 18748.9 5400ZM19197.1 5490C19181.5 5490 19168.3 5485.2 19157.5 5475.6C19147.9 5464.8 19143.1 5451.6 19143.1 5436V5106.6L19177.3 4998.6H19251.1V5436C19251.1 5451.6 19246.3 5464.8 19236.7 5475.6C19227.1 5485.2 19213.9 5490 19197.1 5490ZM20035.4 5500.8C19973 5500.8 19907.6 5489.4 19839.2 5466.6C19770.8 5443.8 19713.8 5405.4 19668.2 5351.4C19658.6 5339.4 19654.4 5326.8 19655.6 5313.6C19658 5299.2 19665.8 5287.2 19679 5277.6C19691 5269.2 19703.6 5266.2 19716.8 5268.6C19731.2 5271 19742.6 5277.6 19751 5288.4C19785.8 5329.2 19827.8 5358 19877 5374.8C19927.4 5390.4 19982 5398.2 20040.8 5398.2C20141.6 5398.2 20213 5380.2 20255 5344.2C20297 5308.2 20318 5266.2 20318 5218.2C20318 5171.4 20295.2 5133 20249.6 5103C20205.2 5071.8 20136.2 5049.6 20042.6 5036.4C19922.6 5019.6 19833.8 4987.2 19776.2 4939.2C19718.6 4891.2 19689.8 4835.4 19689.8 4771.8C19689.8 4711.8 19704.8 4661.4 19734.8 4620.6C19764.8 4578.6 19805.6 4547.4 19857.2 4527C19910 4505.4 19970 4494.6 20037.2 4494.6C20118.8 4494.6 20187.8 4509.6 20244.2 4539.6C20300.6 4568.4 20346.2 4607.4 20381 4656.6C20390.6 4668.6 20393.6 4681.8 20390 4696.2C20387.6 4709.4 20378.6 4720.2 20363 4728.6C20351 4734.6 20338.4 4736.4 20325.2 4734C20312 4731.6 20300.6 4724.4 20291 4712.4C20261 4674 20224.4 4645.2 20181.2 4626C20139.2 4605.6 20090 4595.4 20033.6 4595.4C19958 4595.4 19899.2 4611.6 19857.2 4644C19815.2 4676.4 19794.2 4715.4 19794.2 4761C19794.2 4792.2 19802.6 4819.8 19819.4 4843.8C19837.4 4866.6 19866.2 4886.4 19905.8 4903.2C19945.4 4918.8 19998.2 4931.4 20064.2 4941C20154.2 4953 20225 4973.4 20276.6 5002.2C20329.4 5031 20366.6 5064.6 20388.2 5103C20411 5140.2 20422.4 5180.4 20422.4 5223.6C20422.4 5280 20404.4 5329.2 20368.4 5371.2C20332.4 5413.2 20285 5445.6 20226.2 5468.4C20167.4 5490 20103.8 5500.8 20035.4 5500.8ZM21281.3 5499C21186.5 5499 21101.9 5478 21027.5 5436C20954.3 5392.8 20896.7 5333.4 20854.7 5257.8C20812.7 5182.2 20791.7 5095.8 20791.7 4998.6C20791.7 4900.2 20811.5 4813.8 20851.1 4739.4C20890.7 4663.8 20945.3 4604.4 21014.9 4561.2C21084.5 4518 21164.3 4496.4 21254.3 4496.4C21343.1 4496.4 21421.7 4517.4 21490.1 4559.4C21558.5 4600.2 21611.9 4657.2 21650.3 4730.4C21688.7 4802.4 21707.9 4885.8 21707.9 4980.6C21707.9 4996.2 21703.1 5008.8 21693.5 5018.4C21683.9 5026.8 21671.3 5031 21655.7 5031H20863.7V4937.4H21684.5L21605.3 4996.8C21607.7 4918.8 21594.5 4849.8 21565.7 4789.8C21536.9 4729.8 21495.5 4683 21441.5 4649.4C21388.7 4614.6 21326.3 4597.2 21254.3 4597.2C21185.9 4597.2 21124.7 4614.6 21070.7 4649.4C21017.9 4683 20975.9 4729.8 20944.7 4789.8C20914.7 4849.8 20899.7 4919.4 20899.7 4998.6C20899.7 5076.6 20915.9 5145.6 20948.3 5205.6C20980.7 5265.6 21025.7 5313 21083.3 5347.8C21140.9 5381.4 21206.9 5398.2 21281.3 5398.2C21328.1 5398.2 21374.9 5390.4 21421.7 5374.8C21469.7 5358 21507.5 5336.4 21535.1 5310C21544.7 5300.4 21556.1 5295.6 21569.3 5295.6C21583.7 5294.4 21595.7 5298 21605.3 5306.4C21618.5 5317.2 21625.1 5329.2 21625.1 5342.4C21626.3 5355.6 21620.9 5367.6 21608.9 5378.4C21570.5 5413.2 21520.1 5442 21457.7 5464.8C21396.5 5487.6 21337.7 5499 21281.3 5499ZM22320.5 5490C22274.9 5490 22234.1 5477.4 22198.1 5452.2C22163.3 5427 22135.7 5392.2 22115.3 5347.8C22096.1 5303.4 22086.5 5251.8 22086.5 5193V4138.2C22086.5 4121.4 22091.3 4108.2 22100.9 4098.6C22111.7 4089 22124.9 4084.2 22140.5 4084.2C22157.3 4084.2 22170.5 4089 22180.1 4098.6C22189.7 4108.2 22194.5 4121.4 22194.5 4138.2V5193C22194.5 5248.2 22205.9 5293.8 22228.7 5329.8C22252.7 5364.6 22283.3 5382 22320.5 5382H22365.5C22378.7 5382 22389.5 5386.8 22397.9 5396.4C22406.3 5406 22410.5 5419.2 22410.5 5436C22410.5 5451.6 22405.7 5464.8 22396.1 5475.6C22386.5 5485.2 22373.3 5490 22356.5 5490H22320.5Z" fill="#E8E7E7"/>
<path d="M9496.55 5492.8C9434.15 5492.8 9368.75 5481.4 9300.35 5458.6C9231.95 5435.8 9174.95 5397.4 9129.35 5343.4C9119.75 5331.4 9115.55 5318.8 9116.75 5305.6C9119.15 5291.2 9126.95 5279.2 9140.15 5269.6C9152.15 5261.2 9164.75 5258.2 9177.95 5260.6C9192.35 5263 9203.75 5269.6 9212.15 5280.4C9246.95 5321.2 9288.95 5350 9338.15 5366.8C9388.55 5382.4 9443.15 5390.2 9501.95 5390.2C9602.75 5390.2 9674.15 5372.2 9716.15 5336.2C9758.15 5300.2 9779.15 5258.2 9779.15 5210.2C9779.15 5163.4 9756.35 5125 9710.75 5095C9666.35 5063.8 9597.35 5041.6 9503.75 5028.4C9383.75 5011.6 9294.95 4979.2 9237.35 4931.2C9179.75 4883.2 9150.95 4827.4 9150.95 4763.8C9150.95 4703.8 9165.95 4653.4 9195.95 4612.6C9225.95 4570.6 9266.75 4539.4 9318.35 4519C9371.15 4497.4 9431.15 4486.6 9498.35 4486.6C9579.95 4486.6 9648.95 4501.6 9705.35 4531.6C9761.75 4560.4 9807.35 4599.4 9842.15 4648.6C9851.75 4660.6 9854.75 4673.8 9851.15 4688.2C9848.75 4701.4 9839.75 4712.2 9824.15 4720.6C9812.15 4726.6 9799.55 4728.4 9786.35 4726C9773.15 4723.6 9761.75 4716.4 9752.15 4704.4C9722.15 4666 9685.55 4637.2 9642.35 4618C9600.35 4597.6 9551.15 4587.4 9494.75 4587.4C9419.15 4587.4 9360.35 4603.6 9318.35 4636C9276.35 4668.4 9255.35 4707.4 9255.35 4753C9255.35 4784.2 9263.75 4811.8 9280.55 4835.8C9298.55 4858.6 9327.35 4878.4 9366.95 4895.2C9406.55 4910.8 9459.35 4923.4 9525.35 4933C9615.35 4945 9686.15 4965.4 9737.75 4994.2C9790.55 5023 9827.75 5056.6 9849.35 5095C9872.15 5132.2 9883.55 5172.4 9883.55 5215.6C9883.55 5272 9865.55 5321.2 9829.55 5363.2C9793.55 5405.2 9746.15 5437.6 9687.35 5460.4C9628.55 5482 9564.95 5492.8 9496.55 5492.8ZM10710 5482C10644 5480.8 10585.2 5465.8 10533.6 5437C10482 5407 10441.8 5366.2 10413 5314.6C10384.2 5261.8 10369.8 5202.4 10369.8 5136.4V4240C10369.8 4223.2 10374.6 4210 10384.2 4200.4C10395 4189.6 10408.2 4184.2 10423.8 4184.2C10440.6 4184.2 10453.8 4189.6 10463.4 4200.4C10474.2 4210 10479.6 4223.2 10479.6 4240V5136.4C10479.6 5206 10501.2 5263 10544.4 5307.4C10587.6 5350.6 10643.4 5372.2 10711.8 5372.2H10751.4C10768.2 5372.2 10781.4 5377.6 10791 5388.4C10801.8 5398 10807.2 5411.2 10807.2 5428C10807.2 5443.6 10801.8 5456.8 10791 5467.6C10781.4 5477.2 10768.2 5482 10751.4 5482H10710ZM10229.4 4630.6C10215 4630.6 10203 4626.4 10193.4 4618C10185 4608.4 10180.8 4596.4 10180.8 4582C10180.8 4567.6 10185 4556.2 10193.4 4547.8C10203 4538.2 10215 4533.4 10229.4 4533.4H10717.2C10731.6 4533.4 10743 4538.2 10751.4 4547.8C10761 4556.2 10765.8 4567.6 10765.8 4582C10765.8 4596.4 10761 4608.4 10751.4 4618C10743 4626.4 10731.6 4630.6 10717.2 4630.6H10229.4ZM11650.2 5494.6C11563.8 5494.6 11486.4 5477.2 11418 5442.4C11349.6 5406.4 11295 5354.2 11254.2 5285.8C11214.6 5217.4 11194.8 5134 11194.8 5035.6V4551.4C11194.8 4535.8 11199.6 4523.2 11209.2 4513.6C11220 4502.8 11233.2 4497.4 11248.8 4497.4C11264.4 4497.4 11277 4502.8 11286.6 4513.6C11297.4 4523.2 11302.8 4535.8 11302.8 4551.4V5035.6C11302.8 5113.6 11317.8 5179 11347.8 5231.8C11379 5283.4 11420.4 5322.4 11472 5348.8C11524.8 5374 11584.2 5386.6 11650.2 5386.6C11715 5386.6 11773.2 5374 11824.8 5348.8C11876.4 5323.6 11917.2 5290 11947.2 5248C11977.2 5204.8 11992.2 5156.2 11992.2 5102.2H12082.2C12077.4 5176.6 12055.2 5243.8 12015.6 5303.8C11976 5362.6 11924.4 5409.4 11860.8 5444.2C11798.4 5477.8 11728.2 5494.6 11650.2 5494.6ZM12046.2 5482C12030.6 5482 12017.4 5477.2 12006.6 5467.6C11997 5456.8 11992.2 5443.6 11992.2 5428V4551.4C11992.2 4534.6 11997 4521.4 12006.6 4511.8C12017.4 4502.2 12030.6 4497.4 12046.2 4497.4C12063 4497.4 12076.2 4502.2 12085.8 4511.8C12095.4 4521.4 12100.2 4534.6 12100.2 4551.4V5428C12100.2 5443.6 12095.4 5456.8 12085.8 5467.6C12076.2 5477.2 12063 5482 12046.2 5482ZM13053.9 5492.8C12957.9 5492.8 12871.5 5471.2 12794.7 5428C12719.1 5383.6 12659.1 5323.6 12614.7 5248C12571.5 5171.2 12549.9 5084.8 12549.9 4988.8C12549.9 4892.8 12571.5 4807 12614.7 4731.4C12659.1 4655.8 12719.1 4596.4 12794.7 4553.2C12871.5 4508.8 12957.9 4486.6 13053.9 4486.6C13140.3 4486.6 13217.7 4505.2 13286.1 4542.4C13355.7 4579.6 13409.7 4629.4 13448.1 4691.8V4130.2C13448.1 4113.4 13452.9 4100.2 13462.5 4090.6C13473.3 4081 13486.5 4076.2 13502.1 4076.2C13518.9 4076.2 13532.1 4081 13541.7 4090.6C13551.3 4100.2 13556.1 4113.4 13556.1 4130.2V4999.6C13554.9 5093.2 13532.1 5177.2 13487.7 5251.6C13443.3 5326 13383.3 5384.8 13307.7 5428C13233.3 5471.2 13148.7 5492.8 13053.9 5492.8ZM13053.9 5392C13129.5 5392 13196.7 5374.6 13255.5 5339.8C13315.5 5303.8 13362.3 5255.8 13395.9 5195.8C13430.7 5134.6 13448.1 5065.6 13448.1 4988.8C13448.1 4912 13430.7 4843.6 13395.9 4783.6C13362.3 4723.6 13315.5 4676.2 13255.5 4641.4C13196.7 4605.4 13129.5 4587.4 13053.9 4587.4C12979.5 4587.4 12912.3 4605.4 12852.3 4641.4C12792.3 4676.2 12744.9 4723.6 12710.1 4783.6C12675.3 4843.6 12657.9 4912 12657.9 4988.8C12657.9 5065.6 12675.3 5134.6 12710.1 5195.8C12744.9 5255.8 12792.3 5303.8 12852.3 5339.8C12912.3 5374.6 12979.5 5392 13053.9 5392ZM14150.1 5482C14134.5 5482 14121.3 5477.2 14110.5 5467.6C14100.9 5456.8 14096.1 5443.6 14096.1 5428V4551.4C14096.1 4534.6 14100.9 4521.4 14110.5 4511.8C14121.3 4502.2 14134.5 4497.4 14150.1 4497.4C14166.9 4497.4 14180.1 4502.2 14189.7 4511.8C14199.3 4521.4 14204.1 4534.6 14204.1 4551.4V5428C14204.1 5443.6 14199.3 5456.8 14189.7 5467.6C14180.1 5477.2 14166.9 5482 14150.1 5482ZM14148.3 4290.4C14125.5 4290.4 14105.7 4282.6 14088.9 4267C14073.3 4250.2 14065.5 4229.8 14065.5 4205.8C14065.5 4178.2 14073.9 4157.8 14090.7 4144.6C14108.7 4130.2 14128.5 4123 14150.1 4123C14170.5 4123 14189.1 4130.2 14205.9 4144.6C14223.9 4157.8 14232.9 4178.2 14232.9 4205.8C14232.9 4229.8 14224.5 4250.2 14207.7 4267C14192.1 4282.6 14172.3 4290.4 14148.3 4290.4ZM15194.6 5492.8C15098.6 5492.8 15012.2 5471.2 14935.4 5428C14859.8 5383.6 14799.8 5323.6 14755.4 5248C14712.2 5171.2 14690.6 5085.4 14690.6 4990.6C14690.6 4894.6 14712.2 4808.8 14755.4 4733.2C14799.8 4656.4 14859.8 4596.4 14935.4 4553.2C15012.2 4508.8 15098.6 4486.6 15194.6 4486.6C15290.6 4486.6 15376.4 4508.8 15452 4553.2C15527.6 4596.4 15587 4656.4 15630.2 4733.2C15674.6 4808.8 15696.8 4894.6 15696.8 4990.6C15696.8 5085.4 15674.6 5171.2 15630.2 5248C15587 5323.6 15527.6 5383.6 15452 5428C15376.4 5471.2 15290.6 5492.8 15194.6 5492.8ZM15194.6 5392C15270.2 5392 15337.4 5374.6 15396.2 5339.8C15456.2 5303.8 15503 5255.8 15536.6 5195.8C15571.4 5134.6 15588.8 5065.6 15588.8 4988.8C15588.8 4913.2 15571.4 4845.4 15536.6 4785.4C15503 4724.2 15456.2 4676.2 15396.2 4641.4C15337.4 4605.4 15270.2 4587.4 15194.6 4587.4C15120.2 4587.4 15053 4605.4 14993 4641.4C14933 4676.2 14885.6 4724.2 14850.8 4785.4C14816 4845.4 14798.6 4913.8 14798.6 4990.6C14798.6 5066.2 14816 5134.6 14850.8 5195.8C14885.6 5255.8 14933 5303.8 14993 5339.8C15053 5374.6 15120.2 5392 15194.6 5392Z" fill="#E8E7E7"/>
</svg>
